<?xml version="1.0" encoding="UTF-8" standalone="no"?>
<!-- Created with Inkscape (http://www.inkscape.org/) -->

<svg
   xmlns:dc="http://purl.org/dc/elements/1.1/"
   xmlns:cc="http://creativecommons.org/ns#"
   xmlns:rdf="http://www.w3.org/1999/02/22-rdf-syntax-ns#"
   xmlns:svg="http://www.w3.org/2000/svg"
   xmlns="http://www.w3.org/2000/svg"
   xmlns:sodipodi="http://sodipodi.sourceforge.net/DTD/sodipodi-0.dtd"
   xmlns:inkscape="http://www.inkscape.org/namespaces/inkscape"
   width="3000mm"
   height="3000mm"
   viewBox="0 0 10629.921 10629.921"
   id="svg2"
   version="1.1"
   inkscape:version="0.91 r13725"
   sodipodi:docname="dessin.svg">
  <defs
     id="defs4" />
  <sodipodi:namedview
     id="base"
     pagecolor="#ffffff"
     bordercolor="#666666"
     borderopacity="1.0"
     inkscape:pageopacity="0.0"
     inkscape:pageshadow="2"
     inkscape:zoom="0.0875"
     inkscape:cx="5452.8275"
     inkscape:cy="5820.7457"
     inkscape:document-units="px"
     inkscape:current-layer="g5580"
     showgrid="false"
     inkscape:window-width="1366"
     inkscape:window-height="734"
     inkscape:window-x="0"
     inkscape:window-y="16"
     inkscape:window-maximized="0" />
  <metadata
     id="metadata7">
    <rdf:RDF>
      <cc:Work
         rdf:about="">
        <dc:format>image/svg+xml</dc:format>
        <dc:type
           rdf:resource="http://purl.org/dc/dcmitype/StillImage" />
        <dc:title></dc:title>
      </cc:Work>
    </rdf:RDF>
  </metadata>
  <g
     inkscape:label="Calque 1"
     inkscape:groupmode="layer"
     id="layer1"
     transform="translate(0,9577.5591)">
    <rect
       style="opacity:1;fill:#171b2b;fill-opacity:1;fill-rule:evenodd;stroke:#119e5d;stroke-width:9.99999905;stroke-linecap:butt;stroke-linejoin:miter;stroke-miterlimit:10;stroke-dasharray:none;stroke-dashoffset:0;stroke-opacity:1"
       id="rect4136"
       width="10629.921"
       height="10619.921"
       x="-10634.921"
       y="-9572.5586"
       transform="scale(-1,1)" />
    <flowRoot
       xml:space="preserve"
       id="flowRoot4138"
       style="font-style:normal;font-variant:normal;font-weight:normal;font-stretch:normal;font-size:2040.98046875px;line-height:125%;font-family:FreeMono;-inkscape-font-specification:FreeMono;letter-spacing:0px;word-spacing:0px;fill:#000000;fill-opacity:1;stroke:none;stroke-width:1px;stroke-linecap:butt;stroke-linejoin:miter;stroke-opacity:1"
       transform="matrix(0.37848779,0,0,0.37848779,1883.0281,-1707.5537)"><flowRegion
         id="flowRegion4140"><rect
           id="rect4142"
           width="186603.92"
           height="156280.8"
           x="2000.7949"
           y="-8854.8887" /></flowRegion><flowPara
         style="font-style:normal;font-variant:normal;font-weight:900;font-stretch:normal;line-height:100%;font-family:'Circular Std Black';-inkscape-font-specification:'Circular Std Black, Heavy';fill:#f1f6f8;fill-opacity:1"
         id="flowPara4828">JDISConf</flowPara></flowRoot>    <g
       id="g5580"
       style="fill:#f1f6f8;fill-opacity:1"
       transform="matrix(0.92363763,0,0,0.92363763,4649.7893,1215.2457)">
      <path
         id="path4922"
         d="m 3768.2072,-5707.9284 c 0,13.4686 10.1014,26.9371 26.9371,26.9371 l 33.6715,0 c 13.4685,0 26.9371,-10.1014 26.9371,-26.9371 l 0,-57.2415 c 23.57,-3.3671 40.4057,-10.1014 57.2415,-16.8357 16.8357,-6.7343 26.9371,-16.8357 37.0386,-30.3043 10.1014,-10.1014 16.8357,-23.57 20.2028,-37.0386 3.3672,-13.4686 6.7343,-26.9372 6.7343,-40.4057 0,-20.2029 -3.3671,-37.0386 -10.1014,-53.8743 -6.7343,-13.4686 -16.8357,-26.9372 -30.3043,-40.4058 -13.4686,-10.1014 -26.9372,-20.2028 -43.7729,-30.3043 -16.8357,-10.1014 -37.0386,-16.8357 -57.2415,-23.57 -13.4685,-3.3671 -23.57,-10.1014 -33.6714,-13.4686 -10.1014,-3.3671 -16.8357,-6.7343 -23.57,-13.4686 -6.7343,-3.3671 -10.1014,-10.1014 -13.4686,-13.4685 -3.3671,-6.7343 -3.3671,-10.1015 -3.3671,-20.2029 0,-13.4686 3.3671,-20.2029 13.4685,-30.3043 10.1015,-6.7343 26.9372,-10.1014 47.1401,-10.1014 23.57,0 43.7728,3.3671 63.9757,6.7343 20.2029,3.3671 53.8743,16.8357 67.3429,23.57 l 6.7343,-87.5458 c -10.1014,-3.3671 -23.57,-10.1014 -40.4057,-13.4686 -16.8358,-3.3671 -37.0386,-6.7343 -60.6086,-10.1014 l 0,-47.14 c 0,-13.4686 -10.1015,-26.9372 -26.9372,-26.9372 l -33.6714,0 c -13.4686,0 -26.9372,10.1015 -26.9372,26.9372 l 0,47.14 c -20.2029,3.3671 -37.0386,10.1014 -50.5072,16.8357 -13.4685,6.7343 -26.9371,16.8357 -37.0386,30.3043 -10.1014,10.1015 -16.8357,23.57 -20.2028,37.0386 -3.3672,13.4686 -6.7343,26.9372 -6.7343,43.7729 0,20.2029 3.3671,37.0386 10.1014,50.5072 6.7343,13.4685 16.8357,26.9371 26.9372,33.6714 10.1014,10.1014 23.57,16.8357 40.4057,23.57 13.4686,6.7343 30.3043,13.4686 43.7729,16.8357 16.8357,6.7343 30.3043,10.1015 40.4057,16.8358 13.4686,3.3671 20.2029,10.1014 30.3043,13.4685 6.7343,3.3672 13.4686,10.1015 16.8357,16.8358 3.3672,6.7343 6.7343,13.4685 6.7343,23.57 0,13.4686 -6.7343,23.57 -16.8357,30.3043 -10.1014,6.7343 -20.2029,10.1014 -47.14,10.1014 -23.57,0 -57.2415,-3.3671 -80.8115,-10.1014 -23.57,-6.7343 -57.2414,-20.2029 -70.71,-30.3043 l -13.4686,87.5457 c 10.1014,3.3672 26.9372,10.1015 47.14,20.2029 20.2029,6.7343 47.1401,13.4686 80.8115,16.8357 l 0,63.9758 z"
         inkscape:connector-curvature="0"
         style="fill:#f1f6f8;fill-opacity:1" />
      <path
         id="path4924"
         d="m 2200.3219,-6873.4665 c 3.3672,10.1015 16.8358,10.1015 20.2029,0 l 171.7244,-333.3473 c 10.1014,-23.57 16.8357,-50.5071 16.8357,-80.8114 0,-111.1158 -87.5458,-198.6616 -198.6615,-198.6616 -111.1158,0 -198.6616,87.5458 -198.6616,198.6616 0,30.3043 6.7343,53.8743 16.8358,80.8114 l 171.7243,333.3473 z m 10.1015,-494.9702 c 47.14,0 84.1786,37.0386 84.1786,84.1786 0,47.14 -37.0386,84.1786 -84.1786,84.1786 -47.1401,0 -84.1786,-37.0386 -84.1786,-84.1786 0,-47.14 37.0385,-84.1786 84.1786,-84.1786 z"
         inkscape:connector-curvature="0"
         style="fill:#f1f6f8;fill-opacity:1" />
      <path
         id="path4926"
         d="m 3395.6583,-6344.8248 c 0,-57.2414 -43.7729,-101.0143 -101.0144,-101.0143 l -178.4586,0 c -57.2415,0 -101.0144,43.7729 -101.0144,101.0143 l 0,77.4444 c 0,57.2414 43.7729,101.0143 101.0144,101.0143 l 0,90.9129 c 0,3.3672 3.3671,3.3672 6.7342,3.3672 l 94.2801,-94.2801 77.4443,0 c 57.2415,0 101.0144,-43.7729 101.0144,-101.0143 l 0,-77.4444 z m -276.1059,70.7101 c -16.8357,0 -30.3043,-13.4686 -30.3043,-30.3043 0,-16.8357 13.4686,-30.3043 30.3043,-30.3043 16.8357,0 30.3043,13.4686 30.3043,30.3043 0,16.8357 -13.4686,30.3043 -30.3043,30.3043 z m 87.5458,0 c -16.8358,0 -30.3043,-13.4686 -30.3043,-30.3043 0,-16.8357 13.4685,-30.3043 30.3043,-30.3043 16.8357,0 30.3043,13.4686 30.3043,30.3043 -3.3672,16.8357 -16.8358,30.3043 -30.3043,30.3043 z m 84.1786,0 c -16.8357,0 -30.3043,-13.4686 -30.3043,-30.3043 0,-16.8357 13.4686,-30.3043 30.3043,-30.3043 16.8357,0 30.3043,13.4686 30.3043,30.3043 0,16.8357 -13.4686,30.3043 -30.3043,30.3043 z"
         inkscape:connector-curvature="0"
         style="fill:#f1f6f8;fill-opacity:1" />
      <polygon
         id="polygon4928"
         points="64.5,71.6 60.5,67.9 60.5,71.6 "
         transform="matrix(33.671446,0,0,33.671446,813.05837,-8105.8414)"
         style="fill:#f1f6f8;fill-opacity:1" />
      <path
         id="path4930"
         d="m 2806.408,-5678.1301 0,-161.623 -205.3959,0 c -3.3671,0 -6.7342,3.3672 -6.7342,6.7343 l 0,528.6417 c 0,3.3672 3.3671,6.7343 6.7342,6.7343 l 400.6902,0 c 3.3672,0 6.7343,-3.3671 6.7343,-6.7343 l 0,-353.5502 -185.1929,0 c -6.7343,0 -16.8357,-10.1014 -16.8357,-20.2028 z m 151.5215,326.613 -309.7773,0 0,-43.7729 309.7773,0 0,43.7729 z m 0,-107.7486 -309.7773,0 0,-43.7729 309.7773,0 0,43.7729 z m 0,-104.3815 -309.7773,0 0,-43.7729 309.7773,0 0,43.7729 z"
         inkscape:connector-curvature="0"
         style="fill:#f1f6f8;fill-opacity:1" />
      <path
         id="path4932"
         d="m 2846.8137,-6806.1236 10.1014,10.1015 218.8644,218.8644 c 6.7343,6.7343 16.8357,6.7343 20.2029,0 l 218.8644,-218.8644 10.1014,-10.1015 c 63.9758,-63.9757 63.9758,-168.3572 0,-228.9658 -63.9757,-63.9757 -168.3572,-63.9757 -228.9658,0 l -10.1014,10.1014 -10.1015,-10.1014 c -63.9757,-63.9757 -168.3572,-63.9757 -228.9658,0 -63.9758,63.9758 -63.9758,164.9901 0,228.9658 z"
         inkscape:connector-curvature="0"
         style="fill:#f1f6f8;fill-opacity:1" />
      <path
         id="path4934"
         d="m 3513.5083,-7136.1037 c 57.2415,-20.2029 87.5458,-84.1786 63.9758,-141.4201 -20.2029,-57.2415 -84.1786,-87.5458 -141.4201,-63.9757 -57.2415,20.2028 -87.5458,84.1786 -63.9758,141.42 20.2029,57.2415 84.1787,87.5458 141.4201,63.9758 z"
         inkscape:connector-curvature="0"
         style="fill:#f1f6f8;fill-opacity:1" />
      <path
         id="path4936"
         d="m 930.05367,-5380.2295 c -37.0386,13.4686 -57.2414,57.2414 -43.7729,94.28 13.4686,37.0386 57.2415,57.2415 94.2801,43.7729 37.03863,-13.4686 57.24143,-57.2414 43.77293,-94.28 -13.4686,-40.4058 -57.24153,-57.2415 -94.28013,-43.7729 z"
         inkscape:connector-curvature="0"
         style="fill:#f1f6f8;fill-opacity:1" />
      <path
         id="path4938"
         d="m 1072.5379,-7001.662 c -37.0386,13.4685 -57.2414,57.2414 -43.7728,94.28 13.4685,37.0386 57.2414,57.2415 94.28,43.7729 37.0386,-13.4686 57.2415,-57.2415 43.7729,-94.2801 -13.4686,-37.0386 -57.2415,-57.2414 -94.2801,-43.7728 z"
         inkscape:connector-curvature="0"
         style="fill:#f1f6f8;fill-opacity:1" />
      <path
         id="path4940"
         d="m 3349.4996,-5998.9902 c -37.0386,13.4685 -57.2414,57.2414 -43.7729,94.28 13.4686,37.0386 57.2415,57.2415 94.2801,43.7729 37.0386,-13.4686 57.2414,-57.2415 43.7729,-94.2801 -13.4686,-40.4057 -57.2415,-57.2414 -94.2801,-43.7728 z"
         inkscape:connector-curvature="0"
         style="fill:#f1f6f8;fill-opacity:1" />
      <path
         id="path4942"
         d="m 2954.4838,-7451.9 c -37.0386,13.4686 -57.2415,57.2415 -43.7729,94.2801 13.4686,37.0386 57.2415,57.2414 94.2801,43.7728 37.0385,-13.4685 57.2414,-57.2414 43.7728,-94.28 -13.4685,-37.0386 -53.8743,-57.2415 -94.28,-43.7729 z"
         inkscape:connector-curvature="0"
         style="fill:#f1f6f8;fill-opacity:1" />
      <path
         id="path4944"
         d="m 1753.285,-5294.8443 c -20.2029,-57.2414 -84.1786,-87.5458 -141.4201,-63.9757 -57.2414,20.2028 -87.5457,84.1786 -63.9757,141.42 20.2029,57.2415 84.1786,87.5458 141.4201,63.9758 57.2414,-20.2029 84.1785,-84.1786 63.9757,-141.4201 z"
         inkscape:connector-curvature="0"
         style="fill:#f1f6f8;fill-opacity:1" />
      <path
         id="path4946"
         d="m 3446.1654,-6610.8292 c 26.9372,77.4444 114.4829,114.4829 188.5601,87.5458 77.4443,-26.9372 114.4829,-114.4829 87.5458,-188.5601 -26.9372,-77.4443 -114.4829,-114.4829 -188.5601,-87.5458 -77.4443,26.9372 -117.8501,114.4829 -87.5458,188.5601 z"
         inkscape:connector-curvature="0"
         style="fill:#f1f6f8;fill-opacity:1" />
      <path
         id="path4948"
         d="m 3964.7057,-5237.0342 c -20.2029,-57.2414 -84.1786,-87.5457 -141.4201,-63.9757 -10.1014,3.3671 -16.8357,6.7343 -23.57,13.4685 l -942.8005,-777.8104 c -13.4686,13.4686 -23.57,30.3043 -37.0386,43.7729 l 942.8005,781.1776 c -13.4686,26.9371 -13.4686,57.2414 -3.3671,84.1786 20.2028,57.2414 84.1786,87.5457 141.42,63.9757 57.2415,-23.57 87.5458,-87.5457 63.9758,-144.7872 z"
         inkscape:connector-curvature="0"
         style="fill:#f1f6f8;fill-opacity:1" />
      <circle
         id="ellipse4950"
         cy="-6887.8784"
         cx="3353.678"
         transform="matrix(0.97401059,-0.22650246,0.22650246,0.97401059,0,0)"
         r="111.11456"
         style="fill:#f1f6f8;fill-opacity:1" />
      <path
         id="path4952"
         d="m 2065.6362,-5769.043 158.2557,-195.2944 c -16.8357,-10.1014 -30.3043,-20.2029 -47.14,-33.6715 l -158.2558,191.9273 c -37.0386,-20.2029 -80.8114,-26.9372 -121.2172,-10.1015 -77.4443,26.9372 -114.4829,114.483 -87.5457,188.5601 26.9371,77.4444 114.4829,114.483 188.5601,87.5458 77.4443,-26.9372 114.4829,-114.4829 87.5457,-188.5601 -3.3671,-16.8357 -10.1014,-30.3043 -20.2028,-40.4057 z"
         inkscape:connector-curvature="0"
         style="fill:#f1f6f8;fill-opacity:1" />
      <path
         id="path4954"
         d="m 2920.8909,-6361.6605 c 0,-242.4344 -195.2944,-437.7288 -437.7288,-437.7288 -242.4344,0 -437.7288,195.2944 -437.7288,437.7288 0,242.4344 195.2944,437.7288 437.7288,437.7288 242.4344,0 437.7288,-195.2944 437.7288,-437.7288 z m -437.7288,-292.9416 c 87.5457,0 158.2558,70.7101 158.2558,158.2558 0,87.5458 -70.7101,158.2558 -158.2558,158.2558 -87.5458,0 -158.2558,-70.71 -158.2558,-158.2558 0,-87.5457 70.71,-158.2558 158.2558,-158.2558 z m 0,676.7961 c -101.0144,0 -195.2944,-40.4057 -262.6373,-104.3815 26.9372,-121.2172 134.6858,-208.7629 262.6373,-208.7629 127.9515,0 235.7001,90.9129 262.6373,208.7629 -67.3429,63.9758 -161.623,104.3815 -262.6373,104.3815 z"
         inkscape:connector-curvature="0"
         style="fill:#f1f6f8;fill-opacity:1" />
      <path
         id="path4956"
         d="m 2089.2062,-6627.6649 c 10.1014,-16.8357 23.57,-30.3043 33.6714,-43.7729 l -855.2547,-707.1003 c 20.2029,-37.0386 23.57,-80.8115 10.1014,-121.2172 -26.9371,-77.4444 -114.4829,-114.483 -188.5601,-87.5458 -77.4443,26.9372 -114.48289,114.4829 -87.5457,188.5601 26.9371,77.4443 114.4829,114.4829 188.5601,87.5458 16.8357,-6.7343 30.3043,-13.4686 40.4057,-23.5701 l 858.6219,707.1004 z"
         inkscape:connector-curvature="0"
         style="fill:#f1f6f8;fill-opacity:1" />
      <path
         id="path4958"
         d="m 2601.0121,-6819.5921 161.623,-963.0034 c 10.1014,0 20.2028,-3.3671 26.9371,-6.7343 57.2415,-20.2028 87.5458,-84.1786 63.9758,-141.42 -20.2029,-57.2415 -84.1786,-87.5458 -141.4201,-63.9758 -57.2414,20.2029 -87.5457,84.1786 -63.9757,141.4201 10.1014,30.3043 33.6714,50.5071 57.2414,60.6086 l -161.6229,959.6362 c 20.2029,3.3671 37.0386,6.7343 57.2414,13.4686 z"
         inkscape:connector-curvature="0"
         style="fill:#f1f6f8;fill-opacity:1" />
      <path
         id="path4960"
         d="m 2388.882,-5896.9945 -127.9515,760.9746 c -16.8357,0 -33.6714,3.3672 -47.14,10.1015 -77.4443,26.9371 -114.4829,114.4829 -87.5457,188.5601 26.9371,77.4443 114.4829,114.4829 188.5601,87.5457 77.4443,-26.9371 114.4829,-114.4829 87.5457,-188.5601 -16.8357,-40.4057 -47.14,-70.71 -84.1786,-84.1786 l 127.9515,-760.9746 c -20.2029,-6.7343 -40.4057,-10.1015 -57.2415,-13.4686 z"
         inkscape:connector-curvature="0"
         style="fill:#f1f6f8;fill-opacity:1" />
      <path
         id="path4936-7"
         d="m 3149.0598,-5255.273 c -28.2089,10.2581 -43.5955,43.5952 -33.3378,71.8044 10.2578,28.2092 43.5956,43.596 71.8046,33.3379 28.2089,-10.2581 43.5955,-43.5952 33.3378,-71.8044 -10.2578,-30.7736 -43.5956,-43.596 -71.8046,-33.3379 z"
         inkscape:connector-curvature="0"
         style="fill:#f1f6f8;fill-opacity:1" />
      <path
         id="path4936-7-0"
         d="m 1811.3433,-6418.988 c -28.2089,10.258 -43.5955,43.595 -33.3378,71.804 10.2578,28.209 43.5956,43.596 71.8046,33.338 28.2089,-10.258 43.5955,-43.595 33.3378,-71.805 -10.2578,-30.773 -43.5956,-43.596 -71.8046,-33.337 z"
         inkscape:connector-curvature="0"
         style="fill:#f1f6f8;fill-opacity:1" />
    </g>
    <flowRoot
       xml:space="preserve"
       id="flowRoot4138-3"
       style="font-style:normal;font-variant:normal;font-weight:normal;font-stretch:normal;font-size:772.48620605px;line-height:125%;font-family:FreeMono;-inkscape-font-specification:FreeMono;letter-spacing:0px;word-spacing:0px;fill:#000000;fill-opacity:1;stroke:none;stroke-width:1px;stroke-linecap:butt;stroke-linejoin:miter;stroke-opacity:1"
       transform="matrix(0.52168036,0,0,0.52168036,5246.7624,667.67682)"><flowRegion
         id="flowRegion4140-7"><rect
           id="rect4142-9"
           width="70627.305"
           height="59150.375"
           x="-15.449721"
           y="-9620.9287" /></flowRegion><flowPara
         style="font-style:normal;font-variant:normal;font-weight:normal;font-stretch:normal;line-height:100%;font-family:'Circular Std Book';-inkscape-font-specification:'Circular Std Book, ';fill:#f1f6f8;fill-opacity:1"
         id="flowPara4828-4">2018</flowPara></flowRoot>  </g>
</svg>
