<?xml version="1.0" encoding="UTF-8" standalone="no"?>
<!-- Created with Inkscape (http://www.inkscape.org/) -->

<svg
   xmlns:dc="http://purl.org/dc/elements/1.1/"
   xmlns:cc="http://creativecommons.org/ns#"
   xmlns:rdf="http://www.w3.org/1999/02/22-rdf-syntax-ns#"
   xmlns:svg="http://www.w3.org/2000/svg"
   xmlns="http://www.w3.org/2000/svg"
   xmlns:sodipodi="http://sodipodi.sourceforge.net/DTD/sodipodi-0.dtd"
   xmlns:inkscape="http://www.inkscape.org/namespaces/inkscape"
   width="69.679985mm"
   height="68.297775mm"
   viewBox="0 0 246.89758 241.99999"
   id="svg19842"
   version="1.1"
   inkscape:version="0.91 r13725"
   sodipodi:docname="ages.svg">
  <defs
     id="defs19844" />
  <sodipodi:namedview
     id="base"
     pagecolor="#ffffff"
     bordercolor="#666666"
     borderopacity="1.0"
     inkscape:pageopacity="0.0"
     inkscape:pageshadow="2"
     inkscape:zoom="0.35"
     inkscape:cx="-147.24527"
     inkscape:cy="95.142906"
     inkscape:document-units="px"
     inkscape:current-layer="layer1"
     showgrid="false"
     fit-margin-top="0"
     fit-margin-left="0"
     fit-margin-right="0"
     fit-margin-bottom="0"
     inkscape:window-width="1366"
     inkscape:window-height="752"
     inkscape:window-x="0"
     inkscape:window-y="16"
     inkscape:window-maximized="0" />
  <metadata
     id="metadata19847">
    <rdf:RDF>
      <cc:Work
         rdf:about="">
        <dc:format>image/svg+xml</dc:format>
        <dc:type
           rdf:resource="http://purl.org/dc/dcmitype/StillImage" />
        <dc:title></dc:title>
      </cc:Work>
    </rdf:RDF>
  </metadata>
  <g
     inkscape:label="Calque 1"
     inkscape:groupmode="layer"
     id="layer1"
     transform="translate(339.18331,-385.50508)">
    <path
       style="fill:#000000"
       d="m -145.28572,626.50507 c 0,-0.55 0.675,-1 1.5,-1 0.825,0 1.5,0.45 1.5,1 0,0.55 -0.675,1 -1.5,1 -0.825,0 -1.5,-0.45 -1.5,-1 z m -5.58888,-10.71879 c -3.6267,-5.4235 -14.72161,-27.30405 -14.13994,-27.88572 0.51154,-0.51154 12.44901,19.71771 14.88408,25.2226 2.33606,5.28104 1.94421,6.68337 -0.74414,2.66312 z m -32.3522,-15.53121 c -0.69404,-3.9875 -2.38161,-11.005 -3.75015,-15.59446 l -2.48826,-8.34445 -3.38239,0.63454 c -2.20184,0.41307 -4.42189,0.097 -6.3606,-0.90554 -1.63801,-0.84705 -4.32819,-1.54009 -5.97817,-1.54009 -1.81615,0 -3.38769,-0.69057 -3.98251,-1.75 -1.46823,-2.61507 -11.99974,-2.49194 -14.21059,0.16615 -1.46378,1.75989 -1.77403,1.78987 -3.80458,0.36762 -1.67199,-1.17111 -3.11151,-1.33928 -5.90625,-0.69001 -6.9444,1.61333 -15.40165,1.07647 -19.19542,-1.21851 -1.925,-1.1645 -3.85986,-2.73781 -4.29969,-3.49626 -1.68285,-2.90191 -4.61959,-1.38812 -8.5579,4.4113 -5.89381,8.67903 -7.89651,9.65989 -3.74485,1.83412 1.98134,-3.73478 3.60244,-6.95079 3.60244,-7.14668 0,-1.34197 -20.61154,-18.44734 -24.57811,-20.39719 -2.70704,-1.33071 -5.24333,-2.90571 -5.6362,-3.5 -0.43593,-0.65943 -5.50233,-1.15025 -13,-1.25942 -18.32362,-0.26678 -17.95373,-0.21666 -13.54664,-1.83544 2.05648,-0.75537 8.11611,-1.86147 13.46585,-2.458 7.61395,-0.84901 10.22528,-1.55291 12.02165,-3.24051 2.5155,-2.36319 1.63537,-3.74346 -2.40512,-3.77186 -3.29327,-0.0231 -5.55595,-2.70859 -4.28426,-5.08476 1.04057,-1.94434 4.96283,-2.73303 4.96283,-0.99794 0,1.34172 4.03568,2.43171 5.09208,1.37531 0.521,-0.521 0.27441,-3.77925 -0.59404,-7.84933 -0.91802,-4.30241 -1.25363,-9.09616 -0.87922,-12.55855 0.4972,-4.5979 0.31708,-5.71066 -1.00663,-6.21861 -0.8867,-0.34027 -1.61219,-1.70268 -1.61219,-3.0276 0,-2.63312 -2.19756,-5.07716 -3.50234,-3.89515 -1.22973,1.11403 0.57907,-1.99436 2.37457,-4.08066 0.86242,-1.00209 1.61265,-2.80209 1.66719,-4 0.16888,-3.70904 6.35681,-9.01306 12.46058,-10.68066 5.01095,-1.36903 5.52011,-1.76916 5.72621,-4.5 0.20038,-2.65498 -0.80429,-3.85405 -8.79546,-10.49736 -4.96193,-4.125 -9.78873,-8.38234 -10.72622,-9.46075 -1.68696,-1.94055 -1.67361,-1.94172 1.29547,-0.11404 5.11289,3.14735 17.55885,11.93602 20.99395,14.82479 1.79854,1.5125 3.72174,2.75 4.27376,2.75 0.55202,0 2.29261,0.67223 3.86798,1.49384 1.57537,0.82161 4.21431,1.49493 5.86431,1.49626 l 3,0.002 -3.27039,-1.99396 c -1.79872,-1.09668 -3.78818,-3.13038 -4.42102,-4.51932 -0.97481,-2.13948 -0.81386,-2.98084 1.05337,-5.50641 1.66569,-2.25296 1.96424,-3.42906 1.22236,-4.81528 -1.51165,-2.82455 -0.23531,-6.34025 2.03964,-5.61821 1.42176,0.45127 1.87604,0.0948 1.87604,-1.47193 0,-1.52045 0.64037,-2.06739 2.42055,-2.06739 1.87325,0 2.56865,0.67436 3.07561,2.98254 0.52575,2.39372 1.13371,2.94293 3.07946,2.78189 2.73464,-0.22632 2.84286,-0.71719 1.3463,-6.10678 -0.94608,-3.40715 -0.75573,-4.45742 1.68067,-9.27286 1.51117,-2.98679 3.29076,-5.88132 3.95464,-6.43229 0.913,-0.75772 0.12701,-3.10074 -3.22625,-9.61745 -4.49267,-8.73104 -5.14145,-12.56508 -2.22033,-13.12132 2.5424,-0.48413 8.67596,3.99696 9.83525,7.18549 1.33175,3.66287 1.35928,8.29413 0.0541,9.10078 -1.60253,0.99042 -1.16002,2.22489 1,2.78975 1.73495,0.4537 2,1.36402 2,6.86893 0,5.79426 0.43006,7.08463 4.94715,14.84362 7.08689,12.17314 7.51877,12.53178 10.95413,9.09642 1.0457,-1.0457 2.78895,-2.18301 3.87387,-2.52736 3.46923,-1.10109 16.01955,-15.65616 24.15066,-28.00843 5.05382,-7.67743 12.07419,-21.28764 12.07419,-23.40791 0,-0.57034 0.44864,-1.31426 0.99698,-1.65315 0.61652,-0.38103 0.5817,0.45506 -0.0913,2.19098 -0.59848,1.54393 -3.02985,8.20715 -5.40299,14.80715 -3.79361,10.5505 -6.32052,16.90768 -9.53973,24 -2.58645,5.69827 -4.96705,12.82924 -4.45414,13.34216 0.32018,0.32017 1.45557,0.0367 2.52309,-0.63001 2.89809,-1.80989 3.35371,-1.59555 6.7953,3.19677 4.22181,5.87876 11.59946,9.58566 19.11913,9.60639 3.5542,0.01 5.0575,0.32958 4.17554,0.8882 -2.11156,1.33744 -0.36644,3.09649 3.072,3.09649 l 3.07584,0 -2.63486,2.07258 c -2.57126,2.02255 -3.7288,6.92742 -1.63486,6.92742 0.55,0 1,-0.64991 1,-1.44424 0,-0.79433 1.18115,-2.70683 2.62478,-4.25 1.44362,-1.54317 2.09717,-2.0588 1.45232,-1.14586 -0.95993,1.35904 -0.76095,1.94813 1.09773,3.25 2.8836,2.01975 3.80589,1.99872 5.35671,-0.12215 1.045,-1.42912 1.51165,-1.49679 2.82207,-0.40925 3.28792,2.72874 39.55471,-13.71398 46.01138,-20.86074 1.91762,-2.12257 4.75747,-6.59021 6.310793,-9.92808 3.32661,-7.14843 6.09752,-8.53289 3.74758,-1.87245 -3.27326,9.27739 -6.630563,13.5839 -19.320353,24.78277 -4.05094,3.575 -8.82385,7.85 -10.60647,9.5 -1.78262,1.65 -5.77359,4.97974 -8.86883,7.39943 -3.09524,2.41969 -5.69521,4.78219 -5.77771,5.25 -0.47051,2.66799 -0.11264,3.32642 2.15,3.95581 2.2206,0.61768 2.10884,0.70716 -1,0.80066 -1.925,0.0579 -5.13887,0.56047 -7.14193,1.11684 -3.1148,0.86517 -3.74003,1.53454 -4.31975,4.62468 -0.3728,1.98719 -0.30893,3.95777 0.14193,4.37906 0.45086,0.42128 3.96975,1.95431 7.81975,3.40672 3.85,1.45242 5.875,2.40067 4.5,2.10722 -7.91267,-1.6887 -21.23594,-2.70448 -22.24447,-1.69595 -1.4825,1.4825 3.59512,3.54065 26.24447,10.63785 10.175,3.18834 19.69654,6.39952 21.15898,7.13594 1.46243,0.73643 5.73743,2.21662 9.5,3.28932 3.762563,1.0727 5.815493,1.98233 4.562073,2.02139 -1.25343,0.0391 -6.203433,-1.22169 -11.000003,-2.80168 -9.09653,-2.99639 -33.52329,-7.71164 -43.51508,-8.39998 -4.98269,-0.34326 -5.70486,-0.17708 -5.15727,1.18677 0.35022,0.87225 0.89147,4.28592 1.20278,7.58592 0.35554,3.7688 1.15776,6.45172 2.15727,7.21475 1.41541,1.08051 1.29534,1.46727 -1.08661,3.5 -2.99002,2.55165 -7.02478,9.64836 -6.22302,10.94562 0.2854,0.4618 2.51736,0.83963 4.9599,0.83963 3.7146,0 4.44098,0.31444 4.44098,1.92245 0,2.46965 -4.70871,3.99954 -11.77296,3.8251 -7.04661,-0.174 -8.78366,1.47161 -7.3141,6.92912 0.58552,2.17448 2.19464,5.01522 3.57582,6.31277 2.76375,2.59641 3.29838,4.24984 1.10158,3.40685 -2.23762,-0.85865 -2.7457,2.76174 -1.1462,8.16738 l 1.46064,4.93633 -4.70239,-5.21474 c -4.72302,-5.23762 -8.50995,-7.08204 -11.08981,-5.40126 -1.04032,0.67776 -1.22775,2.24387 -0.74919,6.25995 0.80665,6.76946 1.77097,25.85605 1.30633,25.85605 -0.1919,0 -0.91677,-3.2625 -1.6108,-7.25 z m -25.27138,-66.31374 c 2.29825,-1.60976 9.21246,-11.70862 9.21246,-13.45568 0,-1.56738 -0.68269,-1.23441 -7.21584,3.51942 -3.40138,2.475 -6.7489,4.5 -7.43893,4.5 -1.60432,0 -2.56319,-5.10601 -2.16012,-11.50267 l 0.31489,-4.99733 7.57479,-4 c 14.63649,-7.72905 14.47195,-7.61452 12.51418,-8.71015 -2.42276,-1.35584 -7.51773,-0.22866 -14.33093,3.17049 -5.13658,2.56267 -5.8314,2.69286 -6.43775,1.20619 -0.62743,-1.53832 -0.68513,-1.53936 -0.75,-0.0135 -0.0387,0.90915 -1.7432,2.99506 -3.78788,4.63535 -3.2966,2.64463 -3.55931,3.17308 -2.31986,4.66652 0.78358,0.94415 2.22482,1.46788 3.28008,1.19192 1.57541,-0.41198 1.80078,-0.0564 1.38216,2.18048 -2.62502,14.02702 -1.37012,19.1727 4.67576,19.1727 1.78994,0 4.25909,-0.70368 5.48699,-1.56374 z m -22.89345,-1.88508 c 4.06674,-0.82831 7.60404,-1.71598 7.86065,-1.97259 0.25662,-0.25661 0.70339,-3.41677 0.99283,-7.02258 0.48438,-6.03441 0.3695,-6.55601 -1.44399,-6.55601 -2.64127,0 -3.40899,0.92693 -2.38656,2.88148 1.25616,2.40137 -0.3302,5.56915 -4.30847,8.60352 -4.67912,3.56894 -10.83483,4.38648 -15.22528,2.02207 -2.8727,-1.54705 -3.56359,-1.6023 -5.01129,-0.40076 -0.92357,0.76653 -3.52258,1.45919 -5.7756,1.53924 -2.25301,0.0801 -5.89638,0.88439 -8.09638,1.7874 -3.90122,1.60129 -3.62959,1.62927 11,1.13304 8.25,-0.27983 18.32734,-1.1865 22.39409,-2.01481 z m -41.69409,0.24882 c -3.32843,-3.32843 -0.19701,-8.24761 7.84406,-12.32233 5.01941,-2.54352 6.20086,-4.83275 3.75594,-7.27767 -1.76362,-1.76362 -2.23689,-1.58209 -7.3,2.8 -2.5419,2.2 -5.04427,4 -5.56082,4 -1.32198,0 -1.16903,-2.37015 0.24415,-3.78333 0.65084,-0.65084 0.9536,-1.41307 0.67282,-1.69385 -0.85212,-0.85213 -8.95481,6.60648 -9.91201,9.1241 -1.82529,4.80088 2.90109,10.21328 9.00586,10.31304 1.90556,0.0311 2.18333,-0.22663 1.25,-1.15996 z m 11.8,-4.75421 c 3.29238,-2.31487 3.84642,-5.04579 1.02366,-5.04579 -2.54382,0 -7.18014,2.2787 -8.93258,4.39026 -3.13416,3.77643 2.77368,4.2661 7.90892,0.65553 z m 26.84996,-2.05206 c 2.28252,-1.65345 4.15004,-3.67845 4.15004,-4.5 0,-1.91988 -3.2776,-1.91866 -6.99291,0.003 -1.95753,1.01228 -3.10539,1.15364 -3.5483,0.43699 -1.15867,-1.87477 2.51898,-4.69143 8.60046,-6.58697 4.86369,-1.51597 5.92518,-2.23884 5.9322,-4.03981 0.005,-1.35854 1.12167,-2.85101 2.93287,-3.92091 2.06594,-1.22038 3.24006,-2.98137 4,-5.99935 1.37022,-5.44164 1.44931,-5.05475 -1.17432,-5.74481 -2.96758,-0.78054 -19.62275,3.62504 -32.717,8.6542 l -10.46699,4.0201 3.11772,1.47652 c 3.7309,1.76693 5.3207,4.90825 6.05168,11.95771 0.43915,4.23502 0.90031,5.25 2.38536,5.25 1.59923,0 1.76211,-0.57535 1.24041,-4.38159 -1.25118,-9.12874 5.17976,-20.61881 11.54003,-20.61881 1.70433,0 3.09879,-0.45 3.09879,-1 0,-2.08909 3.09268,-0.88644 4.02475,1.5651 1.22471,3.22122 1.27046,8.4349 0.074,8.4349 -0.49568,0 -1.84124,-1.59321 -2.99015,-3.54046 -1.76631,-2.99367 -2.38428,-3.38239 -4.00136,-2.51695 -4.11826,2.20403 -8.24199,15.40018 -6.71442,21.4865 0.93143,3.71113 5.99886,3.51857 11.45711,-0.43536 z m 28.0938,-4.45588 c 5.95485,-4.00732 8.9955,-4.48611 9.76649,-1.53785 0.68993,2.63829 1.67986,2.53395 8.78975,-0.92645 5.59761,-2.72436 5.78763,-2.92535 2.83333,-2.99688 -1.74166,-0.0422 -3.34365,0.45429 -3.55997,1.10324 -0.71681,2.15044 -3.57331,0.007 -4.28023,-3.21118 -0.90512,-4.12099 0.59939,-5.62896 2.98549,-2.99236 2.20521,2.43673 6.48241,2.61226 10.68594,0.43853 4.12401,-2.13261 2.70483,-3.25821 -5.75615,-4.56541 -3.79963,-0.58703 -7.73837,-1.50687 -8.75276,-2.04409 -1.38698,-0.73454 -2.37891,-0.49269 -4,0.97525 -1.18561,1.0736 -4.29359,2.74846 -6.90662,3.7219 -6.98932,2.60377 -10.12862,5.84949 -9.36254,9.6799 0.33743,1.68715 0.61351,3.93786 0.61351,5.00157 0,1.06371 0.37947,1.69949 0.84327,1.41285 0.46379,-0.28665 3.20901,-2.1132 6.10049,-4.05902 z m 39.43988,-15.54073 c 1.989,-2.20159 3.61636,-4.90159 3.61636,-6 0,-2.39068 -3.11605,-5.71054 -6.60503,-7.03705 -3.84823,-1.4631 -4.39497,-1.20932 -4.39497,2.03993 0,3.75366 -2.63761,4.08336 -4,0.5 -1.36337,-3.58593 -5.85468,-3.3723 -9.97251,0.47432 -5.19954,4.8571 -3.97796,6.33129 6.37635,7.69487 8.64076,1.13792 11.10797,2.37696 10.11704,5.08081 -0.89243,2.43509 1.29399,1.19732 4.86276,-2.75288 z m -48.70053,-7.18462 c -0.31922,-0.79773 -0.55618,-0.56078 -0.60416,0.60417 -0.0434,1.05416 0.19292,1.64479 0.52522,1.3125 0.33229,-0.3323 0.36781,-1.1948 0.0789,-1.91667 z m 8.45769,0.20946 c 2.39756,-1.08792 6.1592,-2.00621 8.3592,-2.04064 2.98401,-0.0467 4.88899,-0.84308 7.5,-3.13538 l 3.5,-3.07277 -9.5,0.53259 c -11.53696,0.64679 -12.42645,0.9658 -14.42276,5.17272 -2.54414,5.36138 -2.14131,5.58589 4.56356,2.54348 z m 0.59879,-12.23122 c 3.04109,-2.35991 6.67524,-4.98516 8.07588,-5.8339 9.46481,-5.7353 -6.1997,-4.89975 -17.62234,0.93998 -2.49841,1.27729 -5.1228,1.94289 -6.25,1.58513 -1.50963,-0.47914 -1.94313,-0.14084 -1.94313,1.5164 0,2.96856 1.7866,6.00165 3.53518,6.00165 0.80565,0 1.46482,0.72748 1.46482,1.61663 0,1.1243 0.60908,1.45735 2,1.09362 1.53945,-0.40257 2.00524,-0.0264 2.02277,1.63337 0.0188,1.77881 0.29984,1.59446 1.60517,-1.05288 0.87032,-1.76509 4.07057,-5.14009 7.11165,-7.5 z m -41.73959,-27.4722 c 0,-5.54185 -1.61009,-4.90189 -1.83068,0.72763 -0.0891,2.27308 -0.47498,4.65509 -0.85759,5.29335 -0.3826,0.63826 0.0657,0.54288 0.99631,-0.21197 1.1288,-0.91563 1.69196,-2.84912 1.69196,-5.80901 z m -53.5,129.68146 c -0.39915,-0.64585 -0.27573,-1.62426 0.27426,-2.17426 0.66667,-0.66667 1.24192,-0.60858 1.72574,0.17426 0.39915,0.64585 0.27574,1.62426 -0.27427,2.17426 -0.66666,0.66667 -1.24191,0.60858 -1.72573,-0.17426 z m 93.84508,-3.54313 c -0.32569,-0.84872 -0.28056,-1.85473 0.10029,-2.23557 1.03535,-1.03535 6.55463,-1.12316 6.55463,-0.10428 0,0.48564 -0.62686,0.88298 -1.39301,0.88298 -0.76616,0 -1.65203,0.675 -1.96862,1.5 -0.74715,1.94704 -2.5386,1.92358 -3.29329,-0.0431 z m 46.67767,-7.23737 c -2.14888,-1.74005 -2.15707,-1.83176 -0.36079,-4.03768 2.60789,-3.20259 12.89815,-3.87229 14.46666,-0.94149 0.82998,1.55083 0.58161,2.43921 -1.21726,4.35402 -2.81809,2.99972 -9.55274,3.32638 -12.88861,0.62515 z m -175.77275,-27.25066 c -3.18319,-1.27949 -2.78973,-3.63838 0.92751,-5.56064 2.98882,-1.54557 3.25606,-1.53575 4.5,0.16545 1.69603,2.31945 1.66411,2.94187 -0.24894,4.85492 -1.77174,1.77175 -2.04412,1.80016 -5.17857,0.54027 z m 241.196153,-14.05597 c -0.36954,-0.59793 -0.2103,-1.54872 0.35385,-2.11287 1.26163,-1.26163 3.2,-0.19612 3.2,1.75902 0,1.68362 -2.57364,1.93987 -3.55385,0.35385 z m -32.633653,-26.59598 c 0.72187,-0.28887 1.58437,-0.25335 1.91667,0.0789 0.33229,0.3323 -0.25834,0.56864 -1.3125,0.52522 -1.16495,-0.048 -1.4019,-0.28494 -0.60417,-0.60416 z m -173.8125,-29.31689 c 0,-0.55 0.45,-1 1,-1 0.55,0 1,0.45 1,1 0,0.55 -0.45,1 -1,1 -0.55,0 -1,-0.45 -1,-1 z m -0.1008,-4.78315 c -2.46653,-1.72763 -2.4239,-3.91554 0.0918,-4.71401 2.3814,-0.75583 4.00895,0.0789 4.00895,2.05618 0,0.79254 0.675,1.44098 1.5,1.44098 0.825,0 1.5,0.66996 1.5,1.4888 0,1.82874 -4.33888,1.66257 -7.1008,-0.27195 z m 146.1008,-13.21685 c 0,-0.55 0.45,-1 1,-1 0.55,0 1,0.45 1,1 0,0.55 -0.45,1 -1,1 -0.55,0 -1,-0.45 -1,-1 z m -8.39313,-1.53598 c -2.23603,-2.23603 -3.05858,-6.21482 -1.63855,-7.92585 1.94277,-2.3409 7.61972,-3.82901 9.91697,-2.59956 1.09077,0.58376 3.7268,1.06139 5.85784,1.06139 2.13104,0 4.74812,0.68634 5.81574,1.52521 1.82415,1.43329 1.70007,1.51785 -2.05887,1.40311 -5.96157,-0.18198 -6.5,-0.0574 -6.5,1.50359 0,1.57923 -4.29103,4.93074 -7.64463,5.97084 -1.37241,0.42564 -2.72213,0.0876 -3.7485,-0.93873 z m -109.26179,-9.00715 c -0.72717,-1.89496 -0.50967,-2.12647 2.77143,-2.94998 1.92697,-0.48363 2.78002,-0.2189 3.2512,1.00896 0.35133,0.91555 0.38576,2.07402 0.0765,2.57439 -0.92608,1.49844 -5.46185,1.02742 -6.09915,-0.63337 z m 47.73132,-0.86481 c -1.40172,-1.68898 -0.66038,-3.59206 1.39928,-3.59206 0.74671,0 1.5639,-0.5625 1.81599,-1.25 0.77916,-2.12498 2.91948,0.72374 2.54299,3.38466 -0.39786,2.812 -3.89869,3.69805 -5.75826,1.4574 z m -32.0764,-12.92539 c 0,-1.88088 0.96233,-2.61836 2.59777,-1.99078 2.12705,0.81623 1.67607,3.32411 -0.59777,3.32411 -1.1,0 -2,-0.6 -2,-1.33333 z m -58.00822,-4.17764 c -1.84992,-2.46897 -3.85485,-4.48903 -4.45539,-4.48903 -1.23919,0 -3.17624,-2.1283 -5.91626,-6.5004 -1.69071,-2.69776 -1.4557,-2.59709 2.33534,1.0004 5.4058,5.12979 12.43062,13.44724 11.8488,14.02906 -0.24695,0.24695 -1.96257,-1.57106 -3.81249,-4.04003 z m 222.008223,-3.93001 c 0,-0.85746 0.45,-1.55902 1,-1.55902 0.55,0 1,0.42344 1,0.94098 0,0.51754 -0.45,1.2191 -1,1.55902 -0.55,0.33992 -1,-0.0835 -1,-0.94098 z m -240.306153,-14.1985 c -0.79893,-0.79893 0.10419,-2.36052 1.36517,-2.36052 0.51754,0 0.94098,0.675 0.94098,1.5 0,1.54641 -1.17996,1.9867 -2.30615,0.86052 z m 155.30615,-28.86052 c 0,-0.825 0.45,-1.5 1,-1.5 0.55,0 1,0.675 1,1.5 0,0.825 -0.45,1.5 -1,1.5 -0.55,0 -1,-0.675 -1,-1.5 z"
       id="path20401"
       inkscape:connector-curvature="0" />
  </g>
</svg>
