<?xml version="1.0" encoding="UTF-8" standalone="no"?>
<!-- Created with Inkscape (http://www.inkscape.org/) -->

<svg
   xmlns:dc="http://purl.org/dc/elements/1.1/"
   xmlns:cc="http://creativecommons.org/ns#"
   xmlns:rdf="http://www.w3.org/1999/02/22-rdf-syntax-ns#"
   xmlns:svg="http://www.w3.org/2000/svg"
   xmlns="http://www.w3.org/2000/svg"
   xmlns:sodipodi="http://sodipodi.sourceforge.net/DTD/sodipodi-0.dtd"
   xmlns:inkscape="http://www.inkscape.org/namespaces/inkscape"
   width="70.247086mm"
   height="25.211193mm"
   viewBox="0 0 248.907 89.330999"
   id="svg16704"
   version="1.1"
   inkscape:version="0.91 r13725"
   sodipodi:docname="coveo.svg">
  <defs
     id="defs16706" />
  <sodipodi:namedview
     id="base"
     pagecolor="#ffffff"
     bordercolor="#666666"
     borderopacity="1.0"
     inkscape:pageopacity="0.0"
     inkscape:pageshadow="2"
     inkscape:zoom="1.4"
     inkscape:cx="116.66888"
     inkscape:cy="-61.608156"
     inkscape:document-units="px"
     inkscape:current-layer="g5343"
     showgrid="false"
     fit-margin-top="0"
     fit-margin-left="0"
     fit-margin-right="0"
     fit-margin-bottom="0"
     inkscape:window-width="1366"
     inkscape:window-height="752"
     inkscape:window-x="0"
     inkscape:window-y="16"
     inkscape:window-maximized="0" />
  <metadata
     id="metadata16709">
    <rdf:RDF>
      <cc:Work
         rdf:about="">
        <dc:format>image/svg+xml</dc:format>
        <dc:type
           rdf:resource="http://purl.org/dc/dcmitype/StillImage" />
        <dc:title></dc:title>
      </cc:Work>
    </rdf:RDF>
  </metadata>
  <g
     inkscape:label="Calque 1"
     inkscape:groupmode="layer"
     id="layer1"
     transform="translate(395.88207,112.30329)">
    <g
       id="g5343"
       transform="matrix(0.69071606,0,0,0.69071606,-239.85298,-271.55054)">
      <g
         transform="matrix(0.43485159,0,0,-0.43485156,-0.56816764,230.55385)"
         id="g20">
        <path
           inkscape:connector-curvature="0"
           id="path22"
           style="fill:#fc6200;fill-opacity:1;fill-rule:nonzero;stroke:none"
           d="m 0,0 c 0,0 0,-131.489 0.334,-131.489 0.89,0 113.801,64.298 113.468,64.632 C 113.468,-66.523 1.891,-1.335 1.224,-0.89 L 0,0 Z" />
      </g>
      <path
         inkscape:connector-curvature="0"
         id="path26"
         style="fill:#01478f;fill-opacity:1;fill-rule:nonzero;stroke:none"
         d="m 102.71048,306.93657 c 1.69331,0 3.33792,0.19351 4.59551,0.53225 11.12612,2.9022 17.89849,14.41533 15.04456,25.49318 -1.88682,7.35247 -7.73992,13.25428 -14.89932,15.04413 -3.7732,0.96754 -7.594678,0.8223 -11.319618,-0.43529 -7.01416,-2.37038 -12.23846,-8.22391 -13.78653,-15.62509 -0.43529,-2.12816 -0.43529,-6.19185 0,-8.36872 1.69287,-8.07824 7.78819,-14.36706 15.76989,-16.25345 1.25759,-0.29004 2.902628,-0.43528 4.595508,-0.38701 m -0.29005,-11.02914 c -4.450698,0 -7.207658,0.43528 -10.980868,1.78985 -10.88433,3.82147 -18.67252,13.15773 -20.60761,24.57389 -0.53226,3.04744 -0.53226,8.36872 0,11.22265 2.46734,13.88351 13.35124,24.28385 27.37999,26.0737 2.466908,0.33875 6.578868,0.24178 9.191018,-0.14524 7.1594,-1.06408 12.86726,-3.96628 17.94676,-9.09405 4.59552,-4.59551 7.06243,-9.23972 8.51396,-15.76989 0.72534,-3.28965 0.82231,-9.72328 0.14524,-12.96467 -1.74158,-8.61049 -6.5793,-15.86643 -13.64173,-20.51064 -5.56305,-3.67624 -10.88433,-5.22387 -17.94676,-5.1756 m -227.45521,11.02914 c 5.12777,0 10.20684,2.03162 14.17356,5.99834 8.22391,8.22348 8.22391,21.57473 0,29.79864 -2.7087,2.70869 -6.38537,4.74032 -9.86809,5.46608 -0.91928,0.19351 -2.46735,0.43529 -3.48316,0.48399 -8.85227,0.5801 -17.46277,-5.36954 -20.36541,-14.07701 -2.66042,-7.9817 -0.67706,-16.06038 5.36955,-21.91348 3.96672,-3.91845 9.04579,-5.80483 14.17355,-5.75656 m -0.19351,-11.02914 c -2.2734,0 -4.49853,0.1448 -5.99834,0.43528 -6.57887,1.30586 -12.14192,4.2085 -16.73743,8.80401 -4.59552,4.54724 -7.44945,10.01332 -8.75574,16.73743 -0.58053,2.90264 -0.58053,9.2393 0,12.14193 2.37037,12.23847 11.31962,21.81651 23.17107,24.81611 1.25802,0.33832 3.04787,0.67707 3.96671,0.7736 15.1898,1.88682 29.21811,-6.28839 34.394152,-20.17189 2.22514,-5.90137 2.70869,-12.91597 1.25759,-19.05911 -2.9022,-12.43241 -12.528942,-21.57516 -25.202692,-23.99381 -1.59634,-0.33875 -3.87018,-0.48355 -6.09532,-0.48355 m 149.911612,9.96505 c 6.09488,-0.14524 11.75491,2.95047 14.4636,8.27175 1.06408,2.03163 1.83812,4.20849 2.1286,5.85354 l 0.19351,0.96711 -16.83441,0 c -15.2863396,0 -16.8344096,0 -16.8344096,-0.38702 0,-0.87057 1.4998,-4.83729 2.3703696,-6.33666 1.88682,-3.19268 5.17604,-5.99877 8.36872,-7.2081 2.03206,-0.72533 4.11196,-1.11235 6.14402,-1.16062 m -0.53226,-9.96505 c -6.33709,0.1448 -12.62591,1.98335 -17.2214296,5.51435 -1.74114,1.35456 -4.25676,4.01542 -5.51435,5.85354 -5.75656,8.46525 -7.40117,22.05828 -4.01498,32.60386 3.67623,11.27136 12.335,18.38248 24.0903396,19.88185 1.78941,0.19351 8.07824,0 9.96506,-0.43528 8.32001,-1.74158 15.52811,-6.5306 20.02665,-13.39952 0.77404,-1.20932 1.40284,-2.27384 1.40284,-2.37038 0,-0.1935 -9.19103,-5.46651 -9.52978,-5.46651 -0.14524,0 -0.8223,0.871 -1.54807,1.98335 -1.64461,2.51562 -4.93382,5.80484 -6.86891,6.96589 -2.0799,1.20932 -4.49898,2.03163 -6.96589,2.37038 -7.88473,1.06408 -14.85062,-2.70869 -18.5272896,-9.96506 -0.96754,-1.88639 -1.83812,-4.93383 -2.07989,-6.72411 -0.14524,-0.7736 -0.19351,-1.78942 -0.29048,-2.22514 l -0.14525,-0.77404 22.9779996,0 22.92929,0 -0.14524,-4.01498 c -0.24178,-7.40117 -1.93509,-13.30298 -5.27301,-18.52729 -1.35413,-2.12859 -4.06326,-4.98253 -6.04662,-6.43362 -4.69204,-3.33793 -11.0774,-4.98253 -17.36623,-4.83729 l 0.14524,0 z m -56.06585,1.78985 -8.51352,18.52728 c -4.69249,10.20684 -8.61093,18.52729 -8.75574,18.52729 -0.14524,0 -1.64461,-3.14441 -3.38619,-6.96589 -1.74158,-3.82148 -5.51479,-12.04539 -8.36872,-18.33378 -2.85436,-6.28882 -5.27301,-11.46486 -5.36954,-11.5614 -0.14525,-0.14524 -3.04744,-0.14524 -6.57887,-0.14524 l -6.38537,0 10.20684,21.04247 c 5.61133,11.5614 12.33544,25.49318 15.04456,31.00796 l 4.88556,10.06203 3.14441,-6.43406 c 1.74158,-3.53143 8.22348,-16.93094 14.4636,-29.74994 6.24055,-12.81899 11.65837,-23.89683 12.04539,-24.67087 l 0.67706,-1.40283 -6.53016,0 -6.57887,0 -4.4e-4,0.097 z m -161.182092,-1.78985 c -2.3221,0 -4.69248,0.19351 -6.24055,0.43528 -13.30298,2.46692 -23.17107,11.90015 -25.97673,24.91265 -0.77404,3.62797 -0.77404,10.1103 0,13.6413 2.75739,12.3837 12.14193,21.62342 24.67087,24.23558 1.30586,0.24178 2.75739,0.53226 3.19268,0.58052 l 4.78902,0 c 5.46608,-0.14524 8.94925,-0.91927 13.88307,-3.09614 l 1.49981,-0.67706 0,-7.40118 0,-7.4016 -1.35457,1.35456 c -4.98253,4.88599 -10.9326,7.01415 -17.36623,6.33709 -7.44988,-0.8223 -13.10947,-4.69205 -16.20518,-11.12611 -3.24138,-6.67541 -2.90263,-14.85062 0.91884,-21.13944 1.25759,-2.0799 4.11196,-5.12777 5.99834,-6.43363 4.01542,-2.70913 8.70747,-3.87018 13.35125,-3.33792 5.12777,0.62879 9.23973,2.66042 13.25471,6.48233 l 1.40284,1.30586 0,-7.44944 0,-7.44988 -1.83812,-0.87057 c -2.37038,-1.06409 -5.17604,-1.93509 -7.88517,-2.46692 -1.4511,-0.29048 -3.7732,-0.43528 -6.09488,-0.43528" />
    </g>
  </g>
</svg>
