<svg xmlns="http://www.w3.org/2000/svg"
  xmlns:xlink="http://www.w3.org/1999/xlink" viewBox="0 0 500 500">
  <defs>
    <style>.a{fill:none;}.b{clip-path:url(#a);}.c{fill:#ffc300;}.d{fill-opacity:0.07;}.e{fill:#197ce3;}.f{fill:#0886f3;}</style>
    <clipPath id="a" transform="translate(0.01)">
      <rect class="a" width="500" height="500"/>
    </clipPath>
  </defs>
  <title>nexapp</title>
  <g class="b">
    <rect class="c" width="500" height="500"/>
    <path class="d" d="M11.72,11.73A4.69,4.69,0,0,0,7,7,7,7,0,0,1,0,0H2.34A4.69,4.69,0,0,0,7,4.69a7,7,0,0,1,7,7,4.69,4.69,0,0,0,4.69,4.69,7,7,0,0,1,7,7,4.69,4.69,0,0,0,4.69,4.69V30.5a7,7,0,0,1-7-7,4.69,4.69,0,0,0-4.69-4.69A7,7,0,0,1,11.72,11.73ZM41.59,9.44l9.95,10-1.65,1.65-10-10Z" transform="translate(0.01)"/>
    <rect class="d" x="59.98" y="6.52" width="1.03" height="0.86"/>
    <path class="d" d="M11.72,42.23A4.69,4.69,0,0,0,7,37.53a7,7,0,0,1-7-7H2.34A4.69,4.69,0,0,0,7,35.19a7,7,0,0,1,7,7,4.69,4.69,0,0,0,4.69,4.69,7,7,0,0,1,7,7,4.69,4.69,0,0,0,4.69,4.69V61a7,7,0,0,1-7-7,4.69,4.69,0,0,0-4.69-4.7A7,7,0,0,1,11.72,42.23Zm29.87-2.29,9.95,10-1.65,1.66-10-9.95Z" transform="translate(0.01)"/>
    <rect class="d" x="59.98" y="37.01" width="1.03" height="0.86"/>
    <path class="d" d="M11.72,72.72A4.69,4.69,0,0,0,7,68a7,7,0,0,1-7-7H2.34A4.69,4.69,0,0,0,7,65.69a7,7,0,0,1,7,7,4.69,4.69,0,0,0,4.69,4.7,7,7,0,0,1,7,7,4.69,4.69,0,0,0,4.69,4.7v2.34a7,7,0,0,1-7-7,4.69,4.69,0,0,0-4.69-4.69A7,7,0,0,1,11.72,72.72Zm29.87-2.28,9.95,10-1.65,1.66-10-10Z" transform="translate(0.01)"/>
    <rect class="d" x="59.98" y="67.51" width="1.03" height="0.86"/>
    <path class="d" d="M11.72,103.22A4.69,4.69,0,0,0,7,98.53a7,7,0,0,1-7-7H2.34A4.69,4.69,0,0,0,7,96.18a7,7,0,0,1,7,7,4.69,4.69,0,0,0,4.69,4.69,7,7,0,0,1,7,7,4.69,4.69,0,0,0,4.69,4.69V122a7,7,0,0,1-7-7,4.69,4.69,0,0,0-4.69-4.69A7,7,0,0,1,11.72,103.22Zm29.87-2.29,9.95,10-1.65,1.66-10-10Z" transform="translate(0.01)"/>
    <rect class="d" x="59.98" y="98.01" width="1.03" height="0.86"/>
    <path class="d" d="M11.72,133.72A4.69,4.69,0,0,0,7,129a7,7,0,0,1-7-7H2.34A4.69,4.69,0,0,0,7,126.68a7,7,0,0,1,7,7,4.69,4.69,0,0,0,4.69,4.69,7,7,0,0,1,7,7,4.69,4.69,0,0,0,4.69,4.69v2.35a7,7,0,0,1-7-7,4.69,4.69,0,0,0-4.69-4.69A7,7,0,0,1,11.72,133.72Zm29.87-2.29,9.95,9.95L49.89,143l-10-9.95Z" transform="translate(0.01)"/>
    <rect class="d" x="59.98" y="128.5" width="1.03" height="0.86"/>
    <path class="d" d="M11.72,164.21A4.69,4.69,0,0,0,7,159.52a7,7,0,0,1-7-7H2.34A4.69,4.69,0,0,0,7,157.18a7,7,0,0,1,7,7,4.69,4.69,0,0,0,4.69,4.7,7,7,0,0,1,7,7,4.69,4.69,0,0,0,4.69,4.7V183a7,7,0,0,1-7-7,4.69,4.69,0,0,0-4.69-4.69A7,7,0,0,1,11.72,164.21Zm29.87-2.28,9.95,9.95-1.65,1.66-10-9.95Z" transform="translate(0.01)"/>
    <rect class="d" x="59.98" y="159" width="1.03" height="0.86"/>
    <path class="d" d="M11.72,194.71A4.69,4.69,0,0,0,7,190a7,7,0,0,1-7-7H2.34A4.69,4.69,0,0,0,7,187.67a7,7,0,0,1,7,7,4.69,4.69,0,0,0,4.69,4.69,7,7,0,0,1,7,7,4.69,4.69,0,0,0,4.69,4.69v2.35a7,7,0,0,1-7-7,4.69,4.69,0,0,0-4.69-4.69A7,7,0,0,1,11.72,194.71Zm29.87-2.29,9.95,10L49.89,204l-10-10Z" transform="translate(0.01)"/>
    <rect class="d" x="59.98" y="189.5" width="1.03" height="0.86"/>
    <path class="d" d="M11.72,225.21A4.69,4.69,0,0,0,7,220.52a7,7,0,0,1-7-7H2.34A4.69,4.69,0,0,0,7,218.17a7,7,0,0,1,7,7,4.69,4.69,0,0,0,4.69,4.69,7,7,0,0,1,7,7,4.69,4.69,0,0,0,4.69,4.69V244a7,7,0,0,1-7-7,4.69,4.69,0,0,0-4.69-4.69A7,7,0,0,1,11.72,225.21Zm29.87-2.29,9.95,10-1.65,1.65-10-9.95Z" transform="translate(0.01)"/>
    <rect class="d" x="59.98" y="220" width="1.03" height="0.86"/>
    <path class="d" d="M11.72,255.71A4.69,4.69,0,0,0,7,251a7,7,0,0,1-7-7H2.34A4.69,4.69,0,0,0,7,248.67a7,7,0,0,1,7,7,4.69,4.69,0,0,0,4.69,4.69,7,7,0,0,1,7,7,4.69,4.69,0,0,0,4.69,4.69v2.34a7,7,0,0,1-7-7,4.69,4.69,0,0,0-4.69-4.7A7,7,0,0,1,11.72,255.71Zm29.87-2.29,9.95,10L49.89,265l-10-9.95Z" transform="translate(0.01)"/>
    <rect class="d" x="59.98" y="250.49" width="1.03" height="0.86"/>
    <path class="d" d="M11.72,286.2A4.69,4.69,0,0,0,7,281.51a7,7,0,0,1-7-7H2.34A4.68,4.68,0,0,0,7,279.16a7,7,0,0,1,7,7,4.68,4.68,0,0,0,4.69,4.69,7,7,0,0,1,7,7,4.69,4.69,0,0,0,4.69,4.69V305a7,7,0,0,1-7-7,4.69,4.69,0,0,0-4.69-4.69A7,7,0,0,1,11.72,286.2Zm29.87-2.28,9.95,9.95-1.65,1.66-10-10Z" transform="translate(0.01)"/>
    <rect class="d" x="59.98" y="280.99" width="1.03" height="0.86"/>
    <path class="d" d="M11.72,316.7A4.69,4.69,0,0,0,7,312a7,7,0,0,1-7-7H2.34A4.69,4.69,0,0,0,7,309.66a7,7,0,0,1,7,7,4.69,4.69,0,0,0,4.69,4.69,7,7,0,0,1,7,7,4.69,4.69,0,0,0,4.69,4.69v2.35a7,7,0,0,1-7-7,4.69,4.69,0,0,0-4.69-4.69A7,7,0,0,1,11.72,316.7Zm29.87-2.29,9.95,10L49.89,326l-10-9.95Z" transform="translate(0.01)"/>
    <rect class="d" x="59.98" y="311.49" width="1.03" height="0.86"/>
    <path class="d" d="M11.72,347.2A4.69,4.69,0,0,0,7,342.5a7,7,0,0,1-7-7H2.34A4.69,4.69,0,0,0,7,340.16a7,7,0,0,1,7,7,4.69,4.69,0,0,0,4.69,4.69,7,7,0,0,1,7,7,4.69,4.69,0,0,0,4.69,4.69V366a7,7,0,0,1-7-7,4.69,4.69,0,0,0-4.69-4.7A7,7,0,0,1,11.72,347.2Zm29.87-2.29,9.95,9.95-1.65,1.66-10-9.95Z" transform="translate(0.01)"/>
    <rect class="d" x="59.98" y="341.98" width="1.03" height="0.86"/>
    <path class="d" d="M11.72,377.69A4.69,4.69,0,0,0,7,373a7,7,0,0,1-7-7H2.34A4.69,4.69,0,0,0,7,370.66a7,7,0,0,1,7,7,4.69,4.69,0,0,0,4.69,4.7,7,7,0,0,1,7,7,4.69,4.69,0,0,0,4.69,4.7v2.34a7,7,0,0,1-7-7,4.69,4.69,0,0,0-4.69-4.69A7,7,0,0,1,11.72,377.69Zm29.87-2.28,9.95,9.95L49.89,387l-10-9.95Z" transform="translate(0.01)"/>
    <rect class="d" x="59.98" y="372.48" width="1.03" height="0.86"/>
    <path class="d" d="M11.72,408.19A4.69,4.69,0,0,0,7,403.5a7,7,0,0,1-7-7H2.34A4.69,4.69,0,0,0,7,401.15a7,7,0,0,1,7,7,4.69,4.69,0,0,0,4.69,4.69,7,7,0,0,1,7,7,4.69,4.69,0,0,0,4.69,4.69V427a7,7,0,0,1-7-7,4.69,4.69,0,0,0-4.69-4.69A7,7,0,0,1,11.72,408.19Zm29.87-2.29,9.95,10-1.65,1.66-10-10Z" transform="translate(0.01)"/>
    <rect class="d" x="59.98" y="402.98" width="1.03" height="0.86"/>
    <path class="d" d="M11.72,438.69A4.69,4.69,0,0,0,7,434a7,7,0,0,1-7-7H2.34A4.69,4.69,0,0,0,7,431.65a7,7,0,0,1,7,7,4.69,4.69,0,0,0,4.69,4.69,7,7,0,0,1,7,7,4.69,4.69,0,0,0,4.69,4.69v2.35a7,7,0,0,1-7-7,4.69,4.69,0,0,0-4.69-4.69A7,7,0,0,1,11.72,438.69Zm29.87-2.29,9.95,10L49.89,448l-10-9.95Z" transform="translate(0.01)"/>
    <rect class="d" x="59.98" y="433.47" width="1.03" height="0.86"/>
    <path class="d" d="M11.72,469.18A4.69,4.69,0,0,0,7,464.49a7,7,0,0,1-7-7H2.34A4.69,4.69,0,0,0,7,462.15a7,7,0,0,1,7,7,4.69,4.69,0,0,0,4.69,4.7,7,7,0,0,1,7,7,4.69,4.69,0,0,0,4.69,4.7V488a7,7,0,0,1-7-7,4.69,4.69,0,0,0-4.69-4.69A7,7,0,0,1,11.72,469.18Zm29.87-2.28,9.95,10-1.65,1.66-10-9.95Z" transform="translate(0.01)"/>
    <rect class="d" x="59.98" y="463.97" width="1.03" height="0.86"/>
    <path class="d" d="M11.72,499.68A4.69,4.69,0,0,0,7,495a7,7,0,0,1-7-7H2.34A4.69,4.69,0,0,0,7,492.64a7,7,0,0,1,7,7,4.69,4.69,0,0,0,4.69,4.69,7,7,0,0,1,7,7,4.69,4.69,0,0,0,4.69,4.69v2.35a7,7,0,0,1-7-7,4.69,4.69,0,0,0-4.69-4.69A7,7,0,0,1,11.72,499.68Zm29.87-2.29,9.95,10L49.89,509l-10-10Z" transform="translate(0.01)"/>
    <rect class="d" x="59.98" y="494.47" width="1.03" height="0.86"/>
    <path class="d" d="M72.73,11.73A4.69,4.69,0,0,0,68,7a7,7,0,0,1-7-7h2.35A4.69,4.69,0,0,0,68,4.69a7,7,0,0,1,7,7,4.69,4.69,0,0,0,4.69,4.69,7,7,0,0,1,7,7,4.69,4.69,0,0,0,4.69,4.69V30.5a7,7,0,0,1-7-7,4.69,4.69,0,0,0-4.69-4.69A7,7,0,0,1,72.73,11.73ZM102.6,9.44l10,10-1.65,1.65-10-10Z" transform="translate(0.01)"/>
    <rect class="d" x="120.99" y="6.52" width="1.03" height="0.86"/>
    <path class="d" d="M133.74,11.73A4.69,4.69,0,0,0,129.05,7a7,7,0,0,1-7-7h2.35a4.69,4.69,0,0,0,4.69,4.69,7,7,0,0,1,7,7,4.69,4.69,0,0,0,4.69,4.69,7,7,0,0,1,7,7,4.69,4.69,0,0,0,4.69,4.69V30.5a7,7,0,0,1-7-7,4.69,4.69,0,0,0-4.69-4.69A7,7,0,0,1,133.74,11.73Zm29.87-2.29,9.95,10-1.65,1.65-10-10Z" transform="translate(0.01)"/>
    <rect class="d" x="182" y="6.52" width="1.03" height="0.86"/>
    <path class="d" d="M194.75,11.73A4.69,4.69,0,0,0,190.06,7a7,7,0,0,1-7-7h2.35a4.69,4.69,0,0,0,4.69,4.69,7,7,0,0,1,7,7,4.69,4.69,0,0,0,4.69,4.69,7,7,0,0,1,7,7,4.69,4.69,0,0,0,4.69,4.69V30.5a7,7,0,0,1-7-7,4.69,4.69,0,0,0-4.69-4.69A7,7,0,0,1,194.75,11.73Zm29.87-2.29,9.95,10-1.65,1.65-10-10Z" transform="translate(0.01)"/>
    <rect class="d" x="243.01" y="6.52" width="1.03" height="0.86"/>
    <path class="d" d="M255.76,11.73A4.69,4.69,0,0,0,251.07,7a7,7,0,0,1-7-7h2.35a4.69,4.69,0,0,0,4.69,4.69,7,7,0,0,1,7,7,4.69,4.69,0,0,0,4.69,4.69,7,7,0,0,1,7,7,4.69,4.69,0,0,0,4.69,4.69V30.5a7,7,0,0,1-7-7,4.69,4.69,0,0,0-4.69-4.69A7,7,0,0,1,255.76,11.73Zm29.87-2.29,9.95,10-1.65,1.65-10-10Z" transform="translate(0.01)"/>
    <rect class="d" x="304.02" y="6.52" width="1.03" height="0.86"/>
    <path class="d" d="M316.77,11.73A4.69,4.69,0,0,0,312.08,7a7,7,0,0,1-7-7h2.35a4.69,4.69,0,0,0,4.69,4.69,7,7,0,0,1,7,7,4.69,4.69,0,0,0,4.69,4.69,7,7,0,0,1,7,7,4.69,4.69,0,0,0,4.69,4.69V30.5a7,7,0,0,1-7-7,4.69,4.69,0,0,0-4.69-4.69A7,7,0,0,1,316.77,11.73Zm29.87-2.29,9.95,10-1.65,1.65-10-10Z" transform="translate(0.01)"/>
    <rect class="d" x="365.03" y="6.52" width="1.03" height="0.86"/>
    <path class="d" d="M377.78,11.73A4.69,4.69,0,0,0,373.09,7a7,7,0,0,1-7-7h2.35a4.69,4.69,0,0,0,4.69,4.69,7,7,0,0,1,7,7,4.69,4.69,0,0,0,4.69,4.69,7,7,0,0,1,7,7,4.69,4.69,0,0,0,4.69,4.69V30.5a7,7,0,0,1-7-7,4.69,4.69,0,0,0-4.69-4.69A7,7,0,0,1,377.78,11.73Zm29.87-2.29,10,10L416,21.05l-10-10Z" transform="translate(0.01)"/>
    <rect class="d" x="426.04" y="6.52" width="1.03" height="0.86"/>
    <path class="d" d="M438.79,11.73A4.69,4.69,0,0,0,434.1,7a7,7,0,0,1-7-7h2.35a4.69,4.69,0,0,0,4.69,4.69,7,7,0,0,1,7,7,4.69,4.69,0,0,0,4.69,4.69,7,7,0,0,1,7,7,4.69,4.69,0,0,0,4.69,4.69V30.5a7,7,0,0,1-7-7,4.69,4.69,0,0,0-4.69-4.69A7,7,0,0,1,438.79,11.73Zm29.87-2.29,9.95,10L477,21.05l-10-10Z" transform="translate(0.01)"/>
    <rect class="d" x="487.05" y="6.52" width="1.03" height="0.86"/>
    <path class="d" d="M499.8,11.73A4.69,4.69,0,0,0,495.11,7a7,7,0,0,1-7-7h2.35a4.69,4.69,0,0,0,4.69,4.69,7,7,0,0,1,7,7,4.69,4.69,0,0,0,4.69,4.69,7,7,0,0,1,7,7,4.69,4.69,0,0,0,4.69,4.69V30.5a7,7,0,0,1-7-7,4.69,4.69,0,0,0-4.69-4.69A7,7,0,0,1,499.8,11.73Zm29.87-2.29,10,10L538,21.05l-10-10Z" transform="translate(0.01)"/>
    <rect class="d" x="548.06" y="6.52" width="1.03" height="0.86"/>
    <path class="d" d="M72.73,42.23A4.69,4.69,0,0,0,68,37.53a7,7,0,0,1-7-7h2.35A4.69,4.69,0,0,0,68,35.19a7,7,0,0,1,7,7,4.69,4.69,0,0,0,4.69,4.69,7,7,0,0,1,7,7,4.69,4.69,0,0,0,4.69,4.69V61a7,7,0,0,1-7-7,4.69,4.69,0,0,0-4.69-4.7A7,7,0,0,1,72.73,42.23Zm29.87-2.29,10,10-1.65,1.66-10-9.95Z" transform="translate(0.01)"/>
    <rect class="d" x="120.99" y="37.01" width="1.03" height="0.86"/>
    <path class="d" d="M133.74,42.23a4.69,4.69,0,0,0-4.69-4.7,7,7,0,0,1-7-7h2.35a4.69,4.69,0,0,0,4.69,4.69,7,7,0,0,1,7,7,4.69,4.69,0,0,0,4.69,4.69,7,7,0,0,1,7,7,4.69,4.69,0,0,0,4.69,4.69V61a7,7,0,0,1-7-7,4.69,4.69,0,0,0-4.69-4.7A7,7,0,0,1,133.74,42.23Zm29.87-2.29,9.95,10-1.65,1.66L162,41.6Z" transform="translate(0.01)"/>
    <rect class="d" x="182" y="37.01" width="1.03" height="0.86"/>
    <path class="d" d="M194.75,42.23a4.69,4.69,0,0,0-4.69-4.7,7,7,0,0,1-7-7h2.35a4.69,4.69,0,0,0,4.69,4.69,7,7,0,0,1,7,7,4.69,4.69,0,0,0,4.69,4.69,7,7,0,0,1,7,7,4.69,4.69,0,0,0,4.69,4.69V61a7,7,0,0,1-7-7,4.69,4.69,0,0,0-4.69-4.7A7,7,0,0,1,194.75,42.23Zm29.87-2.29,9.95,10-1.65,1.66L223,41.6Z" transform="translate(0.01)"/>
    <rect class="d" x="243.01" y="37.01" width="1.03" height="0.86"/>
    <path class="d" d="M255.76,42.23a4.69,4.69,0,0,0-4.69-4.7,7,7,0,0,1-7-7h2.35a4.69,4.69,0,0,0,4.69,4.69,7,7,0,0,1,7,7,4.69,4.69,0,0,0,4.69,4.69,7,7,0,0,1,7,7,4.69,4.69,0,0,0,4.69,4.69V61a7,7,0,0,1-7-7,4.69,4.69,0,0,0-4.69-4.7A7,7,0,0,1,255.76,42.23Zm29.87-2.29,9.95,10-1.65,1.66L284,41.6Z" transform="translate(0.01)"/>
    <rect class="d" x="304.02" y="37.01" width="1.03" height="0.86"/>
    <path class="d" d="M316.77,42.23a4.69,4.69,0,0,0-4.69-4.7,7,7,0,0,1-7-7h2.35a4.69,4.69,0,0,0,4.69,4.69,7,7,0,0,1,7,7,4.69,4.69,0,0,0,4.69,4.69,7,7,0,0,1,7,7,4.69,4.69,0,0,0,4.69,4.69V61a7,7,0,0,1-7-7,4.69,4.69,0,0,0-4.69-4.7A7,7,0,0,1,316.77,42.23Zm29.87-2.29,9.95,10-1.65,1.66L345,41.6Z" transform="translate(0.01)"/>
    <rect class="d" x="365.03" y="37.01" width="1.03" height="0.86"/>
    <path class="d" d="M377.78,42.23a4.69,4.69,0,0,0-4.69-4.7,7,7,0,0,1-7-7h2.35a4.69,4.69,0,0,0,4.69,4.69,7,7,0,0,1,7,7,4.69,4.69,0,0,0,4.69,4.69,7,7,0,0,1,7,7,4.69,4.69,0,0,0,4.69,4.69V61a7,7,0,0,1-7-7,4.69,4.69,0,0,0-4.69-4.7A7,7,0,0,1,377.78,42.23Zm29.87-2.29,10,10L416,51.55,406,41.6Z" transform="translate(0.01)"/>
    <rect class="d" x="426.04" y="37.01" width="1.03" height="0.86"/>
    <path class="d" d="M438.79,42.23a4.69,4.69,0,0,0-4.69-4.7,7,7,0,0,1-7-7h2.35a4.69,4.69,0,0,0,4.69,4.69,7,7,0,0,1,7,7,4.69,4.69,0,0,0,4.69,4.69,7,7,0,0,1,7,7,4.69,4.69,0,0,0,4.69,4.69V61a7,7,0,0,1-7-7,4.69,4.69,0,0,0-4.69-4.7A7,7,0,0,1,438.79,42.23Zm29.87-2.29,9.95,10L477,51.55,467,41.6Z" transform="translate(0.01)"/>
    <rect class="d" x="487.05" y="37.01" width="1.03" height="0.86"/>
    <path class="d" d="M499.8,42.23a4.69,4.69,0,0,0-4.69-4.7,7,7,0,0,1-7-7h2.35a4.69,4.69,0,0,0,4.69,4.69,7,7,0,0,1,7,7,4.69,4.69,0,0,0,4.69,4.69,7,7,0,0,1,7,7,4.69,4.69,0,0,0,4.69,4.69V61a7,7,0,0,1-7-7,4.69,4.69,0,0,0-4.69-4.7A7,7,0,0,1,499.8,42.23Zm29.87-2.29,10,10L538,51.55,528,41.6Z" transform="translate(0.01)"/>
    <rect class="d" x="548.06" y="37.01" width="1.03" height="0.86"/>
    <path class="d" d="M72.73,72.72A4.69,4.69,0,0,0,68,68a7,7,0,0,1-7-7h2.35A4.69,4.69,0,0,0,68,65.69a7,7,0,0,1,7,7,4.69,4.69,0,0,0,4.69,4.7,7,7,0,0,1,7,7,4.69,4.69,0,0,0,4.69,4.7v2.34a7,7,0,0,1-7-7,4.69,4.69,0,0,0-4.69-4.69A7,7,0,0,1,72.73,72.72Zm29.87-2.28,10,10-1.65,1.66-10-10Z" transform="translate(0.01)"/>
    <rect class="d" x="120.99" y="67.51" width="1.03" height="0.86"/>
    <path class="d" d="M133.74,72.72A4.69,4.69,0,0,0,129.05,68a7,7,0,0,1-7-7h2.35a4.69,4.69,0,0,0,4.69,4.7,7,7,0,0,1,7,7,4.69,4.69,0,0,0,4.69,4.7,7,7,0,0,1,7,7,4.69,4.69,0,0,0,4.69,4.7v2.34a7,7,0,0,1-7-7,4.69,4.69,0,0,0-4.69-4.69A7,7,0,0,1,133.74,72.72Zm29.87-2.28,9.95,10-1.65,1.66-10-10Z" transform="translate(0.01)"/>
    <rect class="d" x="182" y="67.51" width="1.03" height="0.86"/>
    <path class="d" d="M194.75,72.72A4.69,4.69,0,0,0,190.06,68a7,7,0,0,1-7-7h2.35a4.69,4.69,0,0,0,4.69,4.7,7,7,0,0,1,7,7,4.69,4.69,0,0,0,4.69,4.7,7,7,0,0,1,7,7,4.69,4.69,0,0,0,4.69,4.7v2.34a7,7,0,0,1-7-7,4.69,4.69,0,0,0-4.69-4.69A7,7,0,0,1,194.75,72.72Zm29.87-2.28,9.95,10-1.65,1.66-10-10Z" transform="translate(0.01)"/>
    <rect class="d" x="243.01" y="67.51" width="1.03" height="0.86"/>
    <path class="d" d="M255.76,72.72A4.69,4.69,0,0,0,251.07,68a7,7,0,0,1-7-7h2.35a4.69,4.69,0,0,0,4.69,4.7,7,7,0,0,1,7,7,4.69,4.69,0,0,0,4.69,4.7,7,7,0,0,1,7,7,4.69,4.69,0,0,0,4.69,4.7v2.34a7,7,0,0,1-7-7,4.69,4.69,0,0,0-4.69-4.69A7,7,0,0,1,255.76,72.72Zm29.87-2.28,9.95,10-1.65,1.66-10-10Z" transform="translate(0.01)"/>
    <rect class="d" x="304.02" y="67.51" width="1.03" height="0.86"/>
    <path class="d" d="M316.77,72.72A4.69,4.69,0,0,0,312.08,68a7,7,0,0,1-7-7h2.35a4.69,4.69,0,0,0,4.69,4.7,7,7,0,0,1,7,7,4.69,4.69,0,0,0,4.69,4.7,7,7,0,0,1,7,7,4.69,4.69,0,0,0,4.69,4.7v2.34a7,7,0,0,1-7-7,4.69,4.69,0,0,0-4.69-4.69A7,7,0,0,1,316.77,72.72Zm29.87-2.28,9.95,10-1.65,1.66-10-10Z" transform="translate(0.01)"/>
    <rect class="d" x="365.03" y="67.51" width="1.03" height="0.86"/>
    <path class="d" d="M377.78,72.72A4.69,4.69,0,0,0,373.09,68a7,7,0,0,1-7-7h2.35a4.69,4.69,0,0,0,4.69,4.7,7,7,0,0,1,7,7,4.69,4.69,0,0,0,4.69,4.7,7,7,0,0,1,7,7,4.69,4.69,0,0,0,4.69,4.7v2.34a7,7,0,0,1-7-7,4.69,4.69,0,0,0-4.69-4.69A7,7,0,0,1,377.78,72.72Zm29.87-2.28,10,10L416,82.05l-10-10Z" transform="translate(0.01)"/>
    <rect class="d" x="426.04" y="67.51" width="1.03" height="0.86"/>
    <path class="d" d="M438.79,72.72A4.69,4.69,0,0,0,434.1,68a7,7,0,0,1-7-7h2.35a4.69,4.69,0,0,0,4.69,4.7,7,7,0,0,1,7,7,4.69,4.69,0,0,0,4.69,4.7,7,7,0,0,1,7,7,4.69,4.69,0,0,0,4.69,4.7v2.34a7,7,0,0,1-7-7,4.69,4.69,0,0,0-4.69-4.69A7,7,0,0,1,438.79,72.72Zm29.87-2.28,9.95,10L477,82.05l-10-10Z" transform="translate(0.01)"/>
    <rect class="d" x="487.05" y="67.51" width="1.03" height="0.86"/>
    <path class="d" d="M499.8,72.72A4.69,4.69,0,0,0,495.11,68a7,7,0,0,1-7-7h2.35a4.69,4.69,0,0,0,4.69,4.7,7,7,0,0,1,7,7,4.69,4.69,0,0,0,4.69,4.7,7,7,0,0,1,7,7,4.69,4.69,0,0,0,4.69,4.7v2.34a7,7,0,0,1-7-7,4.69,4.69,0,0,0-4.69-4.69A7,7,0,0,1,499.8,72.72Zm29.87-2.28,10,10L538,82.05l-10-10Z" transform="translate(0.01)"/>
    <rect class="d" x="548.06" y="67.51" width="1.03" height="0.86"/>
    <path class="d" d="M72.73,103.22A4.69,4.69,0,0,0,68,98.53a7,7,0,0,1-7-7h2.35A4.69,4.69,0,0,0,68,96.18a7,7,0,0,1,7,7,4.69,4.69,0,0,0,4.69,4.69,7,7,0,0,1,7,7,4.69,4.69,0,0,0,4.69,4.69V122a7,7,0,0,1-7-7,4.69,4.69,0,0,0-4.69-4.69A7,7,0,0,1,72.73,103.22Zm29.87-2.29,10,10-1.65,1.66-10-10Z" transform="translate(0.01)"/>
    <rect class="d" x="120.99" y="98.01" width="1.03" height="0.86"/>
    <path class="d" d="M133.74,103.22a4.69,4.69,0,0,0-4.69-4.69,7,7,0,0,1-7-7h2.35a4.69,4.69,0,0,0,4.69,4.69,7,7,0,0,1,7,7,4.69,4.69,0,0,0,4.69,4.69,7,7,0,0,1,7,7,4.69,4.69,0,0,0,4.69,4.69V122a7,7,0,0,1-7-7,4.69,4.69,0,0,0-4.69-4.69A7,7,0,0,1,133.74,103.22Zm29.87-2.29,9.95,10-1.65,1.66-10-10Z" transform="translate(0.01)"/>
    <rect class="d" x="182" y="98.01" width="1.03" height="0.86"/>
    <path class="d" d="M194.75,103.22a4.69,4.69,0,0,0-4.69-4.69,7,7,0,0,1-7-7h2.35a4.69,4.69,0,0,0,4.69,4.69,7,7,0,0,1,7,7,4.69,4.69,0,0,0,4.69,4.69,7,7,0,0,1,7,7,4.69,4.69,0,0,0,4.69,4.69V122a7,7,0,0,1-7-7,4.69,4.69,0,0,0-4.69-4.69A7,7,0,0,1,194.75,103.22Zm29.87-2.29,9.95,10-1.65,1.66-10-10Z" transform="translate(0.01)"/>
    <rect class="d" x="243.01" y="98.01" width="1.03" height="0.86"/>
    <path class="d" d="M255.76,103.22a4.69,4.69,0,0,0-4.69-4.69,7,7,0,0,1-7-7h2.35a4.69,4.69,0,0,0,4.69,4.69,7,7,0,0,1,7,7,4.69,4.69,0,0,0,4.69,4.69,7,7,0,0,1,7,7,4.69,4.69,0,0,0,4.69,4.69V122a7,7,0,0,1-7-7,4.69,4.69,0,0,0-4.69-4.69A7,7,0,0,1,255.76,103.22Zm29.87-2.29,9.95,10-1.65,1.66-10-10Z" transform="translate(0.01)"/>
    <rect class="d" x="304.02" y="98.01" width="1.03" height="0.86"/>
    <path class="d" d="M316.77,103.22a4.69,4.69,0,0,0-4.69-4.69,7,7,0,0,1-7-7h2.35a4.69,4.69,0,0,0,4.69,4.69,7,7,0,0,1,7,7,4.69,4.69,0,0,0,4.69,4.69,7,7,0,0,1,7,7,4.69,4.69,0,0,0,4.69,4.69V122a7,7,0,0,1-7-7,4.69,4.69,0,0,0-4.69-4.69A7,7,0,0,1,316.77,103.22Zm29.87-2.29,9.95,10-1.65,1.66-10-10Z" transform="translate(0.01)"/>
    <rect class="d" x="365.03" y="98.01" width="1.03" height="0.86"/>
    <path class="d" d="M377.78,103.22a4.69,4.69,0,0,0-4.69-4.69,7,7,0,0,1-7-7h2.35a4.69,4.69,0,0,0,4.69,4.69,7,7,0,0,1,7,7,4.69,4.69,0,0,0,4.69,4.69,7,7,0,0,1,7,7,4.69,4.69,0,0,0,4.69,4.69V122a7,7,0,0,1-7-7,4.69,4.69,0,0,0-4.69-4.69A7,7,0,0,1,377.78,103.22Zm29.87-2.29,10,10L416,112.55l-10-10Z" transform="translate(0.01)"/>
    <rect class="d" x="426.04" y="98.01" width="1.03" height="0.86"/>
    <path class="d" d="M438.79,103.22a4.69,4.69,0,0,0-4.69-4.69,7,7,0,0,1-7-7h2.35a4.69,4.69,0,0,0,4.69,4.69,7,7,0,0,1,7,7,4.69,4.69,0,0,0,4.69,4.69,7,7,0,0,1,7,7,4.69,4.69,0,0,0,4.69,4.69V122a7,7,0,0,1-7-7,4.69,4.69,0,0,0-4.69-4.69A7,7,0,0,1,438.79,103.22Zm29.87-2.29,9.95,10L477,112.55l-10-10Z" transform="translate(0.01)"/>
    <rect class="d" x="487.05" y="98.01" width="1.03" height="0.86"/>
    <path class="d" d="M499.8,103.22a4.69,4.69,0,0,0-4.69-4.69,7,7,0,0,1-7-7h2.35a4.69,4.69,0,0,0,4.69,4.69,7,7,0,0,1,7,7,4.69,4.69,0,0,0,4.69,4.69,7,7,0,0,1,7,7,4.69,4.69,0,0,0,4.69,4.69V122a7,7,0,0,1-7-7,4.69,4.69,0,0,0-4.69-4.69A7,7,0,0,1,499.8,103.22Zm29.87-2.29,10,10L538,112.55l-10-10Z" transform="translate(0.01)"/>
    <rect class="d" x="548.06" y="98.01" width="1.03" height="0.86"/>
    <path class="d" d="M72.73,133.72A4.69,4.69,0,0,0,68,129a7,7,0,0,1-7-7h2.35A4.69,4.69,0,0,0,68,126.68a7,7,0,0,1,7,7,4.69,4.69,0,0,0,4.69,4.69,7,7,0,0,1,7,7,4.69,4.69,0,0,0,4.69,4.69v2.35a7,7,0,0,1-7-7,4.69,4.69,0,0,0-4.69-4.69A7,7,0,0,1,72.73,133.72Zm29.87-2.29,10,9.95L110.9,143l-10-9.95Z" transform="translate(0.01)"/>
    <rect class="d" x="120.99" y="128.5" width="1.03" height="0.86"/>
    <path class="d" d="M133.74,133.72a4.69,4.69,0,0,0-4.69-4.69,7,7,0,0,1-7-7h2.35a4.69,4.69,0,0,0,4.69,4.69,7,7,0,0,1,7,7,4.69,4.69,0,0,0,4.69,4.69,7,7,0,0,1,7,7,4.69,4.69,0,0,0,4.69,4.69v2.35a7,7,0,0,1-7-7,4.69,4.69,0,0,0-4.69-4.69A7,7,0,0,1,133.74,133.72Zm29.87-2.29,9.95,9.95L171.91,143l-10-9.95Z" transform="translate(0.01)"/>
    <rect class="d" x="182" y="128.5" width="1.03" height="0.86"/>
    <path class="d" d="M194.75,133.72a4.69,4.69,0,0,0-4.69-4.69,7,7,0,0,1-7-7h2.35a4.69,4.69,0,0,0,4.69,4.69,7,7,0,0,1,7,7,4.69,4.69,0,0,0,4.69,4.69,7,7,0,0,1,7,7,4.69,4.69,0,0,0,4.69,4.69v2.35a7,7,0,0,1-7-7,4.69,4.69,0,0,0-4.69-4.69A7,7,0,0,1,194.75,133.72Zm29.87-2.29,9.95,9.95L232.92,143l-10-9.95Z" transform="translate(0.01)"/>
    <rect class="d" x="243.01" y="128.5" width="1.03" height="0.86"/>
    <path class="d" d="M255.76,133.72a4.69,4.69,0,0,0-4.69-4.69,7,7,0,0,1-7-7h2.35a4.69,4.69,0,0,0,4.69,4.69,7,7,0,0,1,7,7,4.69,4.69,0,0,0,4.69,4.69,7,7,0,0,1,7,7,4.69,4.69,0,0,0,4.69,4.69v2.35a7,7,0,0,1-7-7,4.69,4.69,0,0,0-4.69-4.69A7,7,0,0,1,255.76,133.72Zm29.87-2.29,9.95,9.95L293.93,143l-10-9.95Z" transform="translate(0.01)"/>
    <rect class="d" x="304.02" y="128.5" width="1.03" height="0.86"/>
    <path class="d" d="M316.77,133.72a4.69,4.69,0,0,0-4.69-4.69,7,7,0,0,1-7-7h2.35a4.69,4.69,0,0,0,4.69,4.69,7,7,0,0,1,7,7,4.69,4.69,0,0,0,4.69,4.69,7,7,0,0,1,7,7,4.69,4.69,0,0,0,4.69,4.69v2.35a7,7,0,0,1-7-7,4.69,4.69,0,0,0-4.69-4.69A7,7,0,0,1,316.77,133.72Zm29.87-2.29,9.95,9.95L354.94,143l-10-9.95Z" transform="translate(0.01)"/>
    <rect class="d" x="365.03" y="128.5" width="1.03" height="0.86"/>
    <path class="d" d="M377.78,133.72a4.69,4.69,0,0,0-4.69-4.69,7,7,0,0,1-7-7h2.35a4.69,4.69,0,0,0,4.69,4.69,7,7,0,0,1,7,7,4.69,4.69,0,0,0,4.69,4.69,7,7,0,0,1,7,7,4.69,4.69,0,0,0,4.69,4.69v2.35a7,7,0,0,1-7-7,4.69,4.69,0,0,0-4.69-4.69A7,7,0,0,1,377.78,133.72Zm29.87-2.29,10,9.95L416,143l-10-9.95Z" transform="translate(0.01)"/>
    <rect class="d" x="426.04" y="128.5" width="1.03" height="0.86"/>
    <path class="d" d="M438.79,133.72A4.69,4.69,0,0,0,434.1,129a7,7,0,0,1-7-7h2.35a4.69,4.69,0,0,0,4.69,4.69,7,7,0,0,1,7,7,4.69,4.69,0,0,0,4.69,4.69,7,7,0,0,1,7,7,4.69,4.69,0,0,0,4.69,4.69v2.35a7,7,0,0,1-7-7,4.69,4.69,0,0,0-4.69-4.69A7,7,0,0,1,438.79,133.72Zm29.87-2.29,9.95,9.95L477,143l-10-9.95Z" transform="translate(0.01)"/>
    <rect class="d" x="487.05" y="128.5" width="1.03" height="0.86"/>
    <path class="d" d="M499.8,133.72a4.69,4.69,0,0,0-4.69-4.69,7,7,0,0,1-7-7h2.35a4.69,4.69,0,0,0,4.69,4.69,7,7,0,0,1,7,7,4.69,4.69,0,0,0,4.69,4.69,7,7,0,0,1,7,7,4.69,4.69,0,0,0,4.69,4.69v2.35a7,7,0,0,1-7-7,4.69,4.69,0,0,0-4.69-4.69A7,7,0,0,1,499.8,133.72Zm29.87-2.29,10,9.95L538,143l-10-9.95Z" transform="translate(0.01)"/>
    <rect class="d" x="548.06" y="128.5" width="1.03" height="0.86"/>
    <path class="d" d="M72.73,164.21A4.69,4.69,0,0,0,68,159.52a7,7,0,0,1-7-7h2.35A4.69,4.69,0,0,0,68,157.18a7,7,0,0,1,7,7,4.69,4.69,0,0,0,4.69,4.7,7,7,0,0,1,7,7,4.69,4.69,0,0,0,4.69,4.7V183a7,7,0,0,1-7-7,4.69,4.69,0,0,0-4.69-4.69A7,7,0,0,1,72.73,164.21Zm29.87-2.28,10,9.95-1.65,1.66-10-9.95Z" transform="translate(0.01)"/>
    <rect class="d" x="120.99" y="159" width="1.03" height="0.86"/>
    <path class="d" d="M133.74,164.21a4.69,4.69,0,0,0-4.69-4.69,7,7,0,0,1-7-7h2.35a4.69,4.69,0,0,0,4.69,4.69,7,7,0,0,1,7,7,4.69,4.69,0,0,0,4.69,4.7,7,7,0,0,1,7,7,4.69,4.69,0,0,0,4.69,4.7V183a7,7,0,0,1-7-7,4.69,4.69,0,0,0-4.69-4.69A7,7,0,0,1,133.74,164.21Zm29.87-2.28,9.95,9.95-1.65,1.66-10-9.95Z" transform="translate(0.01)"/>
    <rect class="d" x="182" y="159" width="1.03" height="0.86"/>
    <path class="d" d="M194.75,164.21a4.69,4.69,0,0,0-4.69-4.69,7,7,0,0,1-7-7h2.35a4.69,4.69,0,0,0,4.69,4.69,7,7,0,0,1,7,7,4.69,4.69,0,0,0,4.69,4.7,7,7,0,0,1,7,7,4.69,4.69,0,0,0,4.69,4.7V183a7,7,0,0,1-7-7,4.69,4.69,0,0,0-4.69-4.69A7,7,0,0,1,194.75,164.21Zm29.87-2.28,9.95,9.95-1.65,1.66-10-9.95Z" transform="translate(0.01)"/>
    <rect class="d" x="243.01" y="159" width="1.03" height="0.86"/>
    <path class="d" d="M255.76,164.21a4.69,4.69,0,0,0-4.69-4.69,7,7,0,0,1-7-7h2.35a4.69,4.69,0,0,0,4.69,4.69,7,7,0,0,1,7,7,4.69,4.69,0,0,0,4.69,4.7,7,7,0,0,1,7,7,4.69,4.69,0,0,0,4.69,4.7V183a7,7,0,0,1-7-7,4.69,4.69,0,0,0-4.69-4.69A7,7,0,0,1,255.76,164.21Zm29.87-2.28,9.95,9.95-1.65,1.66-10-9.95Z" transform="translate(0.01)"/>
    <rect class="d" x="304.02" y="159" width="1.03" height="0.86"/>
    <path class="d" d="M316.77,164.21a4.69,4.69,0,0,0-4.69-4.69,7,7,0,0,1-7-7h2.35a4.69,4.69,0,0,0,4.69,4.69,7,7,0,0,1,7,7,4.69,4.69,0,0,0,4.69,4.7,7,7,0,0,1,7,7,4.69,4.69,0,0,0,4.69,4.7V183a7,7,0,0,1-7-7,4.69,4.69,0,0,0-4.69-4.69A7,7,0,0,1,316.77,164.21Zm29.87-2.28,9.95,9.95-1.65,1.66-10-9.95Z" transform="translate(0.01)"/>
    <rect class="d" x="365.03" y="159" width="1.03" height="0.86"/>
    <path class="d" d="M377.78,164.21a4.69,4.69,0,0,0-4.69-4.69,7,7,0,0,1-7-7h2.35a4.69,4.69,0,0,0,4.69,4.69,7,7,0,0,1,7,7,4.69,4.69,0,0,0,4.69,4.7,7,7,0,0,1,7,7,4.69,4.69,0,0,0,4.69,4.7V183a7,7,0,0,1-7-7,4.69,4.69,0,0,0-4.69-4.69A7,7,0,0,1,377.78,164.21Zm29.87-2.28,10,9.95L416,173.54l-10-9.95Z" transform="translate(0.01)"/>
    <rect class="d" x="426.04" y="159" width="1.03" height="0.86"/>
    <path class="d" d="M438.79,164.21a4.69,4.69,0,0,0-4.69-4.69,7,7,0,0,1-7-7h2.35a4.69,4.69,0,0,0,4.69,4.69,7,7,0,0,1,7,7,4.69,4.69,0,0,0,4.69,4.7,7,7,0,0,1,7,7,4.69,4.69,0,0,0,4.69,4.7V183a7,7,0,0,1-7-7,4.69,4.69,0,0,0-4.69-4.69A7,7,0,0,1,438.79,164.21Zm29.87-2.28,9.95,9.95L477,173.54l-10-9.95Z" transform="translate(0.01)"/>
    <rect class="d" x="487.05" y="159" width="1.03" height="0.86"/>
    <path class="d" d="M499.8,164.21a4.69,4.69,0,0,0-4.69-4.69,7,7,0,0,1-7-7h2.35a4.69,4.69,0,0,0,4.69,4.69,7,7,0,0,1,7,7,4.69,4.69,0,0,0,4.69,4.7,7,7,0,0,1,7,7,4.69,4.69,0,0,0,4.69,4.7V183a7,7,0,0,1-7-7,4.69,4.69,0,0,0-4.69-4.69A7,7,0,0,1,499.8,164.21Zm29.87-2.28,10,9.95L538,173.54l-10-9.95Z" transform="translate(0.01)"/>
    <rect class="d" x="548.06" y="159" width="1.03" height="0.86"/>
    <path class="d" d="M72.73,194.71A4.69,4.69,0,0,0,68,190a7,7,0,0,1-7-7h2.35A4.69,4.69,0,0,0,68,187.67a7,7,0,0,1,7,7,4.69,4.69,0,0,0,4.69,4.69,7,7,0,0,1,7,7,4.69,4.69,0,0,0,4.69,4.69v2.35a7,7,0,0,1-7-7,4.69,4.69,0,0,0-4.69-4.69A7,7,0,0,1,72.73,194.71Zm29.87-2.29,10,10L110.9,204l-10-10Z" transform="translate(0.01)"/>
    <rect class="d" x="120.99" y="189.5" width="1.03" height="0.86"/>
    <path class="d" d="M133.74,194.71a4.69,4.69,0,0,0-4.69-4.69,7,7,0,0,1-7-7h2.35a4.69,4.69,0,0,0,4.69,4.69,7,7,0,0,1,7,7,4.69,4.69,0,0,0,4.69,4.69,7,7,0,0,1,7,7,4.69,4.69,0,0,0,4.69,4.69v2.35a7,7,0,0,1-7-7,4.69,4.69,0,0,0-4.69-4.69A7,7,0,0,1,133.74,194.71Zm29.87-2.29,9.95,10L171.91,204l-10-10Z" transform="translate(0.01)"/>
    <rect class="d" x="182" y="189.5" width="1.03" height="0.86"/>
    <path class="d" d="M194.75,194.71a4.69,4.69,0,0,0-4.69-4.69,7,7,0,0,1-7-7h2.35a4.69,4.69,0,0,0,4.69,4.69,7,7,0,0,1,7,7,4.69,4.69,0,0,0,4.69,4.69,7,7,0,0,1,7,7,4.69,4.69,0,0,0,4.69,4.69v2.35a7,7,0,0,1-7-7,4.69,4.69,0,0,0-4.69-4.69A7,7,0,0,1,194.75,194.71Zm29.87-2.29,9.95,10L232.92,204l-10-10Z" transform="translate(0.01)"/>
    <rect class="d" x="243.01" y="189.5" width="1.03" height="0.86"/>
    <path class="d" d="M255.76,194.71a4.69,4.69,0,0,0-4.69-4.69,7,7,0,0,1-7-7h2.35a4.69,4.69,0,0,0,4.69,4.69,7,7,0,0,1,7,7,4.69,4.69,0,0,0,4.69,4.69,7,7,0,0,1,7,7,4.69,4.69,0,0,0,4.69,4.69v2.35a7,7,0,0,1-7-7,4.69,4.69,0,0,0-4.69-4.69A7,7,0,0,1,255.76,194.71Zm29.87-2.29,9.95,10L293.93,204l-10-10Z" transform="translate(0.01)"/>
    <rect class="d" x="304.02" y="189.5" width="1.03" height="0.86"/>
    <path class="d" d="M316.77,194.71a4.69,4.69,0,0,0-4.69-4.69,7,7,0,0,1-7-7h2.35a4.69,4.69,0,0,0,4.69,4.69,7,7,0,0,1,7,7,4.69,4.69,0,0,0,4.69,4.69,7,7,0,0,1,7,7,4.69,4.69,0,0,0,4.69,4.69v2.35a7,7,0,0,1-7-7,4.69,4.69,0,0,0-4.69-4.69A7,7,0,0,1,316.77,194.71Zm29.87-2.29,9.95,10L354.94,204l-10-10Z" transform="translate(0.01)"/>
    <rect class="d" x="365.03" y="189.5" width="1.03" height="0.86"/>
    <path class="d" d="M377.78,194.71a4.69,4.69,0,0,0-4.69-4.69,7,7,0,0,1-7-7h2.35a4.69,4.69,0,0,0,4.69,4.69,7,7,0,0,1,7,7,4.69,4.69,0,0,0,4.69,4.69,7,7,0,0,1,7,7,4.69,4.69,0,0,0,4.69,4.69v2.35a7,7,0,0,1-7-7,4.69,4.69,0,0,0-4.69-4.69A7,7,0,0,1,377.78,194.71Zm29.87-2.29,10,10L416,204l-10-10Z" transform="translate(0.01)"/>
    <rect class="d" x="426.04" y="189.5" width="1.03" height="0.86"/>
    <path class="d" d="M438.79,194.71A4.69,4.69,0,0,0,434.1,190a7,7,0,0,1-7-7h2.35a4.69,4.69,0,0,0,4.69,4.69,7,7,0,0,1,7,7,4.69,4.69,0,0,0,4.69,4.69,7,7,0,0,1,7,7,4.69,4.69,0,0,0,4.69,4.69v2.35a7,7,0,0,1-7-7,4.69,4.69,0,0,0-4.69-4.69A7,7,0,0,1,438.79,194.71Zm29.87-2.29,9.95,10L477,204l-10-10Z" transform="translate(0.01)"/>
    <rect class="d" x="487.05" y="189.5" width="1.03" height="0.86"/>
    <path class="d" d="M499.8,194.71a4.69,4.69,0,0,0-4.69-4.69,7,7,0,0,1-7-7h2.35a4.69,4.69,0,0,0,4.69,4.69,7,7,0,0,1,7,7,4.69,4.69,0,0,0,4.69,4.69,7,7,0,0,1,7,7,4.69,4.69,0,0,0,4.69,4.69v2.35a7,7,0,0,1-7-7,4.69,4.69,0,0,0-4.69-4.69A7,7,0,0,1,499.8,194.71Zm29.87-2.29,10,10L538,204l-10-10Z" transform="translate(0.01)"/>
    <rect class="d" x="548.06" y="189.5" width="1.03" height="0.86"/>
    <path class="d" d="M72.73,225.21A4.69,4.69,0,0,0,68,220.52a7,7,0,0,1-7-7h2.35A4.69,4.69,0,0,0,68,218.17a7,7,0,0,1,7,7,4.69,4.69,0,0,0,4.69,4.69,7,7,0,0,1,7,7,4.69,4.69,0,0,0,4.69,4.69V244a7,7,0,0,1-7-7,4.69,4.69,0,0,0-4.69-4.69A7,7,0,0,1,72.73,225.21Zm29.87-2.29,10,10-1.65,1.65-10-9.95Z" transform="translate(0.01)"/>
    <rect class="d" x="120.99" y="220" width="1.03" height="0.86"/>
    <path class="d" d="M133.74,225.21a4.69,4.69,0,0,0-4.69-4.69,7,7,0,0,1-7-7h2.35a4.69,4.69,0,0,0,4.69,4.69,7,7,0,0,1,7,7,4.69,4.69,0,0,0,4.69,4.69,7,7,0,0,1,7,7,4.69,4.69,0,0,0,4.69,4.69V244a7,7,0,0,1-7-7,4.69,4.69,0,0,0-4.69-4.69A7,7,0,0,1,133.74,225.21Zm29.87-2.29,9.95,10-1.65,1.65-10-9.95Z" transform="translate(0.01)"/>
    <rect class="d" x="182" y="220" width="1.03" height="0.86"/>
    <path class="d" d="M194.75,225.21a4.69,4.69,0,0,0-4.69-4.69,7,7,0,0,1-7-7h2.35a4.69,4.69,0,0,0,4.69,4.69,7,7,0,0,1,7,7,4.69,4.69,0,0,0,4.69,4.69,7,7,0,0,1,7,7,4.69,4.69,0,0,0,4.69,4.69V244a7,7,0,0,1-7-7,4.69,4.69,0,0,0-4.69-4.69A7,7,0,0,1,194.75,225.21Zm29.87-2.29,9.95,10-1.65,1.65-10-9.95Z" transform="translate(0.01)"/>
    <rect class="d" x="243.01" y="220" width="1.03" height="0.86"/>
    <path class="d" d="M255.76,225.21a4.69,4.69,0,0,0-4.69-4.69,7,7,0,0,1-7-7h2.35a4.69,4.69,0,0,0,4.69,4.69,7,7,0,0,1,7,7,4.69,4.69,0,0,0,4.69,4.69,7,7,0,0,1,7,7,4.69,4.69,0,0,0,4.69,4.69V244a7,7,0,0,1-7-7,4.69,4.69,0,0,0-4.69-4.69A7,7,0,0,1,255.76,225.21Zm29.87-2.29,9.95,10-1.65,1.65-10-9.95Z" transform="translate(0.01)"/>
    <rect class="d" x="304.02" y="220" width="1.03" height="0.86"/>
    <path class="d" d="M316.77,225.21a4.69,4.69,0,0,0-4.69-4.69,7,7,0,0,1-7-7h2.35a4.69,4.69,0,0,0,4.69,4.69,7,7,0,0,1,7,7,4.69,4.69,0,0,0,4.69,4.69,7,7,0,0,1,7,7,4.69,4.69,0,0,0,4.69,4.69V244a7,7,0,0,1-7-7,4.69,4.69,0,0,0-4.69-4.69A7,7,0,0,1,316.77,225.21Zm29.87-2.29,9.95,10-1.65,1.65-10-9.95Z" transform="translate(0.01)"/>
    <rect class="d" x="365.03" y="220" width="1.03" height="0.86"/>
    <path class="d" d="M377.78,225.21a4.69,4.69,0,0,0-4.69-4.69,7,7,0,0,1-7-7h2.35a4.69,4.69,0,0,0,4.69,4.69,7,7,0,0,1,7,7,4.69,4.69,0,0,0,4.69,4.69,7,7,0,0,1,7,7,4.69,4.69,0,0,0,4.69,4.69V244a7,7,0,0,1-7-7,4.69,4.69,0,0,0-4.69-4.69A7,7,0,0,1,377.78,225.21Zm29.87-2.29,10,10L416,234.53l-10-9.95Z" transform="translate(0.01)"/>
    <rect class="d" x="426.04" y="220" width="1.03" height="0.86"/>
    <path class="d" d="M438.79,225.21a4.69,4.69,0,0,0-4.69-4.69,7,7,0,0,1-7-7h2.35a4.69,4.69,0,0,0,4.69,4.69,7,7,0,0,1,7,7,4.69,4.69,0,0,0,4.69,4.69,7,7,0,0,1,7,7,4.69,4.69,0,0,0,4.69,4.69V244a7,7,0,0,1-7-7,4.69,4.69,0,0,0-4.69-4.69A7,7,0,0,1,438.79,225.21Zm29.87-2.29,9.95,10L477,234.53l-10-9.95Z" transform="translate(0.01)"/>
    <rect class="d" x="487.05" y="220" width="1.03" height="0.86"/>
    <path class="d" d="M499.8,225.21a4.69,4.69,0,0,0-4.69-4.69,7,7,0,0,1-7-7h2.35a4.69,4.69,0,0,0,4.69,4.69,7,7,0,0,1,7,7,4.69,4.69,0,0,0,4.69,4.69,7,7,0,0,1,7,7,4.69,4.69,0,0,0,4.69,4.69V244a7,7,0,0,1-7-7,4.69,4.69,0,0,0-4.69-4.69A7,7,0,0,1,499.8,225.21Zm29.87-2.29,10,10L538,234.53l-10-9.95Z" transform="translate(0.01)"/>
    <rect class="d" x="548.06" y="220" width="1.03" height="0.86"/>
    <path class="d" d="M72.73,255.71A4.69,4.69,0,0,0,68,251a7,7,0,0,1-7-7h2.35A4.69,4.69,0,0,0,68,248.67a7,7,0,0,1,7,7,4.69,4.69,0,0,0,4.69,4.69,7,7,0,0,1,7,7,4.69,4.69,0,0,0,4.69,4.69v2.34a7,7,0,0,1-7-7,4.69,4.69,0,0,0-4.69-4.7A7,7,0,0,1,72.73,255.71Zm29.87-2.29,10,10L110.9,265l-10-9.95Z" transform="translate(0.01)"/>
    <rect class="d" x="120.99" y="250.49" width="1.03" height="0.86"/>
    <path class="d" d="M133.74,255.71a4.69,4.69,0,0,0-4.69-4.7,7,7,0,0,1-7-7h2.35a4.69,4.69,0,0,0,4.69,4.69,7,7,0,0,1,7,7,4.69,4.69,0,0,0,4.69,4.69,7,7,0,0,1,7,7,4.69,4.69,0,0,0,4.69,4.69v2.34a7,7,0,0,1-7-7,4.69,4.69,0,0,0-4.69-4.7A7,7,0,0,1,133.74,255.71Zm29.87-2.29,9.95,10L171.91,265l-10-9.95Z" transform="translate(0.01)"/>
    <rect class="d" x="182" y="250.49" width="1.03" height="0.86"/>
    <path class="d" d="M194.75,255.71a4.69,4.69,0,0,0-4.69-4.7,7,7,0,0,1-7-7h2.35a4.69,4.69,0,0,0,4.69,4.69,7,7,0,0,1,7,7,4.69,4.69,0,0,0,4.69,4.69,7,7,0,0,1,7,7,4.69,4.69,0,0,0,4.69,4.69v2.34a7,7,0,0,1-7-7,4.69,4.69,0,0,0-4.69-4.7A7,7,0,0,1,194.75,255.71Zm29.87-2.29,9.95,10L232.92,265l-10-9.95Z" transform="translate(0.01)"/>
    <rect class="d" x="243.01" y="250.49" width="1.03" height="0.86"/>
    <path class="d" d="M255.76,255.71a4.69,4.69,0,0,0-4.69-4.7,7,7,0,0,1-7-7h2.35a4.69,4.69,0,0,0,4.69,4.69,7,7,0,0,1,7,7,4.69,4.69,0,0,0,4.69,4.69,7,7,0,0,1,7,7,4.69,4.69,0,0,0,4.69,4.69v2.34a7,7,0,0,1-7-7,4.69,4.69,0,0,0-4.69-4.7A7,7,0,0,1,255.76,255.71Zm29.87-2.29,9.95,10L293.93,265l-10-9.95Z" transform="translate(0.01)"/>
    <rect class="d" x="304.02" y="250.49" width="1.03" height="0.86"/>
    <path class="d" d="M316.77,255.71a4.69,4.69,0,0,0-4.69-4.7,7,7,0,0,1-7-7h2.35a4.69,4.69,0,0,0,4.69,4.69,7,7,0,0,1,7,7,4.69,4.69,0,0,0,4.69,4.69,7,7,0,0,1,7,7,4.69,4.69,0,0,0,4.69,4.69v2.34a7,7,0,0,1-7-7,4.69,4.69,0,0,0-4.69-4.7A7,7,0,0,1,316.77,255.71Zm29.87-2.29,9.95,10L354.94,265l-10-9.95Z" transform="translate(0.01)"/>
    <rect class="d" x="365.03" y="250.49" width="1.03" height="0.86"/>
    <path class="d" d="M377.78,255.71a4.69,4.69,0,0,0-4.69-4.7,7,7,0,0,1-7-7h2.35a4.69,4.69,0,0,0,4.69,4.69,7,7,0,0,1,7,7,4.69,4.69,0,0,0,4.69,4.69,7,7,0,0,1,7,7,4.69,4.69,0,0,0,4.69,4.69v2.34a7,7,0,0,1-7-7,4.69,4.69,0,0,0-4.69-4.7A7,7,0,0,1,377.78,255.71Zm29.87-2.29,10,10L416,265l-10-9.95Z" transform="translate(0.01)"/>
    <rect class="d" x="426.04" y="250.49" width="1.03" height="0.86"/>
    <path class="d" d="M438.79,255.71a4.69,4.69,0,0,0-4.69-4.7,7,7,0,0,1-7-7h2.35a4.69,4.69,0,0,0,4.69,4.69,7,7,0,0,1,7,7,4.69,4.69,0,0,0,4.69,4.69,7,7,0,0,1,7,7,4.69,4.69,0,0,0,4.69,4.69v2.34a7,7,0,0,1-7-7,4.69,4.69,0,0,0-4.69-4.7A7,7,0,0,1,438.79,255.71Zm29.87-2.29,9.95,10L477,265l-10-9.95Z" transform="translate(0.01)"/>
    <rect class="d" x="487.05" y="250.49" width="1.03" height="0.86"/>
    <path class="d" d="M499.8,255.71a4.69,4.69,0,0,0-4.69-4.7,7,7,0,0,1-7-7h2.35a4.69,4.69,0,0,0,4.69,4.69,7,7,0,0,1,7,7,4.69,4.69,0,0,0,4.69,4.69,7,7,0,0,1,7,7,4.69,4.69,0,0,0,4.69,4.69v2.34a7,7,0,0,1-7-7,4.69,4.69,0,0,0-4.69-4.7A7,7,0,0,1,499.8,255.71Zm29.87-2.29,10,10L538,265l-10-9.95Z" transform="translate(0.01)"/>
    <rect class="d" x="548.06" y="250.49" width="1.03" height="0.86"/>
    <path class="d" d="M72.73,286.2A4.69,4.69,0,0,0,68,281.51a7,7,0,0,1-7-7h2.35A4.68,4.68,0,0,0,68,279.16a7,7,0,0,1,7,7,4.68,4.68,0,0,0,4.69,4.69,7,7,0,0,1,7,7,4.69,4.69,0,0,0,4.69,4.69V305a7,7,0,0,1-7-7,4.69,4.69,0,0,0-4.69-4.69A7,7,0,0,1,72.73,286.2Zm29.87-2.28,10,9.95-1.65,1.66-10-10Z" transform="translate(0.01)"/>
    <rect class="d" x="120.99" y="280.99" width="1.03" height="0.86"/>
    <path class="d" d="M133.74,286.2a4.69,4.69,0,0,0-4.69-4.69,7,7,0,0,1-7-7h2.35a4.68,4.68,0,0,0,4.69,4.69,7,7,0,0,1,7,7,4.68,4.68,0,0,0,4.69,4.69,7,7,0,0,1,7,7,4.69,4.69,0,0,0,4.69,4.69V305a7,7,0,0,1-7-7,4.69,4.69,0,0,0-4.69-4.69A7,7,0,0,1,133.74,286.2Zm29.87-2.28,9.95,9.95-1.65,1.66-10-10Z" transform="translate(0.01)"/>
    <rect class="d" x="182" y="280.99" width="1.03" height="0.86"/>
    <path class="d" d="M194.75,286.2a4.69,4.69,0,0,0-4.69-4.69,7,7,0,0,1-7-7h2.35a4.68,4.68,0,0,0,4.69,4.69,7,7,0,0,1,7,7,4.68,4.68,0,0,0,4.69,4.69,7,7,0,0,1,7,7,4.69,4.69,0,0,0,4.69,4.69V305a7,7,0,0,1-7-7,4.69,4.69,0,0,0-4.69-4.69A7,7,0,0,1,194.75,286.2Zm29.87-2.28,9.95,9.95-1.65,1.66-10-10Z" transform="translate(0.01)"/>
    <rect class="d" x="243.01" y="280.99" width="1.03" height="0.86"/>
    <path class="d" d="M255.76,286.2a4.69,4.69,0,0,0-4.69-4.69,7,7,0,0,1-7-7h2.35a4.68,4.68,0,0,0,4.69,4.69,7,7,0,0,1,7,7,4.68,4.68,0,0,0,4.69,4.69,7,7,0,0,1,7,7,4.69,4.69,0,0,0,4.69,4.69V305a7,7,0,0,1-7-7,4.69,4.69,0,0,0-4.69-4.69A7,7,0,0,1,255.76,286.2Zm29.87-2.28,9.95,9.95-1.65,1.66-10-10Z" transform="translate(0.01)"/>
    <rect class="d" x="304.02" y="280.99" width="1.03" height="0.86"/>
    <path class="d" d="M316.77,286.2a4.69,4.69,0,0,0-4.69-4.69,7,7,0,0,1-7-7h2.35a4.68,4.68,0,0,0,4.69,4.69,7,7,0,0,1,7,7,4.68,4.68,0,0,0,4.69,4.69,7,7,0,0,1,7,7,4.69,4.69,0,0,0,4.69,4.69V305a7,7,0,0,1-7-7,4.69,4.69,0,0,0-4.69-4.69A7,7,0,0,1,316.77,286.2Zm29.87-2.28,9.95,9.95-1.65,1.66-10-10Z" transform="translate(0.01)"/>
    <rect class="d" x="365.03" y="280.99" width="1.03" height="0.86"/>
    <path class="d" d="M377.78,286.2a4.69,4.69,0,0,0-4.69-4.69,7,7,0,0,1-7-7h2.35a4.68,4.68,0,0,0,4.69,4.69,7,7,0,0,1,7,7,4.68,4.68,0,0,0,4.69,4.69,7,7,0,0,1,7,7,4.69,4.69,0,0,0,4.69,4.69V305a7,7,0,0,1-7-7,4.69,4.69,0,0,0-4.69-4.69A7,7,0,0,1,377.78,286.2Zm29.87-2.28,10,9.95L416,295.53l-10-10Z" transform="translate(0.01)"/>
    <rect class="d" x="426.04" y="280.99" width="1.03" height="0.86"/>
    <path class="d" d="M438.79,286.2a4.69,4.69,0,0,0-4.69-4.69,7,7,0,0,1-7-7h2.35a4.68,4.68,0,0,0,4.69,4.69,7,7,0,0,1,7,7,4.68,4.68,0,0,0,4.69,4.69,7,7,0,0,1,7,7,4.69,4.69,0,0,0,4.69,4.69V305a7,7,0,0,1-7-7,4.69,4.69,0,0,0-4.69-4.69A7,7,0,0,1,438.79,286.2Zm29.87-2.28,9.95,9.95L477,295.53l-10-10Z" transform="translate(0.01)"/>
    <rect class="d" x="487.05" y="280.99" width="1.03" height="0.86"/>
    <path class="d" d="M499.8,286.2a4.69,4.69,0,0,0-4.69-4.69,7,7,0,0,1-7-7h2.35a4.68,4.68,0,0,0,4.69,4.69,7,7,0,0,1,7,7,4.68,4.68,0,0,0,4.69,4.69,7,7,0,0,1,7,7,4.69,4.69,0,0,0,4.69,4.69V305a7,7,0,0,1-7-7,4.69,4.69,0,0,0-4.69-4.69A7,7,0,0,1,499.8,286.2Zm29.87-2.28,10,9.95L538,295.53l-10-10Z" transform="translate(0.01)"/>
    <rect class="d" x="548.06" y="280.99" width="1.03" height="0.86"/>
    <path class="d" d="M72.73,316.7A4.69,4.69,0,0,0,68,312a7,7,0,0,1-7-7h2.35A4.69,4.69,0,0,0,68,309.66a7,7,0,0,1,7,7,4.69,4.69,0,0,0,4.69,4.69,7,7,0,0,1,7,7,4.69,4.69,0,0,0,4.69,4.69v2.35a7,7,0,0,1-7-7,4.69,4.69,0,0,0-4.69-4.69A7,7,0,0,1,72.73,316.7Zm29.87-2.29,10,10L110.9,326l-10-9.95Z" transform="translate(0.01)"/>
    <rect class="d" x="120.99" y="311.49" width="1.03" height="0.86"/>
    <path class="d" d="M133.74,316.7a4.69,4.69,0,0,0-4.69-4.69,7,7,0,0,1-7-7h2.35a4.69,4.69,0,0,0,4.69,4.69,7,7,0,0,1,7,7,4.69,4.69,0,0,0,4.69,4.69,7,7,0,0,1,7,7,4.69,4.69,0,0,0,4.69,4.69v2.35a7,7,0,0,1-7-7,4.69,4.69,0,0,0-4.69-4.69A7,7,0,0,1,133.74,316.7Zm29.87-2.29,9.95,10L171.91,326l-10-9.95Z" transform="translate(0.01)"/>
    <rect class="d" x="182" y="311.49" width="1.03" height="0.86"/>
    <path class="d" d="M194.75,316.7a4.69,4.69,0,0,0-4.69-4.69,7,7,0,0,1-7-7h2.35a4.69,4.69,0,0,0,4.69,4.69,7,7,0,0,1,7,7,4.69,4.69,0,0,0,4.69,4.69,7,7,0,0,1,7,7,4.69,4.69,0,0,0,4.69,4.69v2.35a7,7,0,0,1-7-7,4.69,4.69,0,0,0-4.69-4.69A7,7,0,0,1,194.75,316.7Zm29.87-2.29,9.95,10L232.92,326l-10-9.95Z" transform="translate(0.01)"/>
    <rect class="d" x="243.01" y="311.49" width="1.03" height="0.86"/>
    <path class="d" d="M255.76,316.7a4.69,4.69,0,0,0-4.69-4.69,7,7,0,0,1-7-7h2.35a4.69,4.69,0,0,0,4.69,4.69,7,7,0,0,1,7,7,4.69,4.69,0,0,0,4.69,4.69,7,7,0,0,1,7,7,4.69,4.69,0,0,0,4.69,4.69v2.35a7,7,0,0,1-7-7,4.69,4.69,0,0,0-4.69-4.69A7,7,0,0,1,255.76,316.7Zm29.87-2.29,9.95,10L293.93,326l-10-9.95Z" transform="translate(0.01)"/>
    <rect class="d" x="304.02" y="311.49" width="1.03" height="0.86"/>
    <path class="d" d="M316.77,316.7a4.69,4.69,0,0,0-4.69-4.69,7,7,0,0,1-7-7h2.35a4.69,4.69,0,0,0,4.69,4.69,7,7,0,0,1,7,7,4.69,4.69,0,0,0,4.69,4.69,7,7,0,0,1,7,7,4.69,4.69,0,0,0,4.69,4.69v2.35a7,7,0,0,1-7-7,4.69,4.69,0,0,0-4.69-4.69A7,7,0,0,1,316.77,316.7Zm29.87-2.29,9.95,10L354.94,326l-10-9.95Z" transform="translate(0.01)"/>
    <rect class="d" x="365.03" y="311.49" width="1.03" height="0.86"/>
    <path class="d" d="M377.78,316.7a4.69,4.69,0,0,0-4.69-4.69,7,7,0,0,1-7-7h2.35a4.69,4.69,0,0,0,4.69,4.69,7,7,0,0,1,7,7,4.69,4.69,0,0,0,4.69,4.69,7,7,0,0,1,7,7,4.69,4.69,0,0,0,4.69,4.69v2.35a7,7,0,0,1-7-7,4.69,4.69,0,0,0-4.69-4.69A7,7,0,0,1,377.78,316.7Zm29.87-2.29,10,10L416,326l-10-9.95Z" transform="translate(0.01)"/>
    <rect class="d" x="426.04" y="311.49" width="1.03" height="0.86"/>
    <path class="d" d="M438.79,316.7A4.69,4.69,0,0,0,434.1,312a7,7,0,0,1-7-7h2.35a4.69,4.69,0,0,0,4.69,4.69,7,7,0,0,1,7,7,4.69,4.69,0,0,0,4.69,4.69,7,7,0,0,1,7,7,4.69,4.69,0,0,0,4.69,4.69v2.35a7,7,0,0,1-7-7,4.69,4.69,0,0,0-4.69-4.69A7,7,0,0,1,438.79,316.7Zm29.87-2.29,9.95,10L477,326l-10-9.95Z" transform="translate(0.01)"/>
    <rect class="d" x="487.05" y="311.49" width="1.03" height="0.86"/>
    <path class="d" d="M499.8,316.7a4.69,4.69,0,0,0-4.69-4.69,7,7,0,0,1-7-7h2.35a4.69,4.69,0,0,0,4.69,4.69,7,7,0,0,1,7,7,4.69,4.69,0,0,0,4.69,4.69,7,7,0,0,1,7,7,4.69,4.69,0,0,0,4.69,4.69v2.35a7,7,0,0,1-7-7,4.69,4.69,0,0,0-4.69-4.69A7,7,0,0,1,499.8,316.7Zm29.87-2.29,10,10L538,326l-10-9.95Z" transform="translate(0.01)"/>
    <rect class="d" x="548.06" y="311.49" width="1.03" height="0.86"/>
    <path class="d" d="M72.73,347.2A4.69,4.69,0,0,0,68,342.5a7,7,0,0,1-7-7h2.35A4.69,4.69,0,0,0,68,340.16a7,7,0,0,1,7,7,4.69,4.69,0,0,0,4.69,4.69,7,7,0,0,1,7,7,4.69,4.69,0,0,0,4.69,4.69V366a7,7,0,0,1-7-7,4.69,4.69,0,0,0-4.69-4.7A7,7,0,0,1,72.73,347.2Zm29.87-2.29,10,9.95-1.65,1.66-10-9.95Z" transform="translate(0.01)"/>
    <rect class="d" x="120.99" y="341.98" width="1.03" height="0.86"/>
    <path class="d" d="M133.74,347.2a4.69,4.69,0,0,0-4.69-4.7,7,7,0,0,1-7-7h2.35a4.69,4.69,0,0,0,4.69,4.69,7,7,0,0,1,7,7,4.69,4.69,0,0,0,4.69,4.69,7,7,0,0,1,7,7,4.69,4.69,0,0,0,4.69,4.69V366a7,7,0,0,1-7-7,4.69,4.69,0,0,0-4.69-4.7A7,7,0,0,1,133.74,347.2Zm29.87-2.29,9.95,9.95-1.65,1.66-10-9.95Z" transform="translate(0.01)"/>
    <rect class="d" x="182" y="341.98" width="1.03" height="0.86"/>
    <path class="d" d="M194.75,347.2a4.69,4.69,0,0,0-4.69-4.7,7,7,0,0,1-7-7h2.35a4.69,4.69,0,0,0,4.69,4.69,7,7,0,0,1,7,7,4.69,4.69,0,0,0,4.69,4.69,7,7,0,0,1,7,7,4.69,4.69,0,0,0,4.69,4.69V366a7,7,0,0,1-7-7,4.69,4.69,0,0,0-4.69-4.7A7,7,0,0,1,194.75,347.2Zm29.87-2.29,9.95,9.95-1.65,1.66-10-9.95Z" transform="translate(0.01)"/>
    <rect class="d" x="243.01" y="341.98" width="1.03" height="0.86"/>
    <path class="d" d="M255.76,347.2a4.69,4.69,0,0,0-4.69-4.7,7,7,0,0,1-7-7h2.35a4.69,4.69,0,0,0,4.69,4.69,7,7,0,0,1,7,7,4.69,4.69,0,0,0,4.69,4.69,7,7,0,0,1,7,7,4.69,4.69,0,0,0,4.69,4.69V366a7,7,0,0,1-7-7,4.69,4.69,0,0,0-4.69-4.7A7,7,0,0,1,255.76,347.2Zm29.87-2.29,9.95,9.95-1.65,1.66-10-9.95Z" transform="translate(0.01)"/>
    <rect class="d" x="304.02" y="341.98" width="1.03" height="0.86"/>
    <path class="d" d="M316.77,347.2a4.69,4.69,0,0,0-4.69-4.7,7,7,0,0,1-7-7h2.35a4.69,4.69,0,0,0,4.69,4.69,7,7,0,0,1,7,7,4.69,4.69,0,0,0,4.69,4.69,7,7,0,0,1,7,7,4.69,4.69,0,0,0,4.69,4.69V366a7,7,0,0,1-7-7,4.69,4.69,0,0,0-4.69-4.7A7,7,0,0,1,316.77,347.2Zm29.87-2.29,9.95,9.95-1.65,1.66-10-9.95Z" transform="translate(0.01)"/>
    <rect class="d" x="365.03" y="341.98" width="1.03" height="0.86"/>
    <path class="d" d="M377.78,347.2a4.69,4.69,0,0,0-4.69-4.7,7,7,0,0,1-7-7h2.35a4.69,4.69,0,0,0,4.69,4.69,7,7,0,0,1,7,7,4.69,4.69,0,0,0,4.69,4.69,7,7,0,0,1,7,7,4.69,4.69,0,0,0,4.69,4.69V366a7,7,0,0,1-7-7,4.69,4.69,0,0,0-4.69-4.7A7,7,0,0,1,377.78,347.2Zm29.87-2.29,10,9.95L416,356.52l-10-9.95Z" transform="translate(0.01)"/>
    <rect class="d" x="426.04" y="341.98" width="1.03" height="0.86"/>
    <path class="d" d="M438.79,347.2a4.69,4.69,0,0,0-4.69-4.7,7,7,0,0,1-7-7h2.35a4.69,4.69,0,0,0,4.69,4.69,7,7,0,0,1,7,7,4.69,4.69,0,0,0,4.69,4.69,7,7,0,0,1,7,7,4.69,4.69,0,0,0,4.69,4.69V366a7,7,0,0,1-7-7,4.69,4.69,0,0,0-4.69-4.7A7,7,0,0,1,438.79,347.2Zm29.87-2.29,9.95,9.95L477,356.52l-10-9.95Z" transform="translate(0.01)"/>
    <rect class="d" x="487.05" y="341.98" width="1.03" height="0.86"/>
    <path class="d" d="M499.8,347.2a4.69,4.69,0,0,0-4.69-4.7,7,7,0,0,1-7-7h2.35a4.69,4.69,0,0,0,4.69,4.69,7,7,0,0,1,7,7,4.69,4.69,0,0,0,4.69,4.69,7,7,0,0,1,7,7,4.69,4.69,0,0,0,4.69,4.69V366a7,7,0,0,1-7-7,4.69,4.69,0,0,0-4.69-4.7A7,7,0,0,1,499.8,347.2Zm29.87-2.29,10,9.95L538,356.52l-10-9.95Z" transform="translate(0.01)"/>
    <rect class="d" x="548.06" y="341.98" width="1.03" height="0.86"/>
    <path class="d" d="M72.73,377.69A4.69,4.69,0,0,0,68,373a7,7,0,0,1-7-7h2.35a4.69,4.69,0,0,0,4.69,4.7,7,7,0,0,1,7,7,4.69,4.69,0,0,0,4.69,4.7,7,7,0,0,1,7,7,4.69,4.69,0,0,0,4.69,4.7v2.34a7,7,0,0,1-7-7,4.69,4.69,0,0,0-4.69-4.69A7,7,0,0,1,72.73,377.69Zm29.87-2.28,10,9.95L110.9,387l-10-9.95Z" transform="translate(0.01)"/>
    <rect class="d" x="120.99" y="372.48" width="1.03" height="0.86"/>
    <path class="d" d="M133.74,377.69a4.69,4.69,0,0,0-4.69-4.69,7,7,0,0,1-7-7h2.35a4.69,4.69,0,0,0,4.69,4.7,7,7,0,0,1,7,7,4.69,4.69,0,0,0,4.69,4.7,7,7,0,0,1,7,7,4.69,4.69,0,0,0,4.69,4.7v2.34a7,7,0,0,1-7-7,4.69,4.69,0,0,0-4.69-4.69A7,7,0,0,1,133.74,377.69Zm29.87-2.28,9.95,9.95L171.91,387l-10-9.95Z" transform="translate(0.01)"/>
    <rect class="d" x="182" y="372.48" width="1.03" height="0.86"/>
    <path class="d" d="M194.75,377.69a4.69,4.69,0,0,0-4.69-4.69,7,7,0,0,1-7-7h2.35a4.69,4.69,0,0,0,4.69,4.7,7,7,0,0,1,7,7,4.69,4.69,0,0,0,4.69,4.7,7,7,0,0,1,7,7,4.69,4.69,0,0,0,4.69,4.7v2.34a7,7,0,0,1-7-7,4.69,4.69,0,0,0-4.69-4.69A7,7,0,0,1,194.75,377.69Zm29.87-2.28,9.95,9.95L232.92,387l-10-9.95Z" transform="translate(0.01)"/>
    <rect class="d" x="243.01" y="372.48" width="1.03" height="0.86"/>
    <path class="d" d="M255.76,377.69a4.69,4.69,0,0,0-4.69-4.69,7,7,0,0,1-7-7h2.35a4.69,4.69,0,0,0,4.69,4.7,7,7,0,0,1,7,7,4.69,4.69,0,0,0,4.69,4.7,7,7,0,0,1,7,7,4.69,4.69,0,0,0,4.69,4.7v2.34a7,7,0,0,1-7-7,4.69,4.69,0,0,0-4.69-4.69A7,7,0,0,1,255.76,377.69Zm29.87-2.28,9.95,9.95L293.93,387l-10-9.95Z" transform="translate(0.01)"/>
    <rect class="d" x="304.02" y="372.48" width="1.03" height="0.86"/>
    <path class="d" d="M316.77,377.69a4.69,4.69,0,0,0-4.69-4.69,7,7,0,0,1-7-7h2.35a4.69,4.69,0,0,0,4.69,4.7,7,7,0,0,1,7,7,4.69,4.69,0,0,0,4.69,4.7,7,7,0,0,1,7,7,4.69,4.69,0,0,0,4.69,4.7v2.34a7,7,0,0,1-7-7,4.69,4.69,0,0,0-4.69-4.69A7,7,0,0,1,316.77,377.69Zm29.87-2.28,9.95,9.95L354.94,387l-10-9.95Z" transform="translate(0.01)"/>
    <rect class="d" x="365.03" y="372.48" width="1.03" height="0.86"/>
    <path class="d" d="M377.78,377.69a4.69,4.69,0,0,0-4.69-4.69,7,7,0,0,1-7-7h2.35a4.69,4.69,0,0,0,4.69,4.7,7,7,0,0,1,7,7,4.69,4.69,0,0,0,4.69,4.7,7,7,0,0,1,7,7,4.69,4.69,0,0,0,4.69,4.7v2.34a7,7,0,0,1-7-7,4.69,4.69,0,0,0-4.69-4.69A7,7,0,0,1,377.78,377.69Zm29.87-2.28,10,9.95L416,387l-10-9.95Z" transform="translate(0.01)"/>
    <rect class="d" x="426.04" y="372.48" width="1.03" height="0.86"/>
    <path class="d" d="M438.79,377.69A4.69,4.69,0,0,0,434.1,373a7,7,0,0,1-7-7h2.35a4.69,4.69,0,0,0,4.69,4.7,7,7,0,0,1,7,7,4.69,4.69,0,0,0,4.69,4.7,7,7,0,0,1,7,7,4.69,4.69,0,0,0,4.69,4.7v2.34a7,7,0,0,1-7-7,4.69,4.69,0,0,0-4.69-4.69A7,7,0,0,1,438.79,377.69Zm29.87-2.28,9.95,9.95L477,387l-10-9.95Z" transform="translate(0.01)"/>
    <rect class="d" x="487.05" y="372.48" width="1.03" height="0.86"/>
    <path class="d" d="M499.8,377.69a4.69,4.69,0,0,0-4.69-4.69,7,7,0,0,1-7-7h2.35a4.69,4.69,0,0,0,4.69,4.7,7,7,0,0,1,7,7,4.69,4.69,0,0,0,4.69,4.7,7,7,0,0,1,7,7,4.69,4.69,0,0,0,4.69,4.7v2.34a7,7,0,0,1-7-7,4.69,4.69,0,0,0-4.69-4.69A7,7,0,0,1,499.8,377.69Zm29.87-2.28,10,9.95L538,387l-10-9.95Z" transform="translate(0.01)"/>
    <rect class="d" x="548.06" y="372.48" width="1.03" height="0.86"/>
    <path class="d" d="M72.73,408.19A4.69,4.69,0,0,0,68,403.5a7,7,0,0,1-7-7h2.35A4.69,4.69,0,0,0,68,401.15a7,7,0,0,1,7,7,4.69,4.69,0,0,0,4.69,4.69,7,7,0,0,1,7,7,4.69,4.69,0,0,0,4.69,4.69V427a7,7,0,0,1-7-7,4.69,4.69,0,0,0-4.69-4.69A7,7,0,0,1,72.73,408.19Zm29.87-2.29,10,10-1.65,1.66-10-10Z" transform="translate(0.01)"/>
    <rect class="d" x="120.99" y="402.98" width="1.03" height="0.86"/>
    <path class="d" d="M133.74,408.19a4.69,4.69,0,0,0-4.69-4.69,7,7,0,0,1-7-7h2.35a4.69,4.69,0,0,0,4.69,4.69,7,7,0,0,1,7,7,4.69,4.69,0,0,0,4.69,4.69,7,7,0,0,1,7,7,4.69,4.69,0,0,0,4.69,4.69V427a7,7,0,0,1-7-7,4.69,4.69,0,0,0-4.69-4.69A7,7,0,0,1,133.74,408.19Zm29.87-2.29,9.95,10-1.65,1.66-10-10Z" transform="translate(0.01)"/>
    <rect class="d" x="182" y="402.98" width="1.03" height="0.86"/>
    <path class="d" d="M194.75,408.19a4.69,4.69,0,0,0-4.69-4.69,7,7,0,0,1-7-7h2.35a4.69,4.69,0,0,0,4.69,4.69,7,7,0,0,1,7,7,4.69,4.69,0,0,0,4.69,4.69,7,7,0,0,1,7,7,4.69,4.69,0,0,0,4.69,4.69V427a7,7,0,0,1-7-7,4.69,4.69,0,0,0-4.69-4.69A7,7,0,0,1,194.75,408.19Zm29.87-2.29,9.95,10-1.65,1.66-10-10Z" transform="translate(0.01)"/>
    <rect class="d" x="243.01" y="402.98" width="1.03" height="0.86"/>
    <path class="d" d="M255.76,408.19a4.69,4.69,0,0,0-4.69-4.69,7,7,0,0,1-7-7h2.35a4.69,4.69,0,0,0,4.69,4.69,7,7,0,0,1,7,7,4.69,4.69,0,0,0,4.69,4.69,7,7,0,0,1,7,7,4.69,4.69,0,0,0,4.69,4.69V427a7,7,0,0,1-7-7,4.69,4.69,0,0,0-4.69-4.69A7,7,0,0,1,255.76,408.19Zm29.87-2.29,9.95,10-1.65,1.66-10-10Z" transform="translate(0.01)"/>
    <rect class="d" x="304.02" y="402.98" width="1.03" height="0.86"/>
    <path class="d" d="M316.77,408.19a4.69,4.69,0,0,0-4.69-4.69,7,7,0,0,1-7-7h2.35a4.69,4.69,0,0,0,4.69,4.69,7,7,0,0,1,7,7,4.69,4.69,0,0,0,4.69,4.69,7,7,0,0,1,7,7,4.69,4.69,0,0,0,4.69,4.69V427a7,7,0,0,1-7-7,4.69,4.69,0,0,0-4.69-4.69A7,7,0,0,1,316.77,408.19Zm29.87-2.29,9.95,10-1.65,1.66-10-10Z" transform="translate(0.01)"/>
    <rect class="d" x="365.03" y="402.98" width="1.03" height="0.86"/>
    <path class="d" d="M377.78,408.19a4.69,4.69,0,0,0-4.69-4.69,7,7,0,0,1-7-7h2.35a4.69,4.69,0,0,0,4.69,4.69,7,7,0,0,1,7,7,4.69,4.69,0,0,0,4.69,4.69,7,7,0,0,1,7,7,4.69,4.69,0,0,0,4.69,4.69V427a7,7,0,0,1-7-7,4.69,4.69,0,0,0-4.69-4.69A7,7,0,0,1,377.78,408.19Zm29.87-2.29,10,10L416,417.52l-10-10Z" transform="translate(0.01)"/>
    <rect class="d" x="426.04" y="402.98" width="1.03" height="0.86"/>
    <path class="d" d="M438.79,408.19a4.69,4.69,0,0,0-4.69-4.69,7,7,0,0,1-7-7h2.35a4.69,4.69,0,0,0,4.69,4.69,7,7,0,0,1,7,7,4.69,4.69,0,0,0,4.69,4.69,7,7,0,0,1,7,7,4.69,4.69,0,0,0,4.69,4.69V427a7,7,0,0,1-7-7,4.69,4.69,0,0,0-4.69-4.69A7,7,0,0,1,438.79,408.19Zm29.87-2.29,9.95,10L477,417.52l-10-10Z" transform="translate(0.01)"/>
    <rect class="d" x="487.05" y="402.98" width="1.03" height="0.86"/>
    <path class="d" d="M499.8,408.19a4.69,4.69,0,0,0-4.69-4.69,7,7,0,0,1-7-7h2.35a4.69,4.69,0,0,0,4.69,4.69,7,7,0,0,1,7,7,4.69,4.69,0,0,0,4.69,4.69,7,7,0,0,1,7,7,4.69,4.69,0,0,0,4.69,4.69V427a7,7,0,0,1-7-7,4.69,4.69,0,0,0-4.69-4.69A7,7,0,0,1,499.8,408.19Zm29.87-2.29,10,10L538,417.52l-10-10Z" transform="translate(0.01)"/>
    <rect class="d" x="548.06" y="402.98" width="1.03" height="0.86"/>
    <path class="d" d="M72.73,438.69A4.69,4.69,0,0,0,68,434a7,7,0,0,1-7-7h2.35A4.69,4.69,0,0,0,68,431.65a7,7,0,0,1,7,7,4.69,4.69,0,0,0,4.69,4.69,7,7,0,0,1,7,7,4.69,4.69,0,0,0,4.69,4.69v2.35a7,7,0,0,1-7-7,4.69,4.69,0,0,0-4.69-4.69A7,7,0,0,1,72.73,438.69Zm29.87-2.29,10,10L110.9,448l-10-9.95Z" transform="translate(0.01)"/>
    <rect class="d" x="120.99" y="433.47" width="1.03" height="0.86"/>
    <path class="d" d="M133.74,438.69a4.69,4.69,0,0,0-4.69-4.69,7,7,0,0,1-7-7h2.35a4.69,4.69,0,0,0,4.69,4.69,7,7,0,0,1,7,7,4.69,4.69,0,0,0,4.69,4.69,7,7,0,0,1,7,7,4.69,4.69,0,0,0,4.69,4.69v2.35a7,7,0,0,1-7-7,4.69,4.69,0,0,0-4.69-4.69A7,7,0,0,1,133.74,438.69Zm29.87-2.29,9.95,10L171.91,448l-10-9.95Z" transform="translate(0.01)"/>
    <rect class="d" x="182" y="433.47" width="1.03" height="0.86"/>
    <path class="d" d="M194.75,438.69a4.69,4.69,0,0,0-4.69-4.69,7,7,0,0,1-7-7h2.35a4.69,4.69,0,0,0,4.69,4.69,7,7,0,0,1,7,7,4.69,4.69,0,0,0,4.69,4.69,7,7,0,0,1,7,7,4.69,4.69,0,0,0,4.69,4.69v2.35a7,7,0,0,1-7-7,4.69,4.69,0,0,0-4.69-4.69A7,7,0,0,1,194.75,438.69Zm29.87-2.29,9.95,10L232.92,448l-10-9.95Z" transform="translate(0.01)"/>
    <rect class="d" x="243.01" y="433.47" width="1.03" height="0.86"/>
    <path class="d" d="M255.76,438.69a4.69,4.69,0,0,0-4.69-4.69,7,7,0,0,1-7-7h2.35a4.69,4.69,0,0,0,4.69,4.69,7,7,0,0,1,7,7,4.69,4.69,0,0,0,4.69,4.69,7,7,0,0,1,7,7,4.69,4.69,0,0,0,4.69,4.69v2.35a7,7,0,0,1-7-7,4.69,4.69,0,0,0-4.69-4.69A7,7,0,0,1,255.76,438.69Zm29.87-2.29,9.95,10L293.93,448l-10-9.95Z" transform="translate(0.01)"/>
    <rect class="d" x="304.02" y="433.47" width="1.03" height="0.86"/>
    <path class="d" d="M316.77,438.69a4.69,4.69,0,0,0-4.69-4.69,7,7,0,0,1-7-7h2.35a4.69,4.69,0,0,0,4.69,4.69,7,7,0,0,1,7,7,4.69,4.69,0,0,0,4.69,4.69,7,7,0,0,1,7,7,4.69,4.69,0,0,0,4.69,4.69v2.35a7,7,0,0,1-7-7,4.69,4.69,0,0,0-4.69-4.69A7,7,0,0,1,316.77,438.69Zm29.87-2.29,9.95,10L354.94,448l-10-9.95Z" transform="translate(0.01)"/>
    <rect class="d" x="365.03" y="433.47" width="1.03" height="0.86"/>
    <path class="d" d="M377.78,438.69a4.69,4.69,0,0,0-4.69-4.69,7,7,0,0,1-7-7h2.35a4.69,4.69,0,0,0,4.69,4.69,7,7,0,0,1,7,7,4.69,4.69,0,0,0,4.69,4.69,7,7,0,0,1,7,7,4.69,4.69,0,0,0,4.69,4.69v2.35a7,7,0,0,1-7-7,4.69,4.69,0,0,0-4.69-4.69A7,7,0,0,1,377.78,438.69Zm29.87-2.29,10,10L416,448l-10-9.95Z" transform="translate(0.01)"/>
    <rect class="d" x="426.04" y="433.47" width="1.03" height="0.86"/>
    <path class="d" d="M438.79,438.69A4.69,4.69,0,0,0,434.1,434a7,7,0,0,1-7-7h2.35a4.69,4.69,0,0,0,4.69,4.69,7,7,0,0,1,7,7,4.69,4.69,0,0,0,4.69,4.69,7,7,0,0,1,7,7,4.69,4.69,0,0,0,4.69,4.69v2.35a7,7,0,0,1-7-7,4.69,4.69,0,0,0-4.69-4.69A7,7,0,0,1,438.79,438.69Zm29.87-2.29,9.95,10L477,448l-10-9.95Z" transform="translate(0.01)"/>
    <rect class="d" x="487.05" y="433.47" width="1.03" height="0.86"/>
    <path class="d" d="M499.8,438.69a4.69,4.69,0,0,0-4.69-4.69,7,7,0,0,1-7-7h2.35a4.69,4.69,0,0,0,4.69,4.69,7,7,0,0,1,7,7,4.69,4.69,0,0,0,4.69,4.69,7,7,0,0,1,7,7,4.69,4.69,0,0,0,4.69,4.69v2.35a7,7,0,0,1-7-7,4.69,4.69,0,0,0-4.69-4.69A7,7,0,0,1,499.8,438.69Zm29.87-2.29,10,10L538,448l-10-9.95Z" transform="translate(0.01)"/>
    <rect class="d" x="548.06" y="433.47" width="1.03" height="0.86"/>
    <path class="d" d="M72.73,469.18A4.69,4.69,0,0,0,68,464.49a7,7,0,0,1-7-7h2.35a4.69,4.69,0,0,0,4.69,4.7,7,7,0,0,1,7,7,4.69,4.69,0,0,0,4.69,4.7,7,7,0,0,1,7,7,4.69,4.69,0,0,0,4.69,4.7V488a7,7,0,0,1-7-7,4.69,4.69,0,0,0-4.69-4.69A7,7,0,0,1,72.73,469.18Zm29.87-2.28,10,10-1.65,1.66-10-9.95Z" transform="translate(0.01)"/>
    <rect class="d" x="120.99" y="463.97" width="1.03" height="0.86"/>
    <path class="d" d="M133.74,469.18a4.69,4.69,0,0,0-4.69-4.69,7,7,0,0,1-7-7h2.35a4.69,4.69,0,0,0,4.69,4.7,7,7,0,0,1,7,7,4.69,4.69,0,0,0,4.69,4.7,7,7,0,0,1,7,7,4.69,4.69,0,0,0,4.69,4.7V488a7,7,0,0,1-7-7,4.69,4.69,0,0,0-4.69-4.69A7,7,0,0,1,133.74,469.18Zm29.87-2.28,9.95,10-1.65,1.66-10-9.95Z" transform="translate(0.01)"/>
    <rect class="d" x="182" y="463.97" width="1.03" height="0.86"/>
    <path class="d" d="M194.75,469.18a4.69,4.69,0,0,0-4.69-4.69,7,7,0,0,1-7-7h2.35a4.69,4.69,0,0,0,4.69,4.7,7,7,0,0,1,7,7,4.69,4.69,0,0,0,4.69,4.7,7,7,0,0,1,7,7,4.69,4.69,0,0,0,4.69,4.7V488a7,7,0,0,1-7-7,4.69,4.69,0,0,0-4.69-4.69A7,7,0,0,1,194.75,469.18Zm29.87-2.28,9.95,10-1.65,1.66-10-9.95Z" transform="translate(0.01)"/>
    <rect class="d" x="243.01" y="463.97" width="1.03" height="0.86"/>
    <path class="d" d="M255.76,469.18a4.69,4.69,0,0,0-4.69-4.69,7,7,0,0,1-7-7h2.35a4.69,4.69,0,0,0,4.69,4.7,7,7,0,0,1,7,7,4.69,4.69,0,0,0,4.69,4.7,7,7,0,0,1,7,7,4.69,4.69,0,0,0,4.69,4.7V488a7,7,0,0,1-7-7,4.69,4.69,0,0,0-4.69-4.69A7,7,0,0,1,255.76,469.18Zm29.87-2.28,9.95,10-1.65,1.66-10-9.95Z" transform="translate(0.01)"/>
    <rect class="d" x="304.02" y="463.97" width="1.03" height="0.86"/>
    <path class="d" d="M316.77,469.18a4.69,4.69,0,0,0-4.69-4.69,7,7,0,0,1-7-7h2.35a4.69,4.69,0,0,0,4.69,4.7,7,7,0,0,1,7,7,4.69,4.69,0,0,0,4.69,4.7,7,7,0,0,1,7,7,4.69,4.69,0,0,0,4.69,4.7V488a7,7,0,0,1-7-7,4.69,4.69,0,0,0-4.69-4.69A7,7,0,0,1,316.77,469.18Zm29.87-2.28,9.95,10-1.65,1.66-10-9.95Z" transform="translate(0.01)"/>
    <rect class="d" x="365.03" y="463.97" width="1.03" height="0.86"/>
    <path class="d" d="M377.78,469.18a4.69,4.69,0,0,0-4.69-4.69,7,7,0,0,1-7-7h2.35a4.69,4.69,0,0,0,4.69,4.7,7,7,0,0,1,7,7,4.69,4.69,0,0,0,4.69,4.7,7,7,0,0,1,7,7,4.69,4.69,0,0,0,4.69,4.7V488a7,7,0,0,1-7-7,4.69,4.69,0,0,0-4.69-4.69A7,7,0,0,1,377.78,469.18Zm29.87-2.28,10,10L416,478.51l-10-9.95Z" transform="translate(0.01)"/>
    <rect class="d" x="426.04" y="463.97" width="1.03" height="0.86"/>
    <path class="d" d="M438.79,469.18a4.69,4.69,0,0,0-4.69-4.69,7,7,0,0,1-7-7h2.35a4.69,4.69,0,0,0,4.69,4.7,7,7,0,0,1,7,7,4.69,4.69,0,0,0,4.69,4.7,7,7,0,0,1,7,7,4.69,4.69,0,0,0,4.69,4.7V488a7,7,0,0,1-7-7,4.69,4.69,0,0,0-4.69-4.69A7,7,0,0,1,438.79,469.18Zm29.87-2.28,9.95,10L477,478.51l-10-9.95Z" transform="translate(0.01)"/>
    <rect class="d" x="487.05" y="463.97" width="1.03" height="0.86"/>
    <path class="d" d="M499.8,469.18a4.69,4.69,0,0,0-4.69-4.69,7,7,0,0,1-7-7h2.35a4.69,4.69,0,0,0,4.69,4.7,7,7,0,0,1,7,7,4.69,4.69,0,0,0,4.69,4.7,7,7,0,0,1,7,7,4.69,4.69,0,0,0,4.69,4.7V488a7,7,0,0,1-7-7,4.69,4.69,0,0,0-4.69-4.69A7,7,0,0,1,499.8,469.18Zm29.87-2.28,10,10L538,478.51l-10-9.95Z" transform="translate(0.01)"/>
    <rect class="d" x="548.06" y="463.97" width="1.03" height="0.86"/>
    <path class="d" d="M72.73,499.68A4.69,4.69,0,0,0,68,495a7,7,0,0,1-7-7h2.35A4.69,4.69,0,0,0,68,492.64a7,7,0,0,1,7,7,4.69,4.69,0,0,0,4.69,4.69,7,7,0,0,1,7,7,4.69,4.69,0,0,0,4.69,4.69v2.35a7,7,0,0,1-7-7,4.69,4.69,0,0,0-4.69-4.69A7,7,0,0,1,72.73,499.68Zm29.87-2.29,10,10L110.9,509l-10-10Z" transform="translate(0.01)"/>
    <rect class="d" x="120.99" y="494.47" width="1.03" height="0.86"/>
    <path class="d" d="M133.74,499.68a4.69,4.69,0,0,0-4.69-4.69,7,7,0,0,1-7-7h2.35a4.69,4.69,0,0,0,4.69,4.69,7,7,0,0,1,7,7,4.69,4.69,0,0,0,4.69,4.69,7,7,0,0,1,7,7,4.69,4.69,0,0,0,4.69,4.69v2.35a7,7,0,0,1-7-7,4.69,4.69,0,0,0-4.69-4.69A7,7,0,0,1,133.74,499.68Zm29.87-2.29,9.95,10L171.91,509l-10-10Z" transform="translate(0.01)"/>
    <rect class="d" x="182" y="494.47" width="1.03" height="0.86"/>
    <path class="d" d="M194.75,499.68a4.69,4.69,0,0,0-4.69-4.69,7,7,0,0,1-7-7h2.35a4.69,4.69,0,0,0,4.69,4.69,7,7,0,0,1,7,7,4.69,4.69,0,0,0,4.69,4.69,7,7,0,0,1,7,7,4.69,4.69,0,0,0,4.69,4.69v2.35a7,7,0,0,1-7-7,4.69,4.69,0,0,0-4.69-4.69A7,7,0,0,1,194.75,499.68Zm29.87-2.29,9.95,10L232.92,509l-10-10Z" transform="translate(0.01)"/>
    <rect class="d" x="243.01" y="494.47" width="1.03" height="0.86"/>
    <path class="d" d="M255.76,499.68a4.69,4.69,0,0,0-4.69-4.69,7,7,0,0,1-7-7h2.35a4.69,4.69,0,0,0,4.69,4.69,7,7,0,0,1,7,7,4.69,4.69,0,0,0,4.69,4.69,7,7,0,0,1,7,7,4.69,4.69,0,0,0,4.69,4.69v2.35a7,7,0,0,1-7-7,4.69,4.69,0,0,0-4.69-4.69A7,7,0,0,1,255.76,499.68Zm29.87-2.29,9.95,10L293.93,509l-10-10Z" transform="translate(0.01)"/>
    <rect class="d" x="304.02" y="494.47" width="1.03" height="0.86"/>
    <path class="d" d="M316.77,499.68a4.69,4.69,0,0,0-4.69-4.69,7,7,0,0,1-7-7h2.35a4.69,4.69,0,0,0,4.69,4.69,7,7,0,0,1,7,7,4.69,4.69,0,0,0,4.69,4.69,7,7,0,0,1,7,7,4.69,4.69,0,0,0,4.69,4.69v2.35a7,7,0,0,1-7-7,4.69,4.69,0,0,0-4.69-4.69A7,7,0,0,1,316.77,499.68Zm29.87-2.29,9.95,10L354.94,509l-10-10Z" transform="translate(0.01)"/>
    <rect class="d" x="365.03" y="494.47" width="1.03" height="0.86"/>
    <path class="d" d="M377.78,499.68a4.69,4.69,0,0,0-4.69-4.69,7,7,0,0,1-7-7h2.35a4.69,4.69,0,0,0,4.69,4.69,7,7,0,0,1,7,7,4.69,4.69,0,0,0,4.69,4.69,7,7,0,0,1,7,7,4.69,4.69,0,0,0,4.69,4.69v2.35a7,7,0,0,1-7-7,4.69,4.69,0,0,0-4.69-4.69A7,7,0,0,1,377.78,499.68Zm29.87-2.29,10,10L416,509l-10-10Z" transform="translate(0.01)"/>
    <rect class="d" x="426.04" y="494.47" width="1.03" height="0.86"/>
    <path class="d" d="M438.79,499.68A4.69,4.69,0,0,0,434.1,495a7,7,0,0,1-7-7h2.35a4.69,4.69,0,0,0,4.69,4.69,7,7,0,0,1,7,7,4.69,4.69,0,0,0,4.69,4.69,7,7,0,0,1,7,7,4.69,4.69,0,0,0,4.69,4.69v2.35a7,7,0,0,1-7-7,4.69,4.69,0,0,0-4.69-4.69A7,7,0,0,1,438.79,499.68Zm29.87-2.29,9.95,10L477,509l-10-10Z" transform="translate(0.01)"/>
    <rect class="d" x="487.05" y="494.47" width="1.03" height="0.86"/>
    <path class="d" d="M499.8,499.68a4.69,4.69,0,0,0-4.69-4.69,7,7,0,0,1-7-7h2.35a4.69,4.69,0,0,0,4.69,4.69,7,7,0,0,1,7,7,4.69,4.69,0,0,0,4.69,4.69,7,7,0,0,1,7,7,4.69,4.69,0,0,0,4.69,4.69v2.35a7,7,0,0,1-7-7,4.69,4.69,0,0,0-4.69-4.69A7,7,0,0,1,499.8,499.68Zm29.87-2.29,10,10L538,509l-10-10Z" transform="translate(0.01)"/>
    <rect class="d" x="548.06" y="494.47" width="1.03" height="0.86"/>
    <rect x="121.12" y="314.56" width="128.1" height="10"/>
    <path d="M185.54,293.46l-4.23-15.34H151.93l-4.1,15.34H121.11l27.12-91H185.8l27.12,91ZM167,225.33H166l-8.73,32.81H176Z" transform="translate(0.01)"/>
    <path d="M222.06,202.44h45.11q11.91,0,18.06,3.44a16.92,16.92,0,0,1,8.2,10.06q2.06,6.62,2.05,17.86,0,10.57-1.92,17.13a17.68,17.68,0,0,1-8.07,10.32Q279.34,265,267.17,265h-18v28.44H222.06Zm34.39,42.47a29.17,29.17,0,0,0,7.87-.73,4.38,4.38,0,0,0,3.05-2.91,26.62,26.62,0,0,0,.73-7.47,27.41,27.41,0,0,0-.73-7.61,4.22,4.22,0,0,0-3-2.84,32.17,32.17,0,0,0-7.94-.67h-7.27v22.23Z" transform="translate(0.01)"/>
    <path d="M305,202.44h45.11q11.91,0,18.06,3.44a16.92,16.92,0,0,1,8.2,10.06q2.06,6.62,2.05,17.86,0,10.57-1.91,17.13a17.68,17.68,0,0,1-8.07,10.32Q362.3,265,350.12,265h-18v28.44H305Zm34.4,42.47a29.27,29.27,0,0,0,7.87-.73,4.37,4.37,0,0,0,3-2.91,26.62,26.62,0,0,0,.73-7.47,27.41,27.41,0,0,0-.73-7.61,4.21,4.21,0,0,0-3-2.84,32.08,32.08,0,0,0-7.93-.67h-7.28v22.23Z" transform="translate(0.01)"/>
    <path d="M174.15,191.16l-26.07-47h-.66v47H121.36v-91h27.91l23.29,40.75h.79V100.14h26.06v91Z" transform="translate(0.01)"/>
    <path d="M212.42,191.16v-91h65.75v20.51H239.54v14.42H272v20.24H239.54v15.35h38.63v20.5Z" transform="translate(0.01)"/>
    <path class="e" d="M344.07,145.2" transform="translate(0.01)"/>
    <polygon class="f" points="344.02 145.29 314.9 190.26 286.53 190.26 315.7 145.21 286.53 100.14 314.9 100.14 344.02 145.12 344.07 145.21 344.02 145.29"/>
    <path d="M131.38,367.49h-3.33V348.85h-6.94v-3h17.22v3h-7Z" transform="translate(0.01)"/>
    <path d="M158.31,367.49c-.41-1.18-.75-2.14-1-2.9s-.62-1.72-1-2.89h-8.44l-2,5.79h-3.42l8-21.6h3.56l8,21.6Zm-6.38-17.74c-.44,1.23-.81,2.31-1.13,3.22s-.64,1.82-1,2.74l-1.13,3.23h6.7l-3.23-9.19Z" transform="translate(0.01)"/>
    <path d="M180.91,364.49v3H167.22v-21.6h3.32v18.6Z" transform="translate(0.01)"/>
    <path d="M200.71,364.52v3H186.77v-21.6h13.94v3H190.1v6.21h10.06v2.85H190.1v6.61Z" transform="translate(0.01)"/>
    <path d="M210.42,367.49h-3.23v-21.6h3l11.39,15.52h.25V345.89h3.23v21.6h-3L210.69,352h-.27Z" transform="translate(0.01)"/>
    <path d="M241.1,367.49h-3.32V348.85h-6.94v-3h17.22v3h-7Z" transform="translate(0.01)"/>
    <path d="M252.74,361.71H256a3.43,3.43,0,0,0,1.68,2.47,6.71,6.71,0,0,0,3.66.92,5.87,5.87,0,0,0,3.46-1,2.85,2.85,0,0,0,1.35-2.41,2.5,2.5,0,0,0-1-2,8.15,8.15,0,0,0-3.2-1.32l-2.85-.67a8.85,8.85,0,0,1-4.4-2.15,5.24,5.24,0,0,1-1.39-3.81,5.62,5.62,0,0,1,2.2-4.63,9,9,0,0,1,5.79-1.76,8.75,8.75,0,0,1,5.54,1.73,5.78,5.78,0,0,1,2.35,4.46H266a3.46,3.46,0,0,0-1.51-2.39,5.48,5.48,0,0,0-3.19-.87,5.62,5.62,0,0,0-3.3.88,2.8,2.8,0,0,0-1.25,2.38,2.3,2.3,0,0,0,.95,1.9,8.36,8.36,0,0,0,3.1,1.22l2.41.57a10.62,10.62,0,0,1,4.9,2.22,5.12,5.12,0,0,1,1.49,3.86,5.93,5.93,0,0,1-2.28,4.9,11.25,11.25,0,0,1-12.08.1A6,6,0,0,1,252.74,361.71Z" transform="translate(0.01)"/>
    <path d="M300.59,364.52v3H286.66v-21.6h13.93v3H290v6.21H300v2.85H290v6.61Z" transform="translate(0.01)"/>
    <path d="M310.3,367.49h-3.23v-21.6h3l11.4,15.52h.24V345.89H325v21.6h-3L310.57,352h-.27Z" transform="translate(0.01)"/>
    <path d="M137.07,399.83l-1-2.89c-.27-.76-.62-1.73-1-2.9h-8.45l-2,5.79h-3.42l8-21.6h3.56l8,21.6Zm-6.38-17.74c-.44,1.24-.81,2.31-1.13,3.23s-.64,1.82-1,2.74-.7,2-1.13,3.23h6.71l-3.23-9.2Z" transform="translate(0.01)"/>
    <path d="M146,378.23h8.58a7.1,7.1,0,0,1,5.22,2,7,7,0,0,1,2,5.18,6.79,6.79,0,0,1-2,5.13,7.26,7.26,0,0,1-5.27,2h-5.16v7.32H146Zm3.33,2.91v8.49h4.37a5.06,5.06,0,0,0,3.48-1.1,3.94,3.94,0,0,0,1.25-3.11,4,4,0,0,0-1.23-3.18,5.06,5.06,0,0,0-3.5-1.1Z" transform="translate(0.01)"/>
    <path d="M167.75,378.23h8.59a7.13,7.13,0,0,1,5.22,2,7,7,0,0,1,2,5.18,6.82,6.82,0,0,1-2,5.13,7.3,7.3,0,0,1-5.28,2h-5.16v7.32h-3.33Zm3.33,2.91v8.49h4.38a5.1,5.1,0,0,0,3.48-1.1,3.94,3.94,0,0,0,1.24-3.11,4.06,4.06,0,0,0-1.22-3.18,5.1,5.1,0,0,0-3.5-1.1Z" transform="translate(0.01)"/>
    <path d="M203.21,396.83v3H189.53v-21.6h3.32v18.6Z" transform="translate(0.01)"/>
    <path d="M212.41,399.83h-3.33v-21.6h3.33Z" transform="translate(0.01)"/>
    <path d="M221.23,397.32c-1.78-2-2.66-4.79-2.66-8.29s.88-6.27,2.65-8.29a9.12,9.12,0,0,1,7.25-3,9.36,9.36,0,0,1,6.15,2.08,8,8,0,0,1,3,5.35h-3.33a5.5,5.5,0,0,0-2-3.18,6,6,0,0,0-3.74-1.19,5.72,5.72,0,0,0-4.75,2.22,11.29,11.29,0,0,0,0,12.09,5.71,5.71,0,0,0,4.76,2.24,6.42,6.42,0,0,0,3.75-1.08,5,5,0,0,0,2-2.91h3.31a7.62,7.62,0,0,1-3,5.11,9.71,9.71,0,0,1-6.14,1.94A9.16,9.16,0,0,1,221.23,397.32Z" transform="translate(0.01)"/>
    <path d="M257.89,399.83c-.41-1.17-.75-2.13-1-2.89l-1-2.9h-8.45l-2,5.79h-3.43l8-21.6h3.55l8,21.6Zm-6.39-17.74c-.43,1.24-.81,2.31-1.13,3.23s-.64,1.82-1,2.74-.71,2-1.14,3.23H255l-3.23-9.2Z" transform="translate(0.01)"/>
    <path d="M275.72,399.83H272.4V381.2h-6.94v-3h17.22v3h-7Z" transform="translate(0.01)"/>
    <path d="M291.72,399.83H288.4v-21.6h3.32Z" transform="translate(0.01)"/>
    <path d="M315.65,380.76a13.87,13.87,0,0,1,0,16.54,10.75,10.75,0,0,1-15,0,13.79,13.79,0,0,1,0-16.55,10.72,10.72,0,0,1,15,0ZM303.14,383a9.16,9.16,0,0,0-1.86,6,9.31,9.31,0,0,0,1.83,6,6.74,6.74,0,0,0,10.05,0,10.84,10.84,0,0,0,0-12.07,6.73,6.73,0,0,0-10,0Z" transform="translate(0.01)"/>
    <path d="M327.8,399.83h-3.24v-21.6h3L339,393.76h.25V378.23h3.23v21.6h-3l-11.4-15.52h-.26Z" transform="translate(0.01)"/>
    <path d="M348.64,99.54l-15.52,24,13.24,20.39,28.8-44.35Zm-2.28,38.94-9.74-15,13.61-21h19.51Z" transform="translate(0.01)"/>
    <path d="M375.16,190.19l-28.8-44.34-13.24,20.39,15.52,23.95Zm-5.42-2.93H350.23l-13.61-21,9.74-15Z" transform="translate(0.01)"/>
  </g>
</svg>