<?xml version="1.0" encoding="UTF-8" standalone="no"?>
<!-- Created with Inkscape (http://www.inkscape.org/) -->

<svg
   xmlns:dc="http://purl.org/dc/elements/1.1/"
   xmlns:cc="http://creativecommons.org/ns#"
   xmlns:rdf="http://www.w3.org/1999/02/22-rdf-syntax-ns#"
   xmlns:svg="http://www.w3.org/2000/svg"
   xmlns="http://www.w3.org/2000/svg"
   xmlns:sodipodi="http://sodipodi.sourceforge.net/DTD/sodipodi-0.dtd"
   xmlns:inkscape="http://www.inkscape.org/namespaces/inkscape"
   id="svg2"
   version="1.1"
   inkscape:version="0.91 r13725"
   xml:space="preserve"
   width="322.29956"
   height="100.36218"
   viewBox="0 0 322.29956 100.36218"
   sodipodi:docname="nexapp.svg"><metadata
     id="metadata8"><rdf:RDF><cc:Work
         rdf:about=""><dc:format>image/svg+xml</dc:format><dc:type
           rdf:resource="http://purl.org/dc/dcmitype/StillImage" /><dc:title></dc:title></cc:Work></rdf:RDF></metadata><defs
     id="defs6"><clipPath
       clipPathUnits="userSpaceOnUse"
       id="clipPath18"><path
         d="M 0,0 375,0 375,375 0,375 0,0 Z"
         id="path20"
         inkscape:connector-curvature="0" /></clipPath></defs><sodipodi:namedview
     pagecolor="#ffffff"
     bordercolor="#666666"
     borderopacity="1"
     objecttolerance="10"
     gridtolerance="10"
     guidetolerance="10"
     inkscape:pageopacity="0"
     inkscape:pageshadow="2"
     inkscape:window-width="1366"
     inkscape:window-height="721"
     id="namedview4"
     showgrid="false"
     fit-margin-top="0"
     fit-margin-left="0"
     fit-margin-right="0"
     fit-margin-bottom="0"
     inkscape:zoom="1.0069333"
     inkscape:cx="180.43292"
     inkscape:cy="0.90896959"
     inkscape:window-x="0"
     inkscape:window-y="47"
     inkscape:window-maximized="0"
     inkscape:current-layer="g26" /><g
     id="g10"
     inkscape:groupmode="layer"
     inkscape:label="index"
     transform="matrix(1.25,0,0,1.25,-89.494064,-156.07758)"><g
       id="g12"><g
         id="g14"><g
           id="g16" /><g
           id="g22"><g
             clip-path="url(#clipPath18)"
             id="g24"><g
               id="g26"><path
                 d="m 72.930999,183.3646 52.646281,0 0,4.10982 -52.646281,0 0,-4.10982 z"
                 style="fill:#000000;fill-opacity:1;fill-rule:nonzero;stroke:none"
                 id="path608"
                 inkscape:connector-curvature="0" /><path
                 d="m 233.81253,169.98688 -2.09938,-7.60431 -14.56545,0 -2.03196,7.60431 -13.24607,0 13.44503,-45.11424 18.62673,0 13.44503,45.11424 -13.57393,0 z m -9.19207,-33.77652 -0.49576,0 -4.32766,16.26691 9.28527,0 -4.46185,-16.26691 z"
                 style="fill:#000000;fill-opacity:1;fill-rule:nonzero;stroke:none"
                 id="path610"
                 inkscape:connector-curvature="0" /><path
                 d="m 251.91573,124.86206 22.36609,0 c 3.93502,0 6.9195,0.57046 8.95212,1.70674 1.96453,1.05631 3.42604,2.85096 4.06391,4.98604 0.68151,2.18994 1.01995,5.14071 1.01731,8.85693 0,3.49346 -0.31729,6.32326 -0.95253,8.49205 -0.6273,2.15359 -2.06038,3.9846 -3.99979,5.11559 -2.03196,1.23874 -5.06073,1.85878 -9.08102,1.85878 l -8.9237,0 0,14.09811 -13.44239,0 0,-45.11424 z m 17.04955,21.05728 c 1.31145,0.0568 2.62291,-0.0648 3.90131,-0.36157 0.71786,-0.19104 1.28831,-0.73637 1.51306,-1.44366 0.29415,-1.21098 0.41578,-2.45831 0.36157,-3.70234 0.0568,-1.27047 -0.0648,-2.5383 -0.36157,-3.77505 -0.21681,-0.69473 -0.78,-1.22949 -1.48728,-1.4073 -1.29361,-0.27366 -2.61564,-0.38471 -3.93767,-0.33051 l -3.60186,0 0,11.02043 3.61244,0 z"
                 style="fill:#000000;fill-opacity:1;fill-rule:nonzero;stroke:none"
                 id="path612"
                 inkscape:connector-curvature="0" /><path
                 d="m 293.03546,124.86206 22.36344,0 c 3.93766,0 6.92016,0.57046 8.95476,1.70674 1.9619,1.05631 3.42604,2.85096 4.06392,4.98604 0.68151,2.18994 1.01995,5.14071 1.0173,8.85693 0,3.49346 -0.31728,6.32326 -0.94723,8.49205 -0.62995,2.15359 -2.06104,3.9846 -4.00244,5.11559 -2.02932,1.23874 -5.05544,1.85878 -9.08102,1.85878 l -8.9237,0 0,14.09811 -13.44503,0 0,-45.11424 z m 17.05483,21.05728 c 1.30881,0.0568 2.62291,-0.0674 3.90131,-0.36157 0.70729,-0.19897 1.26783,-0.741 1.48728,-1.44366 0.29416,-1.21098 0.41578,-2.45831 0.36158,-3.70234 0.0568,-1.27047 -0.0648,-2.5383 -0.36158,-3.77505 -0.21681,-0.69473 -0.77999,-1.22949 -1.48728,-1.4073 -1.29096,-0.27366 -2.61299,-0.38471 -3.93237,-0.33051 l -3.6098,0 0,11.02043 3.64086,0 z"
                 style="fill:#000000;fill-opacity:1;fill-rule:nonzero;stroke:none"
                 id="path614"
                 inkscape:connector-curvature="0" /><path
                 d="m 99.677851,170.51838 -12.926138,-23.30076 -0.325219,0 0,23.30076 -12.92085,0 0,-45.11424 13.837677,0 11.544618,20.20259 0.392642,0 0,-20.21317 12.920189,0 0,45.11424 -12.522919,0.0106 z"
                 style="fill:#000000;fill-opacity:1;fill-rule:nonzero;stroke:none"
                 id="path616"
                 inkscape:connector-curvature="0" /><path
                 d="m 118.65095,170.51838 0,-45.11424 32.59661,0 0,10.16839 -19.15158,0 0,7.14689 16.09174,0 0,10.0342 -16.09174,0 0,7.61224 19.15158,0 0,10.1631 -32.59661,-0.0106 z"
                 style="fill:#000000;fill-opacity:1;fill-rule:nonzero;stroke:none"
                 id="path618"
                 inkscape:connector-curvature="0" /><g
                 id="g4880"
                 transform="matrix(0.54797643,0,0,0.54797643,78.008511,37.541126)"><path
                   inkscape:connector-curvature="0"
                   id="path622"
                   style="fill:#000000;fill-opacity:1;fill-rule:nonzero;stroke:none"
                   d="m -4.0005321,305.47487 -2.496,0 0,-13.98 -5.2069999,0 0,-2.25 12.9139999,0 0,2.25 -5.25,0 0.039,13.98 z" /><path
                   inkscape:connector-curvature="0"
                   id="path624"
                   style="fill:#000000;fill-opacity:1;fill-rule:nonzero;stroke:none"
                   d="m 16.194468,305.47487 c -0.304,-0.883 -0.562,-1.605 -0.75,-2.176 -0.187,-0.57 -0.465,-1.289 -0.75,-2.168 l -6.3280001,0 -1.5,4.344 -2.566,0 6.0000001,-16.199 2.672,0 6,16.199 -2.778,0 z m -4.785,-13.305 c -0.328,0.922 -0.605,1.735 -0.844,2.415 -0.242,0.683 -0.48,1.367 -0.7500001,2.054 l -0.847,2.422 5.0230001,0 -2.422,-6.891 -0.16,0 z" /><path
                   inkscape:connector-curvature="0"
                   id="path626"
                   style="fill:#000000;fill-opacity:1;fill-rule:nonzero;stroke:none"
                   d="m 33.147468,303.22487 0,2.25 -10.269,0 0,-16.199 2.492,0 0,13.949 7.777,0 z" /><path
                   inkscape:connector-curvature="0"
                   id="path628"
                   style="fill:#000000;fill-opacity:1;fill-rule:nonzero;stroke:none"
                   d="m 47.995468,303.24887 0,2.25 -10.453,0 0,-16.2 10.453,0 0,2.25 -7.957,0 0,4.657 7.547,0 0,2.136 -7.547,0 0,4.957 7.957,-0.05 z" /><path
                   inkscape:connector-curvature="0"
                   id="path630"
                   style="fill:#000000;fill-opacity:1;fill-rule:nonzero;stroke:none"
                   d="m 55.280468,305.47487 -2.426,0 0,-16.199 2.25,0 8.543,11.641 0.188,0 0,-11.641 2.422,0 0,16.199 -2.25,0 -8.528,-11.617 -0.199,0 0,11.617 z" /><path
                   inkscape:connector-curvature="0"
                   id="path632"
                   style="fill:#000000;fill-opacity:1;fill-rule:nonzero;stroke:none"
                   d="m 78.288468,305.47487 -2.488,0 0,-13.98 -5.207,0 0,-2.25 12.914,0 0,2.25 -5.25,0 0.03096,13.98 z" /><path
                   inkscape:connector-curvature="0"
                   id="path634"
                   style="fill:#000000;fill-opacity:1;fill-rule:nonzero;stroke:none"
                   d="m 87.018468,301.13887 2.446,0 c 0.113,0.778 0.578,1.461 1.258,1.856 0.832,0.484 1.785,0.726 2.746,0.687 0.922,0.028 1.832,-0.234 2.597,-0.75 0.625,-0.386 1.008,-1.07 1.012,-1.808 0,-0.59 -0.277,-1.145 -0.75,-1.5 -0.723,-0.496 -1.539,-0.832 -2.402,-0.989 l -2.137,-0.504 c -1.23,-0.214 -2.375,-0.773 -3.301,-1.609 -0.715,-0.777 -1.09,-1.805 -1.043,-2.859 -0.03896,-1.356 0.574,-2.649 1.653,-3.473 1.25,-0.926 2.785,-1.394 4.343,-1.32 1.493,-0.051 2.957,0.406 4.153,1.297 1.07,0.789 1.718,2.019 1.761,3.347 l -2.39,0 c -0.106,-0.734 -0.516,-1.383 -1.133,-1.793 -0.711,-0.461 -1.547,-0.687 -2.391,-0.652 -0.875,-0.043 -1.742,0.187 -2.476,0.66 -0.598,0.395 -0.949,1.067 -0.938,1.785 -0.008,0.563 0.258,1.094 0.711,1.422 0.707,0.461 1.496,0.77 2.328,0.918 l 1.805,0.426 c 1.348,0.23 2.613,0.805 3.676,1.664 0.762,0.766 1.168,1.816 1.117,2.898 0.055,1.426 -0.582,2.793 -1.711,3.672 -2.746,1.782 -6.281,1.813 -9.058,0.078 -1.122,-0.804 -1.813,-2.074 -1.876,-3.453 z" /><path
                   inkscape:connector-curvature="0"
                   id="path636"
                   style="fill:#000000;fill-opacity:1;fill-rule:nonzero;stroke:none"
                   d="m 122.90547,303.24887 0,2.25 -10.445,0 0,-16.2 10.445,0 0,2.25 -7.941,0 0,4.657 7.5,0 0,2.136 -7.5,0 0,4.957 7.941,-0.05 z" /><path
                   inkscape:connector-curvature="0"
                   id="path638"
                   style="fill:#000000;fill-opacity:1;fill-rule:nonzero;stroke:none"
                   d="m 130.19047,305.47487 -2.425,0 0,-16.199 2.25,0 8.55,11.641 0.18,0 0,-11.641 2.469,0 0,16.199 -2.25,0 -8.574,-11.617 -0.2,0 0,11.617 z" /><g
                   transform="translate(63.099244,5.1390972)"
                   id="g4792"><path
                     d="m 102.809,299.871 -0.75,-2.168 c -0.2,-0.566 -0.465,-1.297 -0.75,-2.172 l -6.336,0 -1.5,4.34 -2.567,0 6,-16.199 2.672,0 6,16.199 -2.769,0 z m -4.786,-13.305 c -0.328,0.93 -0.605,1.735 -0.847,2.422 -0.238,0.692 -0.477,1.367 -0.75,2.059 -0.27,0.687 -0.524,1.5 -0.848,2.422 l 5.035,0 -2.422,-6.903 -0.168,0 z"
                     style="fill:#000000;fill-opacity:1;fill-rule:nonzero;stroke:none"
                     id="path640"
                     inkscape:connector-curvature="0" /><path
                     d="m 109.508,283.672 6.433,0 c 1.457,-0.055 2.871,0.484 3.918,1.5 1.012,1.035 1.555,2.437 1.5,3.887 0.063,1.437 -0.48,2.832 -1.5,3.847 -1.062,1.012 -2.488,1.551 -3.953,1.5 l -3.871,0 0,5.489 -2.527,0 0,-16.223 z m 2.496,2.183 0,6.368 3.277,0 c 0.946,0.058 1.875,-0.235 2.61,-0.825 0.644,-0.601 0.988,-1.457 0.937,-2.332 0.067,-0.894 -0.273,-1.769 -0.922,-2.386 -0.738,-0.594 -1.676,-0.887 -2.625,-0.825 l -3.277,0 z"
                     style="fill:#000000;fill-opacity:1;fill-rule:nonzero;stroke:none"
                     id="path642"
                     inkscape:connector-curvature="0" /><path
                     d="m 125.82,283.672 6.442,0 c 1.457,-0.055 2.871,0.488 3.914,1.5 1.015,1.035 1.558,2.437 1.5,3.887 0.066,1.433 -0.481,2.832 -1.5,3.847 -1.063,1.008 -2.492,1.551 -3.957,1.5 l -3.871,0 0,5.489 -2.496,0 -0.032,-16.223 z m 2.496,2.183 0,6.368 3.286,0 c 0.941,0.054 1.871,-0.239 2.609,-0.825 0.644,-0.601 0.984,-1.457 0.93,-2.332 0.062,-0.89 -0.274,-1.765 -0.914,-2.386 -0.743,-0.59 -1.676,-0.887 -2.625,-0.825 l -3.286,0 z"
                     style="fill:#000000;fill-opacity:1;fill-rule:nonzero;stroke:none"
                     id="path644"
                     inkscape:connector-curvature="0" /><path
                     d="m 152.414,297.621 0,2.25 -10.258,0 0,-16.199 2.489,0 0,13.949 7.769,0 z"
                     style="fill:#000000;fill-opacity:1;fill-rule:nonzero;stroke:none"
                     id="path646"
                     inkscape:connector-curvature="0" /><path
                     d="m 156.816,283.672 2.5,0 0,16.199 -2.5,0 0,-16.199 z"
                     style="fill:#000000;fill-opacity:1;fill-rule:nonzero;stroke:none"
                     id="path648"
                     inkscape:connector-curvature="0" /><path
                     d="m 165.93,297.988 c -1.336,-1.5 -1.996,-3.59 -1.996,-6.215 0,-2.625 0.66,-4.703 1.988,-6.218 1.383,-1.532 3.379,-2.36 5.437,-2.25 1.676,-0.047 3.313,0.507 4.614,1.558 1.254,0.989 2.062,2.43 2.25,4.016 l -2.496,0 c -0.207,-0.949 -0.739,-1.793 -1.5,-2.387 -0.809,-0.601 -1.797,-0.918 -2.805,-0.89 -1.391,-0.055 -2.715,0.566 -3.563,1.664 -1.757,2.765 -1.757,6.3 0,9.066 0.844,1.109 2.176,1.734 3.567,1.68 1,0.027 1.984,-0.254 2.812,-0.809 0.75,-0.523 1.285,-1.297 1.5,-2.183 l 2.485,0 c -0.203,1.527 -1.016,2.91 -2.25,3.832 -1.325,0.996 -2.95,1.507 -4.606,1.457 -2.07,0.086 -4.066,-0.766 -5.437,-2.321 z"
                     style="fill:#000000;fill-opacity:1;fill-rule:nonzero;stroke:none"
                     id="path650"
                     inkscape:connector-curvature="0" /><path
                     d="m 193.426,299.871 c -0.309,-0.875 -0.563,-1.598 -0.75,-2.168 l -0.75,-2.172 -6.34,0 -1.5,4.34 -2.57,0 6,-16.199 2.66,0 6,16.199 -2.75,0 z m -4.793,-13.305 c -0.324,0.93 -0.61,1.735 -0.848,2.422 -0.238,0.692 -0.48,1.367 -0.75,2.059 -0.269,0.687 -0.531,1.5 -0.855,2.422 l 5.078,0 -2.422,-6.903 -0.203,0 z"
                     style="fill:#000000;fill-opacity:1;fill-rule:nonzero;stroke:none"
                     id="path652"
                     inkscape:connector-curvature="0" /><path
                     d="m 206.797,299.871 -2.488,0 0,-13.973 -5.207,0 0,-2.25 12.914,0 0,2.25 -5.25,0 0.031,13.973 z"
                     style="fill:#000000;fill-opacity:1;fill-rule:nonzero;stroke:none"
                     id="path654"
                     inkscape:connector-curvature="0" /><path
                     d="m 216.309,283.672 2.488,0 0,16.199 -2.488,0 0,-16.199 z"
                     style="fill:#000000;fill-opacity:1;fill-rule:nonzero;stroke:none"
                     id="path656"
                     inkscape:connector-curvature="0" /><path
                     d="m 236.746,285.57 c 2.734,3.684 2.734,8.723 0,12.407 -3.133,3.046 -8.121,3.046 -11.25,0 -2.762,-3.68 -2.762,-8.739 0,-12.415 3.125,-3.058 8.125,-3.058 11.25,0 l 0,0.008 z m -9.383,1.68 c -0.98,1.289 -1.476,2.883 -1.394,4.5 -0.078,1.613 0.406,3.203 1.371,4.5 2.012,2.25 5.527,2.25 7.539,0 1.832,-2.738 1.832,-6.312 0,-9.051 -2.008,-2.226 -5.496,-2.226 -7.5,0 l -0.016,0.051 z"
                     style="fill:#000000;fill-opacity:1;fill-rule:nonzero;stroke:none"
                     id="path658"
                     inkscape:connector-curvature="0" /><path
                     d="m 245.859,299.871 -2.433,0 0,-16.199 2.25,0 8.582,11.648 0.187,0 0,-11.648 2.422,0 0,16.199 -2.25,0 -8.551,-11.637 -0.195,0 -0.012,11.637 z"
                     style="fill:#000000;fill-opacity:1;fill-rule:nonzero;stroke:none"
                     id="path660"
                     inkscape:connector-curvature="0" /></g></g><path
                 d="m 182.91165,148.18961 -14.43656,22.29337 -14.06506,0 14.45969,-22.33502 -14.45969,-22.34294 14.06506,0 14.43656,22.29932 0.0231,0.0436 -0.0231,0.0416 z"
                 style="fill:#0886f3;fill-opacity:1;fill-rule:nonzero;stroke:none"
                 id="path620-6"
                 inkscape:connector-curvature="0" /><path
                 d="m 185.20669,125.50822 -7.69421,11.89826 6.56321,10.10889 14.27924,-21.98864 -13.14824,-0.0185 z m -1.131,19.3036 -4.82804,-7.43641 6.74697,-10.41098 9.67196,0 -11.59089,17.84739 z"
                 style="fill:#000000;fill-opacity:1;fill-rule:nonzero;stroke:none"
                 id="path662"
                 inkscape:connector-curvature="0" /><path
                 d="m 198.35493,170.44728 -14.27924,-21.98137 -6.56321,10.1089 7.69421,11.87247 13.14824,0 z m -2.68835,-1.45159 -9.67196,0 -6.74697,-10.41097 4.82804,-7.43641 11.59089,17.84738 z"
                 style="fill:#000000;fill-opacity:1;fill-rule:nonzero;stroke:none"
                 id="path664"
                 inkscape:connector-curvature="0" /></g></g></g></g></g></g></svg>