<svg xmlns="http://www.w3.org/2000/svg" 
  xmlns:xlink="http://www.w3.org/1999/xlink" viewBox="0 0 500 500">
  <defs>
    <style>.a{fill:none;}.b{clip-path:url(#a);}.c{fill:#866a43;}.d{fill-opacity:0.07;}.e{fill:#3c6d83;}.f{fill:#f2903c;}.g{fill:#c3d1da;}.h{fill:#848485;}.i{font-size:15.63px;fill:#4d4c4c;font-family:Museo-300, Museo;}.j{letter-spacing:-0.01em;}.k{letter-spacing:-0.02em;}.l{letter-spacing:0em;}.m{letter-spacing:0em;}.n{letter-spacing:0em;}.o{letter-spacing:0.02em;}.p{letter-spacing:0.02em;}.q{letter-spacing:0.01em;}.r{letter-spacing:0.01em;}.s{letter-spacing:0.01em;}.t{letter-spacing:0em;}.u{letter-spacing:0.02em;}.v{letter-spacing:0.02em;}.w{stroke:#000;stroke-miterlimit:10;stroke-width:1.15px;}</style>
    <clipPath id="a" >
      <rect class="a" width="500" height="500"/>
    </clipPath>
  </defs>
  <title>recsus</title>
  <g class="b">
    <rect class="c" width="500" height="500"/>
    <path class="d" d="M11.72,11.73A4.69,4.69,0,0,0,7,7,7,7,0,0,1,0,0H2.34A4.69,4.69,0,0,0,7,4.69a7,7,0,0,1,7,7,4.69,4.69,0,0,0,4.69,4.69,7,7,0,0,1,7,7,4.69,4.69,0,0,0,4.69,4.69V30.5a7,7,0,0,1-7-7,4.69,4.69,0,0,0-4.69-4.69A7,7,0,0,1,11.72,11.73ZM41.59,9.44l9.95,10-1.65,1.65-10-10Z" transform="translate(0.01)"/>
    <rect class="d" x="59.98" y="6.52" width="1.03" height="0.86"/>
    <path class="d" d="M11.72,42.23A4.69,4.69,0,0,0,7,37.53a7,7,0,0,1-7-7H2.34A4.69,4.69,0,0,0,7,35.19a7,7,0,0,1,7,7,4.69,4.69,0,0,0,4.69,4.69,7,7,0,0,1,7,7,4.69,4.69,0,0,0,4.69,4.69V61a7,7,0,0,1-7-7,4.69,4.69,0,0,0-4.69-4.7A7,7,0,0,1,11.72,42.23Zm29.87-2.29,9.95,10-1.65,1.66-10-9.95Z" transform="translate(0.01)"/>
    <rect class="d" x="59.98" y="37.01" width="1.03" height="0.86"/>
    <path class="d" d="M11.72,72.72A4.69,4.69,0,0,0,7,68a7,7,0,0,1-7-7H2.34A4.69,4.69,0,0,0,7,65.69a7,7,0,0,1,7,7,4.69,4.69,0,0,0,4.69,4.7,7,7,0,0,1,7,7,4.69,4.69,0,0,0,4.69,4.7v2.34a7,7,0,0,1-7-7,4.69,4.69,0,0,0-4.69-4.69A7,7,0,0,1,11.72,72.72Zm29.87-2.28,9.95,10-1.65,1.66-10-10Z" transform="translate(0.01)"/>
    <rect class="d" x="59.98" y="67.51" width="1.03" height="0.86"/>
    <path class="d" d="M11.72,103.22A4.69,4.69,0,0,0,7,98.53a7,7,0,0,1-7-7H2.34A4.69,4.69,0,0,0,7,96.18a7,7,0,0,1,7,7,4.69,4.69,0,0,0,4.69,4.69,7,7,0,0,1,7,7,4.69,4.69,0,0,0,4.69,4.69V122a7,7,0,0,1-7-7,4.69,4.69,0,0,0-4.69-4.69A7,7,0,0,1,11.72,103.22Zm29.87-2.29,9.95,10-1.65,1.66-10-10Z" transform="translate(0.01)"/>
    <rect class="d" x="59.98" y="98.01" width="1.03" height="0.86"/>
    <path class="d" d="M11.72,133.72A4.69,4.69,0,0,0,7,129a7,7,0,0,1-7-7H2.34A4.69,4.69,0,0,0,7,126.68a7,7,0,0,1,7,7,4.69,4.69,0,0,0,4.69,4.69,7,7,0,0,1,7,7,4.69,4.69,0,0,0,4.69,4.69v2.35a7,7,0,0,1-7-7,4.69,4.69,0,0,0-4.69-4.69A7,7,0,0,1,11.72,133.72Zm29.87-2.29,9.95,9.95L49.89,143l-10-9.95Z" transform="translate(0.01)"/>
    <rect class="d" x="59.98" y="128.5" width="1.03" height="0.86"/>
    <path class="d" d="M11.72,164.21A4.69,4.69,0,0,0,7,159.52a7,7,0,0,1-7-7H2.34A4.69,4.69,0,0,0,7,157.18a7,7,0,0,1,7,7,4.69,4.69,0,0,0,4.69,4.7,7,7,0,0,1,7,7,4.69,4.69,0,0,0,4.69,4.7V183a7,7,0,0,1-7-7,4.69,4.69,0,0,0-4.69-4.69A7,7,0,0,1,11.72,164.21Zm29.87-2.28,9.95,9.95-1.65,1.66-10-9.95Z" transform="translate(0.01)"/>
    <rect class="d" x="59.98" y="159" width="1.03" height="0.86"/>
    <path class="d" d="M11.72,194.71A4.69,4.69,0,0,0,7,190a7,7,0,0,1-7-7H2.34A4.69,4.69,0,0,0,7,187.67a7,7,0,0,1,7,7,4.69,4.69,0,0,0,4.69,4.69,7,7,0,0,1,7,7,4.69,4.69,0,0,0,4.69,4.69v2.35a7,7,0,0,1-7-7,4.69,4.69,0,0,0-4.69-4.69A7,7,0,0,1,11.72,194.71Zm29.87-2.29,9.95,10L49.89,204l-10-10Z" transform="translate(0.01)"/>
    <rect class="d" x="59.98" y="189.5" width="1.03" height="0.86"/>
    <path class="d" d="M11.72,225.21A4.69,4.69,0,0,0,7,220.52a7,7,0,0,1-7-7H2.34A4.69,4.69,0,0,0,7,218.17a7,7,0,0,1,7,7,4.69,4.69,0,0,0,4.69,4.69,7,7,0,0,1,7,7,4.69,4.69,0,0,0,4.69,4.69V244a7,7,0,0,1-7-7,4.69,4.69,0,0,0-4.69-4.69A7,7,0,0,1,11.72,225.21Zm29.87-2.29,9.95,10-1.65,1.65-10-9.95Z" transform="translate(0.01)"/>
    <rect class="d" x="59.98" y="220" width="1.03" height="0.86"/>
    <path class="d" d="M11.72,255.71A4.69,4.69,0,0,0,7,251a7,7,0,0,1-7-7H2.34A4.69,4.69,0,0,0,7,248.67a7,7,0,0,1,7,7,4.69,4.69,0,0,0,4.69,4.69,7,7,0,0,1,7,7,4.69,4.69,0,0,0,4.69,4.69v2.34a7,7,0,0,1-7-7,4.69,4.69,0,0,0-4.69-4.7A7,7,0,0,1,11.72,255.71Zm29.87-2.29,9.95,10L49.89,265l-10-9.95Z" transform="translate(0.01)"/>
    <rect class="d" x="59.98" y="250.49" width="1.03" height="0.86"/>
    <path class="d" d="M11.72,286.2A4.69,4.69,0,0,0,7,281.51a7,7,0,0,1-7-7H2.34A4.68,4.68,0,0,0,7,279.16a7,7,0,0,1,7,7,4.68,4.68,0,0,0,4.69,4.69,7,7,0,0,1,7,7,4.69,4.69,0,0,0,4.69,4.69V305a7,7,0,0,1-7-7,4.69,4.69,0,0,0-4.69-4.69A7,7,0,0,1,11.72,286.2Zm29.87-2.28,9.95,9.95-1.65,1.66-10-10Z" transform="translate(0.01)"/>
    <rect class="d" x="59.98" y="280.99" width="1.03" height="0.86"/>
    <path class="d" d="M11.72,316.7A4.69,4.69,0,0,0,7,312a7,7,0,0,1-7-7H2.34A4.69,4.69,0,0,0,7,309.66a7,7,0,0,1,7,7,4.69,4.69,0,0,0,4.69,4.69,7,7,0,0,1,7,7,4.69,4.69,0,0,0,4.69,4.69v2.35a7,7,0,0,1-7-7,4.69,4.69,0,0,0-4.69-4.69A7,7,0,0,1,11.72,316.7Zm29.87-2.29,9.95,10L49.89,326l-10-9.95Z" transform="translate(0.01)"/>
    <rect class="d" x="59.98" y="311.49" width="1.03" height="0.86"/>
    <path class="d" d="M11.72,347.2A4.69,4.69,0,0,0,7,342.5a7,7,0,0,1-7-7H2.34A4.69,4.69,0,0,0,7,340.16a7,7,0,0,1,7,7,4.69,4.69,0,0,0,4.69,4.69,7,7,0,0,1,7,7,4.69,4.69,0,0,0,4.69,4.69V366a7,7,0,0,1-7-7,4.69,4.69,0,0,0-4.69-4.7A7,7,0,0,1,11.72,347.2Zm29.87-2.29,9.95,9.95-1.65,1.66-10-9.95Z" transform="translate(0.01)"/>
    <rect class="d" x="59.98" y="341.98" width="1.03" height="0.86"/>
    <path class="d" d="M11.72,377.69A4.69,4.69,0,0,0,7,373a7,7,0,0,1-7-7H2.34A4.69,4.69,0,0,0,7,370.66a7,7,0,0,1,7,7,4.69,4.69,0,0,0,4.69,4.7,7,7,0,0,1,7,7,4.69,4.69,0,0,0,4.69,4.7v2.34a7,7,0,0,1-7-7,4.69,4.69,0,0,0-4.69-4.69A7,7,0,0,1,11.72,377.69Zm29.87-2.28,9.95,9.95L49.89,387l-10-9.95Z" transform="translate(0.01)"/>
    <rect class="d" x="59.98" y="372.48" width="1.03" height="0.86"/>
    <path class="d" d="M11.72,408.19A4.69,4.69,0,0,0,7,403.5a7,7,0,0,1-7-7H2.34A4.69,4.69,0,0,0,7,401.15a7,7,0,0,1,7,7,4.69,4.69,0,0,0,4.69,4.69,7,7,0,0,1,7,7,4.69,4.69,0,0,0,4.69,4.69V427a7,7,0,0,1-7-7,4.69,4.69,0,0,0-4.69-4.69A7,7,0,0,1,11.72,408.19Zm29.87-2.29,9.95,10-1.65,1.66-10-10Z" transform="translate(0.01)"/>
    <rect class="d" x="59.98" y="402.98" width="1.03" height="0.86"/>
    <path class="d" d="M11.72,438.69A4.69,4.69,0,0,0,7,434a7,7,0,0,1-7-7H2.34A4.69,4.69,0,0,0,7,431.65a7,7,0,0,1,7,7,4.69,4.69,0,0,0,4.69,4.69,7,7,0,0,1,7,7,4.69,4.69,0,0,0,4.69,4.69v2.35a7,7,0,0,1-7-7,4.69,4.69,0,0,0-4.69-4.69A7,7,0,0,1,11.72,438.69Zm29.87-2.29,9.95,10L49.89,448l-10-9.95Z" transform="translate(0.01)"/>
    <rect class="d" x="59.98" y="433.47" width="1.03" height="0.86"/>
    <path class="d" d="M11.72,469.18A4.69,4.69,0,0,0,7,464.49a7,7,0,0,1-7-7H2.34A4.69,4.69,0,0,0,7,462.15a7,7,0,0,1,7,7,4.69,4.69,0,0,0,4.69,4.7,7,7,0,0,1,7,7,4.69,4.69,0,0,0,4.69,4.7V488a7,7,0,0,1-7-7,4.69,4.69,0,0,0-4.69-4.69A7,7,0,0,1,11.72,469.18Zm29.87-2.28,9.95,10-1.65,1.66-10-9.95Z" transform="translate(0.01)"/>
    <rect class="d" x="59.98" y="463.97" width="1.03" height="0.86"/>
    <path class="d" d="M11.72,499.68A4.69,4.69,0,0,0,7,495a7,7,0,0,1-7-7H2.34A4.69,4.69,0,0,0,7,492.64a7,7,0,0,1,7,7,4.69,4.69,0,0,0,4.69,4.69,7,7,0,0,1,7,7,4.69,4.69,0,0,0,4.69,4.69v2.35a7,7,0,0,1-7-7,4.69,4.69,0,0,0-4.69-4.69A7,7,0,0,1,11.72,499.68Zm29.87-2.29,9.95,10L49.89,509l-10-10Z" transform="translate(0.01)"/>
    <rect class="d" x="59.98" y="494.47" width="1.03" height="0.86"/>
    <path class="d" d="M72.73,11.73A4.69,4.69,0,0,0,68,7a7,7,0,0,1-7-7h2.35A4.69,4.69,0,0,0,68,4.69a7,7,0,0,1,7,7,4.69,4.69,0,0,0,4.69,4.69,7,7,0,0,1,7,7,4.69,4.69,0,0,0,4.69,4.69V30.5a7,7,0,0,1-7-7,4.69,4.69,0,0,0-4.69-4.69A7,7,0,0,1,72.73,11.73ZM102.6,9.44l10,10-1.65,1.65-10-10Z" transform="translate(0.01)"/>
    <rect class="d" x="120.99" y="6.52" width="1.03" height="0.86"/>
    <path class="d" d="M133.74,11.73A4.69,4.69,0,0,0,129.05,7a7,7,0,0,1-7-7h2.35a4.69,4.69,0,0,0,4.69,4.69,7,7,0,0,1,7,7,4.69,4.69,0,0,0,4.69,4.69,7,7,0,0,1,7,7,4.69,4.69,0,0,0,4.69,4.69V30.5a7,7,0,0,1-7-7,4.69,4.69,0,0,0-4.69-4.69A7,7,0,0,1,133.74,11.73Zm29.87-2.29,9.95,10-1.65,1.65-10-10Z" transform="translate(0.01)"/>
    <rect class="d" x="182" y="6.52" width="1.03" height="0.86"/>
    <path class="d" d="M194.75,11.73A4.69,4.69,0,0,0,190.06,7a7,7,0,0,1-7-7h2.35a4.69,4.69,0,0,0,4.69,4.69,7,7,0,0,1,7,7,4.69,4.69,0,0,0,4.69,4.69,7,7,0,0,1,7,7,4.69,4.69,0,0,0,4.69,4.69V30.5a7,7,0,0,1-7-7,4.69,4.69,0,0,0-4.69-4.69A7,7,0,0,1,194.75,11.73Zm29.87-2.29,9.95,10-1.65,1.65-10-10Z" transform="translate(0.01)"/>
    <rect class="d" x="243.01" y="6.52" width="1.03" height="0.86"/>
    <path class="d" d="M255.76,11.73A4.69,4.69,0,0,0,251.07,7a7,7,0,0,1-7-7h2.35a4.69,4.69,0,0,0,4.69,4.69,7,7,0,0,1,7,7,4.69,4.69,0,0,0,4.69,4.69,7,7,0,0,1,7,7,4.69,4.69,0,0,0,4.69,4.69V30.5a7,7,0,0,1-7-7,4.69,4.69,0,0,0-4.69-4.69A7,7,0,0,1,255.76,11.73Zm29.87-2.29,9.95,10-1.65,1.65-10-10Z" transform="translate(0.01)"/>
    <rect class="d" x="304.02" y="6.52" width="1.03" height="0.86"/>
    <path class="d" d="M316.77,11.73A4.69,4.69,0,0,0,312.08,7a7,7,0,0,1-7-7h2.35a4.69,4.69,0,0,0,4.69,4.69,7,7,0,0,1,7,7,4.69,4.69,0,0,0,4.69,4.69,7,7,0,0,1,7,7,4.69,4.69,0,0,0,4.69,4.69V30.5a7,7,0,0,1-7-7,4.69,4.69,0,0,0-4.69-4.69A7,7,0,0,1,316.77,11.73Zm29.87-2.29,9.95,10-1.65,1.65-10-10Z" transform="translate(0.01)"/>
    <rect class="d" x="365.03" y="6.52" width="1.03" height="0.86"/>
    <path class="d" d="M377.78,11.73A4.69,4.69,0,0,0,373.09,7a7,7,0,0,1-7-7h2.35a4.69,4.69,0,0,0,4.69,4.69,7,7,0,0,1,7,7,4.69,4.69,0,0,0,4.69,4.69,7,7,0,0,1,7,7,4.69,4.69,0,0,0,4.69,4.69V30.5a7,7,0,0,1-7-7,4.69,4.69,0,0,0-4.69-4.69A7,7,0,0,1,377.78,11.73Zm29.87-2.29,10,10L416,21.05l-10-10Z" transform="translate(0.01)"/>
    <rect class="d" x="426.04" y="6.52" width="1.03" height="0.86"/>
    <path class="d" d="M438.79,11.73A4.69,4.69,0,0,0,434.1,7a7,7,0,0,1-7-7h2.35a4.69,4.69,0,0,0,4.69,4.69,7,7,0,0,1,7,7,4.69,4.69,0,0,0,4.69,4.69,7,7,0,0,1,7,7,4.69,4.69,0,0,0,4.69,4.69V30.5a7,7,0,0,1-7-7,4.69,4.69,0,0,0-4.69-4.69A7,7,0,0,1,438.79,11.73Zm29.87-2.29,9.95,10L477,21.05l-10-10Z" transform="translate(0.01)"/>
    <rect class="d" x="487.05" y="6.52" width="1.03" height="0.86"/>
    <path class="d" d="M499.8,11.73A4.69,4.69,0,0,0,495.11,7a7,7,0,0,1-7-7h2.35a4.69,4.69,0,0,0,4.69,4.69,7,7,0,0,1,7,7,4.69,4.69,0,0,0,4.69,4.69,7,7,0,0,1,7,7,4.69,4.69,0,0,0,4.69,4.69V30.5a7,7,0,0,1-7-7,4.69,4.69,0,0,0-4.69-4.69A7,7,0,0,1,499.8,11.73Zm29.87-2.29,10,10L538,21.05l-10-10Z" transform="translate(0.01)"/>
    <rect class="d" x="548.06" y="6.52" width="1.03" height="0.86"/>
    <path class="d" d="M72.73,42.23A4.69,4.69,0,0,0,68,37.53a7,7,0,0,1-7-7h2.35A4.69,4.69,0,0,0,68,35.19a7,7,0,0,1,7,7,4.69,4.69,0,0,0,4.69,4.69,7,7,0,0,1,7,7,4.69,4.69,0,0,0,4.69,4.69V61a7,7,0,0,1-7-7,4.69,4.69,0,0,0-4.69-4.7A7,7,0,0,1,72.73,42.23Zm29.87-2.29,10,10-1.65,1.66-10-9.95Z" transform="translate(0.01)"/>
    <rect class="d" x="120.99" y="37.01" width="1.03" height="0.86"/>
    <path class="d" d="M133.74,42.23a4.69,4.69,0,0,0-4.69-4.7,7,7,0,0,1-7-7h2.35a4.69,4.69,0,0,0,4.69,4.69,7,7,0,0,1,7,7,4.69,4.69,0,0,0,4.69,4.69,7,7,0,0,1,7,7,4.69,4.69,0,0,0,4.69,4.69V61a7,7,0,0,1-7-7,4.69,4.69,0,0,0-4.69-4.7A7,7,0,0,1,133.74,42.23Zm29.87-2.29,9.95,10-1.65,1.66L162,41.6Z" transform="translate(0.01)"/>
    <rect class="d" x="182" y="37.01" width="1.03" height="0.86"/>
    <path class="d" d="M194.75,42.23a4.69,4.69,0,0,0-4.69-4.7,7,7,0,0,1-7-7h2.35a4.69,4.69,0,0,0,4.69,4.69,7,7,0,0,1,7,7,4.69,4.69,0,0,0,4.69,4.69,7,7,0,0,1,7,7,4.69,4.69,0,0,0,4.69,4.69V61a7,7,0,0,1-7-7,4.69,4.69,0,0,0-4.69-4.7A7,7,0,0,1,194.75,42.23Zm29.87-2.29,9.95,10-1.65,1.66L223,41.6Z" transform="translate(0.01)"/>
    <rect class="d" x="243.01" y="37.01" width="1.03" height="0.86"/>
    <path class="d" d="M255.76,42.23a4.69,4.69,0,0,0-4.69-4.7,7,7,0,0,1-7-7h2.35a4.69,4.69,0,0,0,4.69,4.69,7,7,0,0,1,7,7,4.69,4.69,0,0,0,4.69,4.69,7,7,0,0,1,7,7,4.69,4.69,0,0,0,4.69,4.69V61a7,7,0,0,1-7-7,4.69,4.69,0,0,0-4.69-4.7A7,7,0,0,1,255.76,42.23Zm29.87-2.29,9.95,10-1.65,1.66L284,41.6Z" transform="translate(0.01)"/>
    <rect class="d" x="304.02" y="37.01" width="1.03" height="0.86"/>
    <path class="d" d="M316.77,42.23a4.69,4.69,0,0,0-4.69-4.7,7,7,0,0,1-7-7h2.35a4.69,4.69,0,0,0,4.69,4.69,7,7,0,0,1,7,7,4.69,4.69,0,0,0,4.69,4.69,7,7,0,0,1,7,7,4.69,4.69,0,0,0,4.69,4.69V61a7,7,0,0,1-7-7,4.69,4.69,0,0,0-4.69-4.7A7,7,0,0,1,316.77,42.23Zm29.87-2.29,9.95,10-1.65,1.66L345,41.6Z" transform="translate(0.01)"/>
    <rect class="d" x="365.03" y="37.01" width="1.03" height="0.86"/>
    <path class="d" d="M377.78,42.23a4.69,4.69,0,0,0-4.69-4.7,7,7,0,0,1-7-7h2.35a4.69,4.69,0,0,0,4.69,4.69,7,7,0,0,1,7,7,4.69,4.69,0,0,0,4.69,4.69,7,7,0,0,1,7,7,4.69,4.69,0,0,0,4.69,4.69V61a7,7,0,0,1-7-7,4.69,4.69,0,0,0-4.69-4.7A7,7,0,0,1,377.78,42.23Zm29.87-2.29,10,10L416,51.55,406,41.6Z" transform="translate(0.01)"/>
    <rect class="d" x="426.04" y="37.01" width="1.03" height="0.86"/>
    <path class="d" d="M438.79,42.23a4.69,4.69,0,0,0-4.69-4.7,7,7,0,0,1-7-7h2.35a4.69,4.69,0,0,0,4.69,4.69,7,7,0,0,1,7,7,4.69,4.69,0,0,0,4.69,4.69,7,7,0,0,1,7,7,4.69,4.69,0,0,0,4.69,4.69V61a7,7,0,0,1-7-7,4.69,4.69,0,0,0-4.69-4.7A7,7,0,0,1,438.79,42.23Zm29.87-2.29,9.95,10L477,51.55,467,41.6Z" transform="translate(0.01)"/>
    <rect class="d" x="487.05" y="37.01" width="1.03" height="0.86"/>
    <path class="d" d="M499.8,42.23a4.69,4.69,0,0,0-4.69-4.7,7,7,0,0,1-7-7h2.35a4.69,4.69,0,0,0,4.69,4.69,7,7,0,0,1,7,7,4.69,4.69,0,0,0,4.69,4.69,7,7,0,0,1,7,7,4.69,4.69,0,0,0,4.69,4.69V61a7,7,0,0,1-7-7,4.69,4.69,0,0,0-4.69-4.7A7,7,0,0,1,499.8,42.23Zm29.87-2.29,10,10L538,51.55,528,41.6Z" transform="translate(0.01)"/>
    <rect class="d" x="548.06" y="37.01" width="1.03" height="0.86"/>
    <path class="d" d="M72.73,72.72A4.69,4.69,0,0,0,68,68a7,7,0,0,1-7-7h2.35A4.69,4.69,0,0,0,68,65.69a7,7,0,0,1,7,7,4.69,4.69,0,0,0,4.69,4.7,7,7,0,0,1,7,7,4.69,4.69,0,0,0,4.69,4.7v2.34a7,7,0,0,1-7-7,4.69,4.69,0,0,0-4.69-4.69A7,7,0,0,1,72.73,72.72Zm29.87-2.28,10,10-1.65,1.66-10-10Z" transform="translate(0.01)"/>
    <rect class="d" x="120.99" y="67.51" width="1.03" height="0.86"/>
    <path class="d" d="M133.74,72.72A4.69,4.69,0,0,0,129.05,68a7,7,0,0,1-7-7h2.35a4.69,4.69,0,0,0,4.69,4.7,7,7,0,0,1,7,7,4.69,4.69,0,0,0,4.69,4.7,7,7,0,0,1,7,7,4.69,4.69,0,0,0,4.69,4.7v2.34a7,7,0,0,1-7-7,4.69,4.69,0,0,0-4.69-4.69A7,7,0,0,1,133.74,72.72Zm29.87-2.28,9.95,10-1.65,1.66-10-10Z" transform="translate(0.01)"/>
    <rect class="d" x="182" y="67.51" width="1.03" height="0.86"/>
    <path class="d" d="M194.75,72.72A4.69,4.69,0,0,0,190.06,68a7,7,0,0,1-7-7h2.35a4.69,4.69,0,0,0,4.69,4.7,7,7,0,0,1,7,7,4.69,4.69,0,0,0,4.69,4.7,7,7,0,0,1,7,7,4.69,4.69,0,0,0,4.69,4.7v2.34a7,7,0,0,1-7-7,4.69,4.69,0,0,0-4.69-4.69A7,7,0,0,1,194.75,72.72Zm29.87-2.28,9.95,10-1.65,1.66-10-10Z" transform="translate(0.01)"/>
    <rect class="d" x="243.01" y="67.51" width="1.03" height="0.86"/>
    <path class="d" d="M255.76,72.72A4.69,4.69,0,0,0,251.07,68a7,7,0,0,1-7-7h2.35a4.69,4.69,0,0,0,4.69,4.7,7,7,0,0,1,7,7,4.69,4.69,0,0,0,4.69,4.7,7,7,0,0,1,7,7,4.69,4.69,0,0,0,4.69,4.7v2.34a7,7,0,0,1-7-7,4.69,4.69,0,0,0-4.69-4.69A7,7,0,0,1,255.76,72.72Zm29.87-2.28,9.95,10-1.65,1.66-10-10Z" transform="translate(0.01)"/>
    <rect class="d" x="304.02" y="67.51" width="1.03" height="0.86"/>
    <path class="d" d="M316.77,72.72A4.69,4.69,0,0,0,312.08,68a7,7,0,0,1-7-7h2.35a4.69,4.69,0,0,0,4.69,4.7,7,7,0,0,1,7,7,4.69,4.69,0,0,0,4.69,4.7,7,7,0,0,1,7,7,4.69,4.69,0,0,0,4.69,4.7v2.34a7,7,0,0,1-7-7,4.69,4.69,0,0,0-4.69-4.69A7,7,0,0,1,316.77,72.72Zm29.87-2.28,9.95,10-1.65,1.66-10-10Z" transform="translate(0.01)"/>
    <rect class="d" x="365.03" y="67.51" width="1.03" height="0.86"/>
    <path class="d" d="M377.78,72.72A4.69,4.69,0,0,0,373.09,68a7,7,0,0,1-7-7h2.35a4.69,4.69,0,0,0,4.69,4.7,7,7,0,0,1,7,7,4.69,4.69,0,0,0,4.69,4.7,7,7,0,0,1,7,7,4.69,4.69,0,0,0,4.69,4.7v2.34a7,7,0,0,1-7-7,4.69,4.69,0,0,0-4.69-4.69A7,7,0,0,1,377.78,72.72Zm29.87-2.28,10,10L416,82.05l-10-10Z" transform="translate(0.01)"/>
    <rect class="d" x="426.04" y="67.51" width="1.03" height="0.86"/>
    <path class="d" d="M438.79,72.72A4.69,4.69,0,0,0,434.1,68a7,7,0,0,1-7-7h2.35a4.69,4.69,0,0,0,4.69,4.7,7,7,0,0,1,7,7,4.69,4.69,0,0,0,4.69,4.7,7,7,0,0,1,7,7,4.69,4.69,0,0,0,4.69,4.7v2.34a7,7,0,0,1-7-7,4.69,4.69,0,0,0-4.69-4.69A7,7,0,0,1,438.79,72.72Zm29.87-2.28,9.95,10L477,82.05l-10-10Z" transform="translate(0.01)"/>
    <rect class="d" x="487.05" y="67.51" width="1.03" height="0.86"/>
    <path class="d" d="M499.8,72.72A4.69,4.69,0,0,0,495.11,68a7,7,0,0,1-7-7h2.35a4.69,4.69,0,0,0,4.69,4.7,7,7,0,0,1,7,7,4.69,4.69,0,0,0,4.69,4.7,7,7,0,0,1,7,7,4.69,4.69,0,0,0,4.69,4.7v2.34a7,7,0,0,1-7-7,4.69,4.69,0,0,0-4.69-4.69A7,7,0,0,1,499.8,72.72Zm29.87-2.28,10,10L538,82.05l-10-10Z" transform="translate(0.01)"/>
    <rect class="d" x="548.06" y="67.51" width="1.03" height="0.86"/>
    <path class="d" d="M72.73,103.22A4.69,4.69,0,0,0,68,98.53a7,7,0,0,1-7-7h2.35A4.69,4.69,0,0,0,68,96.18a7,7,0,0,1,7,7,4.69,4.69,0,0,0,4.69,4.69,7,7,0,0,1,7,7,4.69,4.69,0,0,0,4.69,4.69V122a7,7,0,0,1-7-7,4.69,4.69,0,0,0-4.69-4.69A7,7,0,0,1,72.73,103.22Zm29.87-2.29,10,10-1.65,1.66-10-10Z" transform="translate(0.01)"/>
    <rect class="d" x="120.99" y="98.01" width="1.03" height="0.86"/>
    <path class="d" d="M133.74,103.22a4.69,4.69,0,0,0-4.69-4.69,7,7,0,0,1-7-7h2.35a4.69,4.69,0,0,0,4.69,4.69,7,7,0,0,1,7,7,4.69,4.69,0,0,0,4.69,4.69,7,7,0,0,1,7,7,4.69,4.69,0,0,0,4.69,4.69V122a7,7,0,0,1-7-7,4.69,4.69,0,0,0-4.69-4.69A7,7,0,0,1,133.74,103.22Zm29.87-2.29,9.95,10-1.65,1.66-10-10Z" transform="translate(0.01)"/>
    <rect class="d" x="182" y="98.01" width="1.03" height="0.86"/>
    <path class="d" d="M194.75,103.22a4.69,4.69,0,0,0-4.69-4.69,7,7,0,0,1-7-7h2.35a4.69,4.69,0,0,0,4.69,4.69,7,7,0,0,1,7,7,4.69,4.69,0,0,0,4.69,4.69,7,7,0,0,1,7,7,4.69,4.69,0,0,0,4.69,4.69V122a7,7,0,0,1-7-7,4.69,4.69,0,0,0-4.69-4.69A7,7,0,0,1,194.75,103.22Zm29.87-2.29,9.95,10-1.65,1.66-10-10Z" transform="translate(0.01)"/>
    <rect class="d" x="243.01" y="98.01" width="1.03" height="0.86"/>
    <path class="d" d="M255.76,103.22a4.69,4.69,0,0,0-4.69-4.69,7,7,0,0,1-7-7h2.35a4.69,4.69,0,0,0,4.69,4.69,7,7,0,0,1,7,7,4.69,4.69,0,0,0,4.69,4.69,7,7,0,0,1,7,7,4.69,4.69,0,0,0,4.69,4.69V122a7,7,0,0,1-7-7,4.69,4.69,0,0,0-4.69-4.69A7,7,0,0,1,255.76,103.22Zm29.87-2.29,9.95,10-1.65,1.66-10-10Z" transform="translate(0.01)"/>
    <rect class="d" x="304.02" y="98.01" width="1.03" height="0.86"/>
    <path class="d" d="M316.77,103.22a4.69,4.69,0,0,0-4.69-4.69,7,7,0,0,1-7-7h2.35a4.69,4.69,0,0,0,4.69,4.69,7,7,0,0,1,7,7,4.69,4.69,0,0,0,4.69,4.69,7,7,0,0,1,7,7,4.69,4.69,0,0,0,4.69,4.69V122a7,7,0,0,1-7-7,4.69,4.69,0,0,0-4.69-4.69A7,7,0,0,1,316.77,103.22Zm29.87-2.29,9.95,10-1.65,1.66-10-10Z" transform="translate(0.01)"/>
    <rect class="d" x="365.03" y="98.01" width="1.03" height="0.86"/>
    <path class="d" d="M377.78,103.22a4.69,4.69,0,0,0-4.69-4.69,7,7,0,0,1-7-7h2.35a4.69,4.69,0,0,0,4.69,4.69,7,7,0,0,1,7,7,4.69,4.69,0,0,0,4.69,4.69,7,7,0,0,1,7,7,4.69,4.69,0,0,0,4.69,4.69V122a7,7,0,0,1-7-7,4.69,4.69,0,0,0-4.69-4.69A7,7,0,0,1,377.78,103.22Zm29.87-2.29,10,10L416,112.55l-10-10Z" transform="translate(0.01)"/>
    <rect class="d" x="426.04" y="98.01" width="1.03" height="0.86"/>
    <path class="d" d="M438.79,103.22a4.69,4.69,0,0,0-4.69-4.69,7,7,0,0,1-7-7h2.35a4.69,4.69,0,0,0,4.69,4.69,7,7,0,0,1,7,7,4.69,4.69,0,0,0,4.69,4.69,7,7,0,0,1,7,7,4.69,4.69,0,0,0,4.69,4.69V122a7,7,0,0,1-7-7,4.69,4.69,0,0,0-4.69-4.69A7,7,0,0,1,438.79,103.22Zm29.87-2.29,9.95,10L477,112.55l-10-10Z" transform="translate(0.01)"/>
    <rect class="d" x="487.05" y="98.01" width="1.03" height="0.86"/>
    <path class="d" d="M499.8,103.22a4.69,4.69,0,0,0-4.69-4.69,7,7,0,0,1-7-7h2.35a4.69,4.69,0,0,0,4.69,4.69,7,7,0,0,1,7,7,4.69,4.69,0,0,0,4.69,4.69,7,7,0,0,1,7,7,4.69,4.69,0,0,0,4.69,4.69V122a7,7,0,0,1-7-7,4.69,4.69,0,0,0-4.69-4.69A7,7,0,0,1,499.8,103.22Zm29.87-2.29,10,10L538,112.55l-10-10Z" transform="translate(0.01)"/>
    <rect class="d" x="548.06" y="98.01" width="1.03" height="0.86"/>
    <path class="d" d="M72.73,133.72A4.69,4.69,0,0,0,68,129a7,7,0,0,1-7-7h2.35A4.69,4.69,0,0,0,68,126.68a7,7,0,0,1,7,7,4.69,4.69,0,0,0,4.69,4.69,7,7,0,0,1,7,7,4.69,4.69,0,0,0,4.69,4.69v2.35a7,7,0,0,1-7-7,4.69,4.69,0,0,0-4.69-4.69A7,7,0,0,1,72.73,133.72Zm29.87-2.29,10,9.95L110.9,143l-10-9.95Z" transform="translate(0.01)"/>
    <rect class="d" x="120.99" y="128.5" width="1.03" height="0.86"/>
    <path class="d" d="M133.74,133.72a4.69,4.69,0,0,0-4.69-4.69,7,7,0,0,1-7-7h2.35a4.69,4.69,0,0,0,4.69,4.69,7,7,0,0,1,7,7,4.69,4.69,0,0,0,4.69,4.69,7,7,0,0,1,7,7,4.69,4.69,0,0,0,4.69,4.69v2.35a7,7,0,0,1-7-7,4.69,4.69,0,0,0-4.69-4.69A7,7,0,0,1,133.74,133.72Zm29.87-2.29,9.95,9.95L171.91,143l-10-9.95Z" transform="translate(0.01)"/>
    <rect class="d" x="182" y="128.5" width="1.03" height="0.86"/>
    <path class="d" d="M194.75,133.72a4.69,4.69,0,0,0-4.69-4.69,7,7,0,0,1-7-7h2.35a4.69,4.69,0,0,0,4.69,4.69,7,7,0,0,1,7,7,4.69,4.69,0,0,0,4.69,4.69,7,7,0,0,1,7,7,4.69,4.69,0,0,0,4.69,4.69v2.35a7,7,0,0,1-7-7,4.69,4.69,0,0,0-4.69-4.69A7,7,0,0,1,194.75,133.72Zm29.87-2.29,9.95,9.95L232.92,143l-10-9.95Z" transform="translate(0.01)"/>
    <rect class="d" x="243.01" y="128.5" width="1.03" height="0.86"/>
    <path class="d" d="M255.76,133.72a4.69,4.69,0,0,0-4.69-4.69,7,7,0,0,1-7-7h2.35a4.69,4.69,0,0,0,4.69,4.69,7,7,0,0,1,7,7,4.69,4.69,0,0,0,4.69,4.69,7,7,0,0,1,7,7,4.69,4.69,0,0,0,4.69,4.69v2.35a7,7,0,0,1-7-7,4.69,4.69,0,0,0-4.69-4.69A7,7,0,0,1,255.76,133.72Zm29.87-2.29,9.95,9.95L293.93,143l-10-9.95Z" transform="translate(0.01)"/>
    <rect class="d" x="304.02" y="128.5" width="1.03" height="0.86"/>
    <path class="d" d="M316.77,133.72a4.69,4.69,0,0,0-4.69-4.69,7,7,0,0,1-7-7h2.35a4.69,4.69,0,0,0,4.69,4.69,7,7,0,0,1,7,7,4.69,4.69,0,0,0,4.69,4.69,7,7,0,0,1,7,7,4.69,4.69,0,0,0,4.69,4.69v2.35a7,7,0,0,1-7-7,4.69,4.69,0,0,0-4.69-4.69A7,7,0,0,1,316.77,133.72Zm29.87-2.29,9.95,9.95L354.94,143l-10-9.95Z" transform="translate(0.01)"/>
    <rect class="d" x="365.03" y="128.5" width="1.03" height="0.86"/>
    <path class="d" d="M377.78,133.72a4.69,4.69,0,0,0-4.69-4.69,7,7,0,0,1-7-7h2.35a4.69,4.69,0,0,0,4.69,4.69,7,7,0,0,1,7,7,4.69,4.69,0,0,0,4.69,4.69,7,7,0,0,1,7,7,4.69,4.69,0,0,0,4.69,4.69v2.35a7,7,0,0,1-7-7,4.69,4.69,0,0,0-4.69-4.69A7,7,0,0,1,377.78,133.72Zm29.87-2.29,10,9.95L416,143l-10-9.95Z" transform="translate(0.01)"/>
    <rect class="d" x="426.04" y="128.5" width="1.03" height="0.86"/>
    <path class="d" d="M438.79,133.72A4.69,4.69,0,0,0,434.1,129a7,7,0,0,1-7-7h2.35a4.69,4.69,0,0,0,4.69,4.69,7,7,0,0,1,7,7,4.69,4.69,0,0,0,4.69,4.69,7,7,0,0,1,7,7,4.69,4.69,0,0,0,4.69,4.69v2.35a7,7,0,0,1-7-7,4.69,4.69,0,0,0-4.69-4.69A7,7,0,0,1,438.79,133.72Zm29.87-2.29,9.95,9.95L477,143l-10-9.95Z" transform="translate(0.01)"/>
    <rect class="d" x="487.05" y="128.5" width="1.03" height="0.86"/>
    <path class="d" d="M499.8,133.72a4.69,4.69,0,0,0-4.69-4.69,7,7,0,0,1-7-7h2.35a4.69,4.69,0,0,0,4.69,4.69,7,7,0,0,1,7,7,4.69,4.69,0,0,0,4.69,4.69,7,7,0,0,1,7,7,4.69,4.69,0,0,0,4.69,4.69v2.35a7,7,0,0,1-7-7,4.69,4.69,0,0,0-4.69-4.69A7,7,0,0,1,499.8,133.72Zm29.87-2.29,10,9.95L538,143l-10-9.95Z" transform="translate(0.01)"/>
    <rect class="d" x="548.06" y="128.5" width="1.03" height="0.86"/>
    <path class="d" d="M72.73,164.21A4.69,4.69,0,0,0,68,159.52a7,7,0,0,1-7-7h2.35A4.69,4.69,0,0,0,68,157.18a7,7,0,0,1,7,7,4.69,4.69,0,0,0,4.69,4.7,7,7,0,0,1,7,7,4.69,4.69,0,0,0,4.69,4.7V183a7,7,0,0,1-7-7,4.69,4.69,0,0,0-4.69-4.69A7,7,0,0,1,72.73,164.21Zm29.87-2.28,10,9.95-1.65,1.66-10-9.95Z" transform="translate(0.01)"/>
    <rect class="d" x="120.99" y="159" width="1.03" height="0.86"/>
    <path class="d" d="M133.74,164.21a4.69,4.69,0,0,0-4.69-4.69,7,7,0,0,1-7-7h2.35a4.69,4.69,0,0,0,4.69,4.69,7,7,0,0,1,7,7,4.69,4.69,0,0,0,4.69,4.7,7,7,0,0,1,7,7,4.69,4.69,0,0,0,4.69,4.7V183a7,7,0,0,1-7-7,4.69,4.69,0,0,0-4.69-4.69A7,7,0,0,1,133.74,164.21Zm29.87-2.28,9.95,9.95-1.65,1.66-10-9.95Z" transform="translate(0.01)"/>
    <rect class="d" x="182" y="159" width="1.03" height="0.86"/>
    <path class="d" d="M194.75,164.21a4.69,4.69,0,0,0-4.69-4.69,7,7,0,0,1-7-7h2.35a4.69,4.69,0,0,0,4.69,4.69,7,7,0,0,1,7,7,4.69,4.69,0,0,0,4.69,4.7,7,7,0,0,1,7,7,4.69,4.69,0,0,0,4.69,4.7V183a7,7,0,0,1-7-7,4.69,4.69,0,0,0-4.69-4.69A7,7,0,0,1,194.75,164.21Zm29.87-2.28,9.95,9.95-1.65,1.66-10-9.95Z" transform="translate(0.01)"/>
    <rect class="d" x="243.01" y="159" width="1.03" height="0.86"/>
    <path class="d" d="M255.76,164.21a4.69,4.69,0,0,0-4.69-4.69,7,7,0,0,1-7-7h2.35a4.69,4.69,0,0,0,4.69,4.69,7,7,0,0,1,7,7,4.69,4.69,0,0,0,4.69,4.7,7,7,0,0,1,7,7,4.69,4.69,0,0,0,4.69,4.7V183a7,7,0,0,1-7-7,4.69,4.69,0,0,0-4.69-4.69A7,7,0,0,1,255.76,164.21Zm29.87-2.28,9.95,9.95-1.65,1.66-10-9.95Z" transform="translate(0.01)"/>
    <rect class="d" x="304.02" y="159" width="1.03" height="0.86"/>
    <path class="d" d="M316.77,164.21a4.69,4.69,0,0,0-4.69-4.69,7,7,0,0,1-7-7h2.35a4.69,4.69,0,0,0,4.69,4.69,7,7,0,0,1,7,7,4.69,4.69,0,0,0,4.69,4.7,7,7,0,0,1,7,7,4.69,4.69,0,0,0,4.69,4.7V183a7,7,0,0,1-7-7,4.69,4.69,0,0,0-4.69-4.69A7,7,0,0,1,316.77,164.21Zm29.87-2.28,9.95,9.95-1.65,1.66-10-9.95Z" transform="translate(0.01)"/>
    <rect class="d" x="365.03" y="159" width="1.03" height="0.86"/>
    <path class="d" d="M377.78,164.21a4.69,4.69,0,0,0-4.69-4.69,7,7,0,0,1-7-7h2.35a4.69,4.69,0,0,0,4.69,4.69,7,7,0,0,1,7,7,4.69,4.69,0,0,0,4.69,4.7,7,7,0,0,1,7,7,4.69,4.69,0,0,0,4.69,4.7V183a7,7,0,0,1-7-7,4.69,4.69,0,0,0-4.69-4.69A7,7,0,0,1,377.78,164.21Zm29.87-2.28,10,9.95L416,173.54l-10-9.95Z" transform="translate(0.01)"/>
    <rect class="d" x="426.04" y="159" width="1.03" height="0.86"/>
    <path class="d" d="M438.79,164.21a4.69,4.69,0,0,0-4.69-4.69,7,7,0,0,1-7-7h2.35a4.69,4.69,0,0,0,4.69,4.69,7,7,0,0,1,7,7,4.69,4.69,0,0,0,4.69,4.7,7,7,0,0,1,7,7,4.69,4.69,0,0,0,4.69,4.7V183a7,7,0,0,1-7-7,4.69,4.69,0,0,0-4.69-4.69A7,7,0,0,1,438.79,164.21Zm29.87-2.28,9.95,9.95L477,173.54l-10-9.95Z" transform="translate(0.01)"/>
    <rect class="d" x="487.05" y="159" width="1.03" height="0.86"/>
    <path class="d" d="M499.8,164.21a4.69,4.69,0,0,0-4.69-4.69,7,7,0,0,1-7-7h2.35a4.69,4.69,0,0,0,4.69,4.69,7,7,0,0,1,7,7,4.69,4.69,0,0,0,4.69,4.7,7,7,0,0,1,7,7,4.69,4.69,0,0,0,4.69,4.7V183a7,7,0,0,1-7-7,4.69,4.69,0,0,0-4.69-4.69A7,7,0,0,1,499.8,164.21Zm29.87-2.28,10,9.95L538,173.54l-10-9.95Z" transform="translate(0.01)"/>
    <rect class="d" x="548.06" y="159" width="1.03" height="0.86"/>
    <path class="d" d="M72.73,194.71A4.69,4.69,0,0,0,68,190a7,7,0,0,1-7-7h2.35A4.69,4.69,0,0,0,68,187.67a7,7,0,0,1,7,7,4.69,4.69,0,0,0,4.69,4.69,7,7,0,0,1,7,7,4.69,4.69,0,0,0,4.69,4.69v2.35a7,7,0,0,1-7-7,4.69,4.69,0,0,0-4.69-4.69A7,7,0,0,1,72.73,194.71Zm29.87-2.29,10,10L110.9,204l-10-10Z" transform="translate(0.01)"/>
    <rect class="d" x="120.99" y="189.5" width="1.03" height="0.86"/>
    <path class="d" d="M133.74,194.71a4.69,4.69,0,0,0-4.69-4.69,7,7,0,0,1-7-7h2.35a4.69,4.69,0,0,0,4.69,4.69,7,7,0,0,1,7,7,4.69,4.69,0,0,0,4.69,4.69,7,7,0,0,1,7,7,4.69,4.69,0,0,0,4.69,4.69v2.35a7,7,0,0,1-7-7,4.69,4.69,0,0,0-4.69-4.69A7,7,0,0,1,133.74,194.71Zm29.87-2.29,9.95,10L171.91,204l-10-10Z" transform="translate(0.01)"/>
    <rect class="d" x="182" y="189.5" width="1.03" height="0.86"/>
    <path class="d" d="M194.75,194.71a4.69,4.69,0,0,0-4.69-4.69,7,7,0,0,1-7-7h2.35a4.69,4.69,0,0,0,4.69,4.69,7,7,0,0,1,7,7,4.69,4.69,0,0,0,4.69,4.69,7,7,0,0,1,7,7,4.69,4.69,0,0,0,4.69,4.69v2.35a7,7,0,0,1-7-7,4.69,4.69,0,0,0-4.69-4.69A7,7,0,0,1,194.75,194.71Zm29.87-2.29,9.95,10L232.92,204l-10-10Z" transform="translate(0.01)"/>
    <rect class="d" x="243.01" y="189.5" width="1.03" height="0.86"/>
    <path class="d" d="M255.76,194.71a4.69,4.69,0,0,0-4.69-4.69,7,7,0,0,1-7-7h2.35a4.69,4.69,0,0,0,4.69,4.69,7,7,0,0,1,7,7,4.69,4.69,0,0,0,4.69,4.69,7,7,0,0,1,7,7,4.69,4.69,0,0,0,4.69,4.69v2.35a7,7,0,0,1-7-7,4.69,4.69,0,0,0-4.69-4.69A7,7,0,0,1,255.76,194.71Zm29.87-2.29,9.95,10L293.93,204l-10-10Z" transform="translate(0.01)"/>
    <rect class="d" x="304.02" y="189.5" width="1.03" height="0.86"/>
    <path class="d" d="M316.77,194.71a4.69,4.69,0,0,0-4.69-4.69,7,7,0,0,1-7-7h2.35a4.69,4.69,0,0,0,4.69,4.69,7,7,0,0,1,7,7,4.69,4.69,0,0,0,4.69,4.69,7,7,0,0,1,7,7,4.69,4.69,0,0,0,4.69,4.69v2.35a7,7,0,0,1-7-7,4.69,4.69,0,0,0-4.69-4.69A7,7,0,0,1,316.77,194.71Zm29.87-2.29,9.95,10L354.94,204l-10-10Z" transform="translate(0.01)"/>
    <rect class="d" x="365.03" y="189.5" width="1.03" height="0.86"/>
    <path class="d" d="M377.78,194.71a4.69,4.69,0,0,0-4.69-4.69,7,7,0,0,1-7-7h2.35a4.69,4.69,0,0,0,4.69,4.69,7,7,0,0,1,7,7,4.69,4.69,0,0,0,4.69,4.69,7,7,0,0,1,7,7,4.69,4.69,0,0,0,4.69,4.69v2.35a7,7,0,0,1-7-7,4.69,4.69,0,0,0-4.69-4.69A7,7,0,0,1,377.78,194.71Zm29.87-2.29,10,10L416,204l-10-10Z" transform="translate(0.01)"/>
    <rect class="d" x="426.04" y="189.5" width="1.03" height="0.86"/>
    <path class="d" d="M438.79,194.71A4.69,4.69,0,0,0,434.1,190a7,7,0,0,1-7-7h2.35a4.69,4.69,0,0,0,4.69,4.69,7,7,0,0,1,7,7,4.69,4.69,0,0,0,4.69,4.69,7,7,0,0,1,7,7,4.69,4.69,0,0,0,4.69,4.69v2.35a7,7,0,0,1-7-7,4.69,4.69,0,0,0-4.69-4.69A7,7,0,0,1,438.79,194.71Zm29.87-2.29,9.95,10L477,204l-10-10Z" transform="translate(0.01)"/>
    <rect class="d" x="487.05" y="189.5" width="1.03" height="0.86"/>
    <path class="d" d="M499.8,194.71a4.69,4.69,0,0,0-4.69-4.69,7,7,0,0,1-7-7h2.35a4.69,4.69,0,0,0,4.69,4.69,7,7,0,0,1,7,7,4.69,4.69,0,0,0,4.69,4.69,7,7,0,0,1,7,7,4.69,4.69,0,0,0,4.69,4.69v2.35a7,7,0,0,1-7-7,4.69,4.69,0,0,0-4.69-4.69A7,7,0,0,1,499.8,194.71Zm29.87-2.29,10,10L538,204l-10-10Z" transform="translate(0.01)"/>
    <rect class="d" x="548.06" y="189.5" width="1.03" height="0.86"/>
    <path class="d" d="M72.73,225.21A4.69,4.69,0,0,0,68,220.52a7,7,0,0,1-7-7h2.35A4.69,4.69,0,0,0,68,218.17a7,7,0,0,1,7,7,4.69,4.69,0,0,0,4.69,4.69,7,7,0,0,1,7,7,4.69,4.69,0,0,0,4.69,4.69V244a7,7,0,0,1-7-7,4.69,4.69,0,0,0-4.69-4.69A7,7,0,0,1,72.73,225.21Zm29.87-2.29,10,10-1.65,1.65-10-9.95Z" transform="translate(0.01)"/>
    <rect class="d" x="120.99" y="220" width="1.03" height="0.86"/>
    <path class="d" d="M133.74,225.21a4.69,4.69,0,0,0-4.69-4.69,7,7,0,0,1-7-7h2.35a4.69,4.69,0,0,0,4.69,4.69,7,7,0,0,1,7,7,4.69,4.69,0,0,0,4.69,4.69,7,7,0,0,1,7,7,4.69,4.69,0,0,0,4.69,4.69V244a7,7,0,0,1-7-7,4.69,4.69,0,0,0-4.69-4.69A7,7,0,0,1,133.74,225.21Zm29.87-2.29,9.95,10-1.65,1.65-10-9.95Z" transform="translate(0.01)"/>
    <rect class="d" x="182" y="220" width="1.03" height="0.86"/>
    <path class="d" d="M194.75,225.21a4.69,4.69,0,0,0-4.69-4.69,7,7,0,0,1-7-7h2.35a4.69,4.69,0,0,0,4.69,4.69,7,7,0,0,1,7,7,4.69,4.69,0,0,0,4.69,4.69,7,7,0,0,1,7,7,4.69,4.69,0,0,0,4.69,4.69V244a7,7,0,0,1-7-7,4.69,4.69,0,0,0-4.69-4.69A7,7,0,0,1,194.75,225.21Zm29.87-2.29,9.95,10-1.65,1.65-10-9.95Z" transform="translate(0.01)"/>
    <rect class="d" x="243.01" y="220" width="1.03" height="0.86"/>
    <path class="d" d="M255.76,225.21a4.69,4.69,0,0,0-4.69-4.69,7,7,0,0,1-7-7h2.35a4.69,4.69,0,0,0,4.69,4.69,7,7,0,0,1,7,7,4.69,4.69,0,0,0,4.69,4.69,7,7,0,0,1,7,7,4.69,4.69,0,0,0,4.69,4.69V244a7,7,0,0,1-7-7,4.69,4.69,0,0,0-4.69-4.69A7,7,0,0,1,255.76,225.21Zm29.87-2.29,9.95,10-1.65,1.65-10-9.95Z" transform="translate(0.01)"/>
    <rect class="d" x="304.02" y="220" width="1.03" height="0.86"/>
    <path class="d" d="M316.77,225.21a4.69,4.69,0,0,0-4.69-4.69,7,7,0,0,1-7-7h2.35a4.69,4.69,0,0,0,4.69,4.69,7,7,0,0,1,7,7,4.69,4.69,0,0,0,4.69,4.69,7,7,0,0,1,7,7,4.69,4.69,0,0,0,4.69,4.69V244a7,7,0,0,1-7-7,4.69,4.69,0,0,0-4.69-4.69A7,7,0,0,1,316.77,225.21Zm29.87-2.29,9.95,10-1.65,1.65-10-9.95Z" transform="translate(0.01)"/>
    <rect class="d" x="365.03" y="220" width="1.03" height="0.86"/>
    <path class="d" d="M377.78,225.21a4.69,4.69,0,0,0-4.69-4.69,7,7,0,0,1-7-7h2.35a4.69,4.69,0,0,0,4.69,4.69,7,7,0,0,1,7,7,4.69,4.69,0,0,0,4.69,4.69,7,7,0,0,1,7,7,4.69,4.69,0,0,0,4.69,4.69V244a7,7,0,0,1-7-7,4.69,4.69,0,0,0-4.69-4.69A7,7,0,0,1,377.78,225.21Zm29.87-2.29,10,10L416,234.53l-10-9.95Z" transform="translate(0.01)"/>
    <rect class="d" x="426.04" y="220" width="1.03" height="0.86"/>
    <path class="d" d="M438.79,225.21a4.69,4.69,0,0,0-4.69-4.69,7,7,0,0,1-7-7h2.35a4.69,4.69,0,0,0,4.69,4.69,7,7,0,0,1,7,7,4.69,4.69,0,0,0,4.69,4.69,7,7,0,0,1,7,7,4.69,4.69,0,0,0,4.69,4.69V244a7,7,0,0,1-7-7,4.69,4.69,0,0,0-4.69-4.69A7,7,0,0,1,438.79,225.21Zm29.87-2.29,9.95,10L477,234.53l-10-9.95Z" transform="translate(0.01)"/>
    <rect class="d" x="487.05" y="220" width="1.03" height="0.86"/>
    <path class="d" d="M499.8,225.21a4.69,4.69,0,0,0-4.69-4.69,7,7,0,0,1-7-7h2.35a4.69,4.69,0,0,0,4.69,4.69,7,7,0,0,1,7,7,4.69,4.69,0,0,0,4.69,4.69,7,7,0,0,1,7,7,4.69,4.69,0,0,0,4.69,4.69V244a7,7,0,0,1-7-7,4.69,4.69,0,0,0-4.69-4.69A7,7,0,0,1,499.8,225.21Zm29.87-2.29,10,10L538,234.53l-10-9.95Z" transform="translate(0.01)"/>
    <rect class="d" x="548.06" y="220" width="1.03" height="0.86"/>
    <path class="d" d="M72.73,255.71A4.69,4.69,0,0,0,68,251a7,7,0,0,1-7-7h2.35A4.69,4.69,0,0,0,68,248.67a7,7,0,0,1,7,7,4.69,4.69,0,0,0,4.69,4.69,7,7,0,0,1,7,7,4.69,4.69,0,0,0,4.69,4.69v2.34a7,7,0,0,1-7-7,4.69,4.69,0,0,0-4.69-4.7A7,7,0,0,1,72.73,255.71Zm29.87-2.29,10,10L110.9,265l-10-9.95Z" transform="translate(0.01)"/>
    <rect class="d" x="120.99" y="250.49" width="1.03" height="0.86"/>
    <path class="d" d="M133.74,255.71a4.69,4.69,0,0,0-4.69-4.7,7,7,0,0,1-7-7h2.35a4.69,4.69,0,0,0,4.69,4.69,7,7,0,0,1,7,7,4.69,4.69,0,0,0,4.69,4.69,7,7,0,0,1,7,7,4.69,4.69,0,0,0,4.69,4.69v2.34a7,7,0,0,1-7-7,4.69,4.69,0,0,0-4.69-4.7A7,7,0,0,1,133.74,255.71Zm29.87-2.29,9.95,10L171.91,265l-10-9.95Z" transform="translate(0.01)"/>
    <rect class="d" x="182" y="250.49" width="1.03" height="0.86"/>
    <path class="d" d="M194.75,255.71a4.69,4.69,0,0,0-4.69-4.7,7,7,0,0,1-7-7h2.35a4.69,4.69,0,0,0,4.69,4.69,7,7,0,0,1,7,7,4.69,4.69,0,0,0,4.69,4.69,7,7,0,0,1,7,7,4.69,4.69,0,0,0,4.69,4.69v2.34a7,7,0,0,1-7-7,4.69,4.69,0,0,0-4.69-4.7A7,7,0,0,1,194.75,255.71Zm29.87-2.29,9.95,10L232.92,265l-10-9.95Z" transform="translate(0.01)"/>
    <rect class="d" x="243.01" y="250.49" width="1.03" height="0.86"/>
    <path class="d" d="M255.76,255.71a4.69,4.69,0,0,0-4.69-4.7,7,7,0,0,1-7-7h2.35a4.69,4.69,0,0,0,4.69,4.69,7,7,0,0,1,7,7,4.69,4.69,0,0,0,4.69,4.69,7,7,0,0,1,7,7,4.69,4.69,0,0,0,4.69,4.69v2.34a7,7,0,0,1-7-7,4.69,4.69,0,0,0-4.69-4.7A7,7,0,0,1,255.76,255.71Zm29.87-2.29,9.95,10L293.93,265l-10-9.95Z" transform="translate(0.01)"/>
    <rect class="d" x="304.02" y="250.49" width="1.03" height="0.86"/>
    <path class="d" d="M316.77,255.71a4.69,4.69,0,0,0-4.69-4.7,7,7,0,0,1-7-7h2.35a4.69,4.69,0,0,0,4.69,4.69,7,7,0,0,1,7,7,4.69,4.69,0,0,0,4.69,4.69,7,7,0,0,1,7,7,4.69,4.69,0,0,0,4.69,4.69v2.34a7,7,0,0,1-7-7,4.69,4.69,0,0,0-4.69-4.7A7,7,0,0,1,316.77,255.71Zm29.87-2.29,9.95,10L354.94,265l-10-9.95Z" transform="translate(0.01)"/>
    <rect class="d" x="365.03" y="250.49" width="1.03" height="0.86"/>
    <path class="d" d="M377.78,255.71a4.69,4.69,0,0,0-4.69-4.7,7,7,0,0,1-7-7h2.35a4.69,4.69,0,0,0,4.69,4.69,7,7,0,0,1,7,7,4.69,4.69,0,0,0,4.69,4.69,7,7,0,0,1,7,7,4.69,4.69,0,0,0,4.69,4.69v2.34a7,7,0,0,1-7-7,4.69,4.69,0,0,0-4.69-4.7A7,7,0,0,1,377.78,255.71Zm29.87-2.29,10,10L416,265l-10-9.95Z" transform="translate(0.01)"/>
    <rect class="d" x="426.04" y="250.49" width="1.03" height="0.86"/>
    <path class="d" d="M438.79,255.71a4.69,4.69,0,0,0-4.69-4.7,7,7,0,0,1-7-7h2.35a4.69,4.69,0,0,0,4.69,4.69,7,7,0,0,1,7,7,4.69,4.69,0,0,0,4.69,4.69,7,7,0,0,1,7,7,4.69,4.69,0,0,0,4.69,4.69v2.34a7,7,0,0,1-7-7,4.69,4.69,0,0,0-4.69-4.7A7,7,0,0,1,438.79,255.71Zm29.87-2.29,9.95,10L477,265l-10-9.95Z" transform="translate(0.01)"/>
    <rect class="d" x="487.05" y="250.49" width="1.03" height="0.86"/>
    <path class="d" d="M499.8,255.71a4.69,4.69,0,0,0-4.69-4.7,7,7,0,0,1-7-7h2.35a4.69,4.69,0,0,0,4.69,4.69,7,7,0,0,1,7,7,4.69,4.69,0,0,0,4.69,4.69,7,7,0,0,1,7,7,4.69,4.69,0,0,0,4.69,4.69v2.34a7,7,0,0,1-7-7,4.69,4.69,0,0,0-4.69-4.7A7,7,0,0,1,499.8,255.71Zm29.87-2.29,10,10L538,265l-10-9.95Z" transform="translate(0.01)"/>
    <rect class="d" x="548.06" y="250.49" width="1.03" height="0.86"/>
    <path class="d" d="M72.73,286.2A4.69,4.69,0,0,0,68,281.51a7,7,0,0,1-7-7h2.35A4.68,4.68,0,0,0,68,279.16a7,7,0,0,1,7,7,4.68,4.68,0,0,0,4.69,4.69,7,7,0,0,1,7,7,4.69,4.69,0,0,0,4.69,4.69V305a7,7,0,0,1-7-7,4.69,4.69,0,0,0-4.69-4.69A7,7,0,0,1,72.73,286.2Zm29.87-2.28,10,9.95-1.65,1.66-10-10Z" transform="translate(0.01)"/>
    <rect class="d" x="120.99" y="280.99" width="1.03" height="0.86"/>
    <path class="d" d="M133.74,286.2a4.69,4.69,0,0,0-4.69-4.69,7,7,0,0,1-7-7h2.35a4.68,4.68,0,0,0,4.69,4.69,7,7,0,0,1,7,7,4.68,4.68,0,0,0,4.69,4.69,7,7,0,0,1,7,7,4.69,4.69,0,0,0,4.69,4.69V305a7,7,0,0,1-7-7,4.69,4.69,0,0,0-4.69-4.69A7,7,0,0,1,133.74,286.2Zm29.87-2.28,9.95,9.95-1.65,1.66-10-10Z" transform="translate(0.01)"/>
    <rect class="d" x="182" y="280.99" width="1.03" height="0.86"/>
    <path class="d" d="M194.75,286.2a4.69,4.69,0,0,0-4.69-4.69,7,7,0,0,1-7-7h2.35a4.68,4.68,0,0,0,4.69,4.69,7,7,0,0,1,7,7,4.68,4.68,0,0,0,4.69,4.69,7,7,0,0,1,7,7,4.69,4.69,0,0,0,4.69,4.69V305a7,7,0,0,1-7-7,4.69,4.69,0,0,0-4.69-4.69A7,7,0,0,1,194.75,286.2Zm29.87-2.28,9.95,9.95-1.65,1.66-10-10Z" transform="translate(0.01)"/>
    <rect class="d" x="243.01" y="280.99" width="1.03" height="0.86"/>
    <path class="d" d="M255.76,286.2a4.69,4.69,0,0,0-4.69-4.69,7,7,0,0,1-7-7h2.35a4.68,4.68,0,0,0,4.69,4.69,7,7,0,0,1,7,7,4.68,4.68,0,0,0,4.69,4.69,7,7,0,0,1,7,7,4.69,4.69,0,0,0,4.69,4.69V305a7,7,0,0,1-7-7,4.69,4.69,0,0,0-4.69-4.69A7,7,0,0,1,255.76,286.2Zm29.87-2.28,9.95,9.95-1.65,1.66-10-10Z" transform="translate(0.01)"/>
    <rect class="d" x="304.02" y="280.99" width="1.03" height="0.86"/>
    <path class="d" d="M316.77,286.2a4.69,4.69,0,0,0-4.69-4.69,7,7,0,0,1-7-7h2.35a4.68,4.68,0,0,0,4.69,4.69,7,7,0,0,1,7,7,4.68,4.68,0,0,0,4.69,4.69,7,7,0,0,1,7,7,4.69,4.69,0,0,0,4.69,4.69V305a7,7,0,0,1-7-7,4.69,4.69,0,0,0-4.69-4.69A7,7,0,0,1,316.77,286.2Zm29.87-2.28,9.95,9.95-1.65,1.66-10-10Z" transform="translate(0.01)"/>
    <rect class="d" x="365.03" y="280.99" width="1.03" height="0.86"/>
    <path class="d" d="M377.78,286.2a4.69,4.69,0,0,0-4.69-4.69,7,7,0,0,1-7-7h2.35a4.68,4.68,0,0,0,4.69,4.69,7,7,0,0,1,7,7,4.68,4.68,0,0,0,4.69,4.69,7,7,0,0,1,7,7,4.69,4.69,0,0,0,4.69,4.69V305a7,7,0,0,1-7-7,4.69,4.69,0,0,0-4.69-4.69A7,7,0,0,1,377.78,286.2Zm29.87-2.28,10,9.95L416,295.53l-10-10Z" transform="translate(0.01)"/>
    <rect class="d" x="426.04" y="280.99" width="1.03" height="0.86"/>
    <path class="d" d="M438.79,286.2a4.69,4.69,0,0,0-4.69-4.69,7,7,0,0,1-7-7h2.35a4.68,4.68,0,0,0,4.69,4.69,7,7,0,0,1,7,7,4.68,4.68,0,0,0,4.69,4.69,7,7,0,0,1,7,7,4.69,4.69,0,0,0,4.69,4.69V305a7,7,0,0,1-7-7,4.69,4.69,0,0,0-4.69-4.69A7,7,0,0,1,438.79,286.2Zm29.87-2.28,9.95,9.95L477,295.53l-10-10Z" transform="translate(0.01)"/>
    <rect class="d" x="487.05" y="280.99" width="1.03" height="0.86"/>
    <path class="d" d="M499.8,286.2a4.69,4.69,0,0,0-4.69-4.69,7,7,0,0,1-7-7h2.35a4.68,4.68,0,0,0,4.69,4.69,7,7,0,0,1,7,7,4.68,4.68,0,0,0,4.69,4.69,7,7,0,0,1,7,7,4.69,4.69,0,0,0,4.69,4.69V305a7,7,0,0,1-7-7,4.69,4.69,0,0,0-4.69-4.69A7,7,0,0,1,499.8,286.2Zm29.87-2.28,10,9.95L538,295.53l-10-10Z" transform="translate(0.01)"/>
    <rect class="d" x="548.06" y="280.99" width="1.03" height="0.86"/>
    <path class="d" d="M72.73,316.7A4.69,4.69,0,0,0,68,312a7,7,0,0,1-7-7h2.35A4.69,4.69,0,0,0,68,309.66a7,7,0,0,1,7,7,4.69,4.69,0,0,0,4.69,4.69,7,7,0,0,1,7,7,4.69,4.69,0,0,0,4.69,4.69v2.35a7,7,0,0,1-7-7,4.69,4.69,0,0,0-4.69-4.69A7,7,0,0,1,72.73,316.7Zm29.87-2.29,10,10L110.9,326l-10-9.95Z" transform="translate(0.01)"/>
    <rect class="d" x="120.99" y="311.49" width="1.03" height="0.86"/>
    <path class="d" d="M133.74,316.7a4.69,4.69,0,0,0-4.69-4.69,7,7,0,0,1-7-7h2.35a4.69,4.69,0,0,0,4.69,4.69,7,7,0,0,1,7,7,4.69,4.69,0,0,0,4.69,4.69,7,7,0,0,1,7,7,4.69,4.69,0,0,0,4.69,4.69v2.35a7,7,0,0,1-7-7,4.69,4.69,0,0,0-4.69-4.69A7,7,0,0,1,133.74,316.7Zm29.87-2.29,9.95,10L171.91,326l-10-9.95Z" transform="translate(0.01)"/>
    <rect class="d" x="182" y="311.49" width="1.03" height="0.86"/>
    <path class="d" d="M194.75,316.7a4.69,4.69,0,0,0-4.69-4.69,7,7,0,0,1-7-7h2.35a4.69,4.69,0,0,0,4.69,4.69,7,7,0,0,1,7,7,4.69,4.69,0,0,0,4.69,4.69,7,7,0,0,1,7,7,4.69,4.69,0,0,0,4.69,4.69v2.35a7,7,0,0,1-7-7,4.69,4.69,0,0,0-4.69-4.69A7,7,0,0,1,194.75,316.7Zm29.87-2.29,9.95,10L232.92,326l-10-9.95Z" transform="translate(0.01)"/>
    <rect class="d" x="243.01" y="311.49" width="1.03" height="0.86"/>
    <path class="d" d="M255.76,316.7a4.69,4.69,0,0,0-4.69-4.69,7,7,0,0,1-7-7h2.35a4.69,4.69,0,0,0,4.69,4.69,7,7,0,0,1,7,7,4.69,4.69,0,0,0,4.69,4.69,7,7,0,0,1,7,7,4.69,4.69,0,0,0,4.69,4.69v2.35a7,7,0,0,1-7-7,4.69,4.69,0,0,0-4.69-4.69A7,7,0,0,1,255.76,316.7Zm29.87-2.29,9.95,10L293.93,326l-10-9.95Z" transform="translate(0.01)"/>
    <rect class="d" x="304.02" y="311.49" width="1.03" height="0.86"/>
    <path class="d" d="M316.77,316.7a4.69,4.69,0,0,0-4.69-4.69,7,7,0,0,1-7-7h2.35a4.69,4.69,0,0,0,4.69,4.69,7,7,0,0,1,7,7,4.69,4.69,0,0,0,4.69,4.69,7,7,0,0,1,7,7,4.69,4.69,0,0,0,4.69,4.69v2.35a7,7,0,0,1-7-7,4.69,4.69,0,0,0-4.69-4.69A7,7,0,0,1,316.77,316.7Zm29.87-2.29,9.95,10L354.94,326l-10-9.95Z" transform="translate(0.01)"/>
    <rect class="d" x="365.03" y="311.49" width="1.03" height="0.86"/>
    <path class="d" d="M377.78,316.7a4.69,4.69,0,0,0-4.69-4.69,7,7,0,0,1-7-7h2.35a4.69,4.69,0,0,0,4.69,4.69,7,7,0,0,1,7,7,4.69,4.69,0,0,0,4.69,4.69,7,7,0,0,1,7,7,4.69,4.69,0,0,0,4.69,4.69v2.35a7,7,0,0,1-7-7,4.69,4.69,0,0,0-4.69-4.69A7,7,0,0,1,377.78,316.7Zm29.87-2.29,10,10L416,326l-10-9.95Z" transform="translate(0.01)"/>
    <rect class="d" x="426.04" y="311.49" width="1.03" height="0.86"/>
    <path class="d" d="M438.79,316.7A4.69,4.69,0,0,0,434.1,312a7,7,0,0,1-7-7h2.35a4.69,4.69,0,0,0,4.69,4.69,7,7,0,0,1,7,7,4.69,4.69,0,0,0,4.69,4.69,7,7,0,0,1,7,7,4.69,4.69,0,0,0,4.69,4.69v2.35a7,7,0,0,1-7-7,4.69,4.69,0,0,0-4.69-4.69A7,7,0,0,1,438.79,316.7Zm29.87-2.29,9.95,10L477,326l-10-9.95Z" transform="translate(0.01)"/>
    <rect class="d" x="487.05" y="311.49" width="1.03" height="0.86"/>
    <path class="d" d="M499.8,316.7a4.69,4.69,0,0,0-4.69-4.69,7,7,0,0,1-7-7h2.35a4.69,4.69,0,0,0,4.69,4.69,7,7,0,0,1,7,7,4.69,4.69,0,0,0,4.69,4.69,7,7,0,0,1,7,7,4.69,4.69,0,0,0,4.69,4.69v2.35a7,7,0,0,1-7-7,4.69,4.69,0,0,0-4.69-4.69A7,7,0,0,1,499.8,316.7Zm29.87-2.29,10,10L538,326l-10-9.95Z" transform="translate(0.01)"/>
    <rect class="d" x="548.06" y="311.49" width="1.03" height="0.86"/>
    <path class="d" d="M72.73,347.2A4.69,4.69,0,0,0,68,342.5a7,7,0,0,1-7-7h2.35A4.69,4.69,0,0,0,68,340.16a7,7,0,0,1,7,7,4.69,4.69,0,0,0,4.69,4.69,7,7,0,0,1,7,7,4.69,4.69,0,0,0,4.69,4.69V366a7,7,0,0,1-7-7,4.69,4.69,0,0,0-4.69-4.7A7,7,0,0,1,72.73,347.2Zm29.87-2.29,10,9.95-1.65,1.66-10-9.95Z" transform="translate(0.01)"/>
    <rect class="d" x="120.99" y="341.98" width="1.03" height="0.86"/>
    <path class="d" d="M133.74,347.2a4.69,4.69,0,0,0-4.69-4.7,7,7,0,0,1-7-7h2.35a4.69,4.69,0,0,0,4.69,4.69,7,7,0,0,1,7,7,4.69,4.69,0,0,0,4.69,4.69,7,7,0,0,1,7,7,4.69,4.69,0,0,0,4.69,4.69V366a7,7,0,0,1-7-7,4.69,4.69,0,0,0-4.69-4.7A7,7,0,0,1,133.74,347.2Zm29.87-2.29,9.95,9.95-1.65,1.66-10-9.95Z" transform="translate(0.01)"/>
    <rect class="d" x="182" y="341.98" width="1.03" height="0.86"/>
    <path class="d" d="M194.75,347.2a4.69,4.69,0,0,0-4.69-4.7,7,7,0,0,1-7-7h2.35a4.69,4.69,0,0,0,4.69,4.69,7,7,0,0,1,7,7,4.69,4.69,0,0,0,4.69,4.69,7,7,0,0,1,7,7,4.69,4.69,0,0,0,4.69,4.69V366a7,7,0,0,1-7-7,4.69,4.69,0,0,0-4.69-4.7A7,7,0,0,1,194.75,347.2Zm29.87-2.29,9.95,9.95-1.65,1.66-10-9.95Z" transform="translate(0.01)"/>
    <rect class="d" x="243.01" y="341.98" width="1.03" height="0.86"/>
    <path class="d" d="M255.76,347.2a4.69,4.69,0,0,0-4.69-4.7,7,7,0,0,1-7-7h2.35a4.69,4.69,0,0,0,4.69,4.69,7,7,0,0,1,7,7,4.69,4.69,0,0,0,4.69,4.69,7,7,0,0,1,7,7,4.69,4.69,0,0,0,4.69,4.69V366a7,7,0,0,1-7-7,4.69,4.69,0,0,0-4.69-4.7A7,7,0,0,1,255.76,347.2Zm29.87-2.29,9.95,9.95-1.65,1.66-10-9.95Z" transform="translate(0.01)"/>
    <rect class="d" x="304.02" y="341.98" width="1.03" height="0.86"/>
    <path class="d" d="M316.77,347.2a4.69,4.69,0,0,0-4.69-4.7,7,7,0,0,1-7-7h2.35a4.69,4.69,0,0,0,4.69,4.69,7,7,0,0,1,7,7,4.69,4.69,0,0,0,4.69,4.69,7,7,0,0,1,7,7,4.69,4.69,0,0,0,4.69,4.69V366a7,7,0,0,1-7-7,4.69,4.69,0,0,0-4.69-4.7A7,7,0,0,1,316.77,347.2Zm29.87-2.29,9.95,9.95-1.65,1.66-10-9.95Z" transform="translate(0.01)"/>
    <rect class="d" x="365.03" y="341.98" width="1.03" height="0.86"/>
    <path class="d" d="M377.78,347.2a4.69,4.69,0,0,0-4.69-4.7,7,7,0,0,1-7-7h2.35a4.69,4.69,0,0,0,4.69,4.69,7,7,0,0,1,7,7,4.69,4.69,0,0,0,4.69,4.69,7,7,0,0,1,7,7,4.69,4.69,0,0,0,4.69,4.69V366a7,7,0,0,1-7-7,4.69,4.69,0,0,0-4.69-4.7A7,7,0,0,1,377.78,347.2Zm29.87-2.29,10,9.95L416,356.52l-10-9.95Z" transform="translate(0.01)"/>
    <rect class="d" x="426.04" y="341.98" width="1.03" height="0.86"/>
    <path class="d" d="M438.79,347.2a4.69,4.69,0,0,0-4.69-4.7,7,7,0,0,1-7-7h2.35a4.69,4.69,0,0,0,4.69,4.69,7,7,0,0,1,7,7,4.69,4.69,0,0,0,4.69,4.69,7,7,0,0,1,7,7,4.69,4.69,0,0,0,4.69,4.69V366a7,7,0,0,1-7-7,4.69,4.69,0,0,0-4.69-4.7A7,7,0,0,1,438.79,347.2Zm29.87-2.29,9.95,9.95L477,356.52l-10-9.95Z" transform="translate(0.01)"/>
    <rect class="d" x="487.05" y="341.98" width="1.03" height="0.86"/>
    <path class="d" d="M499.8,347.2a4.69,4.69,0,0,0-4.69-4.7,7,7,0,0,1-7-7h2.35a4.69,4.69,0,0,0,4.69,4.69,7,7,0,0,1,7,7,4.69,4.69,0,0,0,4.69,4.69,7,7,0,0,1,7,7,4.69,4.69,0,0,0,4.69,4.69V366a7,7,0,0,1-7-7,4.69,4.69,0,0,0-4.69-4.7A7,7,0,0,1,499.8,347.2Zm29.87-2.29,10,9.95L538,356.52l-10-9.95Z" transform="translate(0.01)"/>
    <rect class="d" x="548.06" y="341.98" width="1.03" height="0.86"/>
    <path class="d" d="M72.73,377.69A4.69,4.69,0,0,0,68,373a7,7,0,0,1-7-7h2.35a4.69,4.69,0,0,0,4.69,4.7,7,7,0,0,1,7,7,4.69,4.69,0,0,0,4.69,4.7,7,7,0,0,1,7,7,4.69,4.69,0,0,0,4.69,4.7v2.34a7,7,0,0,1-7-7,4.69,4.69,0,0,0-4.69-4.69A7,7,0,0,1,72.73,377.69Zm29.87-2.28,10,9.95L110.9,387l-10-9.95Z" transform="translate(0.01)"/>
    <rect class="d" x="120.99" y="372.48" width="1.03" height="0.86"/>
    <path class="d" d="M133.74,377.69a4.69,4.69,0,0,0-4.69-4.69,7,7,0,0,1-7-7h2.35a4.69,4.69,0,0,0,4.69,4.7,7,7,0,0,1,7,7,4.69,4.69,0,0,0,4.69,4.7,7,7,0,0,1,7,7,4.69,4.69,0,0,0,4.69,4.7v2.34a7,7,0,0,1-7-7,4.69,4.69,0,0,0-4.69-4.69A7,7,0,0,1,133.74,377.69Zm29.87-2.28,9.95,9.95L171.91,387l-10-9.95Z" transform="translate(0.01)"/>
    <rect class="d" x="182" y="372.48" width="1.03" height="0.86"/>
    <path class="d" d="M194.75,377.69a4.69,4.69,0,0,0-4.69-4.69,7,7,0,0,1-7-7h2.35a4.69,4.69,0,0,0,4.69,4.7,7,7,0,0,1,7,7,4.69,4.69,0,0,0,4.69,4.7,7,7,0,0,1,7,7,4.69,4.69,0,0,0,4.69,4.7v2.34a7,7,0,0,1-7-7,4.69,4.69,0,0,0-4.69-4.69A7,7,0,0,1,194.75,377.69Zm29.87-2.28,9.95,9.95L232.92,387l-10-9.95Z" transform="translate(0.01)"/>
    <rect class="d" x="243.01" y="372.48" width="1.03" height="0.86"/>
    <path class="d" d="M255.76,377.69a4.69,4.69,0,0,0-4.69-4.69,7,7,0,0,1-7-7h2.35a4.69,4.69,0,0,0,4.69,4.7,7,7,0,0,1,7,7,4.69,4.69,0,0,0,4.69,4.7,7,7,0,0,1,7,7,4.69,4.69,0,0,0,4.69,4.7v2.34a7,7,0,0,1-7-7,4.69,4.69,0,0,0-4.69-4.69A7,7,0,0,1,255.76,377.69Zm29.87-2.28,9.95,9.95L293.93,387l-10-9.95Z" transform="translate(0.01)"/>
    <rect class="d" x="304.02" y="372.48" width="1.03" height="0.86"/>
    <path class="d" d="M316.77,377.69a4.69,4.69,0,0,0-4.69-4.69,7,7,0,0,1-7-7h2.35a4.69,4.69,0,0,0,4.69,4.7,7,7,0,0,1,7,7,4.69,4.69,0,0,0,4.69,4.7,7,7,0,0,1,7,7,4.69,4.69,0,0,0,4.69,4.7v2.34a7,7,0,0,1-7-7,4.69,4.69,0,0,0-4.69-4.69A7,7,0,0,1,316.77,377.69Zm29.87-2.28,9.95,9.95L354.94,387l-10-9.95Z" transform="translate(0.01)"/>
    <rect class="d" x="365.03" y="372.48" width="1.03" height="0.86"/>
    <path class="d" d="M377.78,377.69a4.69,4.69,0,0,0-4.69-4.69,7,7,0,0,1-7-7h2.35a4.69,4.69,0,0,0,4.69,4.7,7,7,0,0,1,7,7,4.69,4.69,0,0,0,4.69,4.7,7,7,0,0,1,7,7,4.69,4.69,0,0,0,4.69,4.7v2.34a7,7,0,0,1-7-7,4.69,4.69,0,0,0-4.69-4.69A7,7,0,0,1,377.78,377.69Zm29.87-2.28,10,9.95L416,387l-10-9.95Z" transform="translate(0.01)"/>
    <rect class="d" x="426.04" y="372.48" width="1.03" height="0.86"/>
    <path class="d" d="M438.79,377.69A4.69,4.69,0,0,0,434.1,373a7,7,0,0,1-7-7h2.35a4.69,4.69,0,0,0,4.69,4.7,7,7,0,0,1,7,7,4.69,4.69,0,0,0,4.69,4.7,7,7,0,0,1,7,7,4.69,4.69,0,0,0,4.69,4.7v2.34a7,7,0,0,1-7-7,4.69,4.69,0,0,0-4.69-4.69A7,7,0,0,1,438.79,377.69Zm29.87-2.28,9.95,9.95L477,387l-10-9.95Z" transform="translate(0.01)"/>
    <rect class="d" x="487.05" y="372.48" width="1.03" height="0.86"/>
    <path class="d" d="M499.8,377.69a4.69,4.69,0,0,0-4.69-4.69,7,7,0,0,1-7-7h2.35a4.69,4.69,0,0,0,4.69,4.7,7,7,0,0,1,7,7,4.69,4.69,0,0,0,4.69,4.7,7,7,0,0,1,7,7,4.69,4.69,0,0,0,4.69,4.7v2.34a7,7,0,0,1-7-7,4.69,4.69,0,0,0-4.69-4.69A7,7,0,0,1,499.8,377.69Zm29.87-2.28,10,9.95L538,387l-10-9.95Z" transform="translate(0.01)"/>
    <rect class="d" x="548.06" y="372.48" width="1.03" height="0.86"/>
    <path class="d" d="M72.73,408.19A4.69,4.69,0,0,0,68,403.5a7,7,0,0,1-7-7h2.35A4.69,4.69,0,0,0,68,401.15a7,7,0,0,1,7,7,4.69,4.69,0,0,0,4.69,4.69,7,7,0,0,1,7,7,4.69,4.69,0,0,0,4.69,4.69V427a7,7,0,0,1-7-7,4.69,4.69,0,0,0-4.69-4.69A7,7,0,0,1,72.73,408.19Zm29.87-2.29,10,10-1.65,1.66-10-10Z" transform="translate(0.01)"/>
    <rect class="d" x="120.99" y="402.98" width="1.03" height="0.86"/>
    <path class="d" d="M133.74,408.19a4.69,4.69,0,0,0-4.69-4.69,7,7,0,0,1-7-7h2.35a4.69,4.69,0,0,0,4.69,4.69,7,7,0,0,1,7,7,4.69,4.69,0,0,0,4.69,4.69,7,7,0,0,1,7,7,4.69,4.69,0,0,0,4.69,4.69V427a7,7,0,0,1-7-7,4.69,4.69,0,0,0-4.69-4.69A7,7,0,0,1,133.74,408.19Zm29.87-2.29,9.95,10-1.65,1.66-10-10Z" transform="translate(0.01)"/>
    <rect class="d" x="182" y="402.98" width="1.03" height="0.86"/>
    <path class="d" d="M194.75,408.19a4.69,4.69,0,0,0-4.69-4.69,7,7,0,0,1-7-7h2.35a4.69,4.69,0,0,0,4.69,4.69,7,7,0,0,1,7,7,4.69,4.69,0,0,0,4.69,4.69,7,7,0,0,1,7,7,4.69,4.69,0,0,0,4.69,4.69V427a7,7,0,0,1-7-7,4.69,4.69,0,0,0-4.69-4.69A7,7,0,0,1,194.75,408.19Zm29.87-2.29,9.95,10-1.65,1.66-10-10Z" transform="translate(0.01)"/>
    <rect class="d" x="243.01" y="402.98" width="1.03" height="0.86"/>
    <path class="d" d="M255.76,408.19a4.69,4.69,0,0,0-4.69-4.69,7,7,0,0,1-7-7h2.35a4.69,4.69,0,0,0,4.69,4.69,7,7,0,0,1,7,7,4.69,4.69,0,0,0,4.69,4.69,7,7,0,0,1,7,7,4.69,4.69,0,0,0,4.69,4.69V427a7,7,0,0,1-7-7,4.69,4.69,0,0,0-4.69-4.69A7,7,0,0,1,255.76,408.19Zm29.87-2.29,9.95,10-1.65,1.66-10-10Z" transform="translate(0.01)"/>
    <rect class="d" x="304.02" y="402.98" width="1.03" height="0.86"/>
    <path class="d" d="M316.77,408.19a4.69,4.69,0,0,0-4.69-4.69,7,7,0,0,1-7-7h2.35a4.69,4.69,0,0,0,4.69,4.69,7,7,0,0,1,7,7,4.69,4.69,0,0,0,4.69,4.69,7,7,0,0,1,7,7,4.69,4.69,0,0,0,4.69,4.69V427a7,7,0,0,1-7-7,4.69,4.69,0,0,0-4.69-4.69A7,7,0,0,1,316.77,408.19Zm29.87-2.29,9.95,10-1.65,1.66-10-10Z" transform="translate(0.01)"/>
    <rect class="d" x="365.03" y="402.98" width="1.03" height="0.86"/>
    <path class="d" d="M377.78,408.19a4.69,4.69,0,0,0-4.69-4.69,7,7,0,0,1-7-7h2.35a4.69,4.69,0,0,0,4.69,4.69,7,7,0,0,1,7,7,4.69,4.69,0,0,0,4.69,4.69,7,7,0,0,1,7,7,4.69,4.69,0,0,0,4.69,4.69V427a7,7,0,0,1-7-7,4.69,4.69,0,0,0-4.69-4.69A7,7,0,0,1,377.78,408.19Zm29.87-2.29,10,10L416,417.52l-10-10Z" transform="translate(0.01)"/>
    <rect class="d" x="426.04" y="402.98" width="1.03" height="0.86"/>
    <path class="d" d="M438.79,408.19a4.69,4.69,0,0,0-4.69-4.69,7,7,0,0,1-7-7h2.35a4.69,4.69,0,0,0,4.69,4.69,7,7,0,0,1,7,7,4.69,4.69,0,0,0,4.69,4.69,7,7,0,0,1,7,7,4.69,4.69,0,0,0,4.69,4.69V427a7,7,0,0,1-7-7,4.69,4.69,0,0,0-4.69-4.69A7,7,0,0,1,438.79,408.19Zm29.87-2.29,9.95,10L477,417.52l-10-10Z" transform="translate(0.01)"/>
    <rect class="d" x="487.05" y="402.98" width="1.03" height="0.86"/>
    <path class="d" d="M499.8,408.19a4.69,4.69,0,0,0-4.69-4.69,7,7,0,0,1-7-7h2.35a4.69,4.69,0,0,0,4.69,4.69,7,7,0,0,1,7,7,4.69,4.69,0,0,0,4.69,4.69,7,7,0,0,1,7,7,4.69,4.69,0,0,0,4.69,4.69V427a7,7,0,0,1-7-7,4.69,4.69,0,0,0-4.69-4.69A7,7,0,0,1,499.8,408.19Zm29.87-2.29,10,10L538,417.52l-10-10Z" transform="translate(0.01)"/>
    <rect class="d" x="548.06" y="402.98" width="1.03" height="0.86"/>
    <path class="d" d="M72.73,438.69A4.69,4.69,0,0,0,68,434a7,7,0,0,1-7-7h2.35A4.69,4.69,0,0,0,68,431.65a7,7,0,0,1,7,7,4.69,4.69,0,0,0,4.69,4.69,7,7,0,0,1,7,7,4.69,4.69,0,0,0,4.69,4.69v2.35a7,7,0,0,1-7-7,4.69,4.69,0,0,0-4.69-4.69A7,7,0,0,1,72.73,438.69Zm29.87-2.29,10,10L110.9,448l-10-9.95Z" transform="translate(0.01)"/>
    <rect class="d" x="120.99" y="433.47" width="1.03" height="0.86"/>
    <path class="d" d="M133.74,438.69a4.69,4.69,0,0,0-4.69-4.69,7,7,0,0,1-7-7h2.35a4.69,4.69,0,0,0,4.69,4.69,7,7,0,0,1,7,7,4.69,4.69,0,0,0,4.69,4.69,7,7,0,0,1,7,7,4.69,4.69,0,0,0,4.69,4.69v2.35a7,7,0,0,1-7-7,4.69,4.69,0,0,0-4.69-4.69A7,7,0,0,1,133.74,438.69Zm29.87-2.29,9.95,10L171.91,448l-10-9.95Z" transform="translate(0.01)"/>
    <rect class="d" x="182" y="433.47" width="1.03" height="0.86"/>
    <path class="d" d="M194.75,438.69a4.69,4.69,0,0,0-4.69-4.69,7,7,0,0,1-7-7h2.35a4.69,4.69,0,0,0,4.69,4.69,7,7,0,0,1,7,7,4.69,4.69,0,0,0,4.69,4.69,7,7,0,0,1,7,7,4.69,4.69,0,0,0,4.69,4.69v2.35a7,7,0,0,1-7-7,4.69,4.69,0,0,0-4.69-4.69A7,7,0,0,1,194.75,438.69Zm29.87-2.29,9.95,10L232.92,448l-10-9.95Z" transform="translate(0.01)"/>
    <rect class="d" x="243.01" y="433.47" width="1.03" height="0.86"/>
    <path class="d" d="M255.76,438.69a4.69,4.69,0,0,0-4.69-4.69,7,7,0,0,1-7-7h2.35a4.69,4.69,0,0,0,4.69,4.69,7,7,0,0,1,7,7,4.69,4.69,0,0,0,4.69,4.69,7,7,0,0,1,7,7,4.69,4.69,0,0,0,4.69,4.69v2.35a7,7,0,0,1-7-7,4.69,4.69,0,0,0-4.69-4.69A7,7,0,0,1,255.76,438.69Zm29.87-2.29,9.95,10L293.93,448l-10-9.95Z" transform="translate(0.01)"/>
    <rect class="d" x="304.02" y="433.47" width="1.03" height="0.86"/>
    <path class="d" d="M316.77,438.69a4.69,4.69,0,0,0-4.69-4.69,7,7,0,0,1-7-7h2.35a4.69,4.69,0,0,0,4.69,4.69,7,7,0,0,1,7,7,4.69,4.69,0,0,0,4.69,4.69,7,7,0,0,1,7,7,4.69,4.69,0,0,0,4.69,4.69v2.35a7,7,0,0,1-7-7,4.69,4.69,0,0,0-4.69-4.69A7,7,0,0,1,316.77,438.69Zm29.87-2.29,9.95,10L354.94,448l-10-9.95Z" transform="translate(0.01)"/>
    <rect class="d" x="365.03" y="433.47" width="1.03" height="0.86"/>
    <path class="d" d="M377.78,438.69a4.69,4.69,0,0,0-4.69-4.69,7,7,0,0,1-7-7h2.35a4.69,4.69,0,0,0,4.69,4.69,7,7,0,0,1,7,7,4.69,4.69,0,0,0,4.69,4.69,7,7,0,0,1,7,7,4.69,4.69,0,0,0,4.69,4.69v2.35a7,7,0,0,1-7-7,4.69,4.69,0,0,0-4.69-4.69A7,7,0,0,1,377.78,438.69Zm29.87-2.29,10,10L416,448l-10-9.95Z" transform="translate(0.01)"/>
    <rect class="d" x="426.04" y="433.47" width="1.03" height="0.86"/>
    <path class="d" d="M438.79,438.69A4.69,4.69,0,0,0,434.1,434a7,7,0,0,1-7-7h2.35a4.69,4.69,0,0,0,4.69,4.69,7,7,0,0,1,7,7,4.69,4.69,0,0,0,4.69,4.69,7,7,0,0,1,7,7,4.69,4.69,0,0,0,4.69,4.69v2.35a7,7,0,0,1-7-7,4.69,4.69,0,0,0-4.69-4.69A7,7,0,0,1,438.79,438.69Zm29.87-2.29,9.95,10L477,448l-10-9.95Z" transform="translate(0.01)"/>
    <rect class="d" x="487.05" y="433.47" width="1.03" height="0.86"/>
    <path class="d" d="M499.8,438.69a4.69,4.69,0,0,0-4.69-4.69,7,7,0,0,1-7-7h2.35a4.69,4.69,0,0,0,4.69,4.69,7,7,0,0,1,7,7,4.69,4.69,0,0,0,4.69,4.69,7,7,0,0,1,7,7,4.69,4.69,0,0,0,4.69,4.69v2.35a7,7,0,0,1-7-7,4.69,4.69,0,0,0-4.69-4.69A7,7,0,0,1,499.8,438.69Zm29.87-2.29,10,10L538,448l-10-9.95Z" transform="translate(0.01)"/>
    <rect class="d" x="548.06" y="433.47" width="1.03" height="0.86"/>
    <path class="d" d="M72.73,469.18A4.69,4.69,0,0,0,68,464.49a7,7,0,0,1-7-7h2.35a4.69,4.69,0,0,0,4.69,4.7,7,7,0,0,1,7,7,4.69,4.69,0,0,0,4.69,4.7,7,7,0,0,1,7,7,4.69,4.69,0,0,0,4.69,4.7V488a7,7,0,0,1-7-7,4.69,4.69,0,0,0-4.69-4.69A7,7,0,0,1,72.73,469.18Zm29.87-2.28,10,10-1.65,1.66-10-9.95Z" transform="translate(0.01)"/>
    <rect class="d" x="120.99" y="463.97" width="1.03" height="0.86"/>
    <path class="d" d="M133.74,469.18a4.69,4.69,0,0,0-4.69-4.69,7,7,0,0,1-7-7h2.35a4.69,4.69,0,0,0,4.69,4.7,7,7,0,0,1,7,7,4.69,4.69,0,0,0,4.69,4.7,7,7,0,0,1,7,7,4.69,4.69,0,0,0,4.69,4.7V488a7,7,0,0,1-7-7,4.69,4.69,0,0,0-4.69-4.69A7,7,0,0,1,133.74,469.18Zm29.87-2.28,9.95,10-1.65,1.66-10-9.95Z" transform="translate(0.01)"/>
    <rect class="d" x="182" y="463.97" width="1.03" height="0.86"/>
    <path class="d" d="M194.75,469.18a4.69,4.69,0,0,0-4.69-4.69,7,7,0,0,1-7-7h2.35a4.69,4.69,0,0,0,4.69,4.7,7,7,0,0,1,7,7,4.69,4.69,0,0,0,4.69,4.7,7,7,0,0,1,7,7,4.69,4.69,0,0,0,4.69,4.7V488a7,7,0,0,1-7-7,4.69,4.69,0,0,0-4.69-4.69A7,7,0,0,1,194.75,469.18Zm29.87-2.28,9.95,10-1.65,1.66-10-9.95Z" transform="translate(0.01)"/>
    <rect class="d" x="243.01" y="463.97" width="1.03" height="0.86"/>
    <path class="d" d="M255.76,469.18a4.69,4.69,0,0,0-4.69-4.69,7,7,0,0,1-7-7h2.35a4.69,4.69,0,0,0,4.69,4.7,7,7,0,0,1,7,7,4.69,4.69,0,0,0,4.69,4.7,7,7,0,0,1,7,7,4.69,4.69,0,0,0,4.69,4.7V488a7,7,0,0,1-7-7,4.69,4.69,0,0,0-4.69-4.69A7,7,0,0,1,255.76,469.18Zm29.87-2.28,9.95,10-1.65,1.66-10-9.95Z" transform="translate(0.01)"/>
    <rect class="d" x="304.02" y="463.97" width="1.03" height="0.86"/>
    <path class="d" d="M316.77,469.18a4.69,4.69,0,0,0-4.69-4.69,7,7,0,0,1-7-7h2.35a4.69,4.69,0,0,0,4.69,4.7,7,7,0,0,1,7,7,4.69,4.69,0,0,0,4.69,4.7,7,7,0,0,1,7,7,4.69,4.69,0,0,0,4.69,4.7V488a7,7,0,0,1-7-7,4.69,4.69,0,0,0-4.69-4.69A7,7,0,0,1,316.77,469.18Zm29.87-2.28,9.95,10-1.65,1.66-10-9.95Z" transform="translate(0.01)"/>
    <rect class="d" x="365.03" y="463.97" width="1.03" height="0.86"/>
    <path class="d" d="M377.78,469.18a4.69,4.69,0,0,0-4.69-4.69,7,7,0,0,1-7-7h2.35a4.69,4.69,0,0,0,4.69,4.7,7,7,0,0,1,7,7,4.69,4.69,0,0,0,4.69,4.7,7,7,0,0,1,7,7,4.69,4.69,0,0,0,4.69,4.7V488a7,7,0,0,1-7-7,4.69,4.69,0,0,0-4.69-4.69A7,7,0,0,1,377.78,469.18Zm29.87-2.28,10,10L416,478.51l-10-9.95Z" transform="translate(0.01)"/>
    <rect class="d" x="426.04" y="463.97" width="1.03" height="0.86"/>
    <path class="d" d="M438.79,469.18a4.69,4.69,0,0,0-4.69-4.69,7,7,0,0,1-7-7h2.35a4.69,4.69,0,0,0,4.69,4.7,7,7,0,0,1,7,7,4.69,4.69,0,0,0,4.69,4.7,7,7,0,0,1,7,7,4.69,4.69,0,0,0,4.69,4.7V488a7,7,0,0,1-7-7,4.69,4.69,0,0,0-4.69-4.69A7,7,0,0,1,438.79,469.18Zm29.87-2.28,9.95,10L477,478.51l-10-9.95Z" transform="translate(0.01)"/>
    <rect class="d" x="487.05" y="463.97" width="1.03" height="0.86"/>
    <path class="d" d="M499.8,469.18a4.69,4.69,0,0,0-4.69-4.69,7,7,0,0,1-7-7h2.35a4.69,4.69,0,0,0,4.69,4.7,7,7,0,0,1,7,7,4.69,4.69,0,0,0,4.69,4.7,7,7,0,0,1,7,7,4.69,4.69,0,0,0,4.69,4.7V488a7,7,0,0,1-7-7,4.69,4.69,0,0,0-4.69-4.69A7,7,0,0,1,499.8,469.18Zm29.87-2.28,10,10L538,478.51l-10-9.95Z" transform="translate(0.01)"/>
    <rect class="d" x="548.06" y="463.97" width="1.03" height="0.86"/>
    <path class="d" d="M72.73,499.68A4.69,4.69,0,0,0,68,495a7,7,0,0,1-7-7h2.35A4.69,4.69,0,0,0,68,492.64a7,7,0,0,1,7,7,4.69,4.69,0,0,0,4.69,4.69,7,7,0,0,1,7,7,4.69,4.69,0,0,0,4.69,4.69v2.35a7,7,0,0,1-7-7,4.69,4.69,0,0,0-4.69-4.69A7,7,0,0,1,72.73,499.68Zm29.87-2.29,10,10L110.9,509l-10-10Z" transform="translate(0.01)"/>
    <rect class="d" x="120.99" y="494.47" width="1.03" height="0.86"/>
    <path class="d" d="M133.74,499.68a4.69,4.69,0,0,0-4.69-4.69,7,7,0,0,1-7-7h2.35a4.69,4.69,0,0,0,4.69,4.69,7,7,0,0,1,7,7,4.69,4.69,0,0,0,4.69,4.69,7,7,0,0,1,7,7,4.69,4.69,0,0,0,4.69,4.69v2.35a7,7,0,0,1-7-7,4.69,4.69,0,0,0-4.69-4.69A7,7,0,0,1,133.74,499.68Zm29.87-2.29,9.95,10L171.91,509l-10-10Z" transform="translate(0.01)"/>
    <rect class="d" x="182" y="494.47" width="1.03" height="0.86"/>
    <path class="d" d="M194.75,499.68a4.69,4.69,0,0,0-4.69-4.69,7,7,0,0,1-7-7h2.35a4.69,4.69,0,0,0,4.69,4.69,7,7,0,0,1,7,7,4.69,4.69,0,0,0,4.69,4.69,7,7,0,0,1,7,7,4.69,4.69,0,0,0,4.69,4.69v2.35a7,7,0,0,1-7-7,4.69,4.69,0,0,0-4.69-4.69A7,7,0,0,1,194.75,499.68Zm29.87-2.29,9.95,10L232.92,509l-10-10Z" transform="translate(0.01)"/>
    <rect class="d" x="243.01" y="494.47" width="1.03" height="0.86"/>
    <path class="d" d="M255.76,499.68a4.69,4.69,0,0,0-4.69-4.69,7,7,0,0,1-7-7h2.35a4.69,4.69,0,0,0,4.69,4.69,7,7,0,0,1,7,7,4.69,4.69,0,0,0,4.69,4.69,7,7,0,0,1,7,7,4.69,4.69,0,0,0,4.69,4.69v2.35a7,7,0,0,1-7-7,4.69,4.69,0,0,0-4.69-4.69A7,7,0,0,1,255.76,499.68Zm29.87-2.29,9.95,10L293.93,509l-10-10Z" transform="translate(0.01)"/>
    <rect class="d" x="304.02" y="494.47" width="1.03" height="0.86"/>
    <path class="d" d="M316.77,499.68a4.69,4.69,0,0,0-4.69-4.69,7,7,0,0,1-7-7h2.35a4.69,4.69,0,0,0,4.69,4.69,7,7,0,0,1,7,7,4.69,4.69,0,0,0,4.69,4.69,7,7,0,0,1,7,7,4.69,4.69,0,0,0,4.69,4.69v2.35a7,7,0,0,1-7-7,4.69,4.69,0,0,0-4.69-4.69A7,7,0,0,1,316.77,499.68Zm29.87-2.29,9.95,10L354.94,509l-10-10Z" transform="translate(0.01)"/>
    <rect class="d" x="365.03" y="494.47" width="1.03" height="0.86"/>
    <path class="d" d="M377.78,499.68a4.69,4.69,0,0,0-4.69-4.69,7,7,0,0,1-7-7h2.35a4.69,4.69,0,0,0,4.69,4.69,7,7,0,0,1,7,7,4.69,4.69,0,0,0,4.69,4.69,7,7,0,0,1,7,7,4.69,4.69,0,0,0,4.69,4.69v2.35a7,7,0,0,1-7-7,4.69,4.69,0,0,0-4.69-4.69A7,7,0,0,1,377.78,499.68Zm29.87-2.29,10,10L416,509l-10-10Z" transform="translate(0.01)"/>
    <rect class="d" x="426.04" y="494.47" width="1.03" height="0.86"/>
    <path class="d" d="M438.79,499.68A4.69,4.69,0,0,0,434.1,495a7,7,0,0,1-7-7h2.35a4.69,4.69,0,0,0,4.69,4.69,7,7,0,0,1,7,7,4.69,4.69,0,0,0,4.69,4.69,7,7,0,0,1,7,7,4.69,4.69,0,0,0,4.69,4.69v2.35a7,7,0,0,1-7-7,4.69,4.69,0,0,0-4.69-4.69A7,7,0,0,1,438.79,499.68Zm29.87-2.29,9.95,10L477,509l-10-10Z" transform="translate(0.01)"/>
    <rect class="d" x="487.05" y="494.47" width="1.03" height="0.86"/>
    <path class="d" d="M499.8,499.68a4.69,4.69,0,0,0-4.69-4.69,7,7,0,0,1-7-7h2.35a4.69,4.69,0,0,0,4.69,4.69,7,7,0,0,1,7,7,4.69,4.69,0,0,0,4.69,4.69,7,7,0,0,1,7,7,4.69,4.69,0,0,0,4.69,4.69v2.35a7,7,0,0,1-7-7,4.69,4.69,0,0,0-4.69-4.69A7,7,0,0,1,499.8,499.68Zm29.87-2.29,10,10L538,509l-10-10Z" transform="translate(0.01)"/>
    <rect class="d" x="548.06" y="494.47" width="1.03" height="0.86"/>
    <path class="e" d="M88.2,231.85a6.89,6.89,0,0,0-5.29-5.57l0,5.52Z" transform="translate(0.01)"/>
    <path class="f" d="M118.69,268.42v-5.58h-5.35A6.88,6.88,0,0,0,118.69,268.42Z" transform="translate(0.01)"/>
    <path class="f" d="M91.46,245.28h48.88a40.27,40.27,0,0,0-48.88-37.65Z" transform="translate(0.01)"/>
    <path class="g" d="M126.54,249.3v13.54h0v5.76h7.53a39.69,39.69,0,0,0,5.5-13.61C136.33,251.87,132,250,126.54,249.3Z" transform="translate(0.01)"/>
    <path class="g" d="M75,233.19v-1.34h0v-5.77H65.68a39.76,39.76,0,0,0-4.92,12.31c3.31,3.9,8.1,6.25,14.24,7Z" transform="translate(0.01)"/>
    <path class="h" d="M68,222.63H88V208.55A40.26,40.26,0,0,0,68,222.63Z" transform="translate(0.01)"/>
    <path class="h" d="M113.55,272.06v12.86a40.54,40.54,0,0,0,18-12.86Z" transform="translate(0.01)"/>
    <path class="h" d="M77.69,234.54v10.88c3-.35,9.59-2.12,10.94-10.84Z" transform="translate(0.01)"/>
    <path class="h" d="M124,260.32V249.43c-3,.36-9.59,2.13-10.94,10.84Z" transform="translate(0.01)"/>
    <path class="e" d="M110.08,249.41H59.92a40.27,40.27,0,0,0,40.19,37.82,40.54,40.54,0,0,0,10-1.26Z" transform="translate(0.01)"/>
    <text class="i" transform="translate(128.89 280.24)">
      <tspan xml:space="preserve"></tspan>
      <tspan class="j" x="17.01" y="0">R</tspan>
      <tspan x="26.36" y="0">eg</tspan>
      <tspan class="k" x="43.97" y="0">r</tspan>
      <tspan x="49.31" y="0">oupement des tudiants-</tspan>
      <tspan class="l" x="229.99" y="0">c</tspan>
      <tspan class="m" x="238.2" y="0">he</tspan>
      <tspan class="k" x="256.22" y="0">r</tspan>
      <tspan class="n" x="261.57" y="0">c</tspan>
      <tspan x="269.77" y="0">heurs</tspan>
      <tspan class="o">
        <tspan x="0" y="15.63">en sciences de lUn</tspan>
        <tspan class="p" x="144.38" y="15.63">i</tspan>
        <tspan class="q" x="148.6" y="15.63">v</tspan>
        <tspan x="156.92" y="15.63">ersi</tspan>
        <tspan class="r" x="183.44" y="15.63">t</tspan>
        <tspan x="188.9" y="15.63"> de She</tspan>
        <tspan class="s" x="252.84" y="15.63">r</tspan>
        <tspan x="258.7" y="15.63">b</tspan>
        <tspan class="t" x="268.2" y="15.63">r</tspan>
        <tspan class="u" x="273.92" y="15.63">o</tspan>
        <tspan class="v" x="283.85" y="15.63">o</tspan>
        <tspan class="r" x="293.64" y="15.63">k</tspan>
        <tspan x="301.64" y="15.63">e</tspan>
      </tspan>
    </text>
    <path class="w" d="M147.7,202.92l19.5-.09c9.87,0,16.89,6.53,16.89,16.73,0,9.12-5.6,14.48-11.37,15.73v.17a5.73,5.73,0,0,1,2,2.34l8.45,16.73c.84,1.76,3.72,6.8,3.72,6.8-4.77,0-6.51,1-8.43-2.84l-9.09-18.09c-1.59-3.1-2.68-3.52-5.94-3.52h-9.87v24.76H147.7Zm18.91,28.77c7,0,11.38-4.6,11.38-12S173.64,208,166.69,208H153.56v23.67Z" transform="translate(0.01)"/>
    <path class="w" d="M197.45,202.92l28.2-.09c3.59,0,5.1,1.51,5.1,5.11,0,0-6.19.08-7.36.08H203.31v21.42H225.4v5.18H203.31v20a1.64,1.64,0,0,0,1.84,1.84h20.66c1.18,0,7.28.08,7.28.08,0,3.6-1.5,5.1-5.1,5.1H202.56c-3.6,0-5.11-1.5-5.11-5.1Z" transform="translate(0.01)"/>
    <path class="w" d="M268.88,201.83c8.37,0,21.52,3.75,22,12.46l-5.19,1.59c-2.11-5.18-9.87-8.53-16.65-8.53C256,207.35,246,217.56,246,231.78c0,14.05,10,25.35,23.34,25.35a26.86,26.86,0,0,0,19.24-8.29l3.35,4.27a31.22,31.22,0,0,1-22.67,9.54c-17.23,0-29.37-13.72-29.37-30.87C239.85,214.8,252.32,201.83,268.88,201.83Z" transform="translate(0.01)"/>
    <path class="w" d="M304.26,250s5.94,7.19,15.23,7.19c6.44,0,11.63-4.18,11.63-10.46,0-14.55-29-11.63-29-29.86,0-8.2,7.11-15.06,18-15.06,5.69,0,15.9,2.42,15.9,10.12l-5.52,1.42c-1.15-3.79-4.86-6.1-10.29-6.1-7.62,0-12.05,4.43-12.05,9.45,0,13.64,29,10.29,29,29.7,0,8.78-6.78,16.23-17.82,16.23a24.94,24.94,0,0,1-18.66-8.37Z" transform="translate(0.01)"/>
    <path class="w" d="M349.69,202.83c3.6,0,5.83,1.51,5.83,5.11v33.29c0,9.79,6.19,15.9,15.82,15.9s15.89-6.11,15.89-16.07V207.94c0-3.6,2.19-5.11,5.79-5.11l.07,38.65c0,12.72-8.7,21.17-21.67,21.17s-21.75-8.45-21.75-21.17Z" transform="translate(0.01)"/>
    <path class="w" d="M407.2,250s5.94,7.19,15.22,7.19c6.45,0,11.63-4.18,11.63-10.46,0-14.55-29-11.63-29-29.86,0-8.2,7.11-15.06,18-15.06,5.69,0,15.89,2.42,15.89,10.12l-5.52,1.42c-1.14-3.79-4.85-6.1-10.29-6.1-7.61,0-12,4.43-12,9.45,0,13.64,29,10.29,29,29.7,0,8.78-6.78,16.23-17.82,16.23a24.94,24.94,0,0,1-18.66-8.37Z" transform="translate(0.01)"/>
  </g>
</svg>