<?xml version="1.0" encoding="UTF-8" standalone="no"?>
<!-- Created with Inkscape (http://www.inkscape.org/) -->

<svg
   xmlns:dc="http://purl.org/dc/elements/1.1/"
   xmlns:cc="http://creativecommons.org/ns#"
   xmlns:rdf="http://www.w3.org/1999/02/22-rdf-syntax-ns#"
   xmlns:svg="http://www.w3.org/2000/svg"
   xmlns="http://www.w3.org/2000/svg"
   xmlns:sodipodi="http://sodipodi.sourceforge.net/DTD/sodipodi-0.dtd"
   xmlns:inkscape="http://www.inkscape.org/namespaces/inkscape"
   width="158.49695mm"
   height="96.53141mm"
   viewBox="0 0 561.60336 342.04043"
   id="svg19235"
   version="1.1"
   inkscape:version="0.91 r13725"
   sodipodi:docname="remdus.svg">
  <defs
     id="defs19237" />
  <sodipodi:namedview
     id="base"
     pagecolor="#ffffff"
     bordercolor="#666666"
     borderopacity="1.0"
     inkscape:pageopacity="0.0"
     inkscape:pageshadow="2"
     inkscape:zoom="0.35"
     inkscape:cx="71.199779"
     inkscape:cy="-73.854792"
     inkscape:document-units="px"
     inkscape:current-layer="layer1"
     showgrid="false"
     fit-margin-top="0"
     fit-margin-left="0"
     fit-margin-right="0"
     fit-margin-bottom="0"
     inkscape:window-width="1366"
     inkscape:window-height="752"
     inkscape:window-x="0"
     inkscape:window-y="16"
     inkscape:window-maximized="0" />
  <metadata
     id="metadata19240">
    <rdf:RDF>
      <cc:Work
         rdf:about="">
        <dc:format>image/svg+xml</dc:format>
        <dc:type
           rdf:resource="http://purl.org/dc/dcmitype/StillImage" />
        <dc:title></dc:title>
      </cc:Work>
    </rdf:RDF>
  </metadata>
  <g
     inkscape:label="Calque 1"
     inkscape:groupmode="layer"
     id="layer1"
     transform="translate(-52.04709,-275.43611)">
    <path
       style="fill:#000000"
       d="m 518.07059,275.43611 c -2.61899,0 -13.44592,5.5939 -19.5957,10.125 -7.81644,5.75909 -23.63168,18.55164 -29.89453,24.18164 l -4.99024,4.48633 -3.71875,-1.89844 c -2.04597,-1.04378 -4.34634,-1.89648 -5.11132,-1.89648 -4.23792,0 -18.14143,9.7529 -32.5879,22.85937 -1.43038,1.29769 -3.72656,3.34302 -5.10156,4.54688 -5.83138,5.10556 -16.25047,17.24589 -18.44531,21.49023 -2.8261,5.46507 -2.08066,7.49493 6.19531,16.85156 14.32094,16.19095 39.29295,39.09796 47.06836,43.17774 3.02419,1.5868 6.64901,-0.61905 7.58399,-4.61524 1.46885,-6.27804 7.29349,-37.52441 11.52148,-61.81054 2.01609,-11.58068 3.12508,-16.89371 5.14844,-24.65625 1.28075,-4.9135 3.55069,-5.58656 23.30664,-6.90625 31.90981,-2.13156 49.02427,2.36149 56.30273,14.78125 4.85978,8.29258 4.26703,23.90278 -1.32031,34.78125 -3.17508,6.18184 -11.43799,13.98206 -17.10547,16.14648 -2.33973,0.89356 -4.25586,2.2181 -4.25586,2.94336 0,0.72526 1.15232,4.37578 2.56055,8.11328 1.40824,3.73752 3.03153,8.37188 3.60547,10.29688 0.57395,1.925 1.37967,3.95 1.79101,4.5 0.41135,0.55 1.59479,3.40971 2.63086,6.35547 1.49563,4.25238 3.2263,6.53685 8.39844,11.08984 3.5829,3.154 7.41367,6.24226 8.51367,6.86328 1.1,0.62102 2.69282,1.14346 3.53906,1.16016 4.09094,0.0808 46.96094,-41.99754 46.96094,-46.09375 0,-2.03708 -5.95634,-10.52289 -11.8457,-16.875 -2.80463,-3.025 -5.11225,-5.78886 -5.12695,-6.14063 -0.0147,-0.35177 1.54975,-2.37677 3.47656,-4.5 1.92682,-2.12323 3.76614,-4.82996 4.08594,-6.01562 0.79014,-2.92949 -5.64227,-14.25529 -12.41016,-21.85157 -1.47326,-1.65357 -4.01124,-4.80358 -5.64062,-7 -5.27253,-7.10738 -33.78225,-34.93281 -42.97071,-41.93945 -8.55577,-6.52418 -19.39471,-12.55078 -22.56836,-12.55078 z m -17.9082,67.99805 -0.59961,3.75 c -0.32913,2.0625 -1.47413,8.33828 -2.54492,13.94726 -1.0708,5.60898 -1.94727,10.41915 -1.94727,10.68946 0,0.27032 1.6875,0.68565 3.75,0.92187 4.93356,0.56503 16.78255,-0.22066 21.48633,-1.42383 3.91148,-1.00051 7.75428,-3.99499 9.47461,-7.38476 1.78116,-3.50963 2.40383,-10.62461 1.23828,-14.15625 -1.65491,-5.01443 -5.74666,-6.34375 -19.52539,-6.34375 l -11.33203,0 z m -9.70899,51 -1.29492,9.14648 c -0.71207,5.03109 -1.74556,10.44195 -2.29687,12.02344 -0.89149,2.55734 -0.68636,3.12116 1.85351,5.09961 1.57068,1.2235 3.75547,3.15173 4.85547,4.28515 1.1,1.13344 3.8,3.38319 6,4.99805 2.2,1.61487 4.225,3.2123 4.5,3.55078 0.275,0.33848 2.75,2.01963 5.5,3.73633 5.96334,3.72264 8.56511,3.91133 12.61914,0.91406 2.9918,-2.21194 3.00293,-2.25377 0.75196,-2.78515 -1.80505,-0.42611 -2.93913,-2.31754 -5.39649,-9.00391 -1.71106,-4.65573 -3.57696,-9.58984 -4.14648,-10.96484 -0.56952,-1.375 -2.51276,-6.6625 -4.31836,-11.75 l -3.28321,-9.25 -7.67187,0 -7.67188,0 z m -82.9746,41 -1.14063,6.75 c -0.62732,3.7125 -1.9024,13.275 -2.83203,21.25 -0.92963,7.975 -1.85924,14.68858 -2.06641,14.91992 -0.20717,0.23134 -1.38771,-0.49368 -2.62304,-1.61133 -3.32837,-3.01129 -8.19158,-4.30947 -16.14454,-4.30859 -12.05437,10e-4 -22.93598,6.60359 -32.13867,19.5 -11.14211,15.61426 -14.4611,40.66313 -7.35742,55.52734 2.61212,5.46578 4.99141,7.80749 10.8711,10.69141 4.73286,2.32141 15.29945,3.12927 18.7871,1.4375 0.95504,-0.46326 3.92486,-1.90108 6.59961,-3.19727 2.67476,-1.29619 7.00617,-4.28412 9.625,-6.63867 l 4.76172,-4.28125 0.48242,5.01562 c 0.3219,3.35007 1.11013,5.48291 2.375,6.42383 2.25261,1.67571 10.12548,2.80312 16.38672,2.34766 l 4.49219,-0.32617 0.76953,-5 c 0.42295,-2.75 1.88646,-13.775 3.25391,-24.5 1.36745,-10.725 3.39795,-26.25 4.51172,-34.5 1.95686,-14.49502 6.93554,-54.2964 6.96484,-55.67969 0.008,-0.37322 -0.69235,-1.38572 -1.55664,-2.25 -1.24191,-1.24192 -3.92565,-1.57031 -12.79688,-1.57031 l -11.2246,0 z m 166.3164,36.9375 c -4.94698,-0.0189 -10.00187,0.32941 -12.69531,1.05468 -14.37177,3.86991 -24.0293,15.80536 -24.0293,29.69922 0,9.10891 4.8363,15.85365 13.875,19.35547 3.09427,1.1988 7.04423,2.80403 8.77735,3.56641 1.73312,0.76239 3.46372,1.38672 3.8457,1.38672 0.38197,0 2.02523,0.94687 3.65234,2.10547 2.48637,1.77044 2.90981,2.68367 2.6543,5.71875 -0.23736,2.81959 -1.04819,4.11071 -3.70117,5.89257 -4.90005,3.29109 -9.82592,2.96641 -17.87891,-1.17773 -8.37079,-4.30769 -11.19232,-3.96875 -15.34961,1.84375 -1.61917,2.26385 -3.62932,4.93968 -4.46679,5.94531 -2.5407,3.05088 0.97232,5.80554 13.09179,10.26758 13.66391,5.03067 32.48861,1.71551 42.77539,-7.5332 6.65306,-5.98167 9.70205,-12.56579 9.71485,-20.97461 0.0174,-11.40903 -5.98504,-17.93219 -21.14844,-22.97656 -11.30408,-3.76051 -14.76712,-9.27586 -9.27344,-14.76954 2.31751,-2.31751 3.16947,-2.52896 8.77735,-2.17187 3.80161,0.24206 7.8598,1.25647 10.46289,2.61328 6.56756,3.4232 8.2194,2.99175 13.51562,-3.5332 2.56695,-3.1625 4.66888,-6.06697 4.67188,-6.45313 0.007,-1.01751 -11.00864,-7.31697 -15.23242,-8.71093 -2.25484,-0.74415 -7.09208,-1.12956 -12.03907,-1.14844 z m -267.02539,0.0625 c -5.70555,0 -8.2023,0.52156 -12.2207,2.55468 -4.87676,2.46742 -10.42413,7.26306 -14.375,12.42774 l -1.90039,2.48437 -1.12695,-4.1875 c -1.30244,-4.8369 -5.07425,-9.71157 -9.14453,-11.8164 -3.39957,-1.75798 -13.31275,-1.91732 -18.03126,-0.29102 -3.99939,1.37845 -13.34493,8.04485 -14.81445,10.56836 -0.83687,1.43709 -1.02979,1.09906 -1.05469,-1.8457 -0.0203,-2.40944 -0.84297,-4.481 -2.48242,-6.25 -2.32191,-2.50538 -2.95974,-2.64453 -12,-2.64453 -8.42408,0 -9.54969,0.20596 -9.55468,1.75 -0.009,2.45594 -6.39222,53.05588 -8.92579,70.75 -0.55127,3.85 -1.01715,8.4625 -1.03515,10.25 l -0.0332,3.25 13,0 c 7.15,0 13.01531,-0.1125 13.03321,-0.25 0.0179,-0.1375 0.69589,-5.2 1.50586,-11.25 0.80998,-6.05 2.13624,-16.4 2.94726,-23 2.37235,-19.30593 8.36666,-30.44407 17.28516,-32.11719 2.97757,-0.5586 3.88505,-0.29221 5.4043,1.58398 1.00418,1.24012 1.81759,3.21602 1.80859,4.39258 -0.0155,2.12791 -2.5716,23.69364 -5.41016,45.64063 -0.81806,6.325 -1.50549,12.2875 -1.52929,13.25 -0.0391,1.58238 1.24811,1.75 13.45507,1.75 12.18514,0 13.50303,-0.17044 13.51563,-1.75 0.0147,-1.83641 3.37036,-29.81107 4.99805,-41.66406 1.943,-14.14911 11.25134,-25.24211 19.45312,-23.1836 4.5341,1.13799 4.51225,2.93136 -0.48242,42.09766 -1.12222,8.8 -2.31157,17.92532 -2.64453,20.27929 l -0.60547,4.2793 13.38281,-0.2793 13.38281,-0.27929 0.71875,-4.5 c 0.39499,-2.475 1.62813,-11.7 2.74024,-20.5 1.1121,-8.8 2.51565,-19.6 3.11914,-24 2.14502,-15.63922 -0.0671,-26.36375 -6.74219,-32.6875 -3.97442,-3.76521 -7.38036,-4.8125 -15.63672,-4.8125 z m -142.08398,0.0937 c -1.23227,0.0134 -2.53455,0.06 -3.92188,0.13476 -8.10867,0.43671 -10.12892,0.95302 -17.14257,4.38282 -14.61709,7.14804 -24.22375,20.095 -27.19532,36.65429 -1.64011,9.13966 -1.19976,17.36221 1.34961,25.23438 2.34217,7.23236 11.7312,16.32231 19.79492,19.16211 11.39,4.01121 28.47721,2.46029 40.5,-3.67383 4.8495,-2.47425 14,-9.90224 14,-11.36524 0,-0.6637 -1.92879,-3.1015 -4.28711,-5.41601 -5.3411,-5.2419 -7.47526,-5.3157 -16.25781,-0.57227 -5.70857,3.08318 -7.732,3.64761 -13.34179,3.72071 -7.94189,0.10356 -12.3659,-1.91379 -14.49219,-6.60743 -1.90636,-4.20805 -3.01063,-9.74417 -1.94922,-9.76757 3.18914,-0.0704 22.43074,-3.21226 27.10351,-4.42579 7.78733,-2.02237 15.30285,-5.78525 19.0625,-9.54492 9.98132,-9.98132 8.44274,-24.59581 -3.42187,-32.50781 -6.03387,-4.02371 -11.17493,-5.50201 -19.80078,-5.4082 z m -54.88672,0.24609 c -1.05156,-0.0168 -2.03673,0.0432 -2.90234,0.18945 -5.54611,0.93701 -12.7151,6.38062 -18.51953,14.06446 l -2.19532,2.90625 -0.0547,-5.61524 c -0.0406,-4.1061 -0.61333,-6.32325 -2.12891,-8.25 -1.97719,-2.51359 -2.50648,-2.63476 -11.5,-2.63476 -5.18508,0 -9.44099,0.3375 -9.45899,0.75 -0.018,0.4125 -0.48388,3.9 -1.03515,7.75 -1.54321,10.77755 -4.55799,34.20152 -6.82031,53 -1.12523,9.35 -2.28996,18.6875 -2.58985,20.75 l -0.002,0 -0.54492,3.75 12.95312,0 c 7.56388,0 13.21106,-0.41751 13.57227,-1.00196 0.34021,-0.55047 1.48937,-8.98797 2.55469,-18.75 1.96658,-18.0207 4.40465,-27.9661 8.27148,-33.74804 5.15261,-7.70452 10.64492,-10.39928 18.60156,-9.12696 3.61132,0.57747 3.90953,0.4236 5.14063,-2.63086 1.42206,-3.52825 4.90613,-8.5704 9.0957,-13.16601 l 2.66406,-2.92383 -2.27734,-1.79101 c -2.4855,-1.9551 -8.26746,-3.44883 -12.82422,-3.52149 z m 349.82617,0.66016 c -13.20888,0 -13.52709,0.051 -13.99023,2.25 -0.26064,1.2375 -1.16292,8.325 -2.00586,15.75 -0.84294,7.425 -2.25095,18.9 -3.12891,25.5 -3.38713,25.46241 -0.42458,35.64725 12.07031,41.48828 9.73858,4.55253 23.99791,1.12468 34.11524,-8.20117 l 4.38476,-4.04297 0.006,3.3789 c 0.003,1.99811 0.92471,4.52558 2.25781,6.19141 2.11703,2.64544 2.83897,2.85057 11.92383,3.39258 l 9.66992,0.57812 0.58594,-3.39257 c 0.32218,-1.86594 1.26934,-9.01758 2.10547,-15.89258 0.83613,-6.875 2.42824,-19.475 3.53906,-28 1.11082,-8.525 2.536,-20.16684 3.16602,-25.86914 1.46725,-13.28017 1.62491,-13.13086 -13.94336,-13.13086 -6.21988,0 -11.33102,0.1125 -11.35742,0.25 -0.0264,0.1375 -0.65718,4.975 -1.40039,10.75 -4.11241,31.95505 -4.69005,35.23751 -7.11328,40.35547 -4.77705,10.08928 -14.57436,17.06304 -20.69922,14.73437 -3.86658,-1.47007 -4.21849,-4.47149 -2.33789,-19.92969 2.5864,-21.2598 4.41766,-36.21935 5.07031,-41.41015 l 0.59765,-4.75 -13.51562,0 z M 162.2327,489.50247 c 3.23452,-0.159 5.9365,1.05862 6.96875,3.70898 1.59629,4.09857 -1.46143,9.15145 -6.63086,10.95703 -6.34801,2.21723 -18.5,4.147 -18.5,2.9375 0,-2.57318 4.46655,-9.86048 8,-13.05273 3.16183,-2.85653 6.92759,-4.39179 10.16211,-4.55078 z m 226.16797,1.33008 c 1.15995,0.0248 2.39708,0.20266 3.78125,0.51367 7.01136,1.57535 7.32491,2.33624 5.89258,14.24609 -1.77464,14.75612 -8.11067,27.31719 -16.60352,32.91602 -4.05491,2.67315 -8.75884,2.47553 -11.72851,-0.49414 -7.40529,-7.40529 -2.11286,-34.24063 8.43164,-42.75391 3.96311,-3.19968 6.74671,-4.50221 10.22656,-4.42773 z m -19.66992,89.60156 c -1.03395,0 -1.78177,1.2775 -2.19531,3.75 -0.34496,2.0625 -0.73739,4.18837 -0.8711,4.72461 -0.1337,0.53623 -2.11215,0.84072 -4.39648,0.67578 -4.94576,-0.35709 -8.15126,2.41592 -10.02734,8.67773 -1.64865,5.50268 -1.47297,7.21883 1.00586,9.85742 2.66297,2.8346 3.25539,2.85547 6.91992,0.2461 2.42514,-1.72686 2.90429,-1.80936 2.90429,-0.5 0,1.74518 0.17977,1.81927 2.35547,0.98437 0.83526,-0.32052 1.31325,-1.12076 1.06055,-1.77929 -0.2527,-0.65853 0.50307,-5.68451 1.68164,-11.16797 3.33469,-15.51511 3.33147,-15.46875 1.5625,-15.46875 z m 43.90039,0 c -2.10458,0 -2.91557,1.8676 -1.5332,3.5332 0.65967,0.79486 1.59825,1.1979 2.08593,0.89648 1.44907,-0.89557 1.0084,-4.42968 -0.55273,-4.42968 z m 118.6875,0 c -1.39878,0 -2.18329,1.221 -3.11328,4.84961 -1.11699,4.35826 -1.48913,4.80555 -3.66992,4.38867 -1.33502,-0.25521 -3.5151,-0.19285 -4.84375,0.14062 -5.70417,1.43165 -9.54114,15.70155 -5.1211,19.04493 2.53879,1.92037 2.41153,1.92721 6.16797,-0.36329 2.71847,-1.65759 3.25061,-1.71971 3.74414,-0.43359 0.94604,2.46533 2.28521,0.69704 2.91992,-3.85547 0.88041,-6.31477 4.22319,-21.24082 5.06055,-22.5957 0.45761,-0.74043 0.0335,-1.17578 -1.14453,-1.17578 z m 9.82226,0 c -2.02945,0 -2.92329,2.81306 -1.38281,4.35351 1.19285,1.19284 2.80095,0.0737 3.13281,-2.18164 0.24018,-1.63227 -0.19448,-2.17187 -1.75,-2.17187 z m -239.73046,0.0684 c -0.2241,-0.0213 -0.52326,0.0122 -0.90625,0.0859 -1.09869,0.21159 -2.13199,1.57661 -2.53906,3.35157 -3.88992,16.96155 -4.80419,22.79226 -3.85157,24.57226 1.09669,2.04919 1.86356,2.27895 4.37696,1.31446 2.14553,-0.82332 2.01167,-3.20439 -0.16993,-3.03125 -1.18153,0.0938 -1.69018,-0.51101 -1.56835,-1.86133 0.21936,-2.43148 3.84597,-19.08068 4.86914,-22.35156 0.45591,-1.45745 0.46137,-2.01622 -0.21094,-2.08008 z m -111.95117,0.42968 c -0.45638,0.0367 -1.13293,0.41287 -2.25782,1.14844 -3.5284,2.30726 -5.15189,3.99849 -4.48242,4.66797 0.56981,0.56981 4.941,-1.03447 7.04297,-2.58398 0.65484,-0.48271 0.93763,-1.53532 0.62891,-2.33985 -0.24015,-0.62582 -0.47526,-0.92927 -0.93164,-0.89258 z m 284.16796,0.33008 c -0.62802,0.0459 -1.44379,0.33544 -2.35742,0.91992 -3.6291,2.32168 -5.21553,3.90167 -4.56641,4.55079 0.78957,0.78957 6.06771,-1.23291 7.39649,-2.83399 1.38304,-1.66646 0.90899,-2.73775 -0.47266,-2.63672 z m -385.08007,0.28125 c -0.9457,-0.002 -2.15812,0.033 -3.69336,0.0957 l -7.1875,0.29492 -1.22461,6 c -0.67376,3.3 -1.91604,8.925 -2.76172,12.5 -0.84569,3.575 -1.55492,7.0625 -1.57422,7.75 -0.0248,0.8843 2.01277,1.25 6.96484,1.25 5.55556,0 7,-0.30952 7,-1.5 0,-1.13646 -1.22972,-1.5 -5.07812,-1.5 l -5.08008,0 0.6543,-3.25 c 1.35659,-6.74 1.3654,-6.75 6.07226,-6.75 3.27343,0 4.43164,-0.39227 4.43164,-1.5 0,-1.08613 -1.11576,-1.5 -4.04492,-1.5 l -4.04492,0 0.67578,-3.75 c 0.94365,-5.2297 0.96946,-5.25 6.36719,-5.25 3.43496,0 5.0049,-0.44813 5.42578,-1.54492 0.37955,-0.9891 -0.0652,-1.3385 -2.90234,-1.34571 z m 505.1289,1.82031 c -0.66914,-0.11226 -1.55054,0.72132 -2.02343,2.60547 -0.35583,1.41772 -1.72705,2.94905 -3.10938,3.47461 -2.907,1.10524 -3.28583,2.99024 -0.60156,2.99024 1.78723,0 1.80578,0.31217 0.41406,7.07617 -1.34524,6.53808 -1.32372,7.22221 0.28516,9 2.03516,2.24883 2.49233,2.30848 5.88281,0.76367 3.46303,-1.57786 3.22548,-3.14827 -0.35742,-2.36133 -1.59764,0.3509 -3.16724,0.21281 -3.48828,-0.30664 -0.32103,-0.51944 0.14475,-3.89576 1.03515,-7.5039 1.42343,-5.76816 1.92662,-6.59809 4.16211,-6.86524 3.54914,-0.42414 4.10436,-2.80273 0.6543,-2.80273 -2.47592,0 -2.65593,-0.25744 -2.10742,-3 0.37995,-1.89974 -0.077,-2.95805 -0.7461,-3.07032 z m -170.90039,0.0703 c -0.81607,0 -1.71804,1.31677 -2.05469,3 -0.42963,2.14815 -1.175,3 -2.625,3 -1.13333,0 -2.02539,0.66049 -2.02539,1.5 0,0.825 0.68405,1.5 1.51953,1.5 1.06009,0 1.36439,0.67988 1.00782,2.25 -2.3502,10.34902 -2.41389,11.26944 -0.95313,13.5 1.6572,2.53052 2.23016,2.65401 5.86133,1.27344 3.32314,-1.26345 3.42919,-3.45772 0.12695,-2.62891 -3.44674,0.86508 -3.93106,-0.63242 -2.55859,-7.90625 1.14688,-6.07823 1.34706,-6.39222 4.27344,-6.6836 4.2308,-0.42124 4.84803,-2.80468 0.72656,-2.80468 -2.99397,0 -3.12765,-0.16013 -2.50391,-3 0.49644,-2.26027 0.30089,-3 -0.79492,-3 z m 61.27148,0 c -1.44516,0 -1.97656,0.676 -1.97656,2.52344 0,1.77293 -0.74445,2.8091 -2.5,3.47656 -2.92982,1.11392 -3.32467,3 -0.6289,3 1.78723,0 1.80578,0.31217 0.41406,7.07617 -1.34524,6.53808 -1.32373,7.22221 0.28515,9 2.03516,2.24883 2.49234,2.30848 5.88282,0.76367 3.53287,-1.60968 3.18379,-2.89729 -0.70313,-2.59375 -3.12431,0.244 -3.24305,0.11859 -3.07617,-3.24609 0.31968,-6.44541 2.349,-10.86311 5.14258,-11.19727 3.54029,-0.42347 4.08575,-2.80273 0.64258,-2.80273 -2.47592,0 -2.65594,-0.25744 -2.10743,-3 0.50464,-2.52321 0.28611,-3 -1.375,-3 z M 96.83817,589.2935 c -0.95632,0.11911 -1.76758,1.40756 -1.76758,3.42969 0,1.80945 -0.675,5.88144 -1.5,9.04883 -0.825,3.16739 -1.5,6.18777 -1.5,6.71094 0,0.52317 0.62312,0.95117 1.38282,0.95117 0.81369,0 1.87119,-1.95189 2.57422,-4.75 1.73988,-6.92485 3.8312,-10.83381 6.43359,-12.01953 3.71025,-1.69051 5.30079,-0.0285 3.83984,4.01171 -0.66656,1.84336 -1.50287,5.468 -1.85742,8.05469 -0.5191,3.78723 -0.35349,4.70313 0.8457,4.70313 1.07925,0 1.966,-2.46636 3.22071,-8.95899 0.95221,-4.92729 1.43989,-9.42729 1.08593,-10 -0.81962,-1.32619 -6.07894,-1.35044 -8.52929,-0.0391 -1.25242,0.67028 -2.07989,0.67028 -2.49414,0 -0.5342,-0.86435 -1.16058,-1.21404 -1.73438,-1.14258 z m 120.11914,0.006 c -1.19128,0.0257 -2.5632,0.42752 -4.07812,1.23828 -1.54816,0.82855 -2.25073,0.79587 -2.82227,-0.1289 -1.07276,-1.73577 -2.89353,-0.33537 -2.33594,1.79687 0.2545,0.97321 -0.0402,3.78431 -0.65624,6.24805 -2.28064,9.12174 -3.92489,16.51692 -3.95899,17.8125 -0.0747,2.83383 2.53284,0.3175 3.82227,-3.68945 1.09625,-3.40666 1.61944,-3.99335 2.73632,-3.06641 3.83375,3.18173 10.95391,-3.49296 12.01954,-11.26758 0.78441,-5.7229 -1.15271,-9.02058 -4.72657,-8.94336 z m 115.68555,0.041 c -2.63101,-0.0485 -6.30533,1.17344 -7.97266,3.41797 l -2.09961,2.82617 3.75,3.4375 c 2.0625,1.89091 3.75,4.36586 3.75,5.5 0,1.83002 -0.52516,2.03075 -4.67773,1.77539 -5.13225,-0.31561 -6.71136,1.16207 -3.09961,2.90234 3.56408,1.7173 5.38651,1.43363 8.70117,-1.35547 3.98023,-3.34914 3.88168,-5.49705 -0.42383,-9.27734 -1.925,-1.69017 -3.5,-3.52091 -3.5,-4.06836 0,-1.83368 3.85015,-3.21639 5.90039,-2.11914 1.44661,0.77421 2.04043,0.65497 2.48438,-0.50195 0.6496,-1.69283 -0.76616,-2.49943 -2.8125,-2.53711 z m 245.39453,0 c -1.47387,0.0153 -3.13966,0.52657 -4.74414,1.65039 -2.02437,1.41795 -2.22266,1.41049 -2.22266,-0.0742 0,-1.03154 -0.64254,-1.48829 -1.75,-1.24609 -0.9625,0.21049 -1.64067,0.90594 -1.50781,1.54687 0.13286,0.64092 -0.42964,4.35599 -1.25,8.25586 -0.82036,3.89987 -1.49219,7.73634 -1.49219,8.52539 0,1.76255 1.92568,1.90993 2.42774,0.18555 3.4115,-11.71714 3.93431,-12.87171 6.74219,-14.8711 4.60671,-3.28027 5.53351,-1.43268 3.50195,6.98438 -2.03396,8.42696 -2.05246,9.13672 -0.24219,9.13672 0.93568,0 1.83262,-1.98313 2.60352,-5.75 0.6472,-3.1625 1.63614,-6.98897 2.19531,-8.50196 1.29782,-3.51164 -1.01919,-5.87553 -4.26172,-5.84179 z m -195.18555,0.0859 c -1.18858,0.0333 -2.7712,0.59425 -3.95117,1.66211 -1.70463,1.5427 -1.83008,1.53876 -1.83008,-0.0723 0,-1.12514 -0.61074,-1.59485 -1.75,-1.3457 -0.9625,0.21049 -1.61544,0.97771 -1.45312,1.70703 0.16233,0.72933 -0.40017,4.68949 -1.25,8.79882 -0.84982,4.10934 -1.54688,7.87212 -1.54688,8.36329 0,0.49117 0.39625,0.89453 0.87891,0.89453 1.67263,0 2.93904,-2.52281 3.64453,-7.26172 0.79562,-5.34436 3.7026,-9.73828 6.44336,-9.73828 1.00124,0 2.07989,-0.675 2.39648,-1.5 0.40141,-1.04606 -0.39345,-1.54111 -1.58203,-1.50782 z m 113.98047,0.002 c -0.8706,0.0847 -1.93178,0.92463 -2.23437,2.25586 -0.28129,1.2375 -0.94882,4.31112 -1.48438,6.83008 -0.53556,2.51895 -1.24978,5.29585 -1.58594,6.17187 -0.35781,0.93245 0.25067,2.45379 1.4668,3.66992 2.59319,2.59296 3.54133,2.59495 7.17188,0.01 2.42513,-1.72686 2.90429,-1.80936 2.90429,-0.5 0,1.74518 0.17977,1.81927 2.35547,0.98437 0.83526,-0.32052 1.29727,-1.15792 1.02734,-1.86133 -0.26992,-0.70341 0.20981,-4.29331 1.06446,-7.97851 0.85466,-3.6852 1.55273,-7.38595 1.55273,-8.22266 0,-2.57171 -2.40442,-0.88067 -3.1582,2.22071 -2.24219,9.22542 -2.89242,10.99008 -4.47656,12.14843 -2.38433,1.74346 -6.36524,1.63499 -6.36524,-0.17382 0,-0.79817 0.675,-4.04355 1.5,-7.21094 0.825,-3.16739 1.5,-6.33938 1.5,-7.04883 0,-0.97034 -0.56115,-1.3608 -1.23828,-1.29492 z m -245.19336,0.006 c -1.57806,0 -2.08575,1.30357 -3.11132,8 -0.37905,2.475 -1.12496,5.32936 -1.65821,6.34375 -0.74183,1.41118 -0.43818,2.40935 1.29102,4.25 2.67348,2.84579 3.20967,2.91103 6.45117,0.78711 1.9522,-1.27913 2.77482,-1.36604 3.92187,-0.41407 1.52111,1.26241 3.94852,0.50653 3.04883,-0.94921 -0.28658,-0.46369 0.15678,-4.06183 0.98438,-7.9961 0.8276,-3.93427 1.5039,-7.83504 1.5039,-8.66992 0,-2.56915 -2.40494,-0.87658 -3.1582,2.22266 -2.24219,9.22542 -2.89242,10.99008 -4.47656,12.14843 -2.38433,1.74346 -6.36524,1.63499 -6.36524,-0.17382 0,-0.79817 0.675,-4.04355 1.5,-7.21094 1.86235,-7.14999 1.87291,-8.33789 0.0684,-8.33789 z m 61.82813,0 c -8.38204,0 -13.79212,12.94722 -7.75,18.54687 3.10855,2.8809 3.89373,2.96115 8.83984,0.89453 4.60025,-1.92211 3.79417,-2.9414 -2.32617,-2.9414 -4.071,0 -4.69935,-0.28429 -4.97851,-2.25 -0.27906,-1.96487 0.12362,-2.25 3.17382,-2.25 3.85927,0 9.64453,-4.05518 9.64453,-6.75977 0,-2.75208 -3.13523,-5.24023 -6.60351,-5.24023 z m 80.75586,0 c -5.96069,0 -10.15235,5.52182 -10.15235,13.37695 0,3.5259 0.48474,4.84912 2.22266,6.06641 2.90971,2.03804 4.60627,1.95821 8.46484,-0.39453 3.78323,-2.3068 5.02362,-4.38851 5.90625,-9.90821 0.9416,-5.88845 -1.34984,-9.14062 -6.4414,-9.14062 z m 14.47656,0 c -2.55805,0 -3.62891,0.44232 -3.62891,1.5 0,0.825 0.84134,1.5 1.86914,1.5 1.76951,0 1.79524,0.30524 0.47852,5.75 -0.76479,3.1625 -1.66238,6.9875 -1.99414,8.5 -0.44315,2.02042 -0.21601,2.75 0.85742,2.75 1.48683,0 4.05967,-7.57851 5.38477,-15.86524 l 0.66015,-4.13476 -3.62695,0 z m 60.2832,0 c -4.12532,0 -6.34513,1.34739 -8.82226,5.35547 -3.05667,4.94579 -2.81681,10.92793 0.54492,13.57226 3.18634,2.50637 4.28177,2.55563 8.78906,0.40625 4.56586,-2.1773 3.75053,-3.22153 -2.00977,-2.57226 -3.31013,0.3731 -4.87042,0.1262 -5.50195,-0.8711 -1.7696,-2.79452 -0.96009,-3.89062 2.86719,-3.89062 4.08829,0 7.57451,-1.92279 9.28515,-5.11914 1.63698,-3.05874 -1.22535,-6.88086 -5.15234,-6.88086 z m 68.65625,0 c -2.50435,0 -3.56836,0.44698 -3.56836,1.5 0,0.84766 0.89698,1.5 2.06055,1.5 1.30598,0 1.796,0.4233 1.3418,1.1582 -0.73134,1.18335 -3.30359,12.33012 -3.36719,14.5918 -0.0193,0.6875 0.36109,1.25 0.84375,1.25 1.75071,0 2.88168,-2.63628 4.07812,-9.5 0.67111,-3.85 1.4358,-7.7875 1.69922,-8.75 0.39113,-1.42913 -0.17459,-1.75 -3.08789,-1.75 z m 22.93164,0 c -0.825,0 -1.5,0.53922 -1.5,1.19922 0,0.93333 -0.26589,0.93333 -1.19922,0 -1.56568,-1.56568 -6.0104,-1.53688 -7.92968,0.0508 -2.70931,2.24117 -4.89418,6.64726 -5.50391,11.0957 -0.5081,3.70698 -0.25186,4.68283 1.70703,6.50781 1.2674,1.18076 2.42295,2.14649 2.56836,2.14649 1.12973,0 5.35742,-2.49382 5.35742,-3.16016 0,-0.46171 0.45,-0.83984 1,-0.83984 0.55,0 0.99996,0.95375 1,2.12109 0,1.77324 0.2468,1.91898 1.5,0.87891 0.825,-0.68469 1.50763,-2.8779 1.51563,-4.87305 0.008,-1.99516 0.66446,-5.42695 1.45703,-7.62695 1.8754,-5.20576 1.88277,-7.5 0.0273,-7.5 z m 48.40625,0 c -7.10354,0 -9.24826,5.76954 -3.8164,10.26953 4.47255,3.70525 3.65162,6.23047 -2.02735,6.23047 -4.91292,0 -6.30263,1.59713 -2.83984,3.26562 3.14462,1.51519 4.42126,1.46853 7.8125,-0.28515 4.86781,-2.51722 4.9048,-9.41306 0.0586,-10.95118 -2.56708,-0.81476 -3.24175,-2.94222 -1.63281,-5.14257 1.11021,-1.51831 1.72443,-1.62472 3.84571,-0.65821 2.001,0.91172 2.63284,0.87229 3.04101,-0.1914 0.7562,-1.9706 -0.23609,-2.53711 -4.44141,-2.53711 z m -372.96875,0.0312 c -5.58187,-0.0498 -9.1903,4.33933 -9.73242,11.83398 -0.38072,5.26336 -0.18478,6.03402 1.90821,7.5 3.05294,2.13836 4.45792,2.0618 8.54296,-0.46289 4.24599,-2.62417 6.34375,-6.5889 6.34375,-11.99219 0,-4.98416 -1.89707,-6.8328 -7.0625,-6.8789 z m 43.27539,0.008 c -1.11756,0.0625 -2.65172,0.58005 -3.99023,1.51758 -2.02603,1.41912 -2.22266,1.41106 -2.22266,-0.084 0,-2.87134 -2.30101,-0.99385 -2.54687,2.07813 -0.12978,1.62149 -0.7374,4.97422 -1.35156,7.44922 -0.61416,2.475 -1.35624,5.54809 -1.64844,6.83008 -0.41831,1.83534 -0.15423,2.25841 1.23828,1.99023 1.2622,-0.24307 2.1467,-2.05474 3.09375,-6.33008 1.28183,-5.78665 5.20962,-11.662 7.48242,-11.19336 0.54075,0.1115 1.18933,-0.35937 1.44141,-1.04687 0.32294,-0.88075 -0.37853,-1.27342 -1.4961,-1.21094 z m -155.51171,0.0879 c -1.22078,-10e-4 -2.39563,0.0988 -3.34766,0.33203 -5.48376,1.3435 -8.80466,15.52738 -4.29492,18.34375 1.6982,1.06055 2.57164,1.02979 5,-0.18164 3.33716,-1.66479 3.73799,-0.84438 1.91992,3.9375 -0.96026,2.52569 -1.32705,2.6619 -6,2.21289 -3.60772,-0.34665 -4.97852,-0.12945 -4.97852,0.79102 0,0.69843 0.5625,1.49798 1.25,1.77539 0.6875,0.27741 2.88906,0.53863 4.89063,0.58203 5.63016,0.12214 7.8746,-2.37778 9.40234,-10.47266 1.13757,-6.02751 1.89905,-9.27284 3.58399,-15.27929 0.30952,-1.10339 -3.76345,-2.03673 -7.42578,-2.04102 z m 313.47656,0.008 c -2.49128,-0.0704 -3.44689,0.41172 -4.58399,2.03516 -2.3755,3.3915 -1.97528,5.00897 2.07813,8.41211 2.68798,2.25676 3.48692,3.56225 2.98242,4.87695 -0.56399,1.46973 -1.49566,1.70662 -5.13086,1.29688 -4.94744,-0.55764 -6.56367,0.97335 -3.125,2.95898 2.78117,1.60597 4.14443,1.57366 7.53125,-0.17773 5.08042,-2.62719 5.38081,-6.45454 0.83398,-10.60743 -2.67496,-2.4432 -3.04122,-3.25768 -2.11132,-4.69335 1.08516,-1.67539 2.14616,-1.89391 5.34765,-1.10547 0.83085,0.20462 1.5,-0.30001 1.5,-1.13086 0,-1.04414 -1.26312,-1.59188 -4.15625,-1.80274 -0.42362,-0.0309 -0.81012,-0.0524 -1.16601,-0.0625 z m -273.03516,0.0195 c -3.91605,-0.0317 -4.49266,0.43866 -6.65039,3.26758 -6.6466,8.71414 -2.99665,20.21161 4.64063,14.61914 l 2.63086,-1.92578 -0.75,3.32422 c -1.22871,5.44795 -1.79766,5.86419 -7.14844,5.23047 -3.73211,-0.44201 -4.86524,-0.25771 -4.86524,0.79297 0,0.75326 0.5625,1.59759 1.25,1.875 2.31792,0.9353 7.6396,0.66982 10.22852,-0.50977 2.75557,-1.25552 2.79849,-1.36803 4.97461,-13.04101 0.79076,-4.24171 1.91171,-8.59896 2.49219,-9.6836 1.78059,-3.32706 1.26343,-3.74016 -4.9043,-3.91015 -0.71007,-0.0196 -1.339,-0.0345 -1.89844,-0.0391 z m 20.11133,0.006 c -0.8237,-0.005 -1.72122,0.0792 -2.68359,0.25977 -3.03052,0.56853 -3.96754,1.43257 -6.07617,5.59375 -3.14193,6.20038 -3.12682,8.07845 0.0957,11.9082 2.976,3.53678 3.87435,3.67672 9.43164,1.45313 5.03726,-2.01551 4.33219,-2.875 -2.35938,-2.875 -4.59145,0 -5.19622,-0.24855 -5.48046,-2.25 -0.28153,-1.9822 0.11676,-2.25 3.3457,-2.25 5.09392,0 9.47265,-3.27796 9.47265,-7.08985 0,-3.00324 -2.17671,-4.72614 -5.74609,-4.75 z m -40.63281,0.11329 c -4.66156,0.1319 -6.23481,1.66218 -8.58399,7.14257 -2.59296,6.04915 -2.56425,8.39239 0.13868,11.26953 2.66297,2.8346 3.25539,2.85547 6.91992,0.2461 l 2.90429,-2.06836 0,2.03711 c 0,1.24235 0.49973,1.84407 1.2793,1.54492 0.70292,-0.26973 1.83075,-3.7413 2.50781,-7.7168 0.67705,-3.9755 1.48351,-8.35351 1.79102,-9.72851 0.53803,-2.40575 0.35788,-2.50882 -4.75977,-2.70508 -0.80323,-0.0308 -1.53133,-0.0403 -2.19726,-0.0215 z m 40.48633,1.72656 c 2.61945,0 3.56174,4.03772 1.32422,5.67383 -2.39209,1.74914 -8.82445,1.81161 -7.8418,0.0762 1.63466,-2.88694 4.88012,-5.75 6.51758,-5.75 z m 129.5039,0 c 2.3614,0 3.5861,3.66 1.81641,5.42968 -1.7485,1.74851 -8.42774,2.16174 -8.42774,0.52149 0,-1.45071 5.0001,-5.95117 6.61133,-5.95117 z m 46.56446,0.16992 c 0.48701,-0.0647 0.94953,0.1121 1.51757,0.4707 2.62539,1.65737 1.83027,9.69319 -1.26562,12.78906 -0.86346,0.86346 -2.66233,1.57032 -3.99805,1.57032 -2.21037,0 -2.42969,-0.40305 -2.42969,-4.48438 0,-3.55672 0.60908,-5.15971 2.94336,-7.75 1.54193,-1.71103 2.42073,-2.48787 3.23243,-2.5957 z m 194.21679,0.01 c 0.9038,-0.0556 1.7845,0.32789 2.54492,1.24415 1.43522,1.72933 -0.23432,9.07985 -2.68554,11.82617 -0.85909,0.9625 -2.67347,1.75 -4.03321,1.75 -2.36622,0 -2.45111,-0.21641 -1.98828,-5.03321 0.52908,-5.50622 3.45072,-9.62028 6.16211,-9.78711 z m -390.9414,0.006 c 3.18863,-0.26735 4.29015,6.56058 0.62695,11.70508 -2.43458,3.41905 -5.64071,4.09215 -6.47852,1.35938 -0.84335,-2.75081 1.05092,-9.34388 3.34375,-11.63672 0.92525,-0.92525 1.77198,-1.36604 2.50782,-1.42774 z m 304.5039,0.006 c 0.14186,-0.0146 0.27526,-0.014 0.40039,0.004 2.73447,0.39186 3.39145,3.78531 1.0625,5.48828 -2.00796,1.46826 -7.41797,1.79735 -7.41797,0.45117 0,-2.02306 3.82719,-5.7249 5.95508,-5.94336 z m -324.64258,0.0215 c 0.7919,0.012 1.72376,0.39367 2.3418,1.01172 1.25201,1.25201 1.30681,2.2196 0.33008,5.88672 -0.64287,2.41365 -1.87335,5.17617 -2.73242,6.13867 -0.85908,0.9625 -2.61649,1.75 -3.90625,1.75 -2.04379,0 -2.3448,-0.4817 -2.3418,-3.75 0.004,-4.03339 3.02172,-9.93818 5.58008,-10.91992 0.21612,-0.0829 0.46455,-0.12118 0.72851,-0.11719 z m 379.30274,0.0293 c 0.39234,0.0354 0.77756,0.1678 1.14648,0.40626 2.24502,1.45105 1.87668,7.85305 -0.65234,11.35156 -1.00562,1.39112 -3.04155,2.6448 -4.5918,2.82812 -2.78458,0.32927 -2.78544,0.32802 -2.28906,-4.83789 0.53141,-5.53054 3.64034,-9.99606 6.38672,-9.74805 z m -306.57813,0.0684 c 0.35458,-0.0436 0.68303,0.0156 0.97071,0.19336 1.56882,0.96958 0.844,10.76544 -0.95703,12.93555 -0.71236,0.85834 -2.64855,1.56055 -4.30274,1.56055 -2.98477,0 -3.0033,-0.0365 -2.48633,-4.62305 0.5017,-4.45102 4.29336,-9.76119 6.77539,-10.06641 z m -92.92187,0.004 c 0.49504,0.005 1.0421,0.23382 1.79492,0.63672 1.67068,0.89412 2.12463,1.79885 1.69922,3.38477 -0.31933,1.1904 -0.5877,2.8432 -0.5957,3.67382 -0.008,0.83062 -1.15548,2.74312 -2.55274,4.25 -2.82016,3.04142 -5.22128,3.52642 -6.10156,1.23242 -0.96823,-2.52314 0.59815,-8.33072 3,-11.12304 1.24896,-1.452 1.93079,-2.06314 2.75586,-2.05469 z m 113.30469,0.0879 c 0.33199,0.0106 0.66348,0.0758 0.99023,0.20117 3.62522,1.39113 2.96196,9.37848 -1.0918,13.14649 -2.7173,2.52576 -3.10198,2.60645 -5.56836,1.16992 -4.54483,-2.64713 0.69003,-14.67726 5.66993,-14.51758 z m 158.19921,0.01 c 1.27433,0.10766 2.362,0.95271 2.89649,2.63672 0.87679,2.76252 -0.47468,8.61563 -2.36328,10.23242 -6.12374,5.24243 -10.20202,0.56215 -6.73633,-7.73242 1.44024,-3.44699 4.07925,-5.31616 6.20312,-5.13672 z"
       id="path19798"
       inkscape:connector-curvature="0" />
  </g>
</svg>
