<?xml version="1.0" encoding="UTF-8" standalone="no"?>
<!-- Generator: Adobe Illustrator 19.1.0, SVG Export Plug-In . SVG Version: 6.00 Build 0)  -->

<svg
   xmlns:dc="http://purl.org/dc/elements/1.1/"
   xmlns:cc="http://creativecommons.org/ns#"
   xmlns:rdf="http://www.w3.org/1999/02/22-rdf-syntax-ns#"
   xmlns:svg="http://www.w3.org/2000/svg"
   xmlns="http://www.w3.org/2000/svg"
   xmlns:sodipodi="http://sodipodi.sourceforge.net/DTD/sodipodi-0.dtd"
   xmlns:inkscape="http://www.inkscape.org/namespaces/inkscape"
   version="1.1"
   id="Layer_1"
   x="0px"
   y="0px"
   viewBox="0 0 203.1 46.2"
   xml:space="preserve"
   inkscape:version="0.91 r13725"
   sodipodi:docname="sherweb.svg"
   width="203.10001"
   height="46.200001"><metadata
     id="metadata18633"><rdf:RDF><cc:Work
         rdf:about=""><dc:format>image/svg+xml</dc:format><dc:type
           rdf:resource="http://purl.org/dc/dcmitype/StillImage" /><dc:title></dc:title></cc:Work></rdf:RDF></metadata><defs
     id="defs18631" /><sodipodi:namedview
     pagecolor="#ffffff"
     bordercolor="#666666"
     borderopacity="1"
     objecttolerance="10"
     gridtolerance="10"
     guidetolerance="10"
     inkscape:pageopacity="0"
     inkscape:pageshadow="2"
     inkscape:window-width="1366"
     inkscape:window-height="752"
     id="namedview18629"
     showgrid="false"
     fit-margin-top="0"
     fit-margin-left="0"
     fit-margin-right="0"
     fit-margin-bottom="0"
     inkscape:zoom="1.7197452"
     inkscape:cx="-73.816668"
     inkscape:cy="23.099998"
     inkscape:window-x="0"
     inkscape:window-y="16"
     inkscape:window-maximized="0"
     inkscape:current-layer="Layer_1" /><style
     type="text/css"
     id="style18599">
	.st0{fill:#346094;}
	.st1{fill:#6DABE4;}
</style><g
     id="g18601"
     transform="translate(-8.4,-5)"><g
       id="g18603"><path
         class="st0"
         d="m 62.4,33.3 c 2,2.1 4.7,3.5 7.7,3.5 3.7,0 6.2,-1.4 6.2,-3.9 0,-5.8 -16.9,-0.2 -16.9,-10.9 0,-4.7 4.9,-7.9 10.8,-7.9 4.3,0 7.8,1.4 10.4,4 L 77,21.3 c -2.4,-2.3 -4.5,-3.1 -7.1,-3.1 -4,0 -5.5,2 -5.5,3.5 0,5.9 16.9,0 16.9,10.8 0,5.4 -5.5,8.7 -11.5,8.7 -3.7,0 -7.9,-1.4 -11.2,-4.8 l 3.8,-3.1 z"
         id="path18605"
         inkscape:connector-curvature="0"
         style="fill:#346094" /><path
         class="st0"
         d="m 83.4,14.7 4.3,0 0,8.5 0.1,0 c 1.2,-1.9 3.4,-3.1 6.2,-3.1 4.2,0 7.8,3.5 7.8,8.5 l 0,12.1 -4.3,0 0,-11 c 0,-3.7 -1.9,-5.2 -4.8,-5.2 -2.8,0 -5,1.8 -5,5.1 l 0,11.3 -4.3,0 0,-26.2 z"
         id="path18607"
         inkscape:connector-curvature="0"
         style="fill:#346094" /><path
         class="st0"
         d="m 124.1,36.5 c -2.4,3 -5.7,4.9 -9.4,4.9 -7,0 -11.1,-5.3 -11.1,-10.6 0,-5.3 4.1,-10.6 11.1,-10.6 4.2,0 10.4,3.5 10.4,11.3 l 0,0.8 -16.7,0 c 0.3,3.1 3.1,5.3 6.2,5.3 2.3,0 4.3,-1.1 5.8,-3.1 l 3.7,2 z m -4,-7.8 c -0.9,-3.1 -3.2,-4.7 -6,-4.7 -2.7,0 -5,1.7 -5.7,4.7 l 11.7,0 z"
         id="path18609"
         inkscape:connector-curvature="0"
         style="fill:#346094" /><path
         class="st0"
         d="m 127,20.7 4.1,0 0,2.2 0.1,0 c 0.7,-1.7 2.2,-2.7 4,-2.7 1,0 1.8,0.3 2.4,0.6 l -1.5,4.3 c -0.4,-0.3 -1.2,-0.6 -1.6,-0.6 -1.6,0 -3,1.2 -3,3 l 0,13.3 -4.5,0 0,-20.1 z"
         id="path18611"
         inkscape:connector-curvature="0"
         style="fill:#346094" /></g><polygon
       class="st0"
       points="145.9,41.4 135.3,14.7 140.3,14.7 146.3,30.2 152.2,16.1 158.2,30.2 164.1,14.7 169.2,14.7 158.2,41.4 152.2,26.2 "
       id="polygon18613"
       style="fill:#346094" /><g
       id="g18615"><path
         class="st0"
         d="m 187.1,36.5 c -2.4,3 -5.7,4.9 -9.4,4.9 -7,0 -11.1,-5.3 -11.1,-10.6 0,-5.3 4.1,-10.6 11.1,-10.6 4.2,0 10.4,3.5 10.4,11.3 l 0,0.8 -16.7,0 c 0.2,3.1 3.1,5.3 6.2,5.3 2.3,0 4.3,-1.1 5.8,-3.1 l 3.7,2 z m -4,-7.8 c -0.9,-3.1 -3.2,-4.7 -6,-4.7 -2.8,0 -5,1.7 -5.7,4.7 l 11.7,0 z"
         id="path18617"
         inkscape:connector-curvature="0"
         style="fill:#346094" /><path
         class="st0"
         d="m 190,14.7 4.3,0 0,8.4 0.1,0 c 1,-1.7 3.7,-3 6.6,-3 5.2,0 10.5,3.9 10.5,10.6 0,6.7 -5.2,10.6 -10.5,10.6 -2.8,0 -5.5,-1.3 -6.6,-3 l -0.1,0 0,2.5 -4.3,0 0,-26.1 z m 10.6,9.6 c -3.6,0 -6.3,2.8 -6.3,6.5 0,3.7 2.7,6.5 6.3,6.5 3.6,0 6.3,-2.8 6.3,-6.5 0,-3.8 -2.7,-6.5 -6.3,-6.5"
         id="path18619"
         inkscape:connector-curvature="0"
         style="fill:#346094" /><path
         class="st0"
         d="m 31.5,5 c 0,0 -6,3.6 -9.5,6.3 0,0 5.8,4.8 10.3,7 0,0 3.9,2.1 7.8,2.1 0,0 3.9,0.1 7.4,-2.8 0,0 -3.6,-4.5 -8.1,-7.4 0,-0.1 -5.6,-3.9 -7.9,-5.2"
         id="path18621"
         inkscape:connector-curvature="0"
         style="fill:#346094" /><path
         class="st1"
         d="m 54.7,28.1 c 0,0 -3.6,-6 -6.3,-9.6 0,0 -4.8,5.8 -7,10.3 0,0 -2.1,3.9 -2.1,7.8 0,0 -0.1,3.9 2.8,7.4 0,0 4.5,-3.6 7.5,-8.1 0,0.1 3.8,-5.5 5.1,-7.8"
         id="path18623"
         inkscape:connector-curvature="0"
         style="fill:#6dabe4" /><path
         class="st0"
         d="m 31.5,51.2 c 0,0 6,-3.6 9.6,-6.3 0,0 -5.8,-4.8 -10.3,-7 0,0 -3.9,-2.1 -7.8,-2.1 0,0 -3.9,-0.1 -7.4,2.8 0,0 3.6,4.5 8.1,7.4 -0.1,0.1 5.5,3.9 7.8,5.2"
         id="path18625"
         inkscape:connector-curvature="0"
         style="fill:#346094" /><path
         class="st1"
         d="m 8.4,28.1 c 0,0 3.6,6 6.2,9.6 0,0 4.8,-5.7 7,-10.3 0,0 2.1,-3.9 2.1,-7.8 0,0 0.1,-3.9 -2.8,-7.4 0,0 -4.5,3.6 -7.5,8.1 0.1,-0.1 -3.7,5.5 -5,7.8"
         id="path18627"
         inkscape:connector-curvature="0"
         style="fill:#6dabe4" /></g></g></svg>