<?xml version="1.0" encoding="UTF-8" standalone="no"?>
<!-- Created with Inkscape (http://www.inkscape.org/) -->

<svg
   xmlns:dc="http://purl.org/dc/elements/1.1/"
   xmlns:cc="http://creativecommons.org/ns#"
   xmlns:rdf="http://www.w3.org/1999/02/22-rdf-syntax-ns#"
   xmlns:svg="http://www.w3.org/2000/svg"
   xmlns="http://www.w3.org/2000/svg"
   xmlns:sodipodi="http://sodipodi.sourceforge.net/DTD/sodipodi-0.dtd"
   xmlns:inkscape="http://www.inkscape.org/namespaces/inkscape"
   width="106.49895mm"
   height="58.094692mm"
   viewBox="0 0 377.35849 205.84732"
   id="svg3623"
   version="1.1"
   inkscape:version="0.91 r13725"
   sodipodi:docname="logo.svg"
   inkscape:export-filename="/home/mv/edu/usherbrooke/00-general/jdis/events/jdisconf-2017/logo-v1-white-alpha.png"
   inkscape:export-xdpi="186.95"
   inkscape:export-ydpi="186.95">
  <sodipodi:namedview
     id="base"
     pagecolor="#ffffff"
     bordercolor="#666666"
     borderopacity="1.0"
     inkscape:pageopacity="0.0"
     inkscape:pageshadow="2"
     inkscape:zoom="1.4142136"
     inkscape:cx="233.05792"
     inkscape:cy="112.30718"
     inkscape:document-units="px"
     inkscape:current-layer="layer1"
     showgrid="false"
     inkscape:window-width="1005"
     inkscape:window-height="568"
     inkscape:window-x="0"
     inkscape:window-y="0"
     inkscape:window-maximized="0"
     fit-margin-top="0"
     fit-margin-left="0"
     fit-margin-right="0"
     fit-margin-bottom="0"
     showguides="false" />
  <defs
     id="defs3625" />
  <metadata
     id="metadata3628">
    <rdf:RDF>
      <cc:Work
         rdf:about="">
        <dc:format>image/svg+xml</dc:format>
        <dc:type
           rdf:resource="http://purl.org/dc/dcmitype/StillImage" />
        <dc:title />
      </cc:Work>
    </rdf:RDF>
  </metadata>
  <g
     transform="translate(-202.91993,-156.2628)"
     id="layer1"
     inkscape:groupmode="layer"
     inkscape:label="Calque 1">
    <g
       transform="translate(36.428571,-194.64285)"
       id="flowRoot4184"
       style="font-style:normal;font-variant:normal;font-weight:normal;font-stretch:normal;font-size:48.27477646px;line-height:125%;font-family:FreeMono;-inkscape-font-specification:FreeMono;letter-spacing:0px;word-spacing:0px;fill:#000000;fill-opacity:1;stroke:none;stroke-width:1px;stroke-linecap:butt;stroke-linejoin:miter;stroke-opacity:1" />
    <g
       transform="matrix(0.70823046,0,0,0.70823046,110.01007,18.380038)"
       id="g4452">
      <g
         id="flowRoot4306"
         style="font-style:normal;font-variant:normal;font-weight:normal;font-stretch:normal;font-size:91.64356995px;line-height:125%;font-family:FreeMono;-inkscape-font-specification:FreeMono;letter-spacing:0px;word-spacing:0px;fill:#ffffff;fill-opacity:1;stroke:none;stroke-width:1px;stroke-linecap:butt;stroke-linejoin:miter;stroke-opacity:1"
         transform="matrix(0.52676667,0,0,0.52676667,-238.94455,254.62238)">
        <path
           inkscape:connector-curvature="0"
           id="path4540"
           style="font-style:normal;font-variant:normal;font-weight:bold;font-stretch:normal;font-size:193.11523438px;line-height:91.00000262%;font-family:'Space Mono';-inkscape-font-specification:'Space Mono Bold';text-align:center;text-anchor:middle;fill:#ffffff"
           d="m 706.12202,25.248362 61.41065,0 0,114.710448 q 0,10.04199 -5.40723,14.86987 -5.40722,4.82789 -14.09741,4.82789 l -45.38208,0 0,-23.17383 34.76074,0 q 5.79346,0 5.79346,-6.37281 l 0,-81.68774 -37.07813,0 0,-23.173828 z m 67.20411,-28.3879395 q 0,3.86230467 -1.54493,7.3383789 -1.3518,3.282959 -3.8623,5.793457 -2.5105,2.3173826 -5.98657,3.8623046 -3.28296,1.351807 -6.95215,1.351807 -3.86231,0 -7.14526,-1.351807 -3.28296,-1.544922 -5.79346,-3.8623046 -2.5105,-2.510498 -4.05542,-5.793457 -1.35181,-3.47607423 -1.35181,-7.3383789 0,-3.8623047 1.35181,-7.1452635 1.54492,-3.476074 4.05542,-5.793457 2.5105,-2.510498 5.79346,-3.862305 3.28295,-1.544922 7.14526,-1.544922 3.66919,0 6.95215,1.544922 3.47607,1.351807 5.98657,3.862305 2.5105,2.317383 3.8623,5.793457 1.54493,3.2829588 1.54493,7.1452635 z" />
        <path
           inkscape:connector-curvature="0"
           id="path4542"
           style="font-style:normal;font-variant:normal;font-weight:bold;font-stretch:normal;font-size:193.11523438px;line-height:91.00000262%;font-family:'Space Mono';-inkscape-font-specification:'Space Mono Bold';text-align:center;text-anchor:middle;fill:#ffffff"
           d="m 883.65829,107.12922 -3.47607,0 q -1.54492,3.28296 -3.8623,6.3728 -2.12427,2.89673 -5.79346,5.21412 -3.47608,2.31738 -8.49707,3.66918 -4.82788,1.35181 -11.78003,1.35181 -8.8833,0 -16.60791,-3.08984 -7.5315,-3.28296 -13.32495,-9.46265 -5.60034,-6.3728 -8.8833,-15.449218 -3.08985,-9.076416 -3.08985,-20.856445 l 0,-3.476074 q 0,-11.586914 3.28296,-20.66333 3.47608,-9.076416 9.26953,-15.256104 5.98658,-6.372802 13.71119,-9.655761 7.91772,-3.282959 16.60791,-3.282959 11.58691,0 18.34594,4.44165 6.75904,4.248535 10.62134,12.16626 l 3.47607,0 0,-53.299805 24.33252,0 0,135.180666 -24.33252,0 0,-13.9043 z m -25.49121,-6.56592 q 11.3938,0 18.34595,-7.14526 7.14526,-7.338379 7.14526,-19.118409 l 0,-2.317382 q 0,-11.78003 -7.14526,-18.925293 -6.95215,-7.338379 -18.34595,-7.338379 -11.3938,0 -18.53906,7.145263 -6.95215,6.952149 -6.95215,19.118409 l 0,2.317382 q 0,12.16626 6.95215,19.311524 7.14526,6.952145 18.53906,6.952145 z" />
        <path
           inkscape:connector-curvature="0"
           id="path4544"
           style="font-style:normal;font-variant:normal;font-weight:bold;font-stretch:normal;font-size:193.11523438px;line-height:91.00000262%;font-family:'Space Mono';-inkscape-font-specification:'Space Mono Bold';text-align:center;text-anchor:middle;fill:#ffffff"
           d="m 934.70409,97.85969 32.44336,0 0,-49.4375 -30.12598,0 0,-23.173828 54.4585,0 0,72.611328 27.80863,0 0,23.17383 -84.58451,0 0,-23.17383 z M 997.46654,-3.1395775 q 0,3.86230467 -1.54492,7.3383789 -1.35181,3.282959 -3.86231,5.793457 -2.5105,2.3173826 -5.98657,3.8623046 -3.28296,1.351807 -6.95215,1.351807 -3.8623,0 -7.14526,-1.351807 -3.28296,-1.544922 -5.79346,-3.8623046 -2.5105,-2.510498 -4.05542,-5.793457 -1.35181,-3.47607423 -1.35181,-7.3383789 0,-3.8623047 1.35181,-7.1452635 1.54492,-3.476074 4.05542,-5.793457 2.5105,-2.510498 5.79346,-3.862305 3.28296,-1.544922 7.14526,-1.544922 3.66919,0 6.95215,1.544922 3.47607,1.351807 5.98657,3.862305 2.5105,2.317383 3.86231,5.793457 1.54492,3.2829588 1.54492,7.1452635 z" />
        <path
           inkscape:connector-curvature="0"
           id="path4546"
           style="font-style:normal;font-variant:normal;font-weight:bold;font-stretch:normal;font-size:193.11523438px;line-height:91.00000262%;font-family:'Space Mono';-inkscape-font-specification:'Space Mono Bold';text-align:center;text-anchor:middle;fill:#ffffff"
           d="m 1081.535,52.284495 q 0,4.634765 4.8279,6.759033 4.8279,1.931152 17.5735,3.282959 14.6768,1.544922 23.9463,8.883301 9.2695,7.145263 9.2695,20.083984 l 0,1.158692 q 0,14.290526 -10.4282,22.787596 -10.4282,8.49707 -29.3535,8.49707 -11.2007,0 -19.1184,-2.89673 -7.9177,-2.89673 -13.1318,-7.14526 -5.2142,-4.44165 -8.1109,-9.65576 -2.7036,-5.407229 -3.6692,-10.428225 l 22.4014,-7.338379 q 1.5449,6.179688 6.3728,10.814453 5.021,4.634761 15.2561,4.634761 9.0764,0 12.3594,-2.703609 3.476,-2.896728 3.476,-6.179687 0,-1.931152 -0.9655,-3.476074 -0.7725,-1.738037 -3.0899,-3.089844 -2.3174,-1.544922 -6.3728,-2.510498 -3.8623,-0.965576 -9.8489,-1.544922 -16.2216,-1.351807 -25.8774,-8.303955 -9.4626,-7.145264 -9.4626,-20.856445 l 0,-1.158692 q 0,-7.145263 3.0898,-12.55249 3.0898,-5.407227 8.1108,-9.076416 5.021,-3.862305 11.587,-5.793457 6.5659,-1.931152 13.518,-1.931152 9.0764,0 15.6424,2.317382 6.759,2.124268 11.3938,5.793458 4.6347,3.476074 7.5315,7.917724 2.8967,4.248535 4.4416,8.303955 l -22.0151,8.883301 q -1.7381,-5.214111 -5.9866,-8.11084 -4.2485,-3.089844 -11.0076,-3.089844 -6.1797,0 -9.2695,2.317383 -3.0899,2.124268 -3.0899,5.407227 z" />
        <path
           inkscape:connector-curvature="0"
           id="path4548"
           style="font-style:normal;font-variant:normal;font-weight:bold;font-stretch:normal;font-size:193.11523438px;line-height:91.00000262%;font-family:'Space Mono';-inkscape-font-specification:'Space Mono Bold';text-align:center;text-anchor:middle;fill:#ffffff"
           d="m 1262.5474,85.886546 q -3.283,16.994144 -15.6424,27.422364 -12.1662,10.42822 -32.6364,10.42822 -10.6214,0 -19.8909,-3.28296 -9.0764,-3.28296 -15.8354,-9.46264 -6.7591,-6.17969 -10.6214,-15.256108 -3.8623,-9.076416 -3.8623,-20.66333 l 0,-2.317382 q 0,-11.586914 3.8623,-20.856446 3.8623,-9.269531 10.6214,-15.835449 6.9521,-6.565918 16.0285,-10.041992 9.2695,-3.476074 19.6978,-3.476074 20.084,0 32.4433,10.428222 12.5525,10.428223 15.8355,27.422364 l -23.9463,6.179687 q -1.1587,-8.49707 -7.3384,-14.676758 -6.1797,-6.179687 -17.3804,-6.179687 -5.2141,0 -9.8488,1.931152 -4.6348,1.931152 -8.1109,5.600342 -3.4761,3.476074 -5.6003,8.690185 -1.9312,5.020997 -1.9312,11.393799 l 0,1.158692 q 0,6.372802 1.9312,11.393799 2.1242,4.82788 5.6003,8.110839 3.4761,3.282959 8.1109,5.020996 4.6347,1.544919 9.8488,1.544919 11.2007,0 16.9942,-5.600338 5.9866,-5.600342 7.7246,-15.062989 l 23.9463,5.986573 z" />
        <path
           inkscape:connector-curvature="0"
           id="path4550"
           style="font-style:normal;font-variant:normal;font-weight:bold;font-stretch:normal;font-size:193.11523438px;line-height:91.00000262%;font-family:'Space Mono';-inkscape-font-specification:'Space Mono Bold';text-align:center;text-anchor:middle;fill:#ffffff"
           d="m 1380.9904,74.299631 q 0,11.973145 -4.0554,21.242676 -4.0555,9.076413 -11.0076,15.449223 -6.9522,6.17968 -16.0286,9.46264 -8.8833,3.28296 -18.7322,3.28296 -9.8488,0 -18.9253,-3.28296 -8.8833,-3.28296 -15.8354,-9.46264 -6.9521,-6.37281 -11.0076,-15.449223 -4.0554,-9.269531 -4.0554,-21.242676 l 0,-2.317382 q 0,-11.78003 4.0554,-20.856446 4.0555,-9.269531 11.0076,-15.642334 6.9521,-6.372802 15.8354,-9.655761 9.0765,-3.282959 18.9253,-3.282959 9.8489,0 18.7322,3.282959 9.0764,3.282959 16.0286,9.655761 6.9521,6.372803 11.0076,15.642334 4.0554,9.076416 4.0554,20.856446 l 0,2.317382 z m -49.8238,26.263669 q 5.2142,0 9.8489,-1.738034 4.6348,-1.738037 8.1109,-5.020996 3.476,-3.282959 5.4072,-7.917724 2.1243,-4.827881 2.1243,-10.814454 l 0,-3.862304 q 0,-5.986573 -2.1243,-10.621338 -1.9312,-4.827881 -5.4072,-8.11084 -3.4761,-3.282959 -8.1109,-5.020996 -4.6347,-1.738037 -9.8489,-1.738037 -5.2141,0 -9.8488,1.738037 -4.6348,1.738037 -8.1109,5.020996 -3.476,3.282959 -5.6003,8.11084 -1.9312,4.634765 -1.9312,10.621338 l 0,3.862304 q 0,5.986573 1.9312,10.814454 2.1243,4.634765 5.6003,7.917724 3.4761,3.282959 8.1109,5.020996 4.6347,1.738034 9.8488,1.738034 z" />
        <path
           inkscape:connector-curvature="0"
           id="path4552"
           style="font-style:normal;font-variant:normal;font-weight:bold;font-stretch:normal;font-size:193.11523438px;line-height:91.00000262%;font-family:'Space Mono';-inkscape-font-specification:'Space Mono Bold';text-align:center;text-anchor:middle;fill:#ffffff"
           d="m 1429.5257,121.03352 -24.3325,0 0,-95.785158 24.3325,0 0,14.290527 3.4761,0 q 3.2829,-8.11084 10.6213,-12.55249 7.3384,-4.44165 17.1873,-4.44165 6.9521,0 12.9387,2.317382 6.1797,2.124268 10.8145,6.759034 4.6347,4.634765 7.1452,11.780029 2.7036,7.145264 2.7036,16.994141 l 0,60.638185 -24.3325,0 0,-54.458498 q 0,-10.235107 -5.021,-16.028564 -4.8279,-5.986573 -14.0974,-5.986573 -10.8145,0 -16.2217,7.338379 -5.2141,7.145264 -5.2141,19.311524 l 0,49.823732 z" />
        <path
           inkscape:connector-curvature="0"
           id="path4554"
           style="font-style:normal;font-variant:normal;font-weight:bold;font-stretch:normal;font-size:193.11523438px;line-height:91.00000262%;font-family:'Space Mono';-inkscape-font-specification:'Space Mono Bold';text-align:center;text-anchor:middle;fill:#ffffff"
           d="m 1522.4775,25.248362 27.2292,0 0,-19.697754 q 0,-8.303955 5.6004,-13.9042968 5.6003,-5.7934572 13.9043,-5.7934572 l 39.0093,0 0,23.1738283 -28.9673,0 q -5.2141,0 -5.2141,5.7934567 l 0,10.428223 37.6574,0 0,23.173828 -37.6574,0 0,72.61133 -24.3326,0 0,-72.61133 -27.2292,0 0,-23.173828 z" />
        <path
           inkscape:connector-curvature="0"
           id="path4556"
           style="font-style:normal;font-variant:normal;font-weight:normal;font-stretch:normal;font-size:193.11523438px;line-height:91.00000262%;font-family:'Space Mono';-inkscape-font-specification:'Space Mono';text-align:center;text-anchor:middle;fill:#ffffff"
           d="m 1259.0713,281.70539 0,15.06299 -91.5366,0 0,-23.17383 q 0,-9.26953 3.0898,-16.02856 3.0899,-6.95215 8.6902,-11.78003 5.7935,-5.021 13.9043,-8.30396 8.1108,-3.28295 18.346,-5.60034 17.1872,-3.8623 24.7187,-11.00757 7.7246,-7.14526 7.7246,-17.57348 l 0,-1.15869 q 0,-5.21411 -1.738,-10.23511 -1.7381,-5.021 -5.4072,-9.07642 -3.6692,-4.05542 -9.4627,-6.3728 -5.6003,-2.5105 -13.5181,-2.5105 -14.8698,0 -23.1738,9.07642 -8.1108,9.07641 -8.1108,24.1394 l 0,8.49707 -16.2217,0 0,-9.65576 q 0,-9.26953 3.0898,-17.7666 3.0899,-8.49707 9.0765,-15.06299 5.9865,-6.56592 14.8698,-10.42822 8.8833,-3.86231 20.4702,-3.86231 11.7801,0 20.4703,3.66919 8.6901,3.47608 14.4836,9.46265 5.7935,5.79346 8.4971,13.32495 2.8967,7.33838 2.8967,15.06299 l 0,3.47607 q 0,15.44922 -9.6558,26.45679 -9.6557,10.81445 -30.8984,15.44922 -18.5391,4.05542 -27.2293,10.81445 -8.6901,6.56592 -8.6901,19.31153 l 0,5.79345 75.3149,0 z" />
        <path
           inkscape:connector-curvature="0"
           id="path4558"
           style="font-style:normal;font-variant:normal;font-weight:normal;font-stretch:normal;font-size:193.11523438px;line-height:91.00000262%;font-family:'Space Mono';-inkscape-font-specification:'Space Mono';text-align:center;text-anchor:middle;fill:#ffffff"
           d="m 1283.6603,214.11506 q 0,-26.26367 12.5525,-40.74731 12.5525,-14.48365 34.9538,-14.48365 22.4014,0 34.9539,14.48365 12.5525,14.48364 12.5525,40.74731 l 0,30.12598 q 0,27.03613 -12.5525,41.13354 -12.5525,14.09741 -34.9539,14.09741 -22.4013,0 -34.9538,-14.09741 -12.5525,-14.09741 -12.5525,-41.13354 l 0,-30.12598 z m 47.5063,70.68018 q 15.6424,0 23.367,-10.81446 7.9177,-11.00756 7.9177,-30.89843 l 0,-27.8086 q 0,-9.26953 -1.9311,-16.80102 -1.9312,-7.72461 -5.9866,-13.13184 -3.8623,-5.60034 -9.8489,-8.69018 -5.7934,-3.08985 -13.5181,-3.08985 -7.9177,0 -13.7111,3.08985 -5.7935,3.08984 -9.8489,8.69018 -3.8623,5.40723 -5.7935,13.13184 -1.9311,7.53149 -1.9311,16.80102 l 0,27.8086 q 0,19.89087 7.7246,30.89843 7.9177,10.81446 23.56,10.81446 z m -12.3593,-55.61719 q 0,-5.021 3.6692,-8.69019 3.6691,-3.66919 8.6901,-3.66919 5.021,0 8.6902,3.66919 3.6692,3.66919 3.6692,8.69019 0,5.021 -3.6692,8.69018 -3.6692,3.66919 -8.6902,3.66919 -5.021,0 -8.6901,-3.66919 -3.6692,-3.66918 -3.6692,-8.69018 z" />
        <path
           inkscape:connector-curvature="0"
           id="path4560"
           style="font-style:normal;font-variant:normal;font-weight:normal;font-stretch:normal;font-size:193.11523438px;line-height:91.00000262%;font-family:'Space Mono';-inkscape-font-specification:'Space Mono';text-align:center;text-anchor:middle;fill:#ffffff"
           d="m 1442.0782,281.70539 0,-112.97241 -2.3174,0 -22.2082,50.78931 -16.0286,0 0,-1.15869 25.2981,-56.77588 31.4778,0 0,120.11767 38.2368,0 0,15.06299 -92.6953,0 0,-15.06299 38.2368,0 z" />
        <path
           inkscape:connector-curvature="0"
           id="path4562"
           style="font-style:normal;font-variant:normal;font-weight:normal;font-stretch:normal;font-size:193.11523438px;line-height:91.00000262%;font-family:'Space Mono';-inkscape-font-specification:'Space Mono';text-align:center;text-anchor:middle;fill:#ffffff"
           d="m 1522.0913,161.58772 90.3779,0 0,23.56006 -56.969,86.12939 q -4.0554,6.17969 -6.1797,10.62134 -2.1243,4.44165 -2.1243,9.07641 l 0,5.79346 -15.8354,0 0,-6.95215 q 0,-3.47607 0.5793,-6.56591 0.7725,-3.08985 2.1243,-6.17969 1.5449,-3.28296 3.6692,-6.75904 2.3174,-3.66919 5.4072,-8.30395 l 55.4241,-83.03955 0,-2.31738 -76.4736,0 0,-15.06299 z" />
      </g>
      <g
         id="g4316"
         transform="matrix(0,2.9484101,-2.9484101,0,752.63684,109.39762)"
         style="fill:#05ff7b;fill-opacity:1">
        <path
           sodipodi:nodetypes="sssssss"
           id="path4318"
           d="m 37.561,52.388 c -1.037,0 -1.876,-0.161668 -1.876,-1.197668 0,-7.55 6.820332,-14.370332 14.370332,-14.370332 1.037,0 1.197668,0.839 1.197668,1.876 0,1.035 -0.160668,1.875 -1.197668,1.875 -5.481,0 -10.619332,5.137332 -10.619332,10.619332 0,1.036 -0.84,1.197668 -1.875,1.197668 z"
           inkscape:connector-curvature="0"
           style="fill:#05ff7b;fill-opacity:1" />
      </g>
      <g
         id="g4320"
         transform="matrix(0,2.9484101,-2.9484101,0,752.63684,109.39762)"
         style="fill:#05ff7b;fill-opacity:1">
        <path
           sodipodi:nodetypes="ssssscs"
           id="path4322"
           d="m 30.802,52.388 c -1.035,0 -1.875,-0.161668 -1.875,-1.197668 0,-11.276 9.853332,-21.129332 21.130332,-21.129332 1.036,0 1.197668,0.84 1.197668,1.875 0,1.037 -0.161668,1.876 -1.197668,1.876 -9.208,0 -17.378332,8.169332 -17.378332,17.377332 -0.001,1.037 -0.84,1.198668 -1.877,1.198668 z"
           inkscape:connector-curvature="0"
           style="fill:#05ff7b;fill-opacity:1" />
      </g>
    </g>
    <g
       id="text6301"
       style="font-style:normal;font-variant:normal;font-weight:normal;font-stretch:normal;font-size:15.51021671px;line-height:125%;font-family:FreeMono;-inkscape-font-specification:FreeMono;letter-spacing:0px;word-spacing:0px;fill:#ffffff;fill-opacity:1;stroke:none;stroke-width:1px;stroke-linecap:butt;stroke-linejoin:miter;stroke-opacity:1">
      <path
         id="path7029"
         style="font-style:normal;font-variant:normal;font-weight:bold;font-stretch:normal;font-family:'Space Mono';-inkscape-font-specification:'Space Mono Bold';fill:#ffffff"
         d="m 413.24966,332.85446 0,4.0947 -2.04735,0 0,-10.85715 4.2498,0 q 0.83755,0 1.45796,0.27918 0.62041,0.26367 1.02367,0.71347 0.41878,0.43429 0.62041,1.00816 0.21714,0.55837 0.21714,1.14776 l 0,0.37225 q 0,0.60489 -0.21714,1.19428 -0.20163,0.57388 -0.62041,1.03919 -0.40326,0.44979 -1.02367,0.72898 -0.62041,0.27918 -1.45796,0.27918 l -2.20245,0 z m 0,-1.95429 2.00081,0 q 0.68245,0 1.07021,-0.37224 0.40326,-0.37225 0.40326,-0.96164 l 0,-0.18612 q 0,-0.58939 -0.40326,-0.96163 -0.38776,-0.37225 -1.07021,-0.37225 l -2.00081,0 0,2.85388 z" />
      <path
         id="path7031"
         style="font-style:normal;font-variant:normal;font-weight:bold;font-stretch:normal;font-family:'Space Mono';-inkscape-font-specification:'Space Mono Bold';fill:#ffffff"
         d="m 420.40495,329.25609 3.25715,0 0,1.11674 0.27918,0 q 0.21715,-0.63592 0.72898,-0.97715 0.52735,-0.35673 1.25633,-0.35673 1.14776,0 1.84572,0.72898 0.69796,0.71347 0.69796,2.18694 l 0,0.34122 -2.01633,0.18613 0,-0.21715 q 0,-0.63592 -0.32572,-1.00816 -0.32571,-0.38776 -0.97714,-0.38776 -0.65143,0 -1.02367,0.4498 -0.37225,0.4498 -0.37225,1.28735 l 0,2.48163 1.76817,0 0,1.86123 -5.3045,0 0,-1.86123 1.58204,0 0,-3.97061 -1.39592,0 0,-1.86123 z" />
      <path
         id="path7033"
         style="font-style:normal;font-variant:normal;font-weight:bold;font-stretch:normal;font-family:'Space Mono';-inkscape-font-specification:'Space Mono Bold';fill:#ffffff"
         d="m 437.797,333.19569 q 0,0.96163 -0.32572,1.70612 -0.32571,0.72898 -0.88408,1.24082 -0.55837,0.49632 -1.28735,0.76 -0.71347,0.26367 -1.50449,0.26367 -0.79102,0 -1.52,-0.26367 -0.71347,-0.26368 -1.27184,-0.76 -0.55837,-0.51184 -0.88408,-1.24082 -0.32572,-0.74449 -0.32572,-1.70612 l 0,-0.18613 q 0,-0.94612 0.32572,-1.6751 0.32571,-0.74449 0.88408,-1.25633 0.55837,-0.51184 1.27184,-0.77551 0.72898,-0.26367 1.52,-0.26367 0.79102,0 1.50449,0.26367 0.72898,0.26367 1.28735,0.77551 0.55837,0.51184 0.88408,1.25633 0.32572,0.72898 0.32572,1.6751 l 0,0.18613 z m -4.00164,2.10938 q 0.41878,0 0.79102,-0.13959 0.37225,-0.13959 0.65143,-0.40326 0.27918,-0.26368 0.43429,-0.63592 0.17061,-0.38776 0.17061,-0.86857 l 0,-0.31021 q 0,-0.48081 -0.17061,-0.85306 -0.15511,-0.38776 -0.43429,-0.65143 -0.27918,-0.26367 -0.65143,-0.40326 -0.37224,-0.1396 -0.79102,-0.1396 -0.41878,0 -0.79102,0.1396 -0.37225,0.13959 -0.65143,0.40326 -0.27918,0.26367 -0.4498,0.65143 -0.1551,0.37225 -0.1551,0.85306 l 0,0.31021 q 0,0.48081 0.1551,0.86857 0.17062,0.37224 0.4498,0.63592 0.27918,0.26367 0.65143,0.40326 0.37224,0.13959 0.79102,0.13959 z" />
      <path
         id="path7035"
         style="font-style:normal;font-variant:normal;font-weight:bold;font-stretch:normal;font-family:'Space Mono';-inkscape-font-specification:'Space Mono Bold';fill:#ffffff"
         d="m 441.29189,340.0512 -1.95429,0 0,-10.79511 1.95429,0 0,1.11674 0.27918,0 q 0.3102,-0.63592 0.89959,-0.97715 0.58939,-0.35673 1.50449,-0.35673 0.68245,0 1.28735,0.26367 0.62041,0.26367 1.07021,0.77551 0.4653,0.49633 0.72898,1.22531 0.27918,0.72898 0.27918,1.65959 l 0,0.27919 q 0,0.94612 -0.26367,1.6751 -0.26368,0.72898 -0.71347,1.24082 -0.4498,0.49632 -1.07021,0.76 -0.6049,0.24816 -1.31837,0.24816 -0.52734,0 -0.9151,-0.10857 -0.38776,-0.10857 -0.68245,-0.29469 -0.27918,-0.18613 -0.48082,-0.41878 -0.18612,-0.24816 -0.32571,-0.51184 l -0.27918,0 0,4.21878 z m 2.04734,-4.74613 q 0.91511,0 1.47347,-0.55836 0.57388,-0.57388 0.57388,-1.55102 l 0,-0.18613 q 0,-0.97714 -0.57388,-1.53551 -0.55836,-0.57388 -1.47347,-0.57388 -0.9151,0 -1.48898,0.58939 -0.55836,0.57388 -0.55836,1.52 l 0,0.18613 q 0,0.94612 0.55836,1.53551 0.57388,0.57387 1.48898,0.57387 z" />
      <path
         id="path7037"
         style="font-style:normal;font-variant:normal;font-weight:bold;font-stretch:normal;font-family:'Space Mono';-inkscape-font-specification:'Space Mono Bold';fill:#ffffff"
         d="m 454.43413,329.25609 1.95428,0 0,7.69307 -1.95428,0 0,-1.11674 -0.27919,0 q -0.51183,1.33388 -2.20245,1.33388 -0.57388,0 -1.0702,-0.18612 -0.49633,-0.18612 -0.86857,-0.57388 -0.37225,-0.38776 -0.58939,-0.96163 -0.20164,-0.58939 -0.20164,-1.38041 l 0,-4.80817 1.95429,0 0,4.4049 q 0,0.82204 0.38776,1.28735 0.38775,0.4498 1.16326,0.4498 0.88409,0 1.28735,-0.55837 0.41878,-0.57388 0.41878,-1.55102 l 0,-4.03266 z" />
      <path
         id="path7039"
         style="font-style:normal;font-variant:normal;font-weight:bold;font-stretch:normal;font-family:'Space Mono';-inkscape-font-specification:'Space Mono Bold';fill:#ffffff"
         d="m 458.65799,335.08793 2.69878,0 0,-7.1347 -2.60571,0 0,-1.86122 4.56,0 0,8.99592 2.51265,0 0,1.86123 -7.16572,0 0,-1.86123 z" />
      <path
         id="path7041"
         style="font-style:normal;font-variant:normal;font-weight:bold;font-stretch:normal;font-family:'Space Mono';-inkscape-font-specification:'Space Mono Bold';fill:#ffffff"
         d="m 470.63697,331.42752 q 0,0.37225 0.38776,0.54286 0.38775,0.1551 1.41143,0.26367 1.17878,0.12408 1.92327,0.71347 0.74449,0.57388 0.74449,1.61306 l 0,0.0931 q 0,1.14775 -0.83756,1.8302 -0.83755,0.68245 -2.35755,0.68245 -0.89959,0 -1.53551,-0.23265 -0.63592,-0.23266 -1.05469,-0.57388 -0.41878,-0.35674 -0.65143,-0.77551 -0.21715,-0.43429 -0.2947,-0.83755 l 1.79919,-0.58939 q 0.12408,0.49633 0.51183,0.86857 0.40327,0.37225 1.22531,0.37225 0.72898,0 0.99266,-0.21715 0.27918,-0.23265 0.27918,-0.49632 0,-0.15511 -0.0776,-0.27919 -0.062,-0.13959 -0.24817,-0.24816 -0.18612,-0.12408 -0.51183,-0.20163 -0.31021,-0.0776 -0.79102,-0.12409 -1.30286,-0.10857 -2.07837,-0.66694 -0.76,-0.57387 -0.76,-1.6751 l 0,-0.0931 q 0,-0.57388 0.24816,-1.00816 0.24816,-0.43429 0.65143,-0.72898 0.40326,-0.31021 0.93061,-0.46531 0.52735,-0.1551 1.08572,-0.1551 0.72898,0 1.25633,0.18612 0.54285,0.17061 0.9151,0.46531 0.37224,0.27918 0.6049,0.63592 0.23265,0.34122 0.35673,0.66693 l -1.76816,0.71347 q -0.1396,-0.41877 -0.48082,-0.65142 -0.34122,-0.24817 -0.88408,-0.24817 -0.49633,0 -0.74449,0.18612 -0.24817,0.17062 -0.24817,0.43429 z" />
      <path
         id="path7043"
         style="font-style:normal;font-variant:normal;font-weight:bold;font-stretch:normal;font-family:'Space Mono';-inkscape-font-specification:'Space Mono Bold';fill:#ffffff"
         d="m 479.38982,333.73854 q 0.0155,0.34123 0.1551,0.63592 0.1551,0.27919 0.40327,0.49633 0.26367,0.20163 0.58939,0.32571 0.34122,0.10857 0.71347,0.10857 0.72898,0 1.11673,-0.24816 0.38776,-0.26367 0.55837,-0.62041 l 1.6751,0.93062 q -0.13959,0.29469 -0.38775,0.6204 -0.24817,0.31021 -0.65143,0.57388 -0.38776,0.26368 -0.96163,0.43429 -0.55837,0.17061 -1.31837,0.17061 -0.86858,0 -1.58205,-0.27918 -0.71347,-0.27919 -1.24081,-0.80653 -0.51184,-0.52735 -0.80653,-1.28735 -0.27919,-0.76 -0.27919,-1.72164 l 0,-0.0931 q 0,-0.88408 0.2947,-1.61306 0.3102,-0.72898 0.83755,-1.24082 0.52735,-0.51183 1.22531,-0.79102 0.71346,-0.29469 1.52,-0.29469 0.99265,0 1.70612,0.35673 0.71347,0.34123 1.17878,0.88408 0.4653,0.52735 0.68245,1.17878 0.21714,0.63592 0.21714,1.24082 l 0,1.03918 -5.64572,0 z m 1.84572,-2.93143 q -0.74449,0 -1.2098,0.38776 -0.46531,0.37224 -0.6049,0.86857 l 3.62939,0 q -0.0931,-0.54286 -0.58939,-0.89959 -0.48081,-0.35674 -1.2253,-0.35674 z m 0.0465,-4.80817 2.07837,0 -1.30286,2.10939 -1.58204,0 0.80653,-2.10939 z" />
      <path
         id="path7045"
         style="font-style:normal;font-variant:normal;font-weight:bold;font-stretch:normal;font-family:'Space Mono';-inkscape-font-specification:'Space Mono Bold';fill:#ffffff"
         d="m 488.87165,333.73854 q 0.0155,0.34123 0.15511,0.63592 0.1551,0.27919 0.40326,0.49633 0.26368,0.20163 0.58939,0.32571 0.34123,0.10857 0.71347,0.10857 0.72898,0 1.11674,-0.24816 0.38775,-0.26367 0.55836,-0.62041 l 1.67511,0.93062 q -0.13959,0.29469 -0.38776,0.6204 -0.24816,0.31021 -0.65143,0.57388 -0.38775,0.26368 -0.96163,0.43429 -0.55837,0.17061 -1.31837,0.17061 -0.86857,0 -1.58204,-0.27918 -0.71347,-0.27919 -1.24082,-0.80653 -0.51184,-0.52735 -0.80653,-1.28735 -0.27918,-0.76 -0.27918,-1.72164 l 0,-0.0931 q 0,-0.88408 0.29469,-1.61306 0.3102,-0.72898 0.83755,-1.24082 0.52735,-0.51183 1.22531,-0.79102 0.71347,-0.29469 1.52,-0.29469 0.99265,0 1.70612,0.35673 0.71347,0.34123 1.17878,0.88408 0.46531,0.52735 0.68245,1.17878 0.21714,0.63592 0.21714,1.24082 l 0,1.03918 -5.64572,0 z m 1.84572,-2.93143 q -0.74449,0 -1.2098,0.38776 -0.4653,0.37224 -0.60489,0.86857 l 3.62939,0 q -0.0931,-0.54286 -0.58939,-0.89959 -0.48082,-0.35674 -1.22531,-0.35674 z" />
      <path
         id="path7047"
         style="font-style:normal;font-variant:normal;font-weight:bold;font-stretch:normal;font-family:'Space Mono';-inkscape-font-specification:'Space Mono Bold';fill:#ffffff"
         d="m 507.6647,340.0512 -1.95428,0 0,-10.79511 1.95428,0 0,1.11674 0.27919,0 q 0.3102,-0.63592 0.89959,-0.97715 0.58939,-0.35673 1.50449,-0.35673 0.68245,0 1.28735,0.26367 0.62041,0.26367 1.0702,0.77551 0.46531,0.49633 0.72898,1.22531 0.27919,0.72898 0.27919,1.65959 l 0,0.27919 q 0,0.94612 -0.26368,1.6751 -0.26367,0.72898 -0.71347,1.24082 -0.44979,0.49632 -1.0702,0.76 -0.6049,0.24816 -1.31837,0.24816 -0.52735,0 -0.9151,-0.10857 -0.38776,-0.10857 -0.68245,-0.29469 -0.27919,-0.18613 -0.48082,-0.41878 -0.18612,-0.24816 -0.32571,-0.51184 l -0.27919,0 0,4.21878 z m 2.04735,-4.74613 q 0.9151,0 1.47347,-0.55836 0.57388,-0.57388 0.57388,-1.55102 l 0,-0.18613 q 0,-0.97714 -0.57388,-1.53551 -0.55837,-0.57388 -1.47347,-0.57388 -0.9151,0 -1.48898,0.58939 -0.55837,0.57388 -0.55837,1.52 l 0,0.18613 q 0,0.94612 0.55837,1.53551 0.57388,0.57387 1.48898,0.57387 z" />
      <path
         id="path7049"
         style="font-style:normal;font-variant:normal;font-weight:bold;font-stretch:normal;font-family:'Space Mono';-inkscape-font-specification:'Space Mono Bold';fill:#ffffff"
         d="m 520.5743,335.83242 q -0.31021,0.72898 -0.86858,1.03919 -0.55836,0.29469 -1.30285,0.29469 -0.69796,0 -1.31837,-0.26367 -0.6049,-0.26368 -1.07021,-0.77551 -0.4653,-0.51184 -0.74449,-1.24082 -0.26367,-0.72898 -0.26367,-1.65959 l 0,-0.24817 q 0,-0.9151 0.26367,-1.64408 0.26368,-0.72898 0.71347,-1.24082 0.4498,-0.51184 1.03919,-0.77551 0.60489,-0.27918 1.28734,-0.27918 0.82205,0 1.31837,0.27918 0.51184,0.27918 0.80653,0.86857 l 0.27919,0 0,-0.93061 1.95429,0 0,5.36654 q 0,0.4653 0.41877,0.4653 l 0.29469,0 0,1.86123 -1.33387,0 q -0.52735,0 -0.86858,-0.31021 -0.32571,-0.3102 -0.32571,-0.80653 l -0.27918,0 z m -1.73715,-0.52735 q 0.85306,0 1.3649,-0.55836 0.51184,-0.57388 0.51184,-1.55102 l 0,-0.18613 q 0,-0.97714 -0.51184,-1.53551 -0.51184,-0.57388 -1.3649,-0.57388 -0.85306,0 -1.3649,0.57388 -0.51183,0.55837 -0.51183,1.53551 l 0,0.18613 q 0,0.97714 0.51183,1.55102 0.51184,0.55836 1.3649,0.55836 z" />
      <path
         id="path7051"
         style="font-style:normal;font-variant:normal;font-weight:bold;font-stretch:normal;font-family:'Space Mono';-inkscape-font-specification:'Space Mono Bold';fill:#ffffff"
         d="m 524.70511,329.25609 3.25714,0 0,1.11674 0.27918,0 q 0.21715,-0.63592 0.72899,-0.97715 0.52734,-0.35673 1.25632,-0.35673 1.14776,0 1.84572,0.72898 0.69796,0.71347 0.69796,2.18694 l 0,0.34122 -2.01633,0.18613 0,-0.21715 q 0,-0.63592 -0.32571,-1.00816 -0.32572,-0.38776 -0.97715,-0.38776 -0.65143,0 -1.02367,0.4498 -0.37225,0.4498 -0.37225,1.28735 l 0,2.48163 1.76817,0 0,1.86123 -5.3045,0 0,-1.86123 1.58204,0 0,-3.97061 -1.39591,0 0,-1.86123 z" />
    </g>
    <path
       inkscape:connector-curvature="0"
       id="path6318"
       d=""
       style="fill:#000000" />
    <path
       inkscape:connector-curvature="0"
       id="path6316"
       d=""
       style="fill:#000000" />
    <path
       inkscape:connector-curvature="0"
       id="path6331"
       d="m 444.13559,362.07968 c -0.0509,-0.0218 -0.12991,-0.0872 -0.17547,-0.1453 -0.0455,-0.0581 -1.00081,-1.90538 -2.12275,-4.10502 -1.12197,-2.19965 -2.04981,-3.99952 -2.06187,-3.99972 -0.0122,-1.8e-4 -0.25598,1.69243 -0.54201,3.76139 -0.28603,2.06895 -0.53819,3.8347 -0.56037,3.92389 -0.0223,0.0892 -0.0919,0.2027 -0.15489,0.25224 -0.11081,0.0872 -0.16682,0.0901 -1.73514,0.0901 l -1.62062,0 -0.12825,-0.12824 c -0.0845,-0.0845 -0.12825,-0.17294 -0.12825,-0.25918 0,-0.0721 0.62132,-3.90827 1.38075,-8.52501 l 1.38069,-8.39407 0.13827,-0.12492 c 0.1327,-0.11989 0.15321,-0.1243 0.50929,-0.10967 0.3515,0.0145 0.37714,0.0224 0.48804,0.1505 0.0643,0.0744 1.37061,2.52676 2.90274,5.44967 1.53214,2.92291 2.79679,5.3149 2.8103,5.31552 0.0133,6e-4 1.2967,-2.42032 2.85155,-5.37985 2.3197,-4.41555 2.8505,-5.39542 2.9585,-5.46158 0.0957,-0.0586 0.21818,-0.0807 0.44896,-0.0808 0.28659,-1.3e-4 0.33086,0.0119 0.4564,0.12405 l 0.139,0.1242 1.37496,8.35357 c 0.75621,4.59445 1.37502,8.42911 1.37517,8.52145 1.4e-4,0.12726 -0.0308,0.19891 -0.12799,0.29611 l -0.12826,0.12824 -1.59869,0 c -1.55217,0 -1.60207,-0.002 -1.71455,-0.0911 -0.0637,-0.0501 -0.13485,-0.12658 -0.158,-0.16989 -0.023,-0.0434 -0.2808,-1.77407 -0.57248,-3.84615 -0.29166,-2.07206 -0.54534,-3.80533 -0.5637,-3.8517 -0.0251,-0.064 -0.52247,0.88161 -2.06414,3.9263 -1.17709,2.32469 -2.08435,4.06584 -2.15821,4.14196 -0.11738,0.12096 -0.15418,0.13215 -0.46689,0.14199 -0.18668,0.006 -0.38112,-0.007 -0.43209,-0.029 z m 79.73769,0.0156 c -1.07127,-0.12243 -1.76323,-0.28105 -2.50057,-0.57326 -1.66535,-0.65994 -3.06442,-1.79445 -4.04972,-3.28395 -0.34895,-0.52749 -0.81458,-1.48556 -1.0145,-2.08741 -0.58182,-1.75146 -0.61265,-3.81223 -0.0833,-5.56781 0.72079,-2.39045 2.3459,-4.32608 4.53932,-5.40666 4.21243,-2.07528 9.32875,-0.33177 11.48414,3.91351 0.68132,1.34195 0.9688,2.57462 0.9688,4.1541 0,1.52189 -0.25858,2.66932 -0.89812,3.98527 -1.24321,2.55802 -3.66387,4.35514 -6.44052,4.78149 -0.4355,0.0669 -1.69585,0.12011 -2.00554,0.0847 z m 1.12593,-3.9699 c 2.47226,-0.27567 4.35773,-2.39079 4.35773,-4.88842 0,-2.4626 -1.77492,-4.54694 -4.18951,-4.91994 -1.91633,-0.29601 -3.9322,0.77807 -4.88019,2.60025 -0.85018,1.63419 -0.73503,3.58739 0.3015,5.11377 0.24011,0.35358 0.77218,0.90771 1.13266,1.1796 0.59752,0.45069 1.54067,0.82761 2.28346,0.9126 0.47201,0.054 0.52806,0.0542 0.99435,0.002 z m -19.68272,3.88792 c -3.92351,-0.56509 -6.91856,-3.60848 -7.43605,-7.5561 -0.0843,-0.64289 -0.0841,-1.79888 0,-2.44316 0.49407,-3.76964 3.21345,-6.72846 6.90913,-7.51765 0.50723,-0.10831 0.62905,-0.11725 1.62319,-0.11908 0.95284,-0.002 1.13206,0.009 1.57932,0.0993 1.43961,0.28906 3.09025,1.07041 4.15008,1.96451 0.39132,0.33012 0.40927,0.35547 0.41094,0.57994 0,0.16597 -0.0244,0.2169 -0.20964,0.41676 -0.11605,0.12524 -0.57377,0.62252 -1.01714,1.10508 -0.44335,0.48256 -0.84688,0.90137 -0.89667,0.93067 -0.0498,0.0293 -0.16168,0.0539 -0.2486,0.0549 -0.16412,10e-4 -0.18987,-0.0135 -0.7262,-0.42768 -0.39402,-0.30424 -0.91125,-0.55441 -1.44648,-0.6996 -0.39914,-0.10828 -0.49838,-0.11742 -1.26658,-0.1167 -0.7799,6e-4 -0.8589,0.008 -1.22834,0.12015 -1.78864,0.54073 -3.03683,1.9093 -3.47352,3.80854 -0.0537,0.23396 -0.0737,0.51964 -0.0729,1.04575 0,0.63937 0.0145,0.77408 0.11586,1.15434 0.20842,0.78222 0.4933,1.34704 0.99576,1.97427 0.66273,0.82737 1.62425,1.42182 2.68498,1.65999 0.77986,0.17512 1.89095,0.1099 2.74983,-0.16143 l 0.35596,-0.11244 0,-0.72193 0,-0.72194 -0.81376,0 c -0.88681,0 -1.01083,-0.0269 -1.10795,-0.24005 -0.0371,-0.0812 -0.0524,-0.51343 -0.0524,-1.47223 l 0,-1.3572 0.12798,-0.14327 0.12801,-0.14327 2.55835,-0.012 c 1.87129,-0.009 2.59149,0.002 2.68172,0.0391 0.25561,0.10587 0.2471,-0.009 0.27593,3.73123 0.0251,3.27921 0.023,3.44332 -0.0541,3.58984 -0.0687,0.1308 -0.17815,0.20265 -0.73867,0.4849 -1.15663,0.58241 -2.28076,0.93682 -3.68506,1.16179 -0.61067,0.0978 -2.32003,0.12445 -2.87343,0.0448 z m -47.11246,-0.29098 -0.13495,-0.13499 0,-8.37906 0,-8.37907 0.12824,-0.12823 0.12821,-0.12823 1.6375,10e-4 c 1.73588,0.001 1.69637,-0.003 1.84792,0.21675 0.0698,0.10127 0.0747,0.66225 0.0747,8.43828 l 0,8.32983 -0.14914,0.14915 -0.14917,0.14915 -1.62418,0 -1.62417,0 -0.13501,-0.13497 z m 8.80414,0.007 -0.14327,-0.12801 -0.0126,-8.26202 c -0.007,-4.54412 0,-8.32397 0.0122,-8.39969 0.0133,-0.0757 0.0761,-0.18921 0.13913,-0.25225 l 0.1146,-0.11459 4.00323,0 c 3.45641,0 4.05289,0.009 4.36673,0.0689 1.9072,0.36179 3.43805,1.69705 4.05312,3.5353 0.81389,2.43259 -0.13306,4.87795 -2.42248,6.2557 -0.21076,0.12683 -0.48684,0.27358 -0.61354,0.32612 -0.12666,0.0525 -0.2303,0.10858 -0.2303,0.12456 0,0.016 0.75017,1.45029 1.66702,3.18737 1.8437,3.49295 1.80236,3.39477 1.53882,3.65833 l -0.12825,0.12823 -1.79713,0 c -1.6536,0 -1.80486,-0.006 -1.893,-0.0777 -0.0529,-0.0428 -0.81937,-1.552 -1.70998,-3.36698 l -1.61418,-3.28937 -0.83928,-0.0119 -0.83931,-0.0119 0,3.22974 0,3.22974 -0.14917,0.14915 -0.14914,0.14915 -1.60493,0 -1.60492,0 -0.14328,-0.12799 z m 7.91878,-9.94918 c 0.40668,-0.19264 0.735,-0.52858 0.94368,-0.96561 0.15748,-0.32983 0.16297,-0.35756 0.16297,-0.82389 0,-0.4046 -0.0167,-0.52379 -0.10295,-0.73775 -0.12546,-0.31094 -0.52461,-0.75328 -0.82952,-0.91922 -0.43851,-0.23867 -0.56894,-0.25136 -2.58629,-0.25136 l -1.85523,0 0,1.93197 0,1.93194 1.98507,-0.0126 1.98512,-0.0126 0.29715,-0.14076 z m 9.15335,9.94896 -0.12825,-0.12824 0,-8.38581 0,-8.38581 0.12825,-0.12825 0.12822,-0.12823 5.20527,0 5.20528,0 0.12824,0.12823 0.12825,0.12825 0,1.54216 0,1.54219 -0.12825,0.12825 -0.12824,0.12822 -3.4471,0 -3.44714,0 0,1.53544 0,1.53543 2.78789,0 c 2.38756,0 2.80608,0.009 2.91466,0.0655 0.26633,0.13774 0.2637,0.12028 0.2637,1.74503 0,1.57844 -0.0118,1.67565 -0.21692,1.78542 -0.0554,0.0296 -1.0581,0.0452 -2.91688,0.0452 l -2.83245,0 0,1.66626 0,1.66625 3.44736,0.0118 3.44735,0.0118 0.128,0.14327 0.12802,0.14327 0,1.49305 c 0,1.5882 -0.0115,1.68463 -0.21692,1.79448 -0.0566,0.0302 -1.79646,0.0452 -5.26726,0.0452 l -5.18286,0 -0.12822,-0.12825 z"
       style="fill:#ffffff" />
  </g>
</svg>
