<?xml version="1.0" encoding="UTF-8" standalone="no"?>
<!-- Created with Inkscape (http://www.inkscape.org/) -->

<svg
   xmlns:dc="http://purl.org/dc/elements/1.1/"
   xmlns:cc="http://creativecommons.org/ns#"
   xmlns:rdf="http://www.w3.org/1999/02/22-rdf-syntax-ns#"
   xmlns:svg="http://www.w3.org/2000/svg"
   xmlns="http://www.w3.org/2000/svg"
   xmlns:sodipodi="http://sodipodi.sourceforge.net/DTD/sodipodi-0.dtd"
   xmlns:inkscape="http://www.inkscape.org/namespaces/inkscape"
   width="1599.442mm"
   height="824.16248mm"
   viewBox="0 0 5667.3141 2920.2607"
   id="svg2"
   version="1.1"
   inkscape:version="0.91 r13725"
   sodipodi:docname="logo.svg">
  <defs
     id="defs4" />
  <sodipodi:namedview
     id="base"
     pagecolor="#ffffff"
     bordercolor="#666666"
     borderopacity="1.0"
     inkscape:pageopacity="0.0"
     inkscape:pageshadow="2"
     inkscape:zoom="0.0875"
     inkscape:cx="-648.64127"
     inkscape:cy="1512.2326"
     inkscape:document-units="px"
     inkscape:current-layer="layer1"
     showgrid="false"
     inkscape:window-width="1366"
     inkscape:window-height="703"
     inkscape:window-x="0"
     inkscape:window-y="47"
     inkscape:window-maximized="0"
     fit-margin-top="0"
     fit-margin-left="0"
     fit-margin-right="0"
     fit-margin-bottom="0" />
  <metadata
     id="metadata7">
    <rdf:RDF>
      <cc:Work
         rdf:about="">
        <dc:format>image/svg+xml</dc:format>
        <dc:type
           rdf:resource="http://purl.org/dc/dcmitype/StillImage" />
        <dc:title></dc:title>
      </cc:Work>
    </rdf:RDF>
  </metadata>
  <g
     inkscape:label="Calque 1"
     inkscape:groupmode="layer"
     id="layer1"
     transform="translate(-2655.7545,6176.4115)">
    <g
       transform="matrix(0.37848779,0,0,0.37848779,1883.0281,-1707.5537)"
       style="font-style:normal;font-variant:normal;font-weight:normal;font-stretch:normal;font-size:2040.98046875px;line-height:125%;font-family:FreeMono;-inkscape-font-specification:FreeMono;letter-spacing:0px;word-spacing:0px;fill:#ffffff;fill-opacity:1;stroke:none;stroke-width:1px;stroke-linecap:butt;stroke-linejoin:miter;stroke-opacity:1"
       id="flowRoot4138">
      <path
         d="m 2041.6145,-7693.2804 0,-95.9261 306.1471,-53.0654 0,132.6637 q 0,91.8441 48.9835,140.8276 51.0245,46.9426 126.5408,46.9426 77.5573,0 122.4588,-51.0245 46.9426,-53.0655 46.9426,-134.7047 l 0,-985.7936 322.4749,0 0,993.9575 q 0,202.0571 -138.7867,342.8847 -138.7866,140.8277 -351.0486,140.8277 -216.3439,0 -351.0486,-130.6228 -132.6638,-132.6637 -132.6638,-346.9667 z"
         style="font-style:normal;font-variant:normal;font-weight:900;font-stretch:normal;line-height:100%;font-family:'Circular Std Black';-inkscape-font-specification:'Circular Std Black, Heavy';fill:#ffffff;fill-opacity:1"
         id="path6335" />
      <path
         d="m 3640.4357,-7550.4117 187.7702,0 q 177.5653,0 289.8192,-106.131 114.2949,-106.131 114.2949,-312.27 0,-208.18 -114.2949,-314.311 -112.2539,-106.131 -289.8192,-106.131 l -187.7702,0 0,838.843 z m 200.0161,304.1061 -522.491,0 0,-1447.0552 524.532,0 q 328.5978,0 526.5729,195.9341 200.0161,195.9342 200.0161,528.614 0,332.6798 -200.0161,528.6139 -197.9751,193.8932 -528.6139,193.8932 z"
         style="font-style:normal;font-variant:normal;font-weight:900;font-stretch:normal;line-height:100%;font-family:'Circular Std Black';-inkscape-font-specification:'Circular Std Black, Heavy';fill:#ffffff;fill-opacity:1"
         id="path6337" />
      <path
         d="m 5127.4174,-7246.3056 -326.5568,0 0,-1447.0552 326.5568,0 0,1447.0552 z"
         style="font-style:normal;font-variant:normal;font-weight:900;font-stretch:normal;line-height:100%;font-family:'Circular Std Black';-inkscape-font-specification:'Circular Std Black, Heavy';fill:#ffffff;fill-opacity:1"
         id="path6339" />
      <path
         d="m 6434.6657,-8338.2302 -289.8192,81.6392 q -10.2049,-67.3523 -67.3524,-124.4998 -57.1475,-57.1474 -173.4833,-57.1474 -87.7622,0 -142.8687,46.9425 -55.1064,44.9016 -55.1064,108.172 0,112.2539 142.8686,138.7866 l 193.8931,36.7377 q 200.0161,36.7376 308.1881,157.1555 110.2129,118.3769 110.2129,277.5733 0,181.6473 -144.9096,320.434 -144.9096,136.7457 -389.8273,136.7457 -273.4913,0 -424.5239,-140.8277 -148.9916,-142.8686 -167.3604,-322.4749 l 295.9422,-71.4343 q 10.2049,108.1719 83.6802,179.6063 75.5163,69.3933 216.3439,69.3933 93.8851,0 148.9916,-40.8196 55.1065,-42.8606 55.1065,-110.213 0,-55.1064 -40.8197,-91.8441 -40.8196,-38.7786 -114.2949,-53.0655 l -197.9751,-36.7376 q -183.6882,-34.6967 -289.8192,-148.9916 -104.09,-114.2949 -104.09,-275.5324 0,-200.016 153.0735,-332.6798 153.0736,-132.6637 365.3355,-132.6637 128.5818,0 228.5899,36.7376 102.049,34.6967 161.2374,93.8851 59.1884,59.1885 91.8441,122.4589 34.6967,63.2704 46.9426,132.6637 z"
         style="font-style:normal;font-variant:normal;font-weight:900;font-stretch:normal;line-height:100%;font-family:'Circular Std Black';-inkscape-font-specification:'Circular Std Black, Heavy';fill:#ffffff;fill-opacity:1"
         id="path6341" />
      <path
         d="m 7345.8042,-7215.6909 q -318.393,0 -534.7369,-208.18 -216.344,-210.221 -216.344,-542.9009 0,-330.6388 218.385,-542.9008 218.3849,-214.3029 528.6139,-214.3029 155.1145,0 279.6143,46.9425 126.5408,44.9016 204.0981,120.4179 77.5572,75.5163 124.4998,155.1145 46.9425,79.5982 65.3113,165.3194 l -304.106,95.9261 q -10.2049,-42.8606 -32.6557,-83.6802 -22.4508,-42.8606 -63.2704,-85.7212 -40.8196,-44.9015 -112.2539,-71.4343 -71.4344,-28.5737 -161.2375,-28.5737 -163.2784,0 -287.7783,116.3359 -124.4998,114.2949 -124.4998,326.5568 0,195.9342 122.4589,312.2701 122.4588,116.3358 293.9012,116.3358 167.3604,0 259.2045,-83.6802 91.8441,-83.6802 120.4178,-187.7702 l 308.1881,87.7622 q -20.4098,83.6802 -67.3524,165.3194 -44.9016,81.6392 -124.4998,161.2375 -77.5572,79.5982 -208.18,130.6227 -128.5818,48.9836 -287.7782,48.9836 z"
         style="font-style:normal;font-variant:normal;font-weight:900;font-stretch:normal;line-height:100%;font-family:'Circular Std Black';-inkscape-font-specification:'Circular Std Black, Heavy';fill:#ffffff;fill-opacity:1"
         id="path6343" />
      <path
         d="m 8666.0311,-7501.4282 q 95.9261,0 161.2375,-65.3114 67.3523,-65.3114 67.3523,-187.7702 0,-122.4588 -67.3523,-185.7292 -65.3114,-65.3114 -161.2375,-65.3114 -93.8851,0 -161.2374,65.3114 -67.3524,65.3114 -67.3524,185.7292 0,120.4179 67.3524,187.7702 67.3523,65.3114 161.2374,65.3114 z m 0,-789.8594 q 230.6308,0 383.7044,151.0325 155.1145,151.0326 155.1145,385.7453 0,234.7128 -155.1145,387.7863 -153.0736,151.0326 -383.7044,151.0326 -228.5898,0 -383.7043,-153.0736 -155.1145,-153.0735 -155.1145,-385.7453 0,-232.6718 155.1145,-383.7043 155.1145,-153.0735 383.7043,-153.0735 z"
         style="font-style:normal;font-variant:normal;font-weight:900;font-stretch:normal;line-height:100%;font-family:'Circular Std Black';-inkscape-font-specification:'Circular Std Black, Heavy';fill:#ffffff;fill-opacity:1"
         id="path6345" />
      <path
         d="m 9714.7765,-7827.9851 0,581.6795 -310.2291,0 0,-1014.3673 300.0242,0 0,116.3358 q 38.7786,-67.3523 118.3768,-104.09 81.6393,-38.7786 165.3195,-38.7786 181.6471,0 275.5321,114.2949 93.885,112.2539 93.885,289.8192 l 0,636.786 -310.229,0 0,-583.7205 q 0,-79.5982 -42.86,-126.5407 -40.8199,-48.9836 -122.4591,-48.9836 -75.5163,0 -122.4588,51.0245 -44.9016,48.9836 -44.9016,126.5408 z"
         style="font-style:normal;font-variant:normal;font-weight:900;font-stretch:normal;line-height:100%;font-family:'Circular Std Black';-inkscape-font-specification:'Circular Std Black, Heavy';fill:#ffffff;fill-opacity:1"
         id="path6347" />
      <path
         d="m 11197.963,-7999.4274 -220.426,0 0,753.1218 -310.229,0 0,-753.1218 -161.237,0 0,-261.2455 161.237,0 0,-87.7622 q 0,-177.5653 102.049,-283.6963 104.09,-108.1719 285.738,-108.1719 102.049,0 146.95,22.4507 l 0,253.0816 q -40.819,-10.2049 -91.844,-10.2049 -53.065,0 -93.885,30.6147 -38.779,30.6147 -38.779,106.131 l 0,77.5573 220.426,0 0,261.2455 z"
         style="font-style:normal;font-variant:normal;font-weight:900;font-stretch:normal;line-height:100%;font-family:'Circular Std Black';-inkscape-font-specification:'Circular Std Black, Heavy';fill:#ffffff;fill-opacity:1"
         id="path6349" />
    </g>
    <g
       id="g5580"
       style="fill:#ffffff;fill-opacity:1"
       transform="matrix(0.92363763,0,0,0.92363763,4649.7893,1215.2457)">
      <path
         id="path4922"
         d="m 3768.2072,-5707.9284 c 0,13.4686 10.1014,26.9371 26.9371,26.9371 l 33.6715,0 c 13.4685,0 26.9371,-10.1014 26.9371,-26.9371 l 0,-57.2415 c 23.57,-3.3671 40.4057,-10.1014 57.2415,-16.8357 16.8357,-6.7343 26.9371,-16.8357 37.0386,-30.3043 10.1014,-10.1014 16.8357,-23.57 20.2028,-37.0386 3.3672,-13.4686 6.7343,-26.9372 6.7343,-40.4057 0,-20.2029 -3.3671,-37.0386 -10.1014,-53.8743 -6.7343,-13.4686 -16.8357,-26.9372 -30.3043,-40.4058 -13.4686,-10.1014 -26.9372,-20.2028 -43.7729,-30.3043 -16.8357,-10.1014 -37.0386,-16.8357 -57.2415,-23.57 -13.4685,-3.3671 -23.57,-10.1014 -33.6714,-13.4686 -10.1014,-3.3671 -16.8357,-6.7343 -23.57,-13.4686 -6.7343,-3.3671 -10.1014,-10.1014 -13.4686,-13.4685 -3.3671,-6.7343 -3.3671,-10.1015 -3.3671,-20.2029 0,-13.4686 3.3671,-20.2029 13.4685,-30.3043 10.1015,-6.7343 26.9372,-10.1014 47.1401,-10.1014 23.57,0 43.7728,3.3671 63.9757,6.7343 20.2029,3.3671 53.8743,16.8357 67.3429,23.57 l 6.7343,-87.5458 c -10.1014,-3.3671 -23.57,-10.1014 -40.4057,-13.4686 -16.8358,-3.3671 -37.0386,-6.7343 -60.6086,-10.1014 l 0,-47.14 c 0,-13.4686 -10.1015,-26.9372 -26.9372,-26.9372 l -33.6714,0 c -13.4686,0 -26.9372,10.1015 -26.9372,26.9372 l 0,47.14 c -20.2029,3.3671 -37.0386,10.1014 -50.5072,16.8357 -13.4685,6.7343 -26.9371,16.8357 -37.0386,30.3043 -10.1014,10.1015 -16.8357,23.57 -20.2028,37.0386 -3.3672,13.4686 -6.7343,26.9372 -6.7343,43.7729 0,20.2029 3.3671,37.0386 10.1014,50.5072 6.7343,13.4685 16.8357,26.9371 26.9372,33.6714 10.1014,10.1014 23.57,16.8357 40.4057,23.57 13.4686,6.7343 30.3043,13.4686 43.7729,16.8357 16.8357,6.7343 30.3043,10.1015 40.4057,16.8358 13.4686,3.3671 20.2029,10.1014 30.3043,13.4685 6.7343,3.3672 13.4686,10.1015 16.8357,16.8358 3.3672,6.7343 6.7343,13.4685 6.7343,23.57 0,13.4686 -6.7343,23.57 -16.8357,30.3043 -10.1014,6.7343 -20.2029,10.1014 -47.14,10.1014 -23.57,0 -57.2415,-3.3671 -80.8115,-10.1014 -23.57,-6.7343 -57.2414,-20.2029 -70.71,-30.3043 l -13.4686,87.5457 c 10.1014,3.3672 26.9372,10.1015 47.14,20.2029 20.2029,6.7343 47.1401,13.4686 80.8115,16.8357 l 0,63.9758 z"
         inkscape:connector-curvature="0"
         style="fill:#ffffff;fill-opacity:1" />
      <path
         id="path4924"
         d="m 2200.3219,-6873.4665 c 3.3672,10.1015 16.8358,10.1015 20.2029,0 l 171.7244,-333.3473 c 10.1014,-23.57 16.8357,-50.5071 16.8357,-80.8114 0,-111.1158 -87.5458,-198.6616 -198.6615,-198.6616 -111.1158,0 -198.6616,87.5458 -198.6616,198.6616 0,30.3043 6.7343,53.8743 16.8358,80.8114 l 171.7243,333.3473 z m 10.1015,-494.9702 c 47.14,0 84.1786,37.0386 84.1786,84.1786 0,47.14 -37.0386,84.1786 -84.1786,84.1786 -47.1401,0 -84.1786,-37.0386 -84.1786,-84.1786 0,-47.14 37.0385,-84.1786 84.1786,-84.1786 z"
         inkscape:connector-curvature="0"
         style="fill:#ffffff;fill-opacity:1" />
      <path
         id="path4926"
         d="m 3395.6583,-6344.8248 c 0,-57.2414 -43.7729,-101.0143 -101.0144,-101.0143 l -178.4586,0 c -57.2415,0 -101.0144,43.7729 -101.0144,101.0143 l 0,77.4444 c 0,57.2414 43.7729,101.0143 101.0144,101.0143 l 0,90.9129 c 0,3.3672 3.3671,3.3672 6.7342,3.3672 l 94.2801,-94.2801 77.4443,0 c 57.2415,0 101.0144,-43.7729 101.0144,-101.0143 l 0,-77.4444 z m -276.1059,70.7101 c -16.8357,0 -30.3043,-13.4686 -30.3043,-30.3043 0,-16.8357 13.4686,-30.3043 30.3043,-30.3043 16.8357,0 30.3043,13.4686 30.3043,30.3043 0,16.8357 -13.4686,30.3043 -30.3043,30.3043 z m 87.5458,0 c -16.8358,0 -30.3043,-13.4686 -30.3043,-30.3043 0,-16.8357 13.4685,-30.3043 30.3043,-30.3043 16.8357,0 30.3043,13.4686 30.3043,30.3043 -3.3672,16.8357 -16.8358,30.3043 -30.3043,30.3043 z m 84.1786,0 c -16.8357,0 -30.3043,-13.4686 -30.3043,-30.3043 0,-16.8357 13.4686,-30.3043 30.3043,-30.3043 16.8357,0 30.3043,13.4686 30.3043,30.3043 0,16.8357 -13.4686,30.3043 -30.3043,30.3043 z"
         inkscape:connector-curvature="0"
         style="fill:#ffffff;fill-opacity:1" />
      <path
         transform="matrix(33.671446,0,0,33.671446,813.05837,-8105.8414)"
         style="fill:#ffffff;fill-opacity:1"
         d="m 64.5,71.6 -4,-3.7 0,3.7 z"
         id="polygon4928" />
      <path
         id="path4930"
         d="m 2806.408,-5678.1301 0,-161.623 -205.3959,0 c -3.3671,0 -6.7342,3.3672 -6.7342,6.7343 l 0,528.6417 c 0,3.3672 3.3671,6.7343 6.7342,6.7343 l 400.6902,0 c 3.3672,0 6.7343,-3.3671 6.7343,-6.7343 l 0,-353.5502 -185.1929,0 c -6.7343,0 -16.8357,-10.1014 -16.8357,-20.2028 z m 151.5215,326.613 -309.7773,0 0,-43.7729 309.7773,0 0,43.7729 z m 0,-107.7486 -309.7773,0 0,-43.7729 309.7773,0 0,43.7729 z m 0,-104.3815 -309.7773,0 0,-43.7729 309.7773,0 0,43.7729 z"
         inkscape:connector-curvature="0"
         style="fill:#ffffff;fill-opacity:1" />
      <path
         id="path4932"
         d="m 2846.8137,-6806.1236 10.1014,10.1015 218.8644,218.8644 c 6.7343,6.7343 16.8357,6.7343 20.2029,0 l 218.8644,-218.8644 10.1014,-10.1015 c 63.9758,-63.9757 63.9758,-168.3572 0,-228.9658 -63.9757,-63.9757 -168.3572,-63.9757 -228.9658,0 l -10.1014,10.1014 -10.1015,-10.1014 c -63.9757,-63.9757 -168.3572,-63.9757 -228.9658,0 -63.9758,63.9758 -63.9758,164.9901 0,228.9658 z"
         inkscape:connector-curvature="0"
         style="fill:#ffffff;fill-opacity:1" />
      <path
         id="path4934"
         d="m 3513.5083,-7136.1037 c 57.2415,-20.2029 87.5458,-84.1786 63.9758,-141.4201 -20.2029,-57.2415 -84.1786,-87.5458 -141.4201,-63.9757 -57.2415,20.2028 -87.5458,84.1786 -63.9758,141.42 20.2029,57.2415 84.1787,87.5458 141.4201,63.9758 z"
         inkscape:connector-curvature="0"
         style="fill:#ffffff;fill-opacity:1" />
      <path
         id="path4936"
         d="m 930.05367,-5380.2295 c -37.0386,13.4686 -57.2414,57.2414 -43.7729,94.28 13.4686,37.0386 57.2415,57.2415 94.2801,43.7729 37.03863,-13.4686 57.24143,-57.2414 43.77293,-94.28 -13.4686,-40.4058 -57.24153,-57.2415 -94.28013,-43.7729 z"
         inkscape:connector-curvature="0"
         style="fill:#ffffff;fill-opacity:1" />
      <path
         id="path4938"
         d="m 1072.5379,-7001.662 c -37.0386,13.4685 -57.2414,57.2414 -43.7728,94.28 13.4685,37.0386 57.2414,57.2415 94.28,43.7729 37.0386,-13.4686 57.2415,-57.2415 43.7729,-94.2801 -13.4686,-37.0386 -57.2415,-57.2414 -94.2801,-43.7728 z"
         inkscape:connector-curvature="0"
         style="fill:#ffffff;fill-opacity:1" />
      <path
         id="path4940"
         d="m 3349.4996,-5998.9902 c -37.0386,13.4685 -57.2414,57.2414 -43.7729,94.28 13.4686,37.0386 57.2415,57.2415 94.2801,43.7729 37.0386,-13.4686 57.2414,-57.2415 43.7729,-94.2801 -13.4686,-40.4057 -57.2415,-57.2414 -94.2801,-43.7728 z"
         inkscape:connector-curvature="0"
         style="fill:#ffffff;fill-opacity:1" />
      <path
         id="path4942"
         d="m 2954.4838,-7451.9 c -37.0386,13.4686 -57.2415,57.2415 -43.7729,94.2801 13.4686,37.0386 57.2415,57.2414 94.2801,43.7728 37.0385,-13.4685 57.2414,-57.2414 43.7728,-94.28 -13.4685,-37.0386 -53.8743,-57.2415 -94.28,-43.7729 z"
         inkscape:connector-curvature="0"
         style="fill:#ffffff;fill-opacity:1" />
      <path
         id="path4944"
         d="m 1753.285,-5294.8443 c -20.2029,-57.2414 -84.1786,-87.5458 -141.4201,-63.9757 -57.2414,20.2028 -87.5457,84.1786 -63.9757,141.42 20.2029,57.2415 84.1786,87.5458 141.4201,63.9758 57.2414,-20.2029 84.1785,-84.1786 63.9757,-141.4201 z"
         inkscape:connector-curvature="0"
         style="fill:#ffffff;fill-opacity:1" />
      <path
         id="path4946"
         d="m 3446.1654,-6610.8292 c 26.9372,77.4444 114.4829,114.4829 188.5601,87.5458 77.4443,-26.9372 114.4829,-114.4829 87.5458,-188.5601 -26.9372,-77.4443 -114.4829,-114.4829 -188.5601,-87.5458 -77.4443,26.9372 -117.8501,114.4829 -87.5458,188.5601 z"
         inkscape:connector-curvature="0"
         style="fill:#ffffff;fill-opacity:1" />
      <path
         id="path4948"
         d="m 3964.7057,-5237.0342 c -20.2029,-57.2414 -84.1786,-87.5457 -141.4201,-63.9757 -10.1014,3.3671 -16.8357,6.7343 -23.57,13.4685 l -942.8005,-777.8104 c -13.4686,13.4686 -23.57,30.3043 -37.0386,43.7729 l 942.8005,781.1776 c -13.4686,26.9371 -13.4686,57.2414 -3.3671,84.1786 20.2028,57.2414 84.1786,87.5457 141.42,63.9757 57.2415,-23.57 87.5458,-87.5457 63.9758,-144.7872 z"
         inkscape:connector-curvature="0"
         style="fill:#ffffff;fill-opacity:1" />
      <path
         transform="matrix(0.97401059,-0.22650246,0.22650246,0.97401059,0,0)"
         style="fill:#ffffff;fill-opacity:1"
         d="m 3464.7925,-6887.8784 a 111.11456,111.11456 0 0 1 -111.1145,111.1145 111.11456,111.11456 0 0 1 -111.1146,-111.1145 111.11456,111.11456 0 0 1 111.1146,-111.1146 111.11456,111.11456 0 0 1 111.1145,111.1146 z"
         id="ellipse4950" />
      <path
         id="path4952"
         d="m 2065.6362,-5769.043 158.2557,-195.2944 c -16.8357,-10.1014 -30.3043,-20.2029 -47.14,-33.6715 l -158.2558,191.9273 c -37.0386,-20.2029 -80.8114,-26.9372 -121.2172,-10.1015 -77.4443,26.9372 -114.4829,114.483 -87.5457,188.5601 26.9371,77.4444 114.4829,114.483 188.5601,87.5458 77.4443,-26.9372 114.4829,-114.4829 87.5457,-188.5601 -3.3671,-16.8357 -10.1014,-30.3043 -20.2028,-40.4057 z"
         inkscape:connector-curvature="0"
         style="fill:#ffffff;fill-opacity:1" />
      <path
         id="path4954"
         d="m 2920.8909,-6361.6605 c 0,-242.4344 -195.2944,-437.7288 -437.7288,-437.7288 -242.4344,0 -437.7288,195.2944 -437.7288,437.7288 0,242.4344 195.2944,437.7288 437.7288,437.7288 242.4344,0 437.7288,-195.2944 437.7288,-437.7288 z m -437.7288,-292.9416 c 87.5457,0 158.2558,70.7101 158.2558,158.2558 0,87.5458 -70.7101,158.2558 -158.2558,158.2558 -87.5458,0 -158.2558,-70.71 -158.2558,-158.2558 0,-87.5457 70.71,-158.2558 158.2558,-158.2558 z m 0,676.7961 c -101.0144,0 -195.2944,-40.4057 -262.6373,-104.3815 26.9372,-121.2172 134.6858,-208.7629 262.6373,-208.7629 127.9515,0 235.7001,90.9129 262.6373,208.7629 -67.3429,63.9758 -161.623,104.3815 -262.6373,104.3815 z"
         inkscape:connector-curvature="0"
         style="fill:#ffffff;fill-opacity:1" />
      <path
         id="path4956"
         d="m 2089.2062,-6627.6649 c 10.1014,-16.8357 23.57,-30.3043 33.6714,-43.7729 l -855.2547,-707.1003 c 20.2029,-37.0386 23.57,-80.8115 10.1014,-121.2172 -26.9371,-77.4444 -114.4829,-114.483 -188.5601,-87.5458 -77.4443,26.9372 -114.48289,114.4829 -87.5457,188.5601 26.9371,77.4443 114.4829,114.4829 188.5601,87.5458 16.8357,-6.7343 30.3043,-13.4686 40.4057,-23.5701 l 858.6219,707.1004 z"
         inkscape:connector-curvature="0"
         style="fill:#ffffff;fill-opacity:1" />
      <path
         id="path4958"
         d="m 2601.0121,-6819.5921 161.623,-963.0034 c 10.1014,0 20.2028,-3.3671 26.9371,-6.7343 57.2415,-20.2028 87.5458,-84.1786 63.9758,-141.42 -20.2029,-57.2415 -84.1786,-87.5458 -141.4201,-63.9758 -57.2414,20.2029 -87.5457,84.1786 -63.9757,141.4201 10.1014,30.3043 33.6714,50.5071 57.2414,60.6086 l -161.6229,959.6362 c 20.2029,3.3671 37.0386,6.7343 57.2414,13.4686 z"
         inkscape:connector-curvature="0"
         style="fill:#ffffff;fill-opacity:1" />
      <path
         id="path4960"
         d="m 2388.882,-5896.9945 -127.9515,760.9746 c -16.8357,0 -33.6714,3.3672 -47.14,10.1015 -77.4443,26.9371 -114.4829,114.4829 -87.5457,188.5601 26.9371,77.4443 114.4829,114.4829 188.5601,87.5457 77.4443,-26.9371 114.4829,-114.4829 87.5457,-188.5601 -16.8357,-40.4057 -47.14,-70.71 -84.1786,-84.1786 l 127.9515,-760.9746 c -20.2029,-6.7343 -40.4057,-10.1015 -57.2415,-13.4686 z"
         inkscape:connector-curvature="0"
         style="fill:#ffffff;fill-opacity:1" />
      <path
         id="path4936-7"
         d="m 3149.0598,-5255.273 c -28.2089,10.2581 -43.5955,43.5952 -33.3378,71.8044 10.2578,28.2092 43.5956,43.596 71.8046,33.3379 28.2089,-10.2581 43.5955,-43.5952 33.3378,-71.8044 -10.2578,-30.7736 -43.5956,-43.596 -71.8046,-33.3379 z"
         inkscape:connector-curvature="0"
         style="fill:#ffffff;fill-opacity:1" />
      <path
         id="path4936-7-0"
         d="m 1811.3433,-6418.988 c -28.2089,10.258 -43.5955,43.595 -33.3378,71.804 10.2578,28.209 43.5956,43.596 71.8046,33.338 28.2089,-10.258 43.5955,-43.595 33.3378,-71.805 -10.2578,-30.773 -43.5956,-43.596 -71.8046,-33.337 z"
         inkscape:connector-curvature="0"
         style="fill:#ffffff;fill-opacity:1" />
    </g>
    <g
       transform="matrix(0.52168036,0,0,0.52168036,5246.7624,667.67682)"
       style="font-style:normal;font-variant:normal;font-weight:normal;font-stretch:normal;font-size:772.48620605px;line-height:125%;font-family:FreeMono;-inkscape-font-specification:FreeMono;letter-spacing:0px;word-spacing:0px;fill:#ffffff;fill-opacity:1;stroke:none;stroke-width:1px;stroke-linecap:butt;stroke-linejoin:miter;stroke-opacity:1"
       id="flowRoot4138-3">
      <path
         d="m 93.471336,-9332.6824 -75.703648,-9.2698 q -0.772486,-6.9524 -0.772486,-20.0847 0,-67.2063 47.121658,-114.3279 47.12166,-47.8942 125.91525,-47.8942 78.02111,0 123.5978,44.8042 45.57668,44.0317 45.57668,108.9206 0,95.0158 -94.24332,154.4972 l -98.87823,63.3439 q -53.30155,33.9894 -61.02641,70.2962 l 257.23791,0 0,70.2963 -350.708742,0 q 1.544973,-63.3439 28.58199,-111.2381 27.809504,-47.8941 90.380882,-88.0634 l 83.42851,-54.074 q 68.75128,-44.0317 68.75128,-104.2857 0,-37.0793 -24.71956,-62.5713 -24.71956,-25.4921 -69.52376,-25.4921 -47.12166,0 -71.84122,28.582 -24.719556,28.582 -24.719556,74.1587 0,6.9524 1.544972,22.4021 z"
         style="font-style:normal;font-variant:normal;font-weight:normal;font-stretch:normal;line-height:100%;font-family:'Circular Std Book';-inkscape-font-specification:'Circular Std Book, ';fill:#ffffff;fill-opacity:1"
         id="path6354" />
      <path
         d="m 551.01251,-9424.6083 q -44.03171,46.3492 -44.03171,162.2221 0,115.873 44.03171,162.2221 30.89945,32.4445 79.56608,32.4445 48.66663,0 79.56608,-32.4445 44.03171,-46.3491 44.03171,-162.2221 0,-115.8729 -44.03171,-162.2221 -30.89945,-32.4444 -79.56608,-32.4444 -48.66663,0 -79.56608,32.4444 z m -74.15868,343.7564 q -44.8042,-66.4338 -44.8042,-181.5343 0,-115.1004 44.8042,-181.5342 53.30155,-80.3386 153.72476,-80.3386 100.42321,0 153.72475,80.3386 44.8042,66.4338 44.8042,181.5342 0,115.1005 -44.8042,181.5343 -53.30154,80.3386 -153.72475,80.3386 -100.42321,0 -153.72476,-80.3386 z"
         style="font-style:normal;font-variant:normal;font-weight:normal;font-stretch:normal;line-height:100%;font-family:'Circular Std Book';-inkscape-font-specification:'Circular Std Book, ';fill:#ffffff;fill-opacity:1"
         id="path6356" />
      <path
         d="m 1077.4015,-9012.1006 -74.1587,0 0,-353.0262 -121.28032,0 0,-53.3016 q 50.98409,-0.7725 85.74597,-26.2645 34.76185,-26.2645 43.25925,-67.9788 l 66.4338,0 0,500.5711 z"
         style="font-style:normal;font-variant:normal;font-weight:normal;font-stretch:normal;line-height:100%;font-family:'Circular Std Book';-inkscape-font-specification:'Circular Std Book, ';fill:#ffffff;fill-opacity:1"
         id="path6358" />
      <path
         d="m 1352.0325,-9299.4655 q 40.1692,-0.7725 66.4338,-23.1746 26.2645,-22.4021 26.2645,-58.7089 0,-33.9894 -25.492,-57.164 -25.4921,-23.1746 -67.2063,-23.1746 -41.7143,0 -67.2063,23.1746 -25.4921,23.1746 -25.4921,57.164 0,36.3068 26.2646,58.7089 26.2645,22.4021 66.4338,23.1746 z m -77.2487,209.3438 q 28.582,23.947 77.2487,23.947 48.6666,0 76.4761,-23.947 28.582,-23.9471 28.582,-60.254 0,-37.0793 -28.582,-61.0264 -27.8095,-24.7195 -76.4761,-24.7195 -48.6667,0 -77.2487,24.7195 -27.8095,23.9471 -27.8095,61.0264 0,36.3069 27.8095,60.254 z m 210.1163,49.4391 q -48.6666,40.1693 -132.8676,40.1693 -84.201,0 -132.8677,-40.1693 -48.6666,-40.9418 -48.6666,-103.5132 0,-44.0317 26.2645,-76.4761 27.0371,-33.2169 68.7513,-47.1217 -35.5344,-13.1322 -58.7089,-44.8042 -23.1746,-32.4444 -23.1746,-72.6137 0,-61.0264 47.8941,-99.6507 47.8942,-39.3968 120.5079,-39.3968 72.6137,0 120.5078,39.3968 47.8942,38.6243 47.8942,99.6507 0,39.3968 -23.1746,71.8412 -23.1746,32.4445 -58.709,45.5767 41.7143,13.1323 67.9788,46.3492 27.037,33.2169 27.037,77.2486 0,62.5714 -48.6666,103.5132 z"
         style="font-style:normal;font-variant:normal;font-weight:normal;font-stretch:normal;line-height:100%;font-family:'Circular Std Book';-inkscape-font-specification:'Circular Std Book, ';fill:#ffffff;fill-opacity:1"
         id="path6360" />
    </g>
  </g>
</svg>
