<?xml version="1.0" encoding="UTF-8" standalone="no"?>
<!-- Created with Inkscape (http://www.inkscape.org/) -->

<svg
   xmlns:dc="http://purl.org/dc/elements/1.1/"
   xmlns:cc="http://creativecommons.org/ns#"
   xmlns:rdf="http://www.w3.org/1999/02/22-rdf-syntax-ns#"
   xmlns:svg="http://www.w3.org/2000/svg"
   xmlns="http://www.w3.org/2000/svg"
   xmlns:sodipodi="http://sodipodi.sourceforge.net/DTD/sodipodi-0.dtd"
   xmlns:inkscape="http://www.inkscape.org/namespaces/inkscape"
   width="1599.442mm"
   height="824.16248mm"
   viewBox="0 0 5667.3141 2920.2607"
   id="svg2"
   version="1.1"
   inkscape:version="0.91 r13725"
   sodipodi:docname="logo.svg">
  <defs
     id="defs4" />
  <sodipodi:namedview
     id="base"
     pagecolor="#ffffff"
     bordercolor="#666666"
     borderopacity="1.0"
     inkscape:pageopacity="0.0"
     inkscape:pageshadow="2"
     inkscape:zoom="0.12374369"
     inkscape:cx="1409.9426"
     inkscape:cy="882.59853"
     inkscape:document-units="px"
     inkscape:current-layer="flowRoot4138"
     showgrid="false"
     inkscape:window-width="1366"
     inkscape:window-height="734"
     inkscape:window-x="0"
     inkscape:window-y="16"
     inkscape:window-maximized="0"
     fit-margin-top="0"
     fit-margin-left="0"
     fit-margin-right="0"
     fit-margin-bottom="0" />
  <metadata
     id="metadata7">
    <rdf:RDF>
      <cc:Work
         rdf:about="">
        <dc:format>image/svg+xml</dc:format>
        <dc:type
           rdf:resource="http://purl.org/dc/dcmitype/StillImage" />
        <dc:title></dc:title>
      </cc:Work>
    </rdf:RDF>
  </metadata>
  <g
     inkscape:label="Calque 1"
     inkscape:groupmode="layer"
     id="layer1"
     transform="translate(-2655.7545,6176.4115)">
    <g
       transform="matrix(0.37848779,0,0,0.37848779,1883.0281,-1707.5537)"
       style="font-style:normal;font-variant:normal;font-weight:normal;font-stretch:normal;font-size:2040.98046875px;line-height:125%;font-family:FreeMono;-inkscape-font-specification:FreeMono;letter-spacing:0px;word-spacing:0px;fill:#ffffff;fill-opacity:1;stroke:none;stroke-width:1px;stroke-linecap:butt;stroke-linejoin:miter;stroke-opacity:1"
       id="flowRoot4138">
      <path
         d="m 2041.6145,-7693.2804 0,-95.9261 306.1471,-53.0654 0,132.6637 q 0,91.8441 48.9835,140.8276 51.0245,46.9426 126.5408,46.9426 77.5573,0 122.4588,-51.0245 46.9426,-53.0655 46.9426,-134.7047 l 0,-985.7936 322.4749,0 0,993.9575 q 0,202.0571 -138.7867,342.8847 -138.7866,140.8277 -351.0486,140.8277 -216.3439,0 -351.0486,-130.6228 -132.6638,-132.6637 -132.6638,-346.9667 z"
         style="font-style:normal;font-variant:normal;font-weight:900;font-stretch:normal;line-height:100%;font-family:'Circular Std Black';-inkscape-font-specification:'Circular Std Black, Heavy';fill:#ffffff;fill-opacity:1"
         id="path6335" />
      <path
         d="m 3640.4357,-7550.4117 187.7702,0 q 177.5653,0 289.8192,-106.131 114.2949,-106.131 114.2949,-312.27 0,-208.18 -114.2949,-314.311 -112.2539,-106.131 -289.8192,-106.131 l -187.7702,0 0,838.843 z m 200.0161,304.1061 -522.491,0 0,-1447.0552 524.532,0 q 328.5978,0 526.5729,195.9341 200.0161,195.9342 200.0161,528.614 0,332.6798 -200.0161,528.6139 -197.9751,193.8932 -528.6139,193.8932 z"
         style="font-style:normal;font-variant:normal;font-weight:900;font-stretch:normal;line-height:100%;font-family:'Circular Std Black';-inkscape-font-specification:'Circular Std Black, Heavy';fill:#ffffff;fill-opacity:1"
         id="path6337" />
      <path
         d="m 5127.4174,-7246.3056 -326.5568,0 0,-1447.0552 326.5568,0 0,1447.0552 z"
         style="font-style:normal;font-variant:normal;font-weight:900;font-stretch:normal;line-height:100%;font-family:'Circular Std Black';-inkscape-font-specification:'Circular Std Black, Heavy';fill:#ffffff;fill-opacity:1"
         id="path6339" />
      <path
         d="m 6434.6657,-8338.2302 -289.8192,81.6392 q -10.2049,-67.3523 -67.3524,-124.4998 -57.1475,-57.1474 -173.4833,-57.1474 -87.7622,0 -142.8687,46.9425 -55.1064,44.9016 -55.1064,108.172 0,112.2539 142.8686,138.7866 l 193.8931,36.7377 q 200.0161,36.7376 308.1881,157.1555 110.2129,118.3769 110.2129,277.5733 0,181.6473 -144.9096,320.434 -144.9096,136.7457 -389.8273,136.7457 -273.4913,0 -424.5239,-140.8277 -148.9916,-142.8686 -167.3604,-322.4749 l 295.9422,-71.4343 q 10.2049,108.1719 83.6802,179.6063 75.5163,69.3933 216.3439,69.3933 93.8851,0 148.9916,-40.8196 55.1065,-42.8606 55.1065,-110.213 0,-55.1064 -40.8197,-91.8441 -40.8196,-38.7786 -114.2949,-53.0655 l -197.9751,-36.7376 q -183.6882,-34.6967 -289.8192,-148.9916 -104.09,-114.2949 -104.09,-275.5324 0,-200.016 153.0735,-332.6798 153.0736,-132.6637 365.3355,-132.6637 128.5818,0 228.5899,36.7376 102.049,34.6967 161.2374,93.8851 59.1884,59.1885 91.8441,122.4589 34.6967,63.2704 46.9426,132.6637 z"
         style="font-style:normal;font-variant:normal;font-weight:900;font-stretch:normal;line-height:100%;font-family:'Circular Std Black';-inkscape-font-specification:'Circular Std Black, Heavy';fill:#ffffff;fill-opacity:1"
         id="path6341" />
      <path
         d="m 7345.8042,-7215.6909 q -318.393,0 -534.7369,-208.18 -216.344,-210.221 -216.344,-542.9009 0,-330.6388 218.385,-542.9008 218.3849,-214.3029 528.6139,-214.3029 155.1145,0 279.6143,46.9425 126.5408,44.9016 204.0981,120.4179 77.5572,75.5163 124.4998,155.1145 46.9425,79.5982 65.3113,165.3194 l -304.106,95.9261 q -10.2049,-42.8606 -32.6557,-83.6802 -22.4508,-42.8606 -63.2704,-85.7212 -40.8196,-44.9015 -112.2539,-71.4343 -71.4344,-28.5737 -161.2375,-28.5737 -163.2784,0 -287.7783,116.3359 -124.4998,114.2949 -124.4998,326.5568 0,195.9342 122.4589,312.2701 122.4588,116.3358 293.9012,116.3358 167.3604,0 259.2045,-83.6802 91.8441,-83.6802 120.4178,-187.7702 l 308.1881,87.7622 q -20.4098,83.6802 -67.3524,165.3194 -44.9016,81.6392 -124.4998,161.2375 -77.5572,79.5982 -208.18,130.6227 -128.5818,48.9836 -287.7782,48.9836 z"
         style="font-style:normal;font-variant:normal;font-weight:900;font-stretch:normal;line-height:100%;font-family:'Circular Std Black';-inkscape-font-specification:'Circular Std Black, Heavy';fill:#ffffff;fill-opacity:1"
         id="path6343" />
      <path
         d="m 8666.0311,-7501.4282 q 95.9261,0 161.2375,-65.3114 67.3523,-65.3114 67.3523,-187.7702 0,-122.4588 -67.3523,-185.7292 -65.3114,-65.3114 -161.2375,-65.3114 -93.8851,0 -161.2374,65.3114 -67.3524,65.3114 -67.3524,185.7292 0,120.4179 67.3524,187.7702 67.3523,65.3114 161.2374,65.3114 z m 0,-789.8594 q 230.6308,0 383.7044,151.0325 155.1145,151.0326 155.1145,385.7453 0,234.7128 -155.1145,387.7863 -153.0736,151.0326 -383.7044,151.0326 -228.5898,0 -383.7043,-153.0736 -155.1145,-153.0735 -155.1145,-385.7453 0,-232.6718 155.1145,-383.7043 155.1145,-153.0735 383.7043,-153.0735 z"
         style="font-style:normal;font-variant:normal;font-weight:900;font-stretch:normal;line-height:100%;font-family:'Circular Std Black';-inkscape-font-specification:'Circular Std Black, Heavy';fill:#ffffff;fill-opacity:1"
         id="path6345" />
      <path
         d="m 9714.7765,-7827.9851 0,581.6795 -310.2291,0 0,-1014.3673 300.0242,0 0,116.3358 q 38.7786,-67.3523 118.3768,-104.09 81.6393,-38.7786 165.3195,-38.7786 181.6471,0 275.5321,114.2949 93.885,112.2539 93.885,289.8192 l 0,636.786 -310.229,0 0,-583.7205 q 0,-79.5982 -42.86,-126.5407 -40.8199,-48.9836 -122.4591,-48.9836 -75.5163,0 -122.4588,51.0245 -44.9016,48.9836 -44.9016,126.5408 z"
         style="font-style:normal;font-variant:normal;font-weight:900;font-stretch:normal;line-height:100%;font-family:'Circular Std Black';-inkscape-font-specification:'Circular Std Black, Heavy';fill:#ffffff;fill-opacity:1"
         id="path6347" />
      <path
         d="m 11197.963,-7999.4274 -220.426,0 0,753.1218 -310.229,0 0,-753.1218 -161.237,0 0,-261.2455 161.237,0 0,-87.7622 q 0,-177.5653 102.049,-283.6963 104.09,-108.1719 285.738,-108.1719 102.049,0 146.95,22.4507 l 0,253.0816 q -40.819,-10.2049 -91.844,-10.2049 -53.065,0 -93.885,30.6147 -38.779,30.6147 -38.779,106.131 l 0,77.5573 220.426,0 0,261.2455 z"
         style="font-style:normal;font-variant:normal;font-weight:900;font-stretch:normal;line-height:100%;font-family:'Circular Std Black';-inkscape-font-specification:'Circular Std Black, Heavy';fill:#ffffff;fill-opacity:1"
         id="path6349" />
    </g>
    <g
       id="g5580"
       style="fill:#ffffff;fill-opacity:1"
       transform="matrix(0.92363763,0,0,0.92363763,4649.7893,1215.2457)">
      <path
         id="path4922"
         d="m 3768.2072,-5707.9284 c 0,13.4686 10.1014,26.9371 26.9371,26.9371 l 33.6715,0 c 13.4685,0 26.9371,-10.1014 26.9371,-26.9371 l 0,-57.2415 c 23.57,-3.3671 40.4057,-10.1014 57.2415,-16.8357 16.8357,-6.7343 26.9371,-16.8357 37.0386,-30.3043 10.1014,-10.1014 16.8357,-23.57 20.2028,-37.0386 3.3672,-13.4686 6.7343,-26.9372 6.7343,-40.4057 0,-20.2029 -3.3671,-37.0386 -10.1014,-53.8743 -6.7343,-13.4686 -16.8357,-26.9372 -30.3043,-40.4058 -13.4686,-10.1014 -26.9372,-20.2028 -43.7729,-30.3043 -16.8357,-10.1014 -37.0386,-16.8357 -57.2415,-23.57 -13.4685,-3.3671 -23.57,-10.1014 -33.6714,-13.4686 -10.1014,-3.3671 -16.8357,-6.7343 -23.57,-13.4686 -6.7343,-3.3671 -10.1014,-10.1014 -13.4686,-13.4685 -3.3671,-6.7343 -3.3671,-10.1015 -3.3671,-20.2029 0,-13.4686 3.3671,-20.2029 13.4685,-30.3043 10.1015,-6.7343 26.9372,-10.1014 47.1401,-10.1014 23.57,0 43.7728,3.3671 63.9757,6.7343 20.2029,3.3671 53.8743,16.8357 67.3429,23.57 l 6.7343,-87.5458 c -10.1014,-3.3671 -23.57,-10.1014 -40.4057,-13.4686 -16.8358,-3.3671 -37.0386,-6.7343 -60.6086,-10.1014 l 0,-47.14 c 0,-13.4686 -10.1015,-26.9372 -26.9372,-26.9372 l -33.6714,0 c -13.4686,0 -26.9372,10.1015 -26.9372,26.9372 l 0,47.14 c -20.2029,3.3671 -37.0386,10.1014 -50.5072,16.8357 -13.4685,6.7343 -26.9371,16.8357 -37.0386,30.3043 -10.1014,10.1015 -16.8357,23.57 -20.2028,37.0386 -3.3672,13.4686 -6.7343,26.9372 -6.7343,43.7729 0,20.2029 3.3671,37.0386 10.1014,50.5072 6.7343,13.4685 16.8357,26.9371 26.9372,33.6714 10.1014,10.1014 23.57,16.8357 40.4057,23.57 13.4686,6.7343 30.3043,13.4686 43.7729,16.8357 16.8357,6.7343 30.3043,10.1015 40.4057,16.8358 13.4686,3.3671 20.2029,10.1014 30.3043,13.4685 6.7343,3.3672 13.4686,10.1015 16.8357,16.8358 3.3672,6.7343 6.7343,13.4685 6.7343,23.57 0,13.4686 -6.7343,23.57 -16.8357,30.3043 -10.1014,6.7343 -20.2029,10.1014 -47.14,10.1014 -23.57,0 -57.2415,-3.3671 -80.8115,-10.1014 -23.57,-6.7343 -57.2414,-20.2029 -70.71,-30.3043 l -13.4686,87.5457 c 10.1014,3.3672 26.9372,10.1015 47.14,20.2029 20.2029,6.7343 47.1401,13.4686 80.8115,16.8357 l 0,63.9758 z"
         inkscape:connector-curvature="0"
         style="fill:#ffffff;fill-opacity:1" />
      <path
         id="path4924"
         d="m 2200.3219,-6873.4665 c 3.3672,10.1015 16.8358,10.1015 20.2029,0 l 171.7244,-333.3473 c 10.1014,-23.57 16.8357,-50.5071 16.8357,-80.8114 0,-111.1158 -87.5458,-198.6616 -198.6615,-198.6616 -111.1158,0 -198.6616,87.5458 -198.6616,198.6616 0,30.3043 6.7343,53.8743 16.8358,80.8114 l 171.7243,333.3473 z m 10.1015,-494.9702 c 47.14,0 84.1786,37.0386 84.1786,84.1786 0,47.14 -37.0386,84.1786 -84.1786,84.1786 -47.1401,0 -84.1786,-37.0386 -84.1786,-84.1786 0,-47.14 37.0385,-84.1786 84.1786,-84.1786 z"
         inkscape:connector-curvature="0"
         style="fill:#ffffff;fill-opacity:1" />
      <path
         id="path4926"
         d="m 3395.6583,-6344.8248 c 0,-57.2414 -43.7729,-101.0143 -101.0144,-101.0143 l -178.4586,0 c -57.2415,0 -101.0144,43.7729 -101.0144,101.0143 l 0,77.4444 c 0,57.2414 43.7729,101.0143 101.0144,101.0143 l 0,90.9129 c 0,3.3672 3.3671,3.3672 6.7342,3.3672 l 94.2801,-94.2801 77.4443,0 c 57.2415,0 101.0144,-43.7729 101.0144,-101.0143 l 0,-77.4444 z m -276.1059,70.7101 c -16.8357,0 -30.3043,-13.4686 -30.3043,-30.3043 0,-16.8357 13.4686,-30.3043 30.3043,-30.3043 16.8357,0 30.3043,13.4686 30.3043,30.3043 0,16.8357 -13.4686,30.3043 -30.3043,30.3043 z m 87.5458,0 c -16.8358,0 -30.3043,-13.4686 -30.3043,-30.3043 0,-16.8357 13.4685,-30.3043 30.3043,-30.3043 16.8357,0 30.3043,13.4686 30.3043,30.3043 -3.3672,16.8357 -16.8358,30.3043 -30.3043,30.3043 z m 84.1786,0 c -16.8357,0 -30.3043,-13.4686 -30.3043,-30.3043 0,-16.8357 13.4686,-30.3043 30.3043,-30.3043 16.8357,0 30.3043,13.4686 30.3043,30.3043 0,16.8357 -13.4686,30.3043 -30.3043,30.3043 z"
         inkscape:connector-curvature="0"
         style="fill:#ffffff;fill-opacity:1" />
      <path
         transform="matrix(33.671446,0,0,33.671446,813.05837,-8105.8414)"
         style="fill:#ffffff;fill-opacity:1"
         d="m 64.5,71.6 -4,-3.7 0,3.7 z"
         id="polygon4928" />
      <path
         id="path4930"
         d="m 2806.408,-5678.1301 0,-161.623 -205.3959,0 c -3.3671,0 -6.7342,3.3672 -6.7342,6.7343 l 0,528.6417 c 0,3.3672 3.3671,6.7343 6.7342,6.7343 l 400.6902,0 c 3.3672,0 6.7343,-3.3671 6.7343,-6.7343 l 0,-353.5502 -185.1929,0 c -6.7343,0 -16.8357,-10.1014 -16.8357,-20.2028 z m 151.5215,326.613 -309.7773,0 0,-43.7729 309.7773,0 0,43.7729 z m 0,-107.7486 -309.7773,0 0,-43.7729 309.7773,0 0,43.7729 z m 0,-104.3815 -309.7773,0 0,-43.7729 309.7773,0 0,43.7729 z"
         inkscape:connector-curvature="0"
         style="fill:#ffffff;fill-opacity:1" />
      <path
         id="path4932"
         d="m 2846.8137,-6806.1236 10.1014,10.1015 218.8644,218.8644 c 6.7343,6.7343 16.8357,6.7343 20.2029,0 l 218.8644,-218.8644 10.1014,-10.1015 c 63.9758,-63.9757 63.9758,-168.3572 0,-228.9658 -63.9757,-63.9757 -168.3572,-63.9757 -228.9658,0 l -10.1014,10.1014 -10.1015,-10.1014 c -63.9757,-63.9757 -168.3572,-63.9757 -228.9658,0 -63.9758,63.9758 -63.9758,164.9901 0,228.9658 z"
         inkscape:connector-curvature="0"
         style="fill:#ffffff;fill-opacity:1" />
      <path
         id="path4934"
         d="m 3513.5083,-7136.1037 c 57.2415,-20.2029 87.5458,-84.1786 63.9758,-141.4201 -20.2029,-57.2415 -84.1786,-87.5458 -141.4201,-63.9757 -57.2415,20.2028 -87.5458,84.1786 -63.9758,141.42 20.2029,57.2415 84.1787,87.5458 141.4201,63.9758 z"
         inkscape:connector-curvature="0"
         style="fill:#ffffff;fill-opacity:1" />
      <path
         id="path4936"
         d="m 930.05367,-5380.2295 c -37.0386,13.4686 -57.2414,57.2414 -43.7729,94.28 13.4686,37.0386 57.2415,57.2415 94.2801,43.7729 37.03863,-13.4686 57.24143,-57.2414 43.77293,-94.28 -13.4686,-40.4058 -57.24153,-57.2415 -94.28013,-43.7729 z"
         inkscape:connector-curvature="0"
         style="fill:#ffffff;fill-opacity:1" />
      <path
         id="path4938"
         d="m 2148.7068,-7902.8441 c -37.0386,13.4685 -57.2414,57.2414 -43.7728,94.28 13.4685,37.0386 57.2414,57.2415 94.28,43.7729 37.0386,-13.4686 57.2415,-57.2415 43.7729,-94.2801 -13.4686,-37.0386 -57.2415,-57.2414 -94.2801,-43.7728 z"
         inkscape:connector-curvature="0"
         style="fill:#ffffff;fill-opacity:1" />
      <path
         id="path4940"
         d="m 3349.4996,-5998.9902 c -37.0386,13.4685 -57.2414,57.2414 -43.7729,94.28 13.4686,37.0386 57.2415,57.2415 94.2801,43.7729 37.0386,-13.4686 57.2414,-57.2415 43.7729,-94.2801 -13.4686,-40.4057 -57.2415,-57.2414 -94.2801,-43.7728 z"
         inkscape:connector-curvature="0"
         style="fill:#ffffff;fill-opacity:1" />
      <path
         id="path4942"
         d="m 2954.4838,-7451.9 c -37.0386,13.4686 -57.2415,57.2415 -43.7729,94.2801 13.4686,37.0386 57.2415,57.2414 94.2801,43.7728 37.0385,-13.4685 57.2414,-57.2414 43.7728,-94.28 -13.4685,-37.0386 -53.8743,-57.2415 -94.28,-43.7729 z"
         inkscape:connector-curvature="0"
         style="fill:#ffffff;fill-opacity:1" />
      <path
         id="path4944"
         d="m 1753.285,-5294.8443 c -20.2029,-57.2414 -84.1786,-87.5458 -141.4201,-63.9757 -57.2414,20.2028 -87.5457,84.1786 -63.9757,141.42 20.2029,57.2415 84.1786,87.5458 141.4201,63.9758 57.2414,-20.2029 84.1785,-84.1786 63.9757,-141.4201 z"
         inkscape:connector-curvature="0"
         style="fill:#ffffff;fill-opacity:1" />
      <path
         id="path4946"
         d="m 3446.1654,-6610.8292 c 26.9372,77.4444 114.4829,114.4829 188.5601,87.5458 77.4443,-26.9372 114.4829,-114.4829 87.5458,-188.5601 -26.9372,-77.4443 -114.4829,-114.4829 -188.5601,-87.5458 -77.4443,26.9372 -117.8501,114.4829 -87.5458,188.5601 z"
         inkscape:connector-curvature="0"
         style="fill:#ffffff;fill-opacity:1" />
      <path
         id="path4948"
         d="m 3964.7057,-5237.0342 c -20.2029,-57.2414 -84.1786,-87.5457 -141.4201,-63.9757 -10.1014,3.3671 -16.8357,6.7343 -23.57,13.4685 l -942.8005,-777.8104 c -13.4686,13.4686 -23.57,30.3043 -37.0386,43.7729 l 942.8005,781.1776 c -13.4686,26.9371 -13.4686,57.2414 -3.3671,84.1786 20.2028,57.2414 84.1786,87.5457 141.42,63.9757 57.2415,-23.57 87.5458,-87.5457 63.9758,-144.7872 z"
         inkscape:connector-curvature="0"
         style="fill:#ffffff;fill-opacity:1" />
      <path
         transform="matrix(0.97401059,-0.22650246,0.22650246,0.97401059,0,0)"
         style="fill:#ffffff;fill-opacity:1"
         d="m 3464.7925,-6887.8784 a 111.11456,111.11456 0 0 1 -111.1145,111.1145 111.11456,111.11456 0 0 1 -111.1146,-111.1145 111.11456,111.11456 0 0 1 111.1146,-111.1146 111.11456,111.11456 0 0 1 111.1145,111.1146 z"
         id="ellipse4950" />
      <path
         id="path4952"
         d="m 2065.6362,-5769.043 158.2557,-195.2944 c -16.8357,-10.1014 -30.3043,-20.2029 -47.14,-33.6715 l -158.2558,191.9273 c -37.0386,-20.2029 -80.8114,-26.9372 -121.2172,-10.1015 -77.4443,26.9372 -114.4829,114.483 -87.5457,188.5601 26.9371,77.4444 114.4829,114.483 188.5601,87.5458 77.4443,-26.9372 114.4829,-114.4829 87.5457,-188.5601 -3.3671,-16.8357 -10.1014,-30.3043 -20.2028,-40.4057 z"
         inkscape:connector-curvature="0"
         style="fill:#ffffff;fill-opacity:1" />
      <path
         id="path4954"
         d="m 2920.8909,-6361.6605 c 0,-242.4344 -195.2944,-437.7288 -437.7288,-437.7288 -242.4344,0 -437.7288,195.2944 -437.7288,437.7288 0,242.4344 195.2944,437.7288 437.7288,437.7288 242.4344,0 437.7288,-195.2944 437.7288,-437.7288 z m -437.7288,-292.9416 c 87.5457,0 158.2558,70.7101 158.2558,158.2558 0,87.5458 -70.7101,158.2558 -158.2558,158.2558 -87.5458,0 -158.2558,-70.71 -158.2558,-158.2558 0,-87.5457 70.71,-158.2558 158.2558,-158.2558 z m 0,676.7961 c -101.0144,0 -195.2944,-40.4057 -262.6373,-104.3815 26.9372,-121.2172 134.6858,-208.7629 262.6373,-208.7629 127.9515,0 235.7001,90.9129 262.6373,208.7629 -67.3429,63.9758 -161.623,104.3815 -262.6373,104.3815 z"
         inkscape:connector-curvature="0"
         style="fill:#ffffff;fill-opacity:1" />
      <path
         id="path4956"
         d="m 2089.2062,-6627.6649 c 10.1014,-16.8357 23.57,-30.3043 33.6714,-43.7729 l -855.2547,-707.1003 c 20.2029,-37.0386 23.57,-80.8115 10.1014,-121.2172 -26.9371,-77.4444 -114.4829,-114.483 -188.5601,-87.5458 -77.4443,26.9372 -114.48289,114.4829 -87.5457,188.5601 26.9371,77.4443 114.4829,114.4829 188.5601,87.5458 16.8357,-6.7343 30.3043,-13.4686 40.4057,-23.5701 l 858.6219,707.1004 z"
         inkscape:connector-curvature="0"
         style="fill:#ffffff;fill-opacity:1" />
      <path
         id="path4958"
         d="m 2601.0121,-6819.5921 161.623,-963.0034 c 10.1014,0 20.2028,-3.3671 26.9371,-6.7343 57.2415,-20.2028 87.5458,-84.1786 63.9758,-141.42 -20.2029,-57.2415 -84.1786,-87.5458 -141.4201,-63.9758 -57.2414,20.2029 -87.5457,84.1786 -63.9757,141.4201 10.1014,30.3043 33.6714,50.5071 57.2414,60.6086 l -161.6229,959.6362 c 20.2029,3.3671 37.0386,6.7343 57.2414,13.4686 z"
         inkscape:connector-curvature="0"
         style="fill:#ffffff;fill-opacity:1" />
      <path
         id="path4960"
         d="m 2388.882,-5896.9945 -127.9515,760.9746 c -16.8357,0 -33.6714,3.3672 -47.14,10.1015 -77.4443,26.9371 -114.4829,114.4829 -87.5457,188.5601 26.9371,77.4443 114.4829,114.4829 188.5601,87.5457 77.4443,-26.9371 114.4829,-114.4829 87.5457,-188.5601 -16.8357,-40.4057 -47.14,-70.71 -84.1786,-84.1786 l 127.9515,-760.9746 c -20.2029,-6.7343 -40.4057,-10.1015 -57.2415,-13.4686 z"
         inkscape:connector-curvature="0"
         style="fill:#ffffff;fill-opacity:1" />
      <path
         id="path4936-7"
         d="m 3149.0598,-5255.273 c -28.2089,10.2581 -43.5955,43.5952 -33.3378,71.8044 10.2578,28.2092 43.5956,43.596 71.8046,33.3379 28.2089,-10.2581 43.5955,-43.5952 33.3378,-71.8044 -10.2578,-30.7736 -43.5956,-43.596 -71.8046,-33.3379 z"
         inkscape:connector-curvature="0"
         style="fill:#ffffff;fill-opacity:1" />
      <path
         id="path4936-7-0"
         d="m 1811.3433,-6418.988 c -28.2089,10.258 -43.5955,43.595 -33.3378,71.804 10.2578,28.209 43.5956,43.596 71.8046,33.338 28.2089,-10.258 43.5955,-43.595 33.3378,-71.805 -10.2578,-30.773 -43.5956,-43.596 -71.8046,-33.337 z"
         inkscape:connector-curvature="0"
         style="fill:#ffffff;fill-opacity:1" />
    </g>
    <g
       transform="matrix(0.3385449,0,0,0.3385449,2878.5971,-2103.6062)"
       style="font-style:normal;font-variant:normal;font-weight:normal;font-stretch:normal;font-size:772.48620605px;line-height:125%;font-family:FreeMono;-inkscape-font-specification:FreeMono;letter-spacing:0px;word-spacing:0px;fill:#ffffff;fill-opacity:1;stroke:none;stroke-width:1px;stroke-linecap:butt;stroke-linejoin:miter;stroke-opacity:1"
       id="flowRoot4138-3">
      <path
         d="m 93.471336,-9332.6824 -75.703648,-9.2698 q -0.772486,-6.9524 -0.772486,-20.0847 0,-67.2063 47.121658,-114.3279 47.12166,-47.8942 125.91525,-47.8942 78.02111,0 123.5978,44.8042 45.57668,44.0317 45.57668,108.9206 0,95.0158 -94.24332,154.4972 l -98.87823,63.3439 q -53.30155,33.9894 -61.02641,70.2962 l 257.23791,0 0,70.2963 -350.708742,0 q 1.544973,-63.3439 28.58199,-111.2381 27.809504,-47.8941 90.380882,-88.0634 l 83.42851,-54.074 q 68.75128,-44.0317 68.75128,-104.2857 0,-37.0793 -24.71956,-62.5713 -24.71956,-25.4921 -69.52376,-25.4921 -47.12166,0 -71.84122,28.582 -24.719556,28.582 -24.719556,74.1587 0,6.9524 1.544972,22.4021 z"
         style="font-style:normal;font-variant:normal;font-weight:normal;font-stretch:normal;line-height:100%;font-family:'Circular Std Book';-inkscape-font-specification:'Circular Std Book, ';fill:#ffffff;fill-opacity:1"
         id="path6354"
         inkscape:connector-curvature="0" />
      <path
         d="m 551.01251,-9424.6083 q -44.03171,46.3492 -44.03171,162.2221 0,115.873 44.03171,162.2221 30.89945,32.4445 79.56608,32.4445 48.66663,0 79.56608,-32.4445 44.03171,-46.3491 44.03171,-162.2221 0,-115.8729 -44.03171,-162.2221 -30.89945,-32.4444 -79.56608,-32.4444 -48.66663,0 -79.56608,32.4444 z m -74.15868,343.7564 q -44.8042,-66.4338 -44.8042,-181.5343 0,-115.1004 44.8042,-181.5342 53.30155,-80.3386 153.72476,-80.3386 100.42321,0 153.72475,80.3386 44.8042,66.4338 44.8042,181.5342 0,115.1005 -44.8042,181.5343 -53.30154,80.3386 -153.72475,80.3386 -100.42321,0 -153.72476,-80.3386 z"
         style="font-style:normal;font-variant:normal;font-weight:normal;font-stretch:normal;line-height:100%;font-family:'Circular Std Book';-inkscape-font-specification:'Circular Std Book, ';fill:#ffffff;fill-opacity:1"
         id="path6356"
         inkscape:connector-curvature="0" />
      <path
         d="m 1077.4015,-9012.1006 -74.1587,0 0,-353.0262 -121.28032,0 0,-53.3016 q 50.98409,-0.7725 85.74597,-26.2645 34.76185,-26.2645 43.25925,-67.9788 l 66.4338,0 0,500.5711 z"
         style="font-style:normal;font-variant:normal;font-weight:normal;font-stretch:normal;line-height:100%;font-family:'Circular Std Book';-inkscape-font-specification:'Circular Std Book, ';fill:#ffffff;fill-opacity:1"
         id="path6358"
         inkscape:connector-curvature="0" />
      <path
         d="m 1352.0325,-9299.4655 q 40.1692,-0.7725 66.4338,-23.1746 26.2645,-22.4021 26.2645,-58.7089 0,-33.9894 -25.492,-57.164 -25.4921,-23.1746 -67.2063,-23.1746 -41.7143,0 -67.2063,23.1746 -25.4921,23.1746 -25.4921,57.164 0,36.3068 26.2646,58.7089 26.2645,22.4021 66.4338,23.1746 z m -77.2487,209.3438 q 28.582,23.947 77.2487,23.947 48.6666,0 76.4761,-23.947 28.582,-23.9471 28.582,-60.254 0,-37.0793 -28.582,-61.0264 -27.8095,-24.7195 -76.4761,-24.7195 -48.6667,0 -77.2487,24.7195 -27.8095,23.9471 -27.8095,61.0264 0,36.3069 27.8095,60.254 z m 210.1163,49.4391 q -48.6666,40.1693 -132.8676,40.1693 -84.201,0 -132.8677,-40.1693 -48.6666,-40.9418 -48.6666,-103.5132 0,-44.0317 26.2645,-76.4761 27.0371,-33.2169 68.7513,-47.1217 -35.5344,-13.1322 -58.7089,-44.8042 -23.1746,-32.4444 -23.1746,-72.6137 0,-61.0264 47.8941,-99.6507 47.8942,-39.3968 120.5079,-39.3968 72.6137,0 120.5078,39.3968 47.8942,38.6243 47.8942,99.6507 0,39.3968 -23.1746,71.8412 -23.1746,32.4445 -58.709,45.5767 41.7143,13.1323 67.9788,46.3492 27.037,33.2169 27.037,77.2486 0,62.5714 -48.6666,103.5132 z"
         style="font-style:normal;font-variant:normal;font-weight:normal;font-stretch:normal;line-height:100%;font-family:'Circular Std Book';-inkscape-font-specification:'Circular Std Book, ';fill:#ffffff;fill-opacity:1"
         id="path6360"
         inkscape:connector-curvature="0" />
    </g>
    <g
       id="g4907"
       transform="matrix(2.0023916,0,0,2.0023916,-7265.8868,12632.116)">
      <path
         inkscape:connector-curvature="0"
         style="fill:#ffffff;fill-opacity:1"
         d="m 6341.2552,-8364.3905 c -15.4193,-5.4977 -24.3416,-20.3838 -21.5255,-35.9135 2.5011,-13.7931 11.9914,-23.5121 25.8641,-26.4872 5.6726,-1.2166 14.1249,-0.5768 19.1143,1.4468 l 3.7704,1.5292 0,7.5364 0,7.5365 -3.109,-2.7297 c -7.6382,-6.7065 -18.9108,-6.7082 -26.5271,0 -7.8532,6.9127 -9.88,17.297 -5.1851,26.5662 5.9601,11.7669 20.9244,14.7621 31.906,6.3861 l 2.9152,-2.2234 0,7.1907 0,7.1907 -3.3268,1.4673 c -5.1465,2.2698 -18.1784,2.5469 -23.8965,0.5081 z"
         id="path11499" />
      <path
         inkscape:connector-curvature="0"
         style="fill:#ffffff;fill-opacity:1"
         d="m 6421.7085,-8427.0951 c -7.239,0 -9.1317,0.3286 -13.4142,2.3288 -9.5177,4.4453 -15.5114,11.8229 -18.2493,22.4619 -4.1621,16.1734 5.4959,32.732 22.3483,38.3173 5.2258,1.7319 17.5737,1.0302 22.8182,-1.2975 4.8268,-2.1423 11.5571,-8.036 14.5121,-12.7073 10.2452,-16.1956 3.3519,-38.3929 -14.5135,-46.7342 -4.3786,-2.0444 -6.2269,-2.369 -13.5016,-2.369 z m 0,11.1103 c 11.7438,0 20.7664,9.0301 20.793,20.8096 0.02,8.7775 -4.9307,16.2679 -13.0718,19.7783 -3.8397,1.6556 -12.9512,1.2757 -16.6815,-0.6959 -6.8867,-3.6399 -11.6774,-11.4692 -11.6774,-19.0824 0,-11.5114 9.2212,-20.8096 20.6377,-20.8096 z"
         id="path11497" />
      <path
         inkscape:connector-curvature="0"
         style="fill:#ffffff;fill-opacity:1"
         d="m 6576.8018,-8427.0466 c -0.7571,-0.01 -1.5855,0 -2.5007,0 -6.8156,0.057 -9.2591,0.4574 -12.7711,2.0945 -6.1795,2.8807 -11.3987,8.6119 -13.9396,15.3078 -2.8477,7.5048 -3.0135,20.9239 -0.3479,28.1412 2.9533,7.9961 10.5411,15.127 19.0741,17.9263 1.2198,0.4002 5.6743,0.6177 9.8988,0.4838 6.7057,-0.2127 8.4337,-0.6256 13.6083,-3.2521 3.3362,-1.6933 7.281,-4.5801 9.0255,-6.6052 5.2752,-6.1236 5.2746,-6.1995 -0.115,-9.0213 l -4.8018,-2.5146 -4.3222,4.5093 c -5.107,5.3265 -9.0764,6.8765 -16.2767,6.3557 -6.0817,-0.4399 -10.6354,-3.4765 -13.8218,-9.2168 -2.5386,-4.5735 -3.6002,-10.1158 -1.9434,-10.1456 0.6642,-0.012 11.188,-0.1117 23.3865,-0.2218 l 22.1792,-0.1996 -0.1026,-5.323 c -0.219,-11.35 -6.4231,-21.88 -15.3605,-26.0716 -3.7563,-1.7617 -5.5696,-2.208 -10.8691,-2.2512 z m -2.1847,9.6105 c 3.9406,-0.087 7.7133,1.4576 11.2185,4.6243 3.4187,3.0887 5.965,8.3382 4.8891,10.0791 -0.7237,1.1711 -32.0864,1.2293 -32.8085,0.061 -1.1591,-1.8755 3.3858,-9.1509 7.2471,-11.5997 3.2217,-2.0431 6.389,-3.0972 9.4538,-3.1646 z"
         id="path11493" />
      <path
         inkscape:connector-curvature="0"
         style="fill:#ffffff;fill-opacity:1"
         d="m 6653.7024,-8427.1131 c -9.5092,0 -16.4831,2.6248 -22.6269,8.5154 -9.9776,9.5664 -12.6777,24.6506 -6.7397,37.6574 3.6849,8.0713 10.5186,13.9913 19.5787,16.9587 2.1648,0.709 6.5551,1.0675 11.1187,0.9094 6.4553,-0.2238 8.405,-0.6879 13.5417,-3.2243 6.733,-3.3247 10.9615,-7.5126 14.5703,-14.4303 2.2106,-4.2374 2.4482,-5.5877 2.4702,-14.0048 0.022,-8.5399 -0.1925,-9.7583 -2.5866,-14.6382 -5.6911,-11.6002 -15.8447,-17.7433 -29.3264,-17.7433 z m -0.5669,11.1838 c 0.556,0 1.1224,0.013 1.698,0.046 7.3985,0.418 12.592,3.5515 16.5831,10.0069 2.34,3.7848 2.6906,5.1795 2.6906,10.7015 0,5.5177 -0.3511,6.9184 -2.6823,10.6889 -1.4753,2.3864 -4.3958,5.5418 -6.4888,7.0128 -3.2431,2.2794 -4.7461,2.711 -10.1802,2.9221 -3.9953,0.1552 -7.3703,-0.2031 -9.038,-0.9606 -10.9225,-4.9615 -15.7854,-17.8658 -10.7541,-28.5349 3.6932,-7.8317 9.8303,-11.8408 18.1717,-11.8825 z"
         id="path11489" />
      <path
         inkscape:connector-curvature="0"
         style="fill:#ffffff;fill-opacity:1"
         d="m 6498.3218,-8364.7896 c -0.4331,-0.6099 -3.4917,-6.6981 -6.797,-13.5293 -3.3052,-6.8311 -9.7368,-20.0055 -14.2925,-29.2764 -4.5555,-9.2709 -8.1094,-17.1556 -7.8975,-17.5216 0.212,-0.3659 3.0914,-0.6653 6.3989,-0.6653 l 6.0135,0 3.8083,8.2063 c 2.0946,4.5134 4.7141,10.2024 5.821,12.6421 1.107,2.4397 3.2379,7.1306 4.7354,10.4242 1.4975,3.2936 2.9494,5.9883 3.2265,5.9883 0.2771,0 1.2389,-1.6967 2.1374,-3.7704 2.3991,-5.5375 6.7491,-15.0251 11.3893,-24.8407 l 4.089,-8.6498 5.9029,0 c 3.2465,0 6.1219,0.219 6.3895,0.4867 0.2677,0.2677 -1.9111,5.3578 -4.8417,11.3113 -2.9307,5.9536 -9.6546,19.7074 -14.942,30.5641 -5.2875,10.8567 -9.7801,19.7395 -9.9836,19.7395 -0.2035,0 -0.7244,-0.499 -1.1574,-1.109 z"
         id="path11485" />
      <path
         inkscape:connector-curvature="0"
         style="fill:#f58020;fill-opacity:1"
         d="m 6548.5732,-8464.8403 0,-28.4121 2.8833,1.4845 c 2.717,1.399 17.1527,9.7565 37.7045,21.8292 5.0014,2.938 9.0935,5.4536 9.0935,5.5904 0,0.228 -3.6753,2.3639 -14.1481,8.2222 -2.1701,1.214 -5.8805,3.348 -8.2453,4.7424 -2.3648,1.3943 -4.4155,2.5352 -4.5571,2.5352 -0.1416,0 -5.1523,2.7945 -11.135,6.2101 -5.9827,3.4156 -11.0393,6.2102 -11.2367,6.2102 -0.1975,0 -0.3591,-12.7855 -0.3591,-28.4121 z"
         id="path11481" />
    </g>
    <g
       style="font-style:normal;font-variant:normal;font-weight:normal;font-stretch:normal;font-size:109.75089264px;line-height:125%;font-family:FreeMono;-inkscape-font-specification:FreeMono;letter-spacing:0px;word-spacing:0px;fill:#ffffff;fill-opacity:1;stroke:none;stroke-width:1px;stroke-linecap:butt;stroke-linejoin:miter;stroke-opacity:1"
       id="text4948">
      <path
         d="m 3807.9166,-4073.3256 -22.9654,0 0,-165.6964 22.4715,0 0,18.5204 q 5.1857,-9.3837 15.5572,-15.3102 10.3715,-5.9266 24.2001,-5.9266 25.6817,0 40.0042,17.5327 14.5694,17.5327 14.5694,44.4491 0,27.1634 -15.0633,44.943 -14.8164,17.7797 -40.2511,17.7797 -13.0878,0 -23.2124,-5.4327 -10.1245,-5.4327 -15.3102,-13.8286 l 0,62.9696 z m 70.1308,-106.431 q 0,-18.0265 -9.6306,-29.6327 -9.3837,-11.8531 -25.4348,-11.8531 -15.8041,0 -25.6817,11.8531 -9.6306,11.6062 -9.6306,29.6327 0,18.5205 9.6306,30.3736 9.8776,11.6062 25.6817,11.6062 15.8041,0 25.4348,-11.6062 9.6306,-11.8531 9.6306,-30.3736 z"
         style="font-style:normal;font-variant:normal;font-weight:normal;font-stretch:normal;font-size:246.9394989px;font-family:'Circular Std Book';-inkscape-font-specification:'Circular Std Book, ';text-align:end;text-anchor:end;fill:#ffffff"
         id="path5014" />
      <path
         d="m 3997.5044,-4240.2567 0,24.6939 q -5.1857,-0.7408 -10.1245,-0.7408 -32.596,0 -32.596,36.547 l 0,59.5125 -23.2123,0 0,-118.7779 22.7184,0 0,20.7429 q 10.8653,-22.7185 35.5593,-22.7185 3.951,0 7.6551,0.7409 z"
         style="font-style:normal;font-variant:normal;font-weight:normal;font-stretch:normal;font-size:246.9394989px;font-family:'Circular Std Book';-inkscape-font-specification:'Circular Std Book, ';text-align:end;text-anchor:end;fill:#ffffff"
         id="path5016" />
      <path
         d="m 4035.8611,-4191.8566 64.9451,0 q -0.4939,-13.3347 -8.8899,-21.7307 -8.3959,-8.6429 -23.7062,-8.6429 -13.8286,0 -22.7184,9.1368 -8.8898,8.8898 -9.6306,21.2368 z m 68.4022,30.8674 20.0021,6.9143 q -5.1857,16.545 -19.2613,27.1634 -14.0755,10.3715 -34.0776,10.3715 -24.9409,0 -42.4736,-17.0389 -17.2858,-17.2857 -17.2858,-46.4246 0,-27.1633 16.7919,-44.943 16.7919,-17.7796 40.0042,-17.7796 26.9164,0 41.9797,17.0388 15.0633,16.7919 15.0633,45.1899 0,4.4449 -0.4939,7.4082 l -89.3921,0 q 0.247,15.8041 10.3715,25.9287 10.3715,10.1245 25.4348,10.1245 25.4347,0 33.3368,-23.9532 z m 4.198,-129.3963 -31.1144,36.0532 -19.5082,0 21.4837,-36.0532 29.1389,0 z"
         style="font-style:normal;font-variant:normal;font-weight:normal;font-stretch:normal;font-size:246.9394989px;font-family:'Circular Std Book';-inkscape-font-specification:'Circular Std Book, ';text-align:end;text-anchor:end;fill:#ffffff"
         id="path5018" />
      <path
         d="m 4143.7659,-4151.1116 20.9898,-7.4082 q 1.2347,9.6307 8.396,16.0511 7.1612,6.1735 19.2613,6.1735 9.3837,0 14.8163,-4.4449 5.4327,-4.6919 5.4327,-11.3592 0,-11.8531 -15.3102,-15.3103 l -20.2491,-4.4449 q -13.8286,-2.9633 -21.7307,-11.8531 -7.902,-8.8898 -7.902,-21.4837 0,-15.3103 12.347,-26.4226 12.5939,-11.1122 29.8796,-11.1122 11.3593,0 20.2491,3.4571 8.8898,3.2102 13.8286,8.6429 4.9388,5.4327 7.4082,10.1245 2.4694,4.6919 3.7041,9.6307 l -20.496,7.6551 q -0.4939,-2.9633 -1.7286,-5.6796 -1.2347,-2.9633 -3.951,-6.4204 -2.4694,-3.4572 -7.4082,-5.4327 -4.9388,-2.2225 -11.6062,-2.2225 -8.6428,0 -14.3225,4.6919 -5.4326,4.6918 -5.4326,11.1123 0,11.3592 13.5816,14.3224 l 19.2613,4.198 q 15.8042,3.4572 24.2001,12.8409 8.6429,9.1367 8.6429,22.4715 0,14.0755 -11.6062,25.4347 -11.3592,11.3593 -31.8552,11.3593 -21.9776,0 -34.3246,-10.8654 -12.3469,-11.1123 -14.0755,-23.7062 z"
         style="font-style:normal;font-variant:normal;font-weight:normal;font-stretch:normal;font-size:246.9394989px;font-family:'Circular Std Book';-inkscape-font-specification:'Circular Std Book, ';text-align:end;text-anchor:end;fill:#ffffff"
         id="path5020" />
      <path
         d="m 4279.9067,-4191.8566 64.9451,0 q -0.4938,-13.3347 -8.8898,-21.7307 -8.3959,-8.6429 -23.7062,-8.6429 -13.8286,0 -22.7184,9.1368 -8.8898,8.8898 -9.6307,21.2368 z m 68.4023,30.8674 20.0021,6.9143 q -5.1857,16.545 -19.2613,27.1634 -14.0755,10.3715 -34.0776,10.3715 -24.9409,0 -42.4736,-17.0389 -17.2858,-17.2857 -17.2858,-46.4246 0,-27.1633 16.7919,-44.943 16.7919,-17.7796 40.0042,-17.7796 26.9164,0 41.9797,17.0388 15.0633,16.7919 15.0633,45.1899 0,4.4449 -0.4939,7.4082 l -89.3921,0 q 0.247,15.8041 10.3715,25.9287 10.3714,10.1245 25.4348,10.1245 25.4347,0 33.3368,-23.9532 z"
         style="font-style:normal;font-variant:normal;font-weight:normal;font-stretch:normal;font-size:246.9394989px;font-family:'Circular Std Book';-inkscape-font-specification:'Circular Std Book, ';text-align:end;text-anchor:end;fill:#ffffff"
         id="path5022" />
      <path
         d="m 4422.1362,-4188.8933 0,68.6492 -23.2123,0 0,-118.7779 22.7184,0 0,17.0388 q 11.8531,-20.496 36.5471,-20.496 20.4959,0 31.3613,13.0878 11.1123,13.0878 11.1123,33.8307 l 0,75.3166 -23.2124,0 0,-71.3656 q 0,-29.8796 -27.6572,-29.8796 -13.0878,0 -20.496,9.3837 -7.1612,9.1367 -7.1612,23.2123 z"
         style="font-style:normal;font-variant:normal;font-weight:normal;font-stretch:normal;font-size:246.9394989px;font-family:'Circular Std Book';-inkscape-font-specification:'Circular Std Book, ';text-align:end;text-anchor:end;fill:#ffffff"
         id="path5024" />
      <path
         d="m 4568.9417,-4276.5568 0,37.5348 25.6817,0 0,20.9898 -25.6817,0 0,61.7349 q 0,8.3959 3.7041,12.347 3.951,3.951 12.8408,3.951 5.1858,0 9.1368,-0.9878 l 0,19.7552 q -5.9265,2.2225 -15.8041,2.2225 -15.3103,0 -24.2001,-8.8899 -8.8898,-8.8898 -8.8898,-24.9409 l 0,-65.192 -22.7184,0 0,-20.9898 6.4204,0 q 9.1367,0 13.5817,-4.9388 4.6918,-5.1858 4.6918,-13.3348 l 0,-19.2612 21.2368,0 z"
         style="font-style:normal;font-variant:normal;font-weight:normal;font-stretch:normal;font-size:246.9394989px;font-family:'Circular Std Book';-inkscape-font-specification:'Circular Std Book, ';text-align:end;text-anchor:end;fill:#ffffff"
         id="path5026" />
      <path
         d="m 4639.223,-4191.8566 64.9451,0 q -0.4939,-13.3347 -8.8898,-21.7307 -8.3959,-8.6429 -23.7062,-8.6429 -13.8286,0 -22.7184,9.1368 -8.8899,8.8898 -9.6307,21.2368 z m 68.4023,30.8674 20.0021,6.9143 q -5.1858,16.545 -19.2613,27.1634 -14.0756,10.3715 -34.0777,10.3715 -24.9408,0 -42.4736,-17.0389 -17.2857,-17.2857 -17.2857,-46.4246 0,-27.1633 16.7919,-44.943 16.7919,-17.7796 40.0042,-17.7796 26.9164,0 41.9797,17.0388 15.0633,16.7919 15.0633,45.1899 0,4.4449 -0.4939,7.4082 l -89.3921,0 q 0.247,15.8041 10.3715,25.9287 10.3714,10.1245 25.4347,10.1245 25.4348,0 33.3369,-23.9532 z m 4.1979,-129.3963 -31.1143,36.0532 -19.5083,0 21.4838,-36.0532 29.1388,0 z"
         style="font-style:normal;font-variant:normal;font-weight:normal;font-stretch:normal;font-size:246.9394989px;font-family:'Circular Std Book';-inkscape-font-specification:'Circular Std Book, ';text-align:end;text-anchor:end;fill:#ffffff"
         id="path5028" />
      <path
         d="m 4773.3034,-4191.8566 64.9451,0 q -0.4939,-13.3347 -8.8898,-21.7307 -8.396,-8.6429 -23.7062,-8.6429 -13.8286,0 -22.7184,9.1368 -8.8899,8.8898 -9.6307,21.2368 z m 68.4023,30.8674 20.0021,6.9143 q -5.1858,16.545 -19.2613,27.1634 -14.0756,10.3715 -34.0777,10.3715 -24.9409,0 -42.4736,-17.0389 -17.2857,-17.2857 -17.2857,-46.4246 0,-27.1633 16.7919,-44.943 16.7918,-17.7796 40.0041,-17.7796 26.9165,0 41.9798,17.0388 15.0633,16.7919 15.0633,45.1899 0,4.4449 -0.4939,7.4082 l -89.3921,0 q 0.2469,15.8041 10.3715,25.9287 10.3714,10.1245 25.4347,10.1245 25.4348,0 33.3369,-23.9532 z"
         style="font-style:normal;font-variant:normal;font-weight:normal;font-stretch:normal;font-size:246.9394989px;font-family:'Circular Std Book';-inkscape-font-specification:'Circular Std Book, ';text-align:end;text-anchor:end;fill:#ffffff"
         id="path5030" />
      <path
         d="m 4977.0208,-4073.3256 -22.9653,0 0,-165.6964 22.4715,0 0,18.5204 q 5.1857,-9.3837 15.5572,-15.3102 10.3714,-5.9266 24.2,-5.9266 25.6817,0 40.0042,17.5327 14.5695,17.5327 14.5695,44.4491 0,27.1634 -15.0634,44.943 -14.8163,17.7797 -40.2511,17.7797 -13.0878,0 -23.2123,-5.4327 -10.1245,-5.4327 -15.3103,-13.8286 l 0,62.9696 z m 70.1309,-106.431 q 0,-18.0265 -9.6307,-29.6327 -9.3837,-11.8531 -25.4347,-11.8531 -15.8042,0 -25.6818,11.8531 -9.6306,11.6062 -9.6306,29.6327 0,18.5205 9.6306,30.3736 9.8776,11.6062 25.6818,11.6062 15.8041,0 25.4347,-11.6062 9.6307,-11.8531 9.6307,-30.3736 z"
         style="font-style:normal;font-variant:normal;font-weight:normal;font-stretch:normal;font-size:246.9394989px;font-family:'Circular Std Book';-inkscape-font-specification:'Circular Std Book, ';text-align:end;text-anchor:end;fill:#ffffff"
         id="path5032" />
      <path
         d="m 5093.2675,-4152.0993 q 0,-15.3103 9.8776,-24.447 9.8776,-9.3837 26.1756,-11.6062 l 32.1021,-4.6919 q 9.1368,-1.2347 9.1368,-8.8898 0,-9.3837 -6.4204,-15.3102 -6.4205,-5.9266 -19.2613,-5.9266 -11.8531,0 -18.7674,6.6674 -6.9143,6.4204 -8.149,17.2858 l -22.2246,-5.1858 q 1.7286,-17.0388 15.5572,-27.6572 13.8286,-10.8653 33.0899,-10.8653 25.1878,0 37.2879,12.3469 12.1,12.1001 12.1,31.1144 l 0,59.5124 q 0,10.6184 1.4816,19.5083 l -22.7184,0 q -1.2347,-7.4082 -1.2347,-16.0511 -4.9388,7.9021 -14.5694,13.8286 -9.3837,5.9266 -23.7062,5.9266 -17.5327,0 -28.645,-10.3715 -11.1123,-10.6184 -11.1123,-25.1878 z m 42.9675,16.051 q 15.5572,0 24.9409,-8.3959 9.3837,-8.396 9.3837,-26.6695 l 0,-5.4326 -36.3001,5.4326 q -7.9021,1.2347 -12.5939,5.6796 -4.6919,4.4449 -4.6919,12.1001 0,6.9143 5.1857,12.1 5.4327,5.1857 14.0756,5.1857 z"
         style="font-style:normal;font-variant:normal;font-weight:normal;font-stretch:normal;font-size:246.9394989px;font-family:'Circular Std Book';-inkscape-font-specification:'Circular Std Book, ';text-align:end;text-anchor:end;fill:#ffffff"
         id="path5034" />
      <path
         d="m 5295.866,-4240.2567 0,24.6939 q -5.1857,-0.7408 -10.1245,-0.7408 -32.596,0 -32.596,36.547 l 0,59.5125 -23.2123,0 0,-118.7779 22.7184,0 0,20.7429 q 10.8653,-22.7185 35.5593,-22.7185 3.951,0 7.6551,0.7409 z"
         style="font-style:normal;font-variant:normal;font-weight:normal;font-stretch:normal;font-size:246.9394989px;font-family:'Circular Std Book';-inkscape-font-specification:'Circular Std Book, ';text-align:end;text-anchor:end;fill:#ffffff"
         id="path5036" />
    </g>
  </g>
</svg>
